G04 #@! TF.GenerationSoftware,KiCad,Pcbnew,(5.1.4)-1*
G04 #@! TF.CreationDate,2020-04-03T20:38:11+08:00*
G04 #@! TF.ProjectId,SmartAPS,536d6172-7441-4505-932e-6b696361645f,1.0*
G04 #@! TF.SameCoordinates,PX5f5e100PY7bfa480*
G04 #@! TF.FileFunction,Legend,Bot*
G04 #@! TF.FilePolarity,Positive*
%FSLAX46Y46*%
G04 Gerber Fmt 4.6, Leading zero omitted, Abs format (unit mm)*
G04 Created by KiCad (PCBNEW (5.1.4)-1) date 2020-04-03 20:38:11*
%MOMM*%
%LPD*%
G04 APERTURE LIST*
%ADD10C,0.150000*%
%ADD11C,0.120000*%
%ADD12C,0.200000*%
G04 APERTURE END LIST*
D10*
X28750000Y25490000D02*
X28750000Y32500000D01*
X28750000Y58990000D02*
X28750000Y52400000D01*
X28750000Y58990000D02*
X129250000Y58990000D01*
X129250000Y58990000D02*
X129250000Y25490000D01*
X129250000Y25490000D02*
X28750000Y25490000D01*
X126490000Y18535000D02*
X125710000Y18535000D01*
X126890000Y15865000D02*
X126890000Y16600000D01*
X125310000Y15865000D02*
X125310000Y16600000D01*
X125310000Y17400000D02*
X125310000Y18135000D01*
X125710000Y15465000D02*
X126490000Y15465000D01*
X126890000Y17400000D02*
X126890000Y18135000D01*
X125710000Y18535000D02*
G75*
G03X125310000Y18135000I0J-400000D01*
G01*
X126890000Y18135000D02*
G75*
G03X126490000Y18535000I-400000J0D01*
G01*
X126490000Y15465000D02*
G75*
G03X126890000Y15865000I0J400000D01*
G01*
X125310000Y15865000D02*
G75*
G03X125710000Y15465000I400000J0D01*
G01*
X7665000Y12190000D02*
X7665000Y11410000D01*
X10335000Y12590000D02*
X9600000Y12590000D01*
X10335000Y11010000D02*
X9600000Y11010000D01*
X8800000Y11010000D02*
X8065000Y11010000D01*
X10735000Y11410000D02*
X10735000Y12190000D01*
X8800000Y12590000D02*
X8065000Y12590000D01*
X7665000Y11410000D02*
G75*
G03X8065000Y11010000I400000J0D01*
G01*
X8065000Y12590000D02*
G75*
G03X7665000Y12190000I0J-400000D01*
G01*
X10735000Y12190000D02*
G75*
G03X10335000Y12590000I-400000J0D01*
G01*
X10335000Y11010000D02*
G75*
G03X10735000Y11410000I0J400000D01*
G01*
X11390000Y45535000D02*
X10610000Y45535000D01*
X11790000Y42865000D02*
X11790000Y43600000D01*
X10210000Y42865000D02*
X10210000Y43600000D01*
X10210000Y44400000D02*
X10210000Y45135000D01*
X10610000Y42465000D02*
X11390000Y42465000D01*
X11790000Y44400000D02*
X11790000Y45135000D01*
X10610000Y45535000D02*
G75*
G03X10210000Y45135000I0J-400000D01*
G01*
X11790000Y45135000D02*
G75*
G03X11390000Y45535000I-400000J0D01*
G01*
X11390000Y42465000D02*
G75*
G03X11790000Y42865000I0J400000D01*
G01*
X10210000Y42865000D02*
G75*
G03X10610000Y42465000I400000J0D01*
G01*
X77910000Y8465000D02*
X78690000Y8465000D01*
X77510000Y11135000D02*
X77510000Y10400000D01*
X79090000Y11135000D02*
X79090000Y10400000D01*
X79090000Y9600000D02*
X79090000Y8865000D01*
X78690000Y11535000D02*
X77910000Y11535000D01*
X77510000Y9600000D02*
X77510000Y8865000D01*
X78690000Y8465000D02*
G75*
G03X79090000Y8865000I0J400000D01*
G01*
X77510000Y8865000D02*
G75*
G03X77910000Y8465000I400000J0D01*
G01*
X77910000Y11535000D02*
G75*
G03X77510000Y11135000I0J-400000D01*
G01*
X79090000Y11135000D02*
G75*
G03X78690000Y11535000I-400000J0D01*
G01*
X117310000Y8465000D02*
X118090000Y8465000D01*
X116910000Y11135000D02*
X116910000Y10400000D01*
X118490000Y11135000D02*
X118490000Y10400000D01*
X118490000Y9600000D02*
X118490000Y8865000D01*
X118090000Y11535000D02*
X117310000Y11535000D01*
X116910000Y9600000D02*
X116910000Y8865000D01*
X118090000Y8465000D02*
G75*
G03X118490000Y8865000I0J400000D01*
G01*
X116910000Y8865000D02*
G75*
G03X117310000Y8465000I400000J0D01*
G01*
X117310000Y11535000D02*
G75*
G03X116910000Y11135000I0J-400000D01*
G01*
X118490000Y11135000D02*
G75*
G03X118090000Y11535000I-400000J0D01*
G01*
X25000000Y9500000D02*
X25000000Y10500000D01*
X25500000Y10000000D02*
X24500000Y10000000D01*
D11*
X35200000Y10000000D02*
G75*
G03X35200000Y10000000I-4700000J0D01*
G01*
X67570000Y13230000D02*
X74030000Y13230000D01*
X67570000Y8700000D02*
X67570000Y11300000D01*
X67570000Y6770000D02*
X74030000Y6770000D01*
X74030000Y8700000D02*
X74030000Y11300000D01*
X67570000Y6800000D02*
X67570000Y6770000D01*
X67570000Y13230000D02*
X67570000Y13200000D01*
X74030000Y13230000D02*
X74030000Y13200000D01*
X74030000Y6770000D02*
X74030000Y6800000D01*
X106970000Y13230000D02*
X113430000Y13230000D01*
X106970000Y8700000D02*
X106970000Y11300000D01*
X106970000Y6770000D02*
X113430000Y6770000D01*
X113430000Y8700000D02*
X113430000Y11300000D01*
X106970000Y6800000D02*
X106970000Y6770000D01*
X106970000Y13230000D02*
X106970000Y13200000D01*
X113430000Y13230000D02*
X113430000Y13200000D01*
X113430000Y6770000D02*
X113430000Y6800000D01*
X21230000Y40770000D02*
X14770000Y40770000D01*
X21230000Y45300000D02*
X21230000Y42700000D01*
X21230000Y47230000D02*
X14770000Y47230000D01*
X14770000Y45300000D02*
X14770000Y42700000D01*
X21230000Y47200000D02*
X21230000Y47230000D01*
X21230000Y40770000D02*
X21230000Y40800000D01*
X14770000Y40770000D02*
X14770000Y40800000D01*
X14770000Y47230000D02*
X14770000Y47200000D01*
D10*
X121200000Y15000000D02*
X124800000Y15000000D01*
X124800000Y15000000D02*
X124800000Y19000000D01*
X124800000Y19000000D02*
X121200000Y19000000D01*
X121200000Y19000000D02*
X121200000Y15000000D01*
X121023607Y19300000D02*
G75*
G03X121023607Y19300000I-223607J0D01*
G01*
X15900000Y8000000D02*
X15900000Y11000000D01*
X15700000Y8000000D02*
X15900000Y8000000D01*
X13900000Y8000000D02*
X14100000Y8000000D01*
X13900000Y11000000D02*
X13900000Y8000000D01*
D12*
X10735000Y10290000D02*
X9600000Y10290000D01*
X7665000Y8710000D02*
X7665000Y10290000D01*
X10735000Y8710000D02*
X10735000Y10290000D01*
X8800000Y10290000D02*
X7665000Y10290000D01*
X10735000Y8710000D02*
X9600000Y8710000D01*
X8800000Y8710000D02*
X7665000Y8710000D01*
D10*
X58300000Y49400000D02*
X58700000Y49400000D01*
X58700000Y49400000D02*
X58700000Y54400000D01*
X58300000Y54400000D02*
X58700000Y54400000D01*
X54500000Y49400000D02*
X54900000Y49400000D01*
X54500000Y49400000D02*
X54500000Y54400000D01*
X54500000Y54400000D02*
X54900000Y54400000D01*
X54500000Y51100000D02*
X58700000Y51100000D01*
X63500000Y50900000D02*
X59300000Y50900000D01*
X59300000Y48300000D02*
X59800000Y48300000D01*
X59300000Y55500000D02*
X59300000Y48300000D01*
X59800000Y55500000D02*
X59300000Y55500000D01*
X63500000Y55500000D02*
X63000000Y55500000D01*
X63500000Y48300000D02*
X63500000Y55500000D01*
X63000000Y48300000D02*
X63500000Y48300000D01*
X63600000Y47400000D02*
X63600000Y48000000D01*
X63900000Y47700000D02*
X63300000Y47700000D01*
X127985714Y17514286D02*
X128023809Y17552381D01*
X128061904Y17666667D01*
X128061904Y17742858D01*
X128023809Y17857143D01*
X127947619Y17933334D01*
X127871428Y17971429D01*
X127719047Y18009524D01*
X127604761Y18009524D01*
X127452380Y17971429D01*
X127376190Y17933334D01*
X127300000Y17857143D01*
X127261904Y17742858D01*
X127261904Y17666667D01*
X127300000Y17552381D01*
X127338095Y17514286D01*
X127338095Y17209524D02*
X127300000Y17171429D01*
X127261904Y17095239D01*
X127261904Y16904762D01*
X127300000Y16828572D01*
X127338095Y16790477D01*
X127414285Y16752381D01*
X127490476Y16752381D01*
X127604761Y16790477D01*
X128061904Y17247620D01*
X128061904Y16752381D01*
X127261904Y16028572D02*
X127261904Y16409524D01*
X127642857Y16447620D01*
X127604761Y16409524D01*
X127566666Y16333334D01*
X127566666Y16142858D01*
X127604761Y16066667D01*
X127642857Y16028572D01*
X127719047Y15990477D01*
X127909523Y15990477D01*
X127985714Y16028572D01*
X128023809Y16066667D01*
X128061904Y16142858D01*
X128061904Y16333334D01*
X128023809Y16409524D01*
X127985714Y16447620D01*
X6814285Y11514286D02*
X6852380Y11476191D01*
X6966666Y11438096D01*
X7042857Y11438096D01*
X7157142Y11476191D01*
X7233333Y11552381D01*
X7271428Y11628572D01*
X7309523Y11780953D01*
X7309523Y11895239D01*
X7271428Y12047620D01*
X7233333Y12123810D01*
X7157142Y12200000D01*
X7042857Y12238096D01*
X6966666Y12238096D01*
X6852380Y12200000D01*
X6814285Y12161905D01*
X6509523Y12161905D02*
X6471428Y12200000D01*
X6395238Y12238096D01*
X6204761Y12238096D01*
X6128571Y12200000D01*
X6090476Y12161905D01*
X6052380Y12085715D01*
X6052380Y12009524D01*
X6090476Y11895239D01*
X6547619Y11438096D01*
X6052380Y11438096D01*
X5785714Y12238096D02*
X5290476Y12238096D01*
X5557142Y11933334D01*
X5442857Y11933334D01*
X5366666Y11895239D01*
X5328571Y11857143D01*
X5290476Y11780953D01*
X5290476Y11590477D01*
X5328571Y11514286D01*
X5366666Y11476191D01*
X5442857Y11438096D01*
X5671428Y11438096D01*
X5747619Y11476191D01*
X5785714Y11514286D01*
X9785714Y44514286D02*
X9823809Y44552381D01*
X9861904Y44666667D01*
X9861904Y44742858D01*
X9823809Y44857143D01*
X9747619Y44933334D01*
X9671428Y44971429D01*
X9519047Y45009524D01*
X9404761Y45009524D01*
X9252380Y44971429D01*
X9176190Y44933334D01*
X9100000Y44857143D01*
X9061904Y44742858D01*
X9061904Y44666667D01*
X9100000Y44552381D01*
X9138095Y44514286D01*
X9138095Y44209524D02*
X9100000Y44171429D01*
X9061904Y44095239D01*
X9061904Y43904762D01*
X9100000Y43828572D01*
X9138095Y43790477D01*
X9214285Y43752381D01*
X9290476Y43752381D01*
X9404761Y43790477D01*
X9861904Y44247620D01*
X9861904Y43752381D01*
X9138095Y43447620D02*
X9100000Y43409524D01*
X9061904Y43333334D01*
X9061904Y43142858D01*
X9100000Y43066667D01*
X9138095Y43028572D01*
X9214285Y42990477D01*
X9290476Y42990477D01*
X9404761Y43028572D01*
X9861904Y43485715D01*
X9861904Y42990477D01*
X80185714Y10514286D02*
X80223809Y10552381D01*
X80261904Y10666667D01*
X80261904Y10742858D01*
X80223809Y10857143D01*
X80147619Y10933334D01*
X80071428Y10971429D01*
X79919047Y11009524D01*
X79804761Y11009524D01*
X79652380Y10971429D01*
X79576190Y10933334D01*
X79500000Y10857143D01*
X79461904Y10742858D01*
X79461904Y10666667D01*
X79500000Y10552381D01*
X79538095Y10514286D01*
X79538095Y10209524D02*
X79500000Y10171429D01*
X79461904Y10095239D01*
X79461904Y9904762D01*
X79500000Y9828572D01*
X79538095Y9790477D01*
X79614285Y9752381D01*
X79690476Y9752381D01*
X79804761Y9790477D01*
X80261904Y10247620D01*
X80261904Y9752381D01*
X80261904Y8990477D02*
X80261904Y9447620D01*
X80261904Y9219048D02*
X79461904Y9219048D01*
X79576190Y9295239D01*
X79652380Y9371429D01*
X79690476Y9447620D01*
X119585714Y10514286D02*
X119623809Y10552381D01*
X119661904Y10666667D01*
X119661904Y10742858D01*
X119623809Y10857143D01*
X119547619Y10933334D01*
X119471428Y10971429D01*
X119319047Y11009524D01*
X119204761Y11009524D01*
X119052380Y10971429D01*
X118976190Y10933334D01*
X118900000Y10857143D01*
X118861904Y10742858D01*
X118861904Y10666667D01*
X118900000Y10552381D01*
X118938095Y10514286D01*
X118938095Y10209524D02*
X118900000Y10171429D01*
X118861904Y10095239D01*
X118861904Y9904762D01*
X118900000Y9828572D01*
X118938095Y9790477D01*
X119014285Y9752381D01*
X119090476Y9752381D01*
X119204761Y9790477D01*
X119661904Y10247620D01*
X119661904Y9752381D01*
X118861904Y9257143D02*
X118861904Y9180953D01*
X118900000Y9104762D01*
X118938095Y9066667D01*
X119014285Y9028572D01*
X119166666Y8990477D01*
X119357142Y8990477D01*
X119509523Y9028572D01*
X119585714Y9066667D01*
X119623809Y9104762D01*
X119661904Y9180953D01*
X119661904Y9257143D01*
X119623809Y9333334D01*
X119585714Y9371429D01*
X119509523Y9409524D01*
X119357142Y9447620D01*
X119166666Y9447620D01*
X119014285Y9409524D01*
X118938095Y9371429D01*
X118900000Y9333334D01*
X118861904Y9257143D01*
X31204761Y4657143D02*
X31090476Y4619048D01*
X31052380Y4580953D01*
X31014285Y4504762D01*
X31014285Y4390477D01*
X31052380Y4314286D01*
X31090476Y4276191D01*
X31166666Y4238096D01*
X31471428Y4238096D01*
X31471428Y5038096D01*
X31204761Y5038096D01*
X31128571Y5000000D01*
X31090476Y4961905D01*
X31052380Y4885715D01*
X31052380Y4809524D01*
X31090476Y4733334D01*
X31128571Y4695239D01*
X31204761Y4657143D01*
X31471428Y4657143D01*
X30747619Y5038096D02*
X30214285Y5038096D01*
X30747619Y4238096D01*
X30214285Y4238096D01*
X29490476Y4238096D02*
X29947619Y4238096D01*
X29719047Y4238096D02*
X29719047Y5038096D01*
X29795238Y4923810D01*
X29871428Y4847620D01*
X29947619Y4809524D01*
X71409523Y5626191D02*
X71295238Y5588096D01*
X71104761Y5588096D01*
X71028571Y5626191D01*
X70990476Y5664286D01*
X70952380Y5740477D01*
X70952380Y5816667D01*
X70990476Y5892858D01*
X71028571Y5930953D01*
X71104761Y5969048D01*
X71257142Y6007143D01*
X71333333Y6045239D01*
X71371428Y6083334D01*
X71409523Y6159524D01*
X71409523Y6235715D01*
X71371428Y6311905D01*
X71333333Y6350000D01*
X71257142Y6388096D01*
X71066666Y6388096D01*
X70952380Y6350000D01*
X70685714Y6388096D02*
X70190476Y6388096D01*
X70457142Y6083334D01*
X70342857Y6083334D01*
X70266666Y6045239D01*
X70228571Y6007143D01*
X70190476Y5930953D01*
X70190476Y5740477D01*
X70228571Y5664286D01*
X70266666Y5626191D01*
X70342857Y5588096D01*
X70571428Y5588096D01*
X70647619Y5626191D01*
X70685714Y5664286D01*
X110809523Y5626191D02*
X110695238Y5588096D01*
X110504761Y5588096D01*
X110428571Y5626191D01*
X110390476Y5664286D01*
X110352380Y5740477D01*
X110352380Y5816667D01*
X110390476Y5892858D01*
X110428571Y5930953D01*
X110504761Y5969048D01*
X110657142Y6007143D01*
X110733333Y6045239D01*
X110771428Y6083334D01*
X110809523Y6159524D01*
X110809523Y6235715D01*
X110771428Y6311905D01*
X110733333Y6350000D01*
X110657142Y6388096D01*
X110466666Y6388096D01*
X110352380Y6350000D01*
X110047619Y6311905D02*
X110009523Y6350000D01*
X109933333Y6388096D01*
X109742857Y6388096D01*
X109666666Y6350000D01*
X109628571Y6311905D01*
X109590476Y6235715D01*
X109590476Y6159524D01*
X109628571Y6045239D01*
X110085714Y5588096D01*
X109590476Y5588096D01*
X18609523Y47726191D02*
X18495238Y47688096D01*
X18304761Y47688096D01*
X18228571Y47726191D01*
X18190476Y47764286D01*
X18152380Y47840477D01*
X18152380Y47916667D01*
X18190476Y47992858D01*
X18228571Y48030953D01*
X18304761Y48069048D01*
X18457142Y48107143D01*
X18533333Y48145239D01*
X18571428Y48183334D01*
X18609523Y48259524D01*
X18609523Y48335715D01*
X18571428Y48411905D01*
X18533333Y48450000D01*
X18457142Y48488096D01*
X18266666Y48488096D01*
X18152380Y48450000D01*
X17390476Y47688096D02*
X17847619Y47688096D01*
X17619047Y47688096D02*
X17619047Y48488096D01*
X17695238Y48373810D01*
X17771428Y48297620D01*
X17847619Y48259524D01*
X119961904Y17609524D02*
X120609523Y17609524D01*
X120685714Y17571429D01*
X120723809Y17533334D01*
X120761904Y17457143D01*
X120761904Y17304762D01*
X120723809Y17228572D01*
X120685714Y17190477D01*
X120609523Y17152381D01*
X119961904Y17152381D01*
X119961904Y16847620D02*
X119961904Y16314286D01*
X120761904Y16657143D01*
X14976190Y13061905D02*
X15052380Y13100000D01*
X15128571Y13176191D01*
X15242857Y13290477D01*
X15319047Y13328572D01*
X15395238Y13328572D01*
X15357142Y13138096D02*
X15433333Y13176191D01*
X15509523Y13252381D01*
X15547619Y13404762D01*
X15547619Y13671429D01*
X15509523Y13823810D01*
X15433333Y13900000D01*
X15357142Y13938096D01*
X15204761Y13938096D01*
X15128571Y13900000D01*
X15052380Y13823810D01*
X15014285Y13671429D01*
X15014285Y13404762D01*
X15052380Y13252381D01*
X15128571Y13176191D01*
X15204761Y13138096D01*
X15357142Y13138096D01*
X14747619Y13938096D02*
X14214285Y13938096D01*
X14557142Y13138096D01*
X6714285Y9138096D02*
X6980952Y9519048D01*
X7171428Y9138096D02*
X7171428Y9938096D01*
X6866666Y9938096D01*
X6790476Y9900000D01*
X6752380Y9861905D01*
X6714285Y9785715D01*
X6714285Y9671429D01*
X6752380Y9595239D01*
X6790476Y9557143D01*
X6866666Y9519048D01*
X7171428Y9519048D01*
X5952380Y9138096D02*
X6409523Y9138096D01*
X6180952Y9138096D02*
X6180952Y9938096D01*
X6257142Y9823810D01*
X6333333Y9747620D01*
X6409523Y9709524D01*
X5685714Y9938096D02*
X5152380Y9938096D01*
X5495238Y9138096D01*
X54161904Y52490477D02*
X53361904Y52490477D01*
X53361904Y52300000D01*
X53400000Y52185715D01*
X53476190Y52109524D01*
X53552380Y52071429D01*
X53704761Y52033334D01*
X53819047Y52033334D01*
X53971428Y52071429D01*
X54047619Y52109524D01*
X54123809Y52185715D01*
X54161904Y52300000D01*
X54161904Y52490477D01*
X54161904Y51271429D02*
X54161904Y51728572D01*
X54161904Y51500000D02*
X53361904Y51500000D01*
X53476190Y51576191D01*
X53552380Y51652381D01*
X53590476Y51728572D01*
X64585714Y52033334D02*
X64623809Y52071429D01*
X64661904Y52185715D01*
X64661904Y52261905D01*
X64623809Y52376191D01*
X64547619Y52452381D01*
X64471428Y52490477D01*
X64319047Y52528572D01*
X64204761Y52528572D01*
X64052380Y52490477D01*
X63976190Y52452381D01*
X63900000Y52376191D01*
X63861904Y52261905D01*
X63861904Y52185715D01*
X63900000Y52071429D01*
X63938095Y52033334D01*
X64661904Y51271429D02*
X64661904Y51728572D01*
X64661904Y51500000D02*
X63861904Y51500000D01*
X63976190Y51576191D01*
X64052380Y51652381D01*
X64090476Y51728572D01*
M02*
