G04 #@! TF.GenerationSoftware,KiCad,Pcbnew,(5.1.4)-1*
G04 #@! TF.CreationDate,2020-04-03T20:38:11+08:00*
G04 #@! TF.ProjectId,SmartAPS,536d6172-7441-4505-932e-6b696361645f,1.0*
G04 #@! TF.SameCoordinates,PX5f5e100PY7bfa480*
G04 #@! TF.FileFunction,Paste,Bot*
G04 #@! TF.FilePolarity,Positive*
%FSLAX46Y46*%
G04 Gerber Fmt 4.6, Leading zero omitted, Abs format (unit mm)*
G04 Created by KiCad (PCBNEW (5.1.4)-1) date 2020-04-03 20:38:11*
%MOMM*%
%LPD*%
G04 APERTURE LIST*
%ADD10C,0.100000*%
%ADD11C,1.200000*%
%ADD12R,0.980000X0.930000*%
%ADD13R,0.930000X0.980000*%
%ADD14R,1.900000X1.300000*%
%ADD15R,0.400000X0.700000*%
%ADD16C,1.000000*%
%ADD17R,1.000000X1.100000*%
%ADD18R,0.800000X1.100000*%
%ADD19R,2.743000X2.159000*%
%ADD20R,2.895600X2.400300*%
G04 APERTURE END LIST*
D10*
G36*
X29999405Y34198555D02*
G01*
X30028527Y34194236D01*
X30057085Y34187082D01*
X30084805Y34177164D01*
X30111419Y34164576D01*
X30136671Y34149441D01*
X30160318Y34131903D01*
X30182132Y34112132D01*
X30201903Y34090318D01*
X30219441Y34066671D01*
X30234576Y34041419D01*
X30247164Y34014805D01*
X30257082Y33987085D01*
X30264236Y33958527D01*
X30268555Y33929405D01*
X30270000Y33900000D01*
X30270000Y33300000D01*
X30268555Y33270595D01*
X30264236Y33241473D01*
X30257082Y33212915D01*
X30247164Y33185195D01*
X30234576Y33158581D01*
X30219441Y33133329D01*
X30201903Y33109682D01*
X30182132Y33087868D01*
X30160318Y33068097D01*
X30136671Y33050559D01*
X30111419Y33035424D01*
X30084805Y33022836D01*
X30057085Y33012918D01*
X30028527Y33005764D01*
X29999405Y33001445D01*
X29970000Y33000000D01*
X28070000Y33000000D01*
X28040595Y33001445D01*
X28011473Y33005764D01*
X27982915Y33012918D01*
X27955195Y33022836D01*
X27928581Y33035424D01*
X27903329Y33050559D01*
X27879682Y33068097D01*
X27857868Y33087868D01*
X27838097Y33109682D01*
X27820559Y33133329D01*
X27805424Y33158581D01*
X27792836Y33185195D01*
X27782918Y33212915D01*
X27775764Y33241473D01*
X27771445Y33270595D01*
X27770000Y33300000D01*
X27770000Y33900000D01*
X27771445Y33929405D01*
X27775764Y33958527D01*
X27782918Y33987085D01*
X27792836Y34014805D01*
X27805424Y34041419D01*
X27820559Y34066671D01*
X27838097Y34090318D01*
X27857868Y34112132D01*
X27879682Y34131903D01*
X27903329Y34149441D01*
X27928581Y34164576D01*
X27955195Y34177164D01*
X27982915Y34187082D01*
X28011473Y34194236D01*
X28040595Y34198555D01*
X28070000Y34200000D01*
X29970000Y34200000D01*
X29999405Y34198555D01*
X29999405Y34198555D01*
G37*
D11*
X29020000Y33600000D03*
D10*
G36*
X35499405Y34198555D02*
G01*
X35528527Y34194236D01*
X35557085Y34187082D01*
X35584805Y34177164D01*
X35611419Y34164576D01*
X35636671Y34149441D01*
X35660318Y34131903D01*
X35682132Y34112132D01*
X35701903Y34090318D01*
X35719441Y34066671D01*
X35734576Y34041419D01*
X35747164Y34014805D01*
X35757082Y33987085D01*
X35764236Y33958527D01*
X35768555Y33929405D01*
X35770000Y33900000D01*
X35770000Y33300000D01*
X35768555Y33270595D01*
X35764236Y33241473D01*
X35757082Y33212915D01*
X35747164Y33185195D01*
X35734576Y33158581D01*
X35719441Y33133329D01*
X35701903Y33109682D01*
X35682132Y33087868D01*
X35660318Y33068097D01*
X35636671Y33050559D01*
X35611419Y33035424D01*
X35584805Y33022836D01*
X35557085Y33012918D01*
X35528527Y33005764D01*
X35499405Y33001445D01*
X35470000Y33000000D01*
X33570000Y33000000D01*
X33540595Y33001445D01*
X33511473Y33005764D01*
X33482915Y33012918D01*
X33455195Y33022836D01*
X33428581Y33035424D01*
X33403329Y33050559D01*
X33379682Y33068097D01*
X33357868Y33087868D01*
X33338097Y33109682D01*
X33320559Y33133329D01*
X33305424Y33158581D01*
X33292836Y33185195D01*
X33282918Y33212915D01*
X33275764Y33241473D01*
X33271445Y33270595D01*
X33270000Y33300000D01*
X33270000Y33900000D01*
X33271445Y33929405D01*
X33275764Y33958527D01*
X33282918Y33987085D01*
X33292836Y34014805D01*
X33305424Y34041419D01*
X33320559Y34066671D01*
X33338097Y34090318D01*
X33357868Y34112132D01*
X33379682Y34131903D01*
X33403329Y34149441D01*
X33428581Y34164576D01*
X33455195Y34177164D01*
X33482915Y34187082D01*
X33511473Y34194236D01*
X33540595Y34198555D01*
X33570000Y34200000D01*
X35470000Y34200000D01*
X35499405Y34198555D01*
X35499405Y34198555D01*
G37*
D11*
X34520000Y33600000D03*
D10*
G36*
X35499405Y36738555D02*
G01*
X35528527Y36734236D01*
X35557085Y36727082D01*
X35584805Y36717164D01*
X35611419Y36704576D01*
X35636671Y36689441D01*
X35660318Y36671903D01*
X35682132Y36652132D01*
X35701903Y36630318D01*
X35719441Y36606671D01*
X35734576Y36581419D01*
X35747164Y36554805D01*
X35757082Y36527085D01*
X35764236Y36498527D01*
X35768555Y36469405D01*
X35770000Y36440000D01*
X35770000Y35840000D01*
X35768555Y35810595D01*
X35764236Y35781473D01*
X35757082Y35752915D01*
X35747164Y35725195D01*
X35734576Y35698581D01*
X35719441Y35673329D01*
X35701903Y35649682D01*
X35682132Y35627868D01*
X35660318Y35608097D01*
X35636671Y35590559D01*
X35611419Y35575424D01*
X35584805Y35562836D01*
X35557085Y35552918D01*
X35528527Y35545764D01*
X35499405Y35541445D01*
X35470000Y35540000D01*
X33570000Y35540000D01*
X33540595Y35541445D01*
X33511473Y35545764D01*
X33482915Y35552918D01*
X33455195Y35562836D01*
X33428581Y35575424D01*
X33403329Y35590559D01*
X33379682Y35608097D01*
X33357868Y35627868D01*
X33338097Y35649682D01*
X33320559Y35673329D01*
X33305424Y35698581D01*
X33292836Y35725195D01*
X33282918Y35752915D01*
X33275764Y35781473D01*
X33271445Y35810595D01*
X33270000Y35840000D01*
X33270000Y36440000D01*
X33271445Y36469405D01*
X33275764Y36498527D01*
X33282918Y36527085D01*
X33292836Y36554805D01*
X33305424Y36581419D01*
X33320559Y36606671D01*
X33338097Y36630318D01*
X33357868Y36652132D01*
X33379682Y36671903D01*
X33403329Y36689441D01*
X33428581Y36704576D01*
X33455195Y36717164D01*
X33482915Y36727082D01*
X33511473Y36734236D01*
X33540595Y36738555D01*
X33570000Y36740000D01*
X35470000Y36740000D01*
X35499405Y36738555D01*
X35499405Y36738555D01*
G37*
D11*
X34520000Y36140000D03*
D10*
G36*
X29999405Y36738555D02*
G01*
X30028527Y36734236D01*
X30057085Y36727082D01*
X30084805Y36717164D01*
X30111419Y36704576D01*
X30136671Y36689441D01*
X30160318Y36671903D01*
X30182132Y36652132D01*
X30201903Y36630318D01*
X30219441Y36606671D01*
X30234576Y36581419D01*
X30247164Y36554805D01*
X30257082Y36527085D01*
X30264236Y36498527D01*
X30268555Y36469405D01*
X30270000Y36440000D01*
X30270000Y35840000D01*
X30268555Y35810595D01*
X30264236Y35781473D01*
X30257082Y35752915D01*
X30247164Y35725195D01*
X30234576Y35698581D01*
X30219441Y35673329D01*
X30201903Y35649682D01*
X30182132Y35627868D01*
X30160318Y35608097D01*
X30136671Y35590559D01*
X30111419Y35575424D01*
X30084805Y35562836D01*
X30057085Y35552918D01*
X30028527Y35545764D01*
X29999405Y35541445D01*
X29970000Y35540000D01*
X28070000Y35540000D01*
X28040595Y35541445D01*
X28011473Y35545764D01*
X27982915Y35552918D01*
X27955195Y35562836D01*
X27928581Y35575424D01*
X27903329Y35590559D01*
X27879682Y35608097D01*
X27857868Y35627868D01*
X27838097Y35649682D01*
X27820559Y35673329D01*
X27805424Y35698581D01*
X27792836Y35725195D01*
X27782918Y35752915D01*
X27775764Y35781473D01*
X27771445Y35810595D01*
X27770000Y35840000D01*
X27770000Y36440000D01*
X27771445Y36469405D01*
X27775764Y36498527D01*
X27782918Y36527085D01*
X27792836Y36554805D01*
X27805424Y36581419D01*
X27820559Y36606671D01*
X27838097Y36630318D01*
X27857868Y36652132D01*
X27879682Y36671903D01*
X27903329Y36689441D01*
X27928581Y36704576D01*
X27955195Y36717164D01*
X27982915Y36727082D01*
X28011473Y36734236D01*
X28040595Y36738555D01*
X28070000Y36740000D01*
X29970000Y36740000D01*
X29999405Y36738555D01*
X29999405Y36738555D01*
G37*
D11*
X29020000Y36140000D03*
D10*
G36*
X35499405Y39278555D02*
G01*
X35528527Y39274236D01*
X35557085Y39267082D01*
X35584805Y39257164D01*
X35611419Y39244576D01*
X35636671Y39229441D01*
X35660318Y39211903D01*
X35682132Y39192132D01*
X35701903Y39170318D01*
X35719441Y39146671D01*
X35734576Y39121419D01*
X35747164Y39094805D01*
X35757082Y39067085D01*
X35764236Y39038527D01*
X35768555Y39009405D01*
X35770000Y38980000D01*
X35770000Y38380000D01*
X35768555Y38350595D01*
X35764236Y38321473D01*
X35757082Y38292915D01*
X35747164Y38265195D01*
X35734576Y38238581D01*
X35719441Y38213329D01*
X35701903Y38189682D01*
X35682132Y38167868D01*
X35660318Y38148097D01*
X35636671Y38130559D01*
X35611419Y38115424D01*
X35584805Y38102836D01*
X35557085Y38092918D01*
X35528527Y38085764D01*
X35499405Y38081445D01*
X35470000Y38080000D01*
X33570000Y38080000D01*
X33540595Y38081445D01*
X33511473Y38085764D01*
X33482915Y38092918D01*
X33455195Y38102836D01*
X33428581Y38115424D01*
X33403329Y38130559D01*
X33379682Y38148097D01*
X33357868Y38167868D01*
X33338097Y38189682D01*
X33320559Y38213329D01*
X33305424Y38238581D01*
X33292836Y38265195D01*
X33282918Y38292915D01*
X33275764Y38321473D01*
X33271445Y38350595D01*
X33270000Y38380000D01*
X33270000Y38980000D01*
X33271445Y39009405D01*
X33275764Y39038527D01*
X33282918Y39067085D01*
X33292836Y39094805D01*
X33305424Y39121419D01*
X33320559Y39146671D01*
X33338097Y39170318D01*
X33357868Y39192132D01*
X33379682Y39211903D01*
X33403329Y39229441D01*
X33428581Y39244576D01*
X33455195Y39257164D01*
X33482915Y39267082D01*
X33511473Y39274236D01*
X33540595Y39278555D01*
X33570000Y39280000D01*
X35470000Y39280000D01*
X35499405Y39278555D01*
X35499405Y39278555D01*
G37*
D11*
X34520000Y38680000D03*
D10*
G36*
X29999405Y39278555D02*
G01*
X30028527Y39274236D01*
X30057085Y39267082D01*
X30084805Y39257164D01*
X30111419Y39244576D01*
X30136671Y39229441D01*
X30160318Y39211903D01*
X30182132Y39192132D01*
X30201903Y39170318D01*
X30219441Y39146671D01*
X30234576Y39121419D01*
X30247164Y39094805D01*
X30257082Y39067085D01*
X30264236Y39038527D01*
X30268555Y39009405D01*
X30270000Y38980000D01*
X30270000Y38380000D01*
X30268555Y38350595D01*
X30264236Y38321473D01*
X30257082Y38292915D01*
X30247164Y38265195D01*
X30234576Y38238581D01*
X30219441Y38213329D01*
X30201903Y38189682D01*
X30182132Y38167868D01*
X30160318Y38148097D01*
X30136671Y38130559D01*
X30111419Y38115424D01*
X30084805Y38102836D01*
X30057085Y38092918D01*
X30028527Y38085764D01*
X29999405Y38081445D01*
X29970000Y38080000D01*
X28070000Y38080000D01*
X28040595Y38081445D01*
X28011473Y38085764D01*
X27982915Y38092918D01*
X27955195Y38102836D01*
X27928581Y38115424D01*
X27903329Y38130559D01*
X27879682Y38148097D01*
X27857868Y38167868D01*
X27838097Y38189682D01*
X27820559Y38213329D01*
X27805424Y38238581D01*
X27792836Y38265195D01*
X27782918Y38292915D01*
X27775764Y38321473D01*
X27771445Y38350595D01*
X27770000Y38380000D01*
X27770000Y38980000D01*
X27771445Y39009405D01*
X27775764Y39038527D01*
X27782918Y39067085D01*
X27792836Y39094805D01*
X27805424Y39121419D01*
X27820559Y39146671D01*
X27838097Y39170318D01*
X27857868Y39192132D01*
X27879682Y39211903D01*
X27903329Y39229441D01*
X27928581Y39244576D01*
X27955195Y39257164D01*
X27982915Y39267082D01*
X28011473Y39274236D01*
X28040595Y39278555D01*
X28070000Y39280000D01*
X29970000Y39280000D01*
X29999405Y39278555D01*
X29999405Y39278555D01*
G37*
D11*
X29020000Y38680000D03*
D10*
G36*
X35499405Y41818555D02*
G01*
X35528527Y41814236D01*
X35557085Y41807082D01*
X35584805Y41797164D01*
X35611419Y41784576D01*
X35636671Y41769441D01*
X35660318Y41751903D01*
X35682132Y41732132D01*
X35701903Y41710318D01*
X35719441Y41686671D01*
X35734576Y41661419D01*
X35747164Y41634805D01*
X35757082Y41607085D01*
X35764236Y41578527D01*
X35768555Y41549405D01*
X35770000Y41520000D01*
X35770000Y40920000D01*
X35768555Y40890595D01*
X35764236Y40861473D01*
X35757082Y40832915D01*
X35747164Y40805195D01*
X35734576Y40778581D01*
X35719441Y40753329D01*
X35701903Y40729682D01*
X35682132Y40707868D01*
X35660318Y40688097D01*
X35636671Y40670559D01*
X35611419Y40655424D01*
X35584805Y40642836D01*
X35557085Y40632918D01*
X35528527Y40625764D01*
X35499405Y40621445D01*
X35470000Y40620000D01*
X33570000Y40620000D01*
X33540595Y40621445D01*
X33511473Y40625764D01*
X33482915Y40632918D01*
X33455195Y40642836D01*
X33428581Y40655424D01*
X33403329Y40670559D01*
X33379682Y40688097D01*
X33357868Y40707868D01*
X33338097Y40729682D01*
X33320559Y40753329D01*
X33305424Y40778581D01*
X33292836Y40805195D01*
X33282918Y40832915D01*
X33275764Y40861473D01*
X33271445Y40890595D01*
X33270000Y40920000D01*
X33270000Y41520000D01*
X33271445Y41549405D01*
X33275764Y41578527D01*
X33282918Y41607085D01*
X33292836Y41634805D01*
X33305424Y41661419D01*
X33320559Y41686671D01*
X33338097Y41710318D01*
X33357868Y41732132D01*
X33379682Y41751903D01*
X33403329Y41769441D01*
X33428581Y41784576D01*
X33455195Y41797164D01*
X33482915Y41807082D01*
X33511473Y41814236D01*
X33540595Y41818555D01*
X33570000Y41820000D01*
X35470000Y41820000D01*
X35499405Y41818555D01*
X35499405Y41818555D01*
G37*
D11*
X34520000Y41220000D03*
D10*
G36*
X29999405Y41818555D02*
G01*
X30028527Y41814236D01*
X30057085Y41807082D01*
X30084805Y41797164D01*
X30111419Y41784576D01*
X30136671Y41769441D01*
X30160318Y41751903D01*
X30182132Y41732132D01*
X30201903Y41710318D01*
X30219441Y41686671D01*
X30234576Y41661419D01*
X30247164Y41634805D01*
X30257082Y41607085D01*
X30264236Y41578527D01*
X30268555Y41549405D01*
X30270000Y41520000D01*
X30270000Y40920000D01*
X30268555Y40890595D01*
X30264236Y40861473D01*
X30257082Y40832915D01*
X30247164Y40805195D01*
X30234576Y40778581D01*
X30219441Y40753329D01*
X30201903Y40729682D01*
X30182132Y40707868D01*
X30160318Y40688097D01*
X30136671Y40670559D01*
X30111419Y40655424D01*
X30084805Y40642836D01*
X30057085Y40632918D01*
X30028527Y40625764D01*
X29999405Y40621445D01*
X29970000Y40620000D01*
X28070000Y40620000D01*
X28040595Y40621445D01*
X28011473Y40625764D01*
X27982915Y40632918D01*
X27955195Y40642836D01*
X27928581Y40655424D01*
X27903329Y40670559D01*
X27879682Y40688097D01*
X27857868Y40707868D01*
X27838097Y40729682D01*
X27820559Y40753329D01*
X27805424Y40778581D01*
X27792836Y40805195D01*
X27782918Y40832915D01*
X27775764Y40861473D01*
X27771445Y40890595D01*
X27770000Y40920000D01*
X27770000Y41520000D01*
X27771445Y41549405D01*
X27775764Y41578527D01*
X27782918Y41607085D01*
X27792836Y41634805D01*
X27805424Y41661419D01*
X27820559Y41686671D01*
X27838097Y41710318D01*
X27857868Y41732132D01*
X27879682Y41751903D01*
X27903329Y41769441D01*
X27928581Y41784576D01*
X27955195Y41797164D01*
X27982915Y41807082D01*
X28011473Y41814236D01*
X28040595Y41818555D01*
X28070000Y41820000D01*
X29970000Y41820000D01*
X29999405Y41818555D01*
X29999405Y41818555D01*
G37*
D11*
X29020000Y41220000D03*
D10*
G36*
X35499405Y44358555D02*
G01*
X35528527Y44354236D01*
X35557085Y44347082D01*
X35584805Y44337164D01*
X35611419Y44324576D01*
X35636671Y44309441D01*
X35660318Y44291903D01*
X35682132Y44272132D01*
X35701903Y44250318D01*
X35719441Y44226671D01*
X35734576Y44201419D01*
X35747164Y44174805D01*
X35757082Y44147085D01*
X35764236Y44118527D01*
X35768555Y44089405D01*
X35770000Y44060000D01*
X35770000Y43460000D01*
X35768555Y43430595D01*
X35764236Y43401473D01*
X35757082Y43372915D01*
X35747164Y43345195D01*
X35734576Y43318581D01*
X35719441Y43293329D01*
X35701903Y43269682D01*
X35682132Y43247868D01*
X35660318Y43228097D01*
X35636671Y43210559D01*
X35611419Y43195424D01*
X35584805Y43182836D01*
X35557085Y43172918D01*
X35528527Y43165764D01*
X35499405Y43161445D01*
X35470000Y43160000D01*
X33570000Y43160000D01*
X33540595Y43161445D01*
X33511473Y43165764D01*
X33482915Y43172918D01*
X33455195Y43182836D01*
X33428581Y43195424D01*
X33403329Y43210559D01*
X33379682Y43228097D01*
X33357868Y43247868D01*
X33338097Y43269682D01*
X33320559Y43293329D01*
X33305424Y43318581D01*
X33292836Y43345195D01*
X33282918Y43372915D01*
X33275764Y43401473D01*
X33271445Y43430595D01*
X33270000Y43460000D01*
X33270000Y44060000D01*
X33271445Y44089405D01*
X33275764Y44118527D01*
X33282918Y44147085D01*
X33292836Y44174805D01*
X33305424Y44201419D01*
X33320559Y44226671D01*
X33338097Y44250318D01*
X33357868Y44272132D01*
X33379682Y44291903D01*
X33403329Y44309441D01*
X33428581Y44324576D01*
X33455195Y44337164D01*
X33482915Y44347082D01*
X33511473Y44354236D01*
X33540595Y44358555D01*
X33570000Y44360000D01*
X35470000Y44360000D01*
X35499405Y44358555D01*
X35499405Y44358555D01*
G37*
D11*
X34520000Y43760000D03*
D10*
G36*
X29999405Y44358555D02*
G01*
X30028527Y44354236D01*
X30057085Y44347082D01*
X30084805Y44337164D01*
X30111419Y44324576D01*
X30136671Y44309441D01*
X30160318Y44291903D01*
X30182132Y44272132D01*
X30201903Y44250318D01*
X30219441Y44226671D01*
X30234576Y44201419D01*
X30247164Y44174805D01*
X30257082Y44147085D01*
X30264236Y44118527D01*
X30268555Y44089405D01*
X30270000Y44060000D01*
X30270000Y43460000D01*
X30268555Y43430595D01*
X30264236Y43401473D01*
X30257082Y43372915D01*
X30247164Y43345195D01*
X30234576Y43318581D01*
X30219441Y43293329D01*
X30201903Y43269682D01*
X30182132Y43247868D01*
X30160318Y43228097D01*
X30136671Y43210559D01*
X30111419Y43195424D01*
X30084805Y43182836D01*
X30057085Y43172918D01*
X30028527Y43165764D01*
X29999405Y43161445D01*
X29970000Y43160000D01*
X28070000Y43160000D01*
X28040595Y43161445D01*
X28011473Y43165764D01*
X27982915Y43172918D01*
X27955195Y43182836D01*
X27928581Y43195424D01*
X27903329Y43210559D01*
X27879682Y43228097D01*
X27857868Y43247868D01*
X27838097Y43269682D01*
X27820559Y43293329D01*
X27805424Y43318581D01*
X27792836Y43345195D01*
X27782918Y43372915D01*
X27775764Y43401473D01*
X27771445Y43430595D01*
X27770000Y43460000D01*
X27770000Y44060000D01*
X27771445Y44089405D01*
X27775764Y44118527D01*
X27782918Y44147085D01*
X27792836Y44174805D01*
X27805424Y44201419D01*
X27820559Y44226671D01*
X27838097Y44250318D01*
X27857868Y44272132D01*
X27879682Y44291903D01*
X27903329Y44309441D01*
X27928581Y44324576D01*
X27955195Y44337164D01*
X27982915Y44347082D01*
X28011473Y44354236D01*
X28040595Y44358555D01*
X28070000Y44360000D01*
X29970000Y44360000D01*
X29999405Y44358555D01*
X29999405Y44358555D01*
G37*
D11*
X29020000Y43760000D03*
D10*
G36*
X35499405Y46898555D02*
G01*
X35528527Y46894236D01*
X35557085Y46887082D01*
X35584805Y46877164D01*
X35611419Y46864576D01*
X35636671Y46849441D01*
X35660318Y46831903D01*
X35682132Y46812132D01*
X35701903Y46790318D01*
X35719441Y46766671D01*
X35734576Y46741419D01*
X35747164Y46714805D01*
X35757082Y46687085D01*
X35764236Y46658527D01*
X35768555Y46629405D01*
X35770000Y46600000D01*
X35770000Y46000000D01*
X35768555Y45970595D01*
X35764236Y45941473D01*
X35757082Y45912915D01*
X35747164Y45885195D01*
X35734576Y45858581D01*
X35719441Y45833329D01*
X35701903Y45809682D01*
X35682132Y45787868D01*
X35660318Y45768097D01*
X35636671Y45750559D01*
X35611419Y45735424D01*
X35584805Y45722836D01*
X35557085Y45712918D01*
X35528527Y45705764D01*
X35499405Y45701445D01*
X35470000Y45700000D01*
X33570000Y45700000D01*
X33540595Y45701445D01*
X33511473Y45705764D01*
X33482915Y45712918D01*
X33455195Y45722836D01*
X33428581Y45735424D01*
X33403329Y45750559D01*
X33379682Y45768097D01*
X33357868Y45787868D01*
X33338097Y45809682D01*
X33320559Y45833329D01*
X33305424Y45858581D01*
X33292836Y45885195D01*
X33282918Y45912915D01*
X33275764Y45941473D01*
X33271445Y45970595D01*
X33270000Y46000000D01*
X33270000Y46600000D01*
X33271445Y46629405D01*
X33275764Y46658527D01*
X33282918Y46687085D01*
X33292836Y46714805D01*
X33305424Y46741419D01*
X33320559Y46766671D01*
X33338097Y46790318D01*
X33357868Y46812132D01*
X33379682Y46831903D01*
X33403329Y46849441D01*
X33428581Y46864576D01*
X33455195Y46877164D01*
X33482915Y46887082D01*
X33511473Y46894236D01*
X33540595Y46898555D01*
X33570000Y46900000D01*
X35470000Y46900000D01*
X35499405Y46898555D01*
X35499405Y46898555D01*
G37*
D11*
X34520000Y46300000D03*
D10*
G36*
X29999405Y46898555D02*
G01*
X30028527Y46894236D01*
X30057085Y46887082D01*
X30084805Y46877164D01*
X30111419Y46864576D01*
X30136671Y46849441D01*
X30160318Y46831903D01*
X30182132Y46812132D01*
X30201903Y46790318D01*
X30219441Y46766671D01*
X30234576Y46741419D01*
X30247164Y46714805D01*
X30257082Y46687085D01*
X30264236Y46658527D01*
X30268555Y46629405D01*
X30270000Y46600000D01*
X30270000Y46000000D01*
X30268555Y45970595D01*
X30264236Y45941473D01*
X30257082Y45912915D01*
X30247164Y45885195D01*
X30234576Y45858581D01*
X30219441Y45833329D01*
X30201903Y45809682D01*
X30182132Y45787868D01*
X30160318Y45768097D01*
X30136671Y45750559D01*
X30111419Y45735424D01*
X30084805Y45722836D01*
X30057085Y45712918D01*
X30028527Y45705764D01*
X29999405Y45701445D01*
X29970000Y45700000D01*
X28070000Y45700000D01*
X28040595Y45701445D01*
X28011473Y45705764D01*
X27982915Y45712918D01*
X27955195Y45722836D01*
X27928581Y45735424D01*
X27903329Y45750559D01*
X27879682Y45768097D01*
X27857868Y45787868D01*
X27838097Y45809682D01*
X27820559Y45833329D01*
X27805424Y45858581D01*
X27792836Y45885195D01*
X27782918Y45912915D01*
X27775764Y45941473D01*
X27771445Y45970595D01*
X27770000Y46000000D01*
X27770000Y46600000D01*
X27771445Y46629405D01*
X27775764Y46658527D01*
X27782918Y46687085D01*
X27792836Y46714805D01*
X27805424Y46741419D01*
X27820559Y46766671D01*
X27838097Y46790318D01*
X27857868Y46812132D01*
X27879682Y46831903D01*
X27903329Y46849441D01*
X27928581Y46864576D01*
X27955195Y46877164D01*
X27982915Y46887082D01*
X28011473Y46894236D01*
X28040595Y46898555D01*
X28070000Y46900000D01*
X29970000Y46900000D01*
X29999405Y46898555D01*
X29999405Y46898555D01*
G37*
D11*
X29020000Y46300000D03*
D10*
G36*
X35499405Y49438555D02*
G01*
X35528527Y49434236D01*
X35557085Y49427082D01*
X35584805Y49417164D01*
X35611419Y49404576D01*
X35636671Y49389441D01*
X35660318Y49371903D01*
X35682132Y49352132D01*
X35701903Y49330318D01*
X35719441Y49306671D01*
X35734576Y49281419D01*
X35747164Y49254805D01*
X35757082Y49227085D01*
X35764236Y49198527D01*
X35768555Y49169405D01*
X35770000Y49140000D01*
X35770000Y48540000D01*
X35768555Y48510595D01*
X35764236Y48481473D01*
X35757082Y48452915D01*
X35747164Y48425195D01*
X35734576Y48398581D01*
X35719441Y48373329D01*
X35701903Y48349682D01*
X35682132Y48327868D01*
X35660318Y48308097D01*
X35636671Y48290559D01*
X35611419Y48275424D01*
X35584805Y48262836D01*
X35557085Y48252918D01*
X35528527Y48245764D01*
X35499405Y48241445D01*
X35470000Y48240000D01*
X33570000Y48240000D01*
X33540595Y48241445D01*
X33511473Y48245764D01*
X33482915Y48252918D01*
X33455195Y48262836D01*
X33428581Y48275424D01*
X33403329Y48290559D01*
X33379682Y48308097D01*
X33357868Y48327868D01*
X33338097Y48349682D01*
X33320559Y48373329D01*
X33305424Y48398581D01*
X33292836Y48425195D01*
X33282918Y48452915D01*
X33275764Y48481473D01*
X33271445Y48510595D01*
X33270000Y48540000D01*
X33270000Y49140000D01*
X33271445Y49169405D01*
X33275764Y49198527D01*
X33282918Y49227085D01*
X33292836Y49254805D01*
X33305424Y49281419D01*
X33320559Y49306671D01*
X33338097Y49330318D01*
X33357868Y49352132D01*
X33379682Y49371903D01*
X33403329Y49389441D01*
X33428581Y49404576D01*
X33455195Y49417164D01*
X33482915Y49427082D01*
X33511473Y49434236D01*
X33540595Y49438555D01*
X33570000Y49440000D01*
X35470000Y49440000D01*
X35499405Y49438555D01*
X35499405Y49438555D01*
G37*
D11*
X34520000Y48840000D03*
D10*
G36*
X29999405Y49438555D02*
G01*
X30028527Y49434236D01*
X30057085Y49427082D01*
X30084805Y49417164D01*
X30111419Y49404576D01*
X30136671Y49389441D01*
X30160318Y49371903D01*
X30182132Y49352132D01*
X30201903Y49330318D01*
X30219441Y49306671D01*
X30234576Y49281419D01*
X30247164Y49254805D01*
X30257082Y49227085D01*
X30264236Y49198527D01*
X30268555Y49169405D01*
X30270000Y49140000D01*
X30270000Y48540000D01*
X30268555Y48510595D01*
X30264236Y48481473D01*
X30257082Y48452915D01*
X30247164Y48425195D01*
X30234576Y48398581D01*
X30219441Y48373329D01*
X30201903Y48349682D01*
X30182132Y48327868D01*
X30160318Y48308097D01*
X30136671Y48290559D01*
X30111419Y48275424D01*
X30084805Y48262836D01*
X30057085Y48252918D01*
X30028527Y48245764D01*
X29999405Y48241445D01*
X29970000Y48240000D01*
X28070000Y48240000D01*
X28040595Y48241445D01*
X28011473Y48245764D01*
X27982915Y48252918D01*
X27955195Y48262836D01*
X27928581Y48275424D01*
X27903329Y48290559D01*
X27879682Y48308097D01*
X27857868Y48327868D01*
X27838097Y48349682D01*
X27820559Y48373329D01*
X27805424Y48398581D01*
X27792836Y48425195D01*
X27782918Y48452915D01*
X27775764Y48481473D01*
X27771445Y48510595D01*
X27770000Y48540000D01*
X27770000Y49140000D01*
X27771445Y49169405D01*
X27775764Y49198527D01*
X27782918Y49227085D01*
X27792836Y49254805D01*
X27805424Y49281419D01*
X27820559Y49306671D01*
X27838097Y49330318D01*
X27857868Y49352132D01*
X27879682Y49371903D01*
X27903329Y49389441D01*
X27928581Y49404576D01*
X27955195Y49417164D01*
X27982915Y49427082D01*
X28011473Y49434236D01*
X28040595Y49438555D01*
X28070000Y49440000D01*
X29970000Y49440000D01*
X29999405Y49438555D01*
X29999405Y49438555D01*
G37*
D11*
X29020000Y48840000D03*
D10*
G36*
X35499405Y51978555D02*
G01*
X35528527Y51974236D01*
X35557085Y51967082D01*
X35584805Y51957164D01*
X35611419Y51944576D01*
X35636671Y51929441D01*
X35660318Y51911903D01*
X35682132Y51892132D01*
X35701903Y51870318D01*
X35719441Y51846671D01*
X35734576Y51821419D01*
X35747164Y51794805D01*
X35757082Y51767085D01*
X35764236Y51738527D01*
X35768555Y51709405D01*
X35770000Y51680000D01*
X35770000Y51080000D01*
X35768555Y51050595D01*
X35764236Y51021473D01*
X35757082Y50992915D01*
X35747164Y50965195D01*
X35734576Y50938581D01*
X35719441Y50913329D01*
X35701903Y50889682D01*
X35682132Y50867868D01*
X35660318Y50848097D01*
X35636671Y50830559D01*
X35611419Y50815424D01*
X35584805Y50802836D01*
X35557085Y50792918D01*
X35528527Y50785764D01*
X35499405Y50781445D01*
X35470000Y50780000D01*
X33570000Y50780000D01*
X33540595Y50781445D01*
X33511473Y50785764D01*
X33482915Y50792918D01*
X33455195Y50802836D01*
X33428581Y50815424D01*
X33403329Y50830559D01*
X33379682Y50848097D01*
X33357868Y50867868D01*
X33338097Y50889682D01*
X33320559Y50913329D01*
X33305424Y50938581D01*
X33292836Y50965195D01*
X33282918Y50992915D01*
X33275764Y51021473D01*
X33271445Y51050595D01*
X33270000Y51080000D01*
X33270000Y51680000D01*
X33271445Y51709405D01*
X33275764Y51738527D01*
X33282918Y51767085D01*
X33292836Y51794805D01*
X33305424Y51821419D01*
X33320559Y51846671D01*
X33338097Y51870318D01*
X33357868Y51892132D01*
X33379682Y51911903D01*
X33403329Y51929441D01*
X33428581Y51944576D01*
X33455195Y51957164D01*
X33482915Y51967082D01*
X33511473Y51974236D01*
X33540595Y51978555D01*
X33570000Y51980000D01*
X35470000Y51980000D01*
X35499405Y51978555D01*
X35499405Y51978555D01*
G37*
D11*
X34520000Y51380000D03*
D10*
G36*
X29999405Y51978555D02*
G01*
X30028527Y51974236D01*
X30057085Y51967082D01*
X30084805Y51957164D01*
X30111419Y51944576D01*
X30136671Y51929441D01*
X30160318Y51911903D01*
X30182132Y51892132D01*
X30201903Y51870318D01*
X30219441Y51846671D01*
X30234576Y51821419D01*
X30247164Y51794805D01*
X30257082Y51767085D01*
X30264236Y51738527D01*
X30268555Y51709405D01*
X30270000Y51680000D01*
X30270000Y51080000D01*
X30268555Y51050595D01*
X30264236Y51021473D01*
X30257082Y50992915D01*
X30247164Y50965195D01*
X30234576Y50938581D01*
X30219441Y50913329D01*
X30201903Y50889682D01*
X30182132Y50867868D01*
X30160318Y50848097D01*
X30136671Y50830559D01*
X30111419Y50815424D01*
X30084805Y50802836D01*
X30057085Y50792918D01*
X30028527Y50785764D01*
X29999405Y50781445D01*
X29970000Y50780000D01*
X28070000Y50780000D01*
X28040595Y50781445D01*
X28011473Y50785764D01*
X27982915Y50792918D01*
X27955195Y50802836D01*
X27928581Y50815424D01*
X27903329Y50830559D01*
X27879682Y50848097D01*
X27857868Y50867868D01*
X27838097Y50889682D01*
X27820559Y50913329D01*
X27805424Y50938581D01*
X27792836Y50965195D01*
X27782918Y50992915D01*
X27775764Y51021473D01*
X27771445Y51050595D01*
X27770000Y51080000D01*
X27770000Y51680000D01*
X27771445Y51709405D01*
X27775764Y51738527D01*
X27782918Y51767085D01*
X27792836Y51794805D01*
X27805424Y51821419D01*
X27820559Y51846671D01*
X27838097Y51870318D01*
X27857868Y51892132D01*
X27879682Y51911903D01*
X27903329Y51929441D01*
X27928581Y51944576D01*
X27955195Y51957164D01*
X27982915Y51967082D01*
X28011473Y51974236D01*
X28040595Y51978555D01*
X28070000Y51980000D01*
X29970000Y51980000D01*
X29999405Y51978555D01*
X29999405Y51978555D01*
G37*
D11*
X29020000Y51380000D03*
D12*
X126100000Y17770000D03*
X126100000Y16230000D03*
D13*
X8430000Y11800000D03*
X9970000Y11800000D03*
D12*
X11000000Y44770000D03*
X11000000Y43230000D03*
X78300000Y9230000D03*
X78300000Y10770000D03*
X117700000Y9230000D03*
X117700000Y10770000D03*
D14*
X75350000Y12250000D03*
X75350000Y7750000D03*
X66250000Y7750000D03*
X66250000Y12250000D03*
X114750000Y12250000D03*
X114750000Y7750000D03*
X105650000Y7750000D03*
X105650000Y12250000D03*
X13450000Y41750000D03*
X13450000Y46250000D03*
X22550000Y46250000D03*
X22550000Y41750000D03*
D15*
X122000000Y18450000D03*
X123000000Y18450000D03*
X124000000Y18450000D03*
X124000000Y15550000D03*
X123000000Y15550000D03*
X122000000Y15550000D03*
D16*
X123000000Y17000000D03*
D10*
G36*
X124200000Y16250000D02*
G01*
X121800000Y16250000D01*
X121800000Y17550000D01*
X122000000Y17750000D01*
X124200000Y17750000D01*
X124200000Y16250000D01*
X124200000Y16250000D01*
G37*
D17*
X14900000Y8225000D03*
D18*
X15450000Y11775000D03*
X14350000Y11775000D03*
D13*
X8430000Y9500000D03*
X9970000Y9500000D03*
D19*
X56600000Y49690000D03*
X56600000Y54110000D03*
D20*
X61400000Y54954350D03*
X61400000Y48845650D03*
M02*
