G04 #@! TF.GenerationSoftware,KiCad,Pcbnew,(5.1.4)-1*
G04 #@! TF.CreationDate,2020-04-03T20:38:11+08:00*
G04 #@! TF.ProjectId,SmartAPS,536d6172-7441-4505-932e-6b696361645f,1.0*
G04 #@! TF.SameCoordinates,PX5f5e100PY7bfa480*
G04 #@! TF.FileFunction,Copper,L2,Bot*
G04 #@! TF.FilePolarity,Positive*
%FSLAX46Y46*%
G04 Gerber Fmt 4.6, Leading zero omitted, Abs format (unit mm)*
G04 Created by KiCad (PCBNEW (5.1.4)-1) date 2020-04-03 20:38:11*
%MOMM*%
%LPD*%
G04 APERTURE LIST*
%ADD10O,1.700000X1.950000*%
%ADD11C,0.100000*%
%ADD12C,1.700000*%
%ADD13C,1.200000*%
%ADD14C,3.000000*%
%ADD15O,1.600000X1.000000*%
%ADD16O,2.100000X1.000000*%
%ADD17O,0.650000X0.650000*%
%ADD18C,2.500000*%
%ADD19O,0.900000X0.900000*%
%ADD20R,0.900000X0.900000*%
%ADD21R,0.980000X0.930000*%
%ADD22R,0.930000X0.980000*%
%ADD23C,1.600000*%
%ADD24R,1.600000X1.600000*%
%ADD25R,1.900000X1.300000*%
%ADD26R,0.400000X0.700000*%
%ADD27C,1.000000*%
%ADD28R,1.000000X1.100000*%
%ADD29R,0.800000X1.100000*%
%ADD30O,5.400000X0.900000*%
%ADD31R,2.743000X2.159000*%
%ADD32R,2.895600X2.400300*%
%ADD33C,2.000000*%
%ADD34C,0.800000*%
%ADD35C,0.600000*%
%ADD36C,1.500000*%
%ADD37C,0.700000*%
%ADD38C,0.400000*%
%ADD39C,0.200000*%
%ADD40C,0.800000*%
%ADD41C,0.254000*%
G04 APERTURE END LIST*
D10*
X68700000Y18800000D03*
X66200000Y18800000D03*
X63700000Y18800000D03*
D11*
G36*
X61824504Y19773796D02*
G01*
X61848773Y19770196D01*
X61872571Y19764235D01*
X61895671Y19755970D01*
X61917849Y19745480D01*
X61938893Y19732867D01*
X61958598Y19718253D01*
X61976777Y19701777D01*
X61993253Y19683598D01*
X62007867Y19663893D01*
X62020480Y19642849D01*
X62030970Y19620671D01*
X62039235Y19597571D01*
X62045196Y19573773D01*
X62048796Y19549504D01*
X62050000Y19525000D01*
X62050000Y18075000D01*
X62048796Y18050496D01*
X62045196Y18026227D01*
X62039235Y18002429D01*
X62030970Y17979329D01*
X62020480Y17957151D01*
X62007867Y17936107D01*
X61993253Y17916402D01*
X61976777Y17898223D01*
X61958598Y17881747D01*
X61938893Y17867133D01*
X61917849Y17854520D01*
X61895671Y17844030D01*
X61872571Y17835765D01*
X61848773Y17829804D01*
X61824504Y17826204D01*
X61800000Y17825000D01*
X60600000Y17825000D01*
X60575496Y17826204D01*
X60551227Y17829804D01*
X60527429Y17835765D01*
X60504329Y17844030D01*
X60482151Y17854520D01*
X60461107Y17867133D01*
X60441402Y17881747D01*
X60423223Y17898223D01*
X60406747Y17916402D01*
X60392133Y17936107D01*
X60379520Y17957151D01*
X60369030Y17979329D01*
X60360765Y18002429D01*
X60354804Y18026227D01*
X60351204Y18050496D01*
X60350000Y18075000D01*
X60350000Y19525000D01*
X60351204Y19549504D01*
X60354804Y19573773D01*
X60360765Y19597571D01*
X60369030Y19620671D01*
X60379520Y19642849D01*
X60392133Y19663893D01*
X60406747Y19683598D01*
X60423223Y19701777D01*
X60441402Y19718253D01*
X60461107Y19732867D01*
X60482151Y19745480D01*
X60504329Y19755970D01*
X60527429Y19764235D01*
X60551227Y19770196D01*
X60575496Y19773796D01*
X60600000Y19775000D01*
X61800000Y19775000D01*
X61824504Y19773796D01*
X61824504Y19773796D01*
G37*
D12*
X61200000Y18800000D03*
D10*
X83800000Y18800000D03*
X81300000Y18800000D03*
X78800000Y18800000D03*
D11*
G36*
X76924504Y19773796D02*
G01*
X76948773Y19770196D01*
X76972571Y19764235D01*
X76995671Y19755970D01*
X77017849Y19745480D01*
X77038893Y19732867D01*
X77058598Y19718253D01*
X77076777Y19701777D01*
X77093253Y19683598D01*
X77107867Y19663893D01*
X77120480Y19642849D01*
X77130970Y19620671D01*
X77139235Y19597571D01*
X77145196Y19573773D01*
X77148796Y19549504D01*
X77150000Y19525000D01*
X77150000Y18075000D01*
X77148796Y18050496D01*
X77145196Y18026227D01*
X77139235Y18002429D01*
X77130970Y17979329D01*
X77120480Y17957151D01*
X77107867Y17936107D01*
X77093253Y17916402D01*
X77076777Y17898223D01*
X77058598Y17881747D01*
X77038893Y17867133D01*
X77017849Y17854520D01*
X76995671Y17844030D01*
X76972571Y17835765D01*
X76948773Y17829804D01*
X76924504Y17826204D01*
X76900000Y17825000D01*
X75700000Y17825000D01*
X75675496Y17826204D01*
X75651227Y17829804D01*
X75627429Y17835765D01*
X75604329Y17844030D01*
X75582151Y17854520D01*
X75561107Y17867133D01*
X75541402Y17881747D01*
X75523223Y17898223D01*
X75506747Y17916402D01*
X75492133Y17936107D01*
X75479520Y17957151D01*
X75469030Y17979329D01*
X75460765Y18002429D01*
X75454804Y18026227D01*
X75451204Y18050496D01*
X75450000Y18075000D01*
X75450000Y19525000D01*
X75451204Y19549504D01*
X75454804Y19573773D01*
X75460765Y19597571D01*
X75469030Y19620671D01*
X75479520Y19642849D01*
X75492133Y19663893D01*
X75506747Y19683598D01*
X75523223Y19701777D01*
X75541402Y19718253D01*
X75561107Y19732867D01*
X75582151Y19745480D01*
X75604329Y19755970D01*
X75627429Y19764235D01*
X75651227Y19770196D01*
X75675496Y19773796D01*
X75700000Y19775000D01*
X76900000Y19775000D01*
X76924504Y19773796D01*
X76924504Y19773796D01*
G37*
D12*
X76300000Y18800000D03*
D11*
G36*
X29999405Y34198555D02*
G01*
X30028527Y34194236D01*
X30057085Y34187082D01*
X30084805Y34177164D01*
X30111419Y34164576D01*
X30136671Y34149441D01*
X30160318Y34131903D01*
X30182132Y34112132D01*
X30201903Y34090318D01*
X30219441Y34066671D01*
X30234576Y34041419D01*
X30247164Y34014805D01*
X30257082Y33987085D01*
X30264236Y33958527D01*
X30268555Y33929405D01*
X30270000Y33900000D01*
X30270000Y33300000D01*
X30268555Y33270595D01*
X30264236Y33241473D01*
X30257082Y33212915D01*
X30247164Y33185195D01*
X30234576Y33158581D01*
X30219441Y33133329D01*
X30201903Y33109682D01*
X30182132Y33087868D01*
X30160318Y33068097D01*
X30136671Y33050559D01*
X30111419Y33035424D01*
X30084805Y33022836D01*
X30057085Y33012918D01*
X30028527Y33005764D01*
X29999405Y33001445D01*
X29970000Y33000000D01*
X28070000Y33000000D01*
X28040595Y33001445D01*
X28011473Y33005764D01*
X27982915Y33012918D01*
X27955195Y33022836D01*
X27928581Y33035424D01*
X27903329Y33050559D01*
X27879682Y33068097D01*
X27857868Y33087868D01*
X27838097Y33109682D01*
X27820559Y33133329D01*
X27805424Y33158581D01*
X27792836Y33185195D01*
X27782918Y33212915D01*
X27775764Y33241473D01*
X27771445Y33270595D01*
X27770000Y33300000D01*
X27770000Y33900000D01*
X27771445Y33929405D01*
X27775764Y33958527D01*
X27782918Y33987085D01*
X27792836Y34014805D01*
X27805424Y34041419D01*
X27820559Y34066671D01*
X27838097Y34090318D01*
X27857868Y34112132D01*
X27879682Y34131903D01*
X27903329Y34149441D01*
X27928581Y34164576D01*
X27955195Y34177164D01*
X27982915Y34187082D01*
X28011473Y34194236D01*
X28040595Y34198555D01*
X28070000Y34200000D01*
X29970000Y34200000D01*
X29999405Y34198555D01*
X29999405Y34198555D01*
G37*
D13*
X29020000Y33600000D03*
D14*
X32000000Y56490000D03*
X127000000Y56490000D03*
X32000000Y27990000D03*
X127000000Y27990000D03*
D11*
G36*
X35499405Y34198555D02*
G01*
X35528527Y34194236D01*
X35557085Y34187082D01*
X35584805Y34177164D01*
X35611419Y34164576D01*
X35636671Y34149441D01*
X35660318Y34131903D01*
X35682132Y34112132D01*
X35701903Y34090318D01*
X35719441Y34066671D01*
X35734576Y34041419D01*
X35747164Y34014805D01*
X35757082Y33987085D01*
X35764236Y33958527D01*
X35768555Y33929405D01*
X35770000Y33900000D01*
X35770000Y33300000D01*
X35768555Y33270595D01*
X35764236Y33241473D01*
X35757082Y33212915D01*
X35747164Y33185195D01*
X35734576Y33158581D01*
X35719441Y33133329D01*
X35701903Y33109682D01*
X35682132Y33087868D01*
X35660318Y33068097D01*
X35636671Y33050559D01*
X35611419Y33035424D01*
X35584805Y33022836D01*
X35557085Y33012918D01*
X35528527Y33005764D01*
X35499405Y33001445D01*
X35470000Y33000000D01*
X33570000Y33000000D01*
X33540595Y33001445D01*
X33511473Y33005764D01*
X33482915Y33012918D01*
X33455195Y33022836D01*
X33428581Y33035424D01*
X33403329Y33050559D01*
X33379682Y33068097D01*
X33357868Y33087868D01*
X33338097Y33109682D01*
X33320559Y33133329D01*
X33305424Y33158581D01*
X33292836Y33185195D01*
X33282918Y33212915D01*
X33275764Y33241473D01*
X33271445Y33270595D01*
X33270000Y33300000D01*
X33270000Y33900000D01*
X33271445Y33929405D01*
X33275764Y33958527D01*
X33282918Y33987085D01*
X33292836Y34014805D01*
X33305424Y34041419D01*
X33320559Y34066671D01*
X33338097Y34090318D01*
X33357868Y34112132D01*
X33379682Y34131903D01*
X33403329Y34149441D01*
X33428581Y34164576D01*
X33455195Y34177164D01*
X33482915Y34187082D01*
X33511473Y34194236D01*
X33540595Y34198555D01*
X33570000Y34200000D01*
X35470000Y34200000D01*
X35499405Y34198555D01*
X35499405Y34198555D01*
G37*
D13*
X34520000Y33600000D03*
D11*
G36*
X35499405Y36738555D02*
G01*
X35528527Y36734236D01*
X35557085Y36727082D01*
X35584805Y36717164D01*
X35611419Y36704576D01*
X35636671Y36689441D01*
X35660318Y36671903D01*
X35682132Y36652132D01*
X35701903Y36630318D01*
X35719441Y36606671D01*
X35734576Y36581419D01*
X35747164Y36554805D01*
X35757082Y36527085D01*
X35764236Y36498527D01*
X35768555Y36469405D01*
X35770000Y36440000D01*
X35770000Y35840000D01*
X35768555Y35810595D01*
X35764236Y35781473D01*
X35757082Y35752915D01*
X35747164Y35725195D01*
X35734576Y35698581D01*
X35719441Y35673329D01*
X35701903Y35649682D01*
X35682132Y35627868D01*
X35660318Y35608097D01*
X35636671Y35590559D01*
X35611419Y35575424D01*
X35584805Y35562836D01*
X35557085Y35552918D01*
X35528527Y35545764D01*
X35499405Y35541445D01*
X35470000Y35540000D01*
X33570000Y35540000D01*
X33540595Y35541445D01*
X33511473Y35545764D01*
X33482915Y35552918D01*
X33455195Y35562836D01*
X33428581Y35575424D01*
X33403329Y35590559D01*
X33379682Y35608097D01*
X33357868Y35627868D01*
X33338097Y35649682D01*
X33320559Y35673329D01*
X33305424Y35698581D01*
X33292836Y35725195D01*
X33282918Y35752915D01*
X33275764Y35781473D01*
X33271445Y35810595D01*
X33270000Y35840000D01*
X33270000Y36440000D01*
X33271445Y36469405D01*
X33275764Y36498527D01*
X33282918Y36527085D01*
X33292836Y36554805D01*
X33305424Y36581419D01*
X33320559Y36606671D01*
X33338097Y36630318D01*
X33357868Y36652132D01*
X33379682Y36671903D01*
X33403329Y36689441D01*
X33428581Y36704576D01*
X33455195Y36717164D01*
X33482915Y36727082D01*
X33511473Y36734236D01*
X33540595Y36738555D01*
X33570000Y36740000D01*
X35470000Y36740000D01*
X35499405Y36738555D01*
X35499405Y36738555D01*
G37*
D13*
X34520000Y36140000D03*
D11*
G36*
X29999405Y36738555D02*
G01*
X30028527Y36734236D01*
X30057085Y36727082D01*
X30084805Y36717164D01*
X30111419Y36704576D01*
X30136671Y36689441D01*
X30160318Y36671903D01*
X30182132Y36652132D01*
X30201903Y36630318D01*
X30219441Y36606671D01*
X30234576Y36581419D01*
X30247164Y36554805D01*
X30257082Y36527085D01*
X30264236Y36498527D01*
X30268555Y36469405D01*
X30270000Y36440000D01*
X30270000Y35840000D01*
X30268555Y35810595D01*
X30264236Y35781473D01*
X30257082Y35752915D01*
X30247164Y35725195D01*
X30234576Y35698581D01*
X30219441Y35673329D01*
X30201903Y35649682D01*
X30182132Y35627868D01*
X30160318Y35608097D01*
X30136671Y35590559D01*
X30111419Y35575424D01*
X30084805Y35562836D01*
X30057085Y35552918D01*
X30028527Y35545764D01*
X29999405Y35541445D01*
X29970000Y35540000D01*
X28070000Y35540000D01*
X28040595Y35541445D01*
X28011473Y35545764D01*
X27982915Y35552918D01*
X27955195Y35562836D01*
X27928581Y35575424D01*
X27903329Y35590559D01*
X27879682Y35608097D01*
X27857868Y35627868D01*
X27838097Y35649682D01*
X27820559Y35673329D01*
X27805424Y35698581D01*
X27792836Y35725195D01*
X27782918Y35752915D01*
X27775764Y35781473D01*
X27771445Y35810595D01*
X27770000Y35840000D01*
X27770000Y36440000D01*
X27771445Y36469405D01*
X27775764Y36498527D01*
X27782918Y36527085D01*
X27792836Y36554805D01*
X27805424Y36581419D01*
X27820559Y36606671D01*
X27838097Y36630318D01*
X27857868Y36652132D01*
X27879682Y36671903D01*
X27903329Y36689441D01*
X27928581Y36704576D01*
X27955195Y36717164D01*
X27982915Y36727082D01*
X28011473Y36734236D01*
X28040595Y36738555D01*
X28070000Y36740000D01*
X29970000Y36740000D01*
X29999405Y36738555D01*
X29999405Y36738555D01*
G37*
D13*
X29020000Y36140000D03*
D11*
G36*
X35499405Y39278555D02*
G01*
X35528527Y39274236D01*
X35557085Y39267082D01*
X35584805Y39257164D01*
X35611419Y39244576D01*
X35636671Y39229441D01*
X35660318Y39211903D01*
X35682132Y39192132D01*
X35701903Y39170318D01*
X35719441Y39146671D01*
X35734576Y39121419D01*
X35747164Y39094805D01*
X35757082Y39067085D01*
X35764236Y39038527D01*
X35768555Y39009405D01*
X35770000Y38980000D01*
X35770000Y38380000D01*
X35768555Y38350595D01*
X35764236Y38321473D01*
X35757082Y38292915D01*
X35747164Y38265195D01*
X35734576Y38238581D01*
X35719441Y38213329D01*
X35701903Y38189682D01*
X35682132Y38167868D01*
X35660318Y38148097D01*
X35636671Y38130559D01*
X35611419Y38115424D01*
X35584805Y38102836D01*
X35557085Y38092918D01*
X35528527Y38085764D01*
X35499405Y38081445D01*
X35470000Y38080000D01*
X33570000Y38080000D01*
X33540595Y38081445D01*
X33511473Y38085764D01*
X33482915Y38092918D01*
X33455195Y38102836D01*
X33428581Y38115424D01*
X33403329Y38130559D01*
X33379682Y38148097D01*
X33357868Y38167868D01*
X33338097Y38189682D01*
X33320559Y38213329D01*
X33305424Y38238581D01*
X33292836Y38265195D01*
X33282918Y38292915D01*
X33275764Y38321473D01*
X33271445Y38350595D01*
X33270000Y38380000D01*
X33270000Y38980000D01*
X33271445Y39009405D01*
X33275764Y39038527D01*
X33282918Y39067085D01*
X33292836Y39094805D01*
X33305424Y39121419D01*
X33320559Y39146671D01*
X33338097Y39170318D01*
X33357868Y39192132D01*
X33379682Y39211903D01*
X33403329Y39229441D01*
X33428581Y39244576D01*
X33455195Y39257164D01*
X33482915Y39267082D01*
X33511473Y39274236D01*
X33540595Y39278555D01*
X33570000Y39280000D01*
X35470000Y39280000D01*
X35499405Y39278555D01*
X35499405Y39278555D01*
G37*
D13*
X34520000Y38680000D03*
D11*
G36*
X29999405Y39278555D02*
G01*
X30028527Y39274236D01*
X30057085Y39267082D01*
X30084805Y39257164D01*
X30111419Y39244576D01*
X30136671Y39229441D01*
X30160318Y39211903D01*
X30182132Y39192132D01*
X30201903Y39170318D01*
X30219441Y39146671D01*
X30234576Y39121419D01*
X30247164Y39094805D01*
X30257082Y39067085D01*
X30264236Y39038527D01*
X30268555Y39009405D01*
X30270000Y38980000D01*
X30270000Y38380000D01*
X30268555Y38350595D01*
X30264236Y38321473D01*
X30257082Y38292915D01*
X30247164Y38265195D01*
X30234576Y38238581D01*
X30219441Y38213329D01*
X30201903Y38189682D01*
X30182132Y38167868D01*
X30160318Y38148097D01*
X30136671Y38130559D01*
X30111419Y38115424D01*
X30084805Y38102836D01*
X30057085Y38092918D01*
X30028527Y38085764D01*
X29999405Y38081445D01*
X29970000Y38080000D01*
X28070000Y38080000D01*
X28040595Y38081445D01*
X28011473Y38085764D01*
X27982915Y38092918D01*
X27955195Y38102836D01*
X27928581Y38115424D01*
X27903329Y38130559D01*
X27879682Y38148097D01*
X27857868Y38167868D01*
X27838097Y38189682D01*
X27820559Y38213329D01*
X27805424Y38238581D01*
X27792836Y38265195D01*
X27782918Y38292915D01*
X27775764Y38321473D01*
X27771445Y38350595D01*
X27770000Y38380000D01*
X27770000Y38980000D01*
X27771445Y39009405D01*
X27775764Y39038527D01*
X27782918Y39067085D01*
X27792836Y39094805D01*
X27805424Y39121419D01*
X27820559Y39146671D01*
X27838097Y39170318D01*
X27857868Y39192132D01*
X27879682Y39211903D01*
X27903329Y39229441D01*
X27928581Y39244576D01*
X27955195Y39257164D01*
X27982915Y39267082D01*
X28011473Y39274236D01*
X28040595Y39278555D01*
X28070000Y39280000D01*
X29970000Y39280000D01*
X29999405Y39278555D01*
X29999405Y39278555D01*
G37*
D13*
X29020000Y38680000D03*
D11*
G36*
X35499405Y41818555D02*
G01*
X35528527Y41814236D01*
X35557085Y41807082D01*
X35584805Y41797164D01*
X35611419Y41784576D01*
X35636671Y41769441D01*
X35660318Y41751903D01*
X35682132Y41732132D01*
X35701903Y41710318D01*
X35719441Y41686671D01*
X35734576Y41661419D01*
X35747164Y41634805D01*
X35757082Y41607085D01*
X35764236Y41578527D01*
X35768555Y41549405D01*
X35770000Y41520000D01*
X35770000Y40920000D01*
X35768555Y40890595D01*
X35764236Y40861473D01*
X35757082Y40832915D01*
X35747164Y40805195D01*
X35734576Y40778581D01*
X35719441Y40753329D01*
X35701903Y40729682D01*
X35682132Y40707868D01*
X35660318Y40688097D01*
X35636671Y40670559D01*
X35611419Y40655424D01*
X35584805Y40642836D01*
X35557085Y40632918D01*
X35528527Y40625764D01*
X35499405Y40621445D01*
X35470000Y40620000D01*
X33570000Y40620000D01*
X33540595Y40621445D01*
X33511473Y40625764D01*
X33482915Y40632918D01*
X33455195Y40642836D01*
X33428581Y40655424D01*
X33403329Y40670559D01*
X33379682Y40688097D01*
X33357868Y40707868D01*
X33338097Y40729682D01*
X33320559Y40753329D01*
X33305424Y40778581D01*
X33292836Y40805195D01*
X33282918Y40832915D01*
X33275764Y40861473D01*
X33271445Y40890595D01*
X33270000Y40920000D01*
X33270000Y41520000D01*
X33271445Y41549405D01*
X33275764Y41578527D01*
X33282918Y41607085D01*
X33292836Y41634805D01*
X33305424Y41661419D01*
X33320559Y41686671D01*
X33338097Y41710318D01*
X33357868Y41732132D01*
X33379682Y41751903D01*
X33403329Y41769441D01*
X33428581Y41784576D01*
X33455195Y41797164D01*
X33482915Y41807082D01*
X33511473Y41814236D01*
X33540595Y41818555D01*
X33570000Y41820000D01*
X35470000Y41820000D01*
X35499405Y41818555D01*
X35499405Y41818555D01*
G37*
D13*
X34520000Y41220000D03*
D11*
G36*
X29999405Y41818555D02*
G01*
X30028527Y41814236D01*
X30057085Y41807082D01*
X30084805Y41797164D01*
X30111419Y41784576D01*
X30136671Y41769441D01*
X30160318Y41751903D01*
X30182132Y41732132D01*
X30201903Y41710318D01*
X30219441Y41686671D01*
X30234576Y41661419D01*
X30247164Y41634805D01*
X30257082Y41607085D01*
X30264236Y41578527D01*
X30268555Y41549405D01*
X30270000Y41520000D01*
X30270000Y40920000D01*
X30268555Y40890595D01*
X30264236Y40861473D01*
X30257082Y40832915D01*
X30247164Y40805195D01*
X30234576Y40778581D01*
X30219441Y40753329D01*
X30201903Y40729682D01*
X30182132Y40707868D01*
X30160318Y40688097D01*
X30136671Y40670559D01*
X30111419Y40655424D01*
X30084805Y40642836D01*
X30057085Y40632918D01*
X30028527Y40625764D01*
X29999405Y40621445D01*
X29970000Y40620000D01*
X28070000Y40620000D01*
X28040595Y40621445D01*
X28011473Y40625764D01*
X27982915Y40632918D01*
X27955195Y40642836D01*
X27928581Y40655424D01*
X27903329Y40670559D01*
X27879682Y40688097D01*
X27857868Y40707868D01*
X27838097Y40729682D01*
X27820559Y40753329D01*
X27805424Y40778581D01*
X27792836Y40805195D01*
X27782918Y40832915D01*
X27775764Y40861473D01*
X27771445Y40890595D01*
X27770000Y40920000D01*
X27770000Y41520000D01*
X27771445Y41549405D01*
X27775764Y41578527D01*
X27782918Y41607085D01*
X27792836Y41634805D01*
X27805424Y41661419D01*
X27820559Y41686671D01*
X27838097Y41710318D01*
X27857868Y41732132D01*
X27879682Y41751903D01*
X27903329Y41769441D01*
X27928581Y41784576D01*
X27955195Y41797164D01*
X27982915Y41807082D01*
X28011473Y41814236D01*
X28040595Y41818555D01*
X28070000Y41820000D01*
X29970000Y41820000D01*
X29999405Y41818555D01*
X29999405Y41818555D01*
G37*
D13*
X29020000Y41220000D03*
D11*
G36*
X35499405Y44358555D02*
G01*
X35528527Y44354236D01*
X35557085Y44347082D01*
X35584805Y44337164D01*
X35611419Y44324576D01*
X35636671Y44309441D01*
X35660318Y44291903D01*
X35682132Y44272132D01*
X35701903Y44250318D01*
X35719441Y44226671D01*
X35734576Y44201419D01*
X35747164Y44174805D01*
X35757082Y44147085D01*
X35764236Y44118527D01*
X35768555Y44089405D01*
X35770000Y44060000D01*
X35770000Y43460000D01*
X35768555Y43430595D01*
X35764236Y43401473D01*
X35757082Y43372915D01*
X35747164Y43345195D01*
X35734576Y43318581D01*
X35719441Y43293329D01*
X35701903Y43269682D01*
X35682132Y43247868D01*
X35660318Y43228097D01*
X35636671Y43210559D01*
X35611419Y43195424D01*
X35584805Y43182836D01*
X35557085Y43172918D01*
X35528527Y43165764D01*
X35499405Y43161445D01*
X35470000Y43160000D01*
X33570000Y43160000D01*
X33540595Y43161445D01*
X33511473Y43165764D01*
X33482915Y43172918D01*
X33455195Y43182836D01*
X33428581Y43195424D01*
X33403329Y43210559D01*
X33379682Y43228097D01*
X33357868Y43247868D01*
X33338097Y43269682D01*
X33320559Y43293329D01*
X33305424Y43318581D01*
X33292836Y43345195D01*
X33282918Y43372915D01*
X33275764Y43401473D01*
X33271445Y43430595D01*
X33270000Y43460000D01*
X33270000Y44060000D01*
X33271445Y44089405D01*
X33275764Y44118527D01*
X33282918Y44147085D01*
X33292836Y44174805D01*
X33305424Y44201419D01*
X33320559Y44226671D01*
X33338097Y44250318D01*
X33357868Y44272132D01*
X33379682Y44291903D01*
X33403329Y44309441D01*
X33428581Y44324576D01*
X33455195Y44337164D01*
X33482915Y44347082D01*
X33511473Y44354236D01*
X33540595Y44358555D01*
X33570000Y44360000D01*
X35470000Y44360000D01*
X35499405Y44358555D01*
X35499405Y44358555D01*
G37*
D13*
X34520000Y43760000D03*
D11*
G36*
X29999405Y44358555D02*
G01*
X30028527Y44354236D01*
X30057085Y44347082D01*
X30084805Y44337164D01*
X30111419Y44324576D01*
X30136671Y44309441D01*
X30160318Y44291903D01*
X30182132Y44272132D01*
X30201903Y44250318D01*
X30219441Y44226671D01*
X30234576Y44201419D01*
X30247164Y44174805D01*
X30257082Y44147085D01*
X30264236Y44118527D01*
X30268555Y44089405D01*
X30270000Y44060000D01*
X30270000Y43460000D01*
X30268555Y43430595D01*
X30264236Y43401473D01*
X30257082Y43372915D01*
X30247164Y43345195D01*
X30234576Y43318581D01*
X30219441Y43293329D01*
X30201903Y43269682D01*
X30182132Y43247868D01*
X30160318Y43228097D01*
X30136671Y43210559D01*
X30111419Y43195424D01*
X30084805Y43182836D01*
X30057085Y43172918D01*
X30028527Y43165764D01*
X29999405Y43161445D01*
X29970000Y43160000D01*
X28070000Y43160000D01*
X28040595Y43161445D01*
X28011473Y43165764D01*
X27982915Y43172918D01*
X27955195Y43182836D01*
X27928581Y43195424D01*
X27903329Y43210559D01*
X27879682Y43228097D01*
X27857868Y43247868D01*
X27838097Y43269682D01*
X27820559Y43293329D01*
X27805424Y43318581D01*
X27792836Y43345195D01*
X27782918Y43372915D01*
X27775764Y43401473D01*
X27771445Y43430595D01*
X27770000Y43460000D01*
X27770000Y44060000D01*
X27771445Y44089405D01*
X27775764Y44118527D01*
X27782918Y44147085D01*
X27792836Y44174805D01*
X27805424Y44201419D01*
X27820559Y44226671D01*
X27838097Y44250318D01*
X27857868Y44272132D01*
X27879682Y44291903D01*
X27903329Y44309441D01*
X27928581Y44324576D01*
X27955195Y44337164D01*
X27982915Y44347082D01*
X28011473Y44354236D01*
X28040595Y44358555D01*
X28070000Y44360000D01*
X29970000Y44360000D01*
X29999405Y44358555D01*
X29999405Y44358555D01*
G37*
D13*
X29020000Y43760000D03*
D11*
G36*
X35499405Y46898555D02*
G01*
X35528527Y46894236D01*
X35557085Y46887082D01*
X35584805Y46877164D01*
X35611419Y46864576D01*
X35636671Y46849441D01*
X35660318Y46831903D01*
X35682132Y46812132D01*
X35701903Y46790318D01*
X35719441Y46766671D01*
X35734576Y46741419D01*
X35747164Y46714805D01*
X35757082Y46687085D01*
X35764236Y46658527D01*
X35768555Y46629405D01*
X35770000Y46600000D01*
X35770000Y46000000D01*
X35768555Y45970595D01*
X35764236Y45941473D01*
X35757082Y45912915D01*
X35747164Y45885195D01*
X35734576Y45858581D01*
X35719441Y45833329D01*
X35701903Y45809682D01*
X35682132Y45787868D01*
X35660318Y45768097D01*
X35636671Y45750559D01*
X35611419Y45735424D01*
X35584805Y45722836D01*
X35557085Y45712918D01*
X35528527Y45705764D01*
X35499405Y45701445D01*
X35470000Y45700000D01*
X33570000Y45700000D01*
X33540595Y45701445D01*
X33511473Y45705764D01*
X33482915Y45712918D01*
X33455195Y45722836D01*
X33428581Y45735424D01*
X33403329Y45750559D01*
X33379682Y45768097D01*
X33357868Y45787868D01*
X33338097Y45809682D01*
X33320559Y45833329D01*
X33305424Y45858581D01*
X33292836Y45885195D01*
X33282918Y45912915D01*
X33275764Y45941473D01*
X33271445Y45970595D01*
X33270000Y46000000D01*
X33270000Y46600000D01*
X33271445Y46629405D01*
X33275764Y46658527D01*
X33282918Y46687085D01*
X33292836Y46714805D01*
X33305424Y46741419D01*
X33320559Y46766671D01*
X33338097Y46790318D01*
X33357868Y46812132D01*
X33379682Y46831903D01*
X33403329Y46849441D01*
X33428581Y46864576D01*
X33455195Y46877164D01*
X33482915Y46887082D01*
X33511473Y46894236D01*
X33540595Y46898555D01*
X33570000Y46900000D01*
X35470000Y46900000D01*
X35499405Y46898555D01*
X35499405Y46898555D01*
G37*
D13*
X34520000Y46300000D03*
D11*
G36*
X29999405Y46898555D02*
G01*
X30028527Y46894236D01*
X30057085Y46887082D01*
X30084805Y46877164D01*
X30111419Y46864576D01*
X30136671Y46849441D01*
X30160318Y46831903D01*
X30182132Y46812132D01*
X30201903Y46790318D01*
X30219441Y46766671D01*
X30234576Y46741419D01*
X30247164Y46714805D01*
X30257082Y46687085D01*
X30264236Y46658527D01*
X30268555Y46629405D01*
X30270000Y46600000D01*
X30270000Y46000000D01*
X30268555Y45970595D01*
X30264236Y45941473D01*
X30257082Y45912915D01*
X30247164Y45885195D01*
X30234576Y45858581D01*
X30219441Y45833329D01*
X30201903Y45809682D01*
X30182132Y45787868D01*
X30160318Y45768097D01*
X30136671Y45750559D01*
X30111419Y45735424D01*
X30084805Y45722836D01*
X30057085Y45712918D01*
X30028527Y45705764D01*
X29999405Y45701445D01*
X29970000Y45700000D01*
X28070000Y45700000D01*
X28040595Y45701445D01*
X28011473Y45705764D01*
X27982915Y45712918D01*
X27955195Y45722836D01*
X27928581Y45735424D01*
X27903329Y45750559D01*
X27879682Y45768097D01*
X27857868Y45787868D01*
X27838097Y45809682D01*
X27820559Y45833329D01*
X27805424Y45858581D01*
X27792836Y45885195D01*
X27782918Y45912915D01*
X27775764Y45941473D01*
X27771445Y45970595D01*
X27770000Y46000000D01*
X27770000Y46600000D01*
X27771445Y46629405D01*
X27775764Y46658527D01*
X27782918Y46687085D01*
X27792836Y46714805D01*
X27805424Y46741419D01*
X27820559Y46766671D01*
X27838097Y46790318D01*
X27857868Y46812132D01*
X27879682Y46831903D01*
X27903329Y46849441D01*
X27928581Y46864576D01*
X27955195Y46877164D01*
X27982915Y46887082D01*
X28011473Y46894236D01*
X28040595Y46898555D01*
X28070000Y46900000D01*
X29970000Y46900000D01*
X29999405Y46898555D01*
X29999405Y46898555D01*
G37*
D13*
X29020000Y46300000D03*
D11*
G36*
X35499405Y49438555D02*
G01*
X35528527Y49434236D01*
X35557085Y49427082D01*
X35584805Y49417164D01*
X35611419Y49404576D01*
X35636671Y49389441D01*
X35660318Y49371903D01*
X35682132Y49352132D01*
X35701903Y49330318D01*
X35719441Y49306671D01*
X35734576Y49281419D01*
X35747164Y49254805D01*
X35757082Y49227085D01*
X35764236Y49198527D01*
X35768555Y49169405D01*
X35770000Y49140000D01*
X35770000Y48540000D01*
X35768555Y48510595D01*
X35764236Y48481473D01*
X35757082Y48452915D01*
X35747164Y48425195D01*
X35734576Y48398581D01*
X35719441Y48373329D01*
X35701903Y48349682D01*
X35682132Y48327868D01*
X35660318Y48308097D01*
X35636671Y48290559D01*
X35611419Y48275424D01*
X35584805Y48262836D01*
X35557085Y48252918D01*
X35528527Y48245764D01*
X35499405Y48241445D01*
X35470000Y48240000D01*
X33570000Y48240000D01*
X33540595Y48241445D01*
X33511473Y48245764D01*
X33482915Y48252918D01*
X33455195Y48262836D01*
X33428581Y48275424D01*
X33403329Y48290559D01*
X33379682Y48308097D01*
X33357868Y48327868D01*
X33338097Y48349682D01*
X33320559Y48373329D01*
X33305424Y48398581D01*
X33292836Y48425195D01*
X33282918Y48452915D01*
X33275764Y48481473D01*
X33271445Y48510595D01*
X33270000Y48540000D01*
X33270000Y49140000D01*
X33271445Y49169405D01*
X33275764Y49198527D01*
X33282918Y49227085D01*
X33292836Y49254805D01*
X33305424Y49281419D01*
X33320559Y49306671D01*
X33338097Y49330318D01*
X33357868Y49352132D01*
X33379682Y49371903D01*
X33403329Y49389441D01*
X33428581Y49404576D01*
X33455195Y49417164D01*
X33482915Y49427082D01*
X33511473Y49434236D01*
X33540595Y49438555D01*
X33570000Y49440000D01*
X35470000Y49440000D01*
X35499405Y49438555D01*
X35499405Y49438555D01*
G37*
D13*
X34520000Y48840000D03*
D11*
G36*
X29999405Y49438555D02*
G01*
X30028527Y49434236D01*
X30057085Y49427082D01*
X30084805Y49417164D01*
X30111419Y49404576D01*
X30136671Y49389441D01*
X30160318Y49371903D01*
X30182132Y49352132D01*
X30201903Y49330318D01*
X30219441Y49306671D01*
X30234576Y49281419D01*
X30247164Y49254805D01*
X30257082Y49227085D01*
X30264236Y49198527D01*
X30268555Y49169405D01*
X30270000Y49140000D01*
X30270000Y48540000D01*
X30268555Y48510595D01*
X30264236Y48481473D01*
X30257082Y48452915D01*
X30247164Y48425195D01*
X30234576Y48398581D01*
X30219441Y48373329D01*
X30201903Y48349682D01*
X30182132Y48327868D01*
X30160318Y48308097D01*
X30136671Y48290559D01*
X30111419Y48275424D01*
X30084805Y48262836D01*
X30057085Y48252918D01*
X30028527Y48245764D01*
X29999405Y48241445D01*
X29970000Y48240000D01*
X28070000Y48240000D01*
X28040595Y48241445D01*
X28011473Y48245764D01*
X27982915Y48252918D01*
X27955195Y48262836D01*
X27928581Y48275424D01*
X27903329Y48290559D01*
X27879682Y48308097D01*
X27857868Y48327868D01*
X27838097Y48349682D01*
X27820559Y48373329D01*
X27805424Y48398581D01*
X27792836Y48425195D01*
X27782918Y48452915D01*
X27775764Y48481473D01*
X27771445Y48510595D01*
X27770000Y48540000D01*
X27770000Y49140000D01*
X27771445Y49169405D01*
X27775764Y49198527D01*
X27782918Y49227085D01*
X27792836Y49254805D01*
X27805424Y49281419D01*
X27820559Y49306671D01*
X27838097Y49330318D01*
X27857868Y49352132D01*
X27879682Y49371903D01*
X27903329Y49389441D01*
X27928581Y49404576D01*
X27955195Y49417164D01*
X27982915Y49427082D01*
X28011473Y49434236D01*
X28040595Y49438555D01*
X28070000Y49440000D01*
X29970000Y49440000D01*
X29999405Y49438555D01*
X29999405Y49438555D01*
G37*
D13*
X29020000Y48840000D03*
D11*
G36*
X35499405Y51978555D02*
G01*
X35528527Y51974236D01*
X35557085Y51967082D01*
X35584805Y51957164D01*
X35611419Y51944576D01*
X35636671Y51929441D01*
X35660318Y51911903D01*
X35682132Y51892132D01*
X35701903Y51870318D01*
X35719441Y51846671D01*
X35734576Y51821419D01*
X35747164Y51794805D01*
X35757082Y51767085D01*
X35764236Y51738527D01*
X35768555Y51709405D01*
X35770000Y51680000D01*
X35770000Y51080000D01*
X35768555Y51050595D01*
X35764236Y51021473D01*
X35757082Y50992915D01*
X35747164Y50965195D01*
X35734576Y50938581D01*
X35719441Y50913329D01*
X35701903Y50889682D01*
X35682132Y50867868D01*
X35660318Y50848097D01*
X35636671Y50830559D01*
X35611419Y50815424D01*
X35584805Y50802836D01*
X35557085Y50792918D01*
X35528527Y50785764D01*
X35499405Y50781445D01*
X35470000Y50780000D01*
X33570000Y50780000D01*
X33540595Y50781445D01*
X33511473Y50785764D01*
X33482915Y50792918D01*
X33455195Y50802836D01*
X33428581Y50815424D01*
X33403329Y50830559D01*
X33379682Y50848097D01*
X33357868Y50867868D01*
X33338097Y50889682D01*
X33320559Y50913329D01*
X33305424Y50938581D01*
X33292836Y50965195D01*
X33282918Y50992915D01*
X33275764Y51021473D01*
X33271445Y51050595D01*
X33270000Y51080000D01*
X33270000Y51680000D01*
X33271445Y51709405D01*
X33275764Y51738527D01*
X33282918Y51767085D01*
X33292836Y51794805D01*
X33305424Y51821419D01*
X33320559Y51846671D01*
X33338097Y51870318D01*
X33357868Y51892132D01*
X33379682Y51911903D01*
X33403329Y51929441D01*
X33428581Y51944576D01*
X33455195Y51957164D01*
X33482915Y51967082D01*
X33511473Y51974236D01*
X33540595Y51978555D01*
X33570000Y51980000D01*
X35470000Y51980000D01*
X35499405Y51978555D01*
X35499405Y51978555D01*
G37*
D13*
X34520000Y51380000D03*
D11*
G36*
X29999405Y51978555D02*
G01*
X30028527Y51974236D01*
X30057085Y51967082D01*
X30084805Y51957164D01*
X30111419Y51944576D01*
X30136671Y51929441D01*
X30160318Y51911903D01*
X30182132Y51892132D01*
X30201903Y51870318D01*
X30219441Y51846671D01*
X30234576Y51821419D01*
X30247164Y51794805D01*
X30257082Y51767085D01*
X30264236Y51738527D01*
X30268555Y51709405D01*
X30270000Y51680000D01*
X30270000Y51080000D01*
X30268555Y51050595D01*
X30264236Y51021473D01*
X30257082Y50992915D01*
X30247164Y50965195D01*
X30234576Y50938581D01*
X30219441Y50913329D01*
X30201903Y50889682D01*
X30182132Y50867868D01*
X30160318Y50848097D01*
X30136671Y50830559D01*
X30111419Y50815424D01*
X30084805Y50802836D01*
X30057085Y50792918D01*
X30028527Y50785764D01*
X29999405Y50781445D01*
X29970000Y50780000D01*
X28070000Y50780000D01*
X28040595Y50781445D01*
X28011473Y50785764D01*
X27982915Y50792918D01*
X27955195Y50802836D01*
X27928581Y50815424D01*
X27903329Y50830559D01*
X27879682Y50848097D01*
X27857868Y50867868D01*
X27838097Y50889682D01*
X27820559Y50913329D01*
X27805424Y50938581D01*
X27792836Y50965195D01*
X27782918Y50992915D01*
X27775764Y51021473D01*
X27771445Y51050595D01*
X27770000Y51080000D01*
X27770000Y51680000D01*
X27771445Y51709405D01*
X27775764Y51738527D01*
X27782918Y51767085D01*
X27792836Y51794805D01*
X27805424Y51821419D01*
X27820559Y51846671D01*
X27838097Y51870318D01*
X27857868Y51892132D01*
X27879682Y51911903D01*
X27903329Y51929441D01*
X27928581Y51944576D01*
X27955195Y51957164D01*
X27982915Y51967082D01*
X28011473Y51974236D01*
X28040595Y51978555D01*
X28070000Y51980000D01*
X29970000Y51980000D01*
X29999405Y51978555D01*
X29999405Y51978555D01*
G37*
D13*
X29020000Y51380000D03*
D15*
X127300000Y48320000D03*
X127300000Y39680000D03*
D16*
X123030000Y48320000D03*
X123120000Y39680000D03*
D17*
X123650000Y46890000D03*
X123650000Y41110000D03*
D18*
X50200000Y46200000D03*
X50200000Y49700000D03*
X50200000Y54100000D03*
X50200000Y57600000D03*
D19*
X29420000Y19730000D03*
X29420000Y21000000D03*
X30690000Y19730000D03*
X30690000Y21000000D03*
X31960000Y19730000D03*
X31960000Y21000000D03*
X33230000Y19730000D03*
X33230000Y21000000D03*
X34500000Y19730000D03*
D20*
X34500000Y21000000D03*
D21*
X126100000Y17770000D03*
X126100000Y16230000D03*
D22*
X8430000Y11800000D03*
X9970000Y11800000D03*
D21*
X11000000Y44770000D03*
X11000000Y43230000D03*
X78300000Y9230000D03*
X78300000Y10770000D03*
X117700000Y9230000D03*
X117700000Y10770000D03*
D23*
X32500000Y10000000D03*
D24*
X28500000Y10000000D03*
D25*
X75350000Y12250000D03*
X75350000Y7750000D03*
X66250000Y7750000D03*
X66250000Y12250000D03*
X114750000Y12250000D03*
X114750000Y7750000D03*
X105650000Y7750000D03*
X105650000Y12250000D03*
X13450000Y41750000D03*
X13450000Y46250000D03*
X22550000Y46250000D03*
X22550000Y41750000D03*
D26*
X122000000Y18450000D03*
X123000000Y18450000D03*
X124000000Y18450000D03*
X124000000Y15550000D03*
X123000000Y15550000D03*
X122000000Y15550000D03*
D27*
X123000000Y17000000D03*
D11*
G36*
X124200000Y16250000D02*
G01*
X121800000Y16250000D01*
X121800000Y17550000D01*
X122000000Y17750000D01*
X124200000Y17750000D01*
X124200000Y16250000D01*
X124200000Y16250000D01*
G37*
D28*
X14900000Y8225000D03*
D29*
X15450000Y11775000D03*
X14350000Y11775000D03*
D30*
X126100000Y37500000D03*
D22*
X8430000Y9500000D03*
X9970000Y9500000D03*
D31*
X56600000Y49690000D03*
X56600000Y54110000D03*
D32*
X61400000Y54954350D03*
X61400000Y48845650D03*
D33*
X56600000Y57200000D03*
X56600000Y46600000D03*
D13*
X12400000Y26270000D03*
X8740000Y26270000D03*
X12400000Y29930000D03*
X8740000Y29930000D03*
X10570000Y26270000D03*
X10570000Y29930000D03*
X8740000Y28100000D03*
X12400000Y28100000D03*
X10570000Y28100000D03*
D34*
X107600000Y54000000D03*
X107600000Y52400000D03*
X105200000Y52400000D03*
X105200000Y54000000D03*
X66350000Y37800000D03*
X67250000Y37800000D03*
X68150000Y37800000D03*
X69050000Y37800000D03*
X66350000Y36900000D03*
X67250000Y36900000D03*
X68150000Y36900000D03*
X69050000Y36900000D03*
X81450000Y37800000D03*
X82350000Y37800000D03*
X83250000Y37800000D03*
X84150000Y37800000D03*
X81450000Y36900000D03*
X82350000Y36900000D03*
X83250000Y36900000D03*
X84150000Y36900000D03*
X81450000Y53850000D03*
X82350000Y53850000D03*
X83250000Y53850000D03*
X81450000Y54750000D03*
X81450000Y52950000D03*
X82350000Y52950000D03*
X83250000Y52950000D03*
X84150000Y52950000D03*
X60400000Y57200000D03*
X61400000Y57200000D03*
X62400000Y57200000D03*
X60400000Y58200000D03*
X61400000Y58200000D03*
X62400000Y58200000D03*
X82350000Y54750000D03*
X81450000Y55650000D03*
X72000000Y21100000D03*
X56900000Y21100000D03*
D27*
X85900000Y36600000D03*
D34*
X75500000Y32100000D03*
D27*
X60300000Y32100000D03*
D34*
X86500000Y26200000D03*
X91300000Y26200000D03*
X86500000Y30900000D03*
X106400000Y53200000D03*
X97200000Y58200000D03*
X98200000Y57200000D03*
X97200000Y56200000D03*
X99200000Y56200000D03*
X98200000Y55200000D03*
X100200000Y55100000D03*
X97200000Y54200000D03*
X99200000Y54200000D03*
X101200000Y54200000D03*
X102200000Y53200000D03*
X100200000Y53200000D03*
X98200000Y53200000D03*
X97200000Y52200000D03*
X98200000Y51200000D03*
X99200000Y52200000D03*
X101200000Y52200000D03*
X100200000Y51200000D03*
X99200000Y50200000D03*
X97200000Y50200000D03*
X97400000Y44400000D03*
X97400000Y43200000D03*
X97400000Y39600000D03*
X97400000Y38400000D03*
X97400000Y34800000D03*
X97400000Y36000000D03*
X97400000Y30000000D03*
X97400000Y31200000D03*
X97400000Y37200000D03*
X97400000Y28800000D03*
X98600000Y28800000D03*
X99800000Y28800000D03*
X98600000Y37200000D03*
X99800000Y37200000D03*
X101000000Y28800000D03*
X102200000Y28800000D03*
X103400000Y28800000D03*
X104600000Y28800000D03*
X105800000Y28800000D03*
X107000000Y28800000D03*
X107000000Y30000000D03*
X113900000Y28800000D03*
X111700000Y28800000D03*
X109500000Y54000000D03*
X109500000Y52400000D03*
X103600000Y54000000D03*
X103600000Y52400000D03*
X87700000Y26200000D03*
X88900000Y26200000D03*
X90100000Y26200000D03*
X112800000Y28800000D03*
X127400000Y34500000D03*
X127400000Y35500000D03*
X128600000Y34500000D03*
X128600000Y35500000D03*
X123000000Y17000000D03*
D35*
X112300000Y24500000D03*
D34*
X86500000Y24700000D03*
X87700000Y24700000D03*
X88900000Y24700000D03*
X90100000Y24700000D03*
X91300000Y24700000D03*
D35*
X48500000Y30300000D03*
X48500000Y31300000D03*
X48500000Y29300000D03*
X48000000Y24500000D03*
X49000000Y24500000D03*
X49000000Y27700000D03*
X48000000Y27700000D03*
D34*
X45500000Y30100000D03*
X44000000Y31600000D03*
X42500000Y31600000D03*
X41000000Y31600000D03*
X41000000Y30100000D03*
X42500000Y30100000D03*
X44000000Y30100000D03*
X41000000Y28600000D03*
X42500000Y28600000D03*
X51600000Y24700000D03*
X52900000Y24700000D03*
X51600000Y23200000D03*
X52900000Y23200000D03*
X52900000Y21700000D03*
X51600000Y21700000D03*
X52900000Y20200000D03*
X51600000Y20200000D03*
X50300000Y20200000D03*
X49000000Y20200000D03*
D27*
X2000000Y13200000D03*
X14600000Y2600000D03*
X20300000Y2600000D03*
X58500000Y36100000D03*
X73600000Y36100000D03*
X119300000Y27300000D03*
D34*
X71950000Y12250000D03*
X45500000Y31600000D03*
X71950000Y1200000D03*
D27*
X2200000Y35100000D03*
X2200000Y33100000D03*
X2200000Y31100000D03*
X2200000Y29100000D03*
X2200000Y27100000D03*
X2200000Y25100000D03*
X2200000Y23100000D03*
X3700000Y28100000D03*
X3700000Y30100000D03*
X3700000Y32100000D03*
X3700000Y34100000D03*
X3700000Y26100000D03*
X3700000Y24100000D03*
X5200000Y23100000D03*
X5200000Y25100000D03*
X5200000Y27100000D03*
X5200000Y29100000D03*
X5200000Y31100000D03*
X5200000Y33100000D03*
X6700000Y24100000D03*
X6700000Y26100000D03*
X6700000Y28100000D03*
X6700000Y30100000D03*
X6700000Y32100000D03*
X9700000Y24100000D03*
X8200000Y23100000D03*
X11200000Y23100000D03*
X12700000Y24100000D03*
X14200000Y23100000D03*
X15700000Y24100000D03*
X17200000Y23100000D03*
X14200000Y25100000D03*
X14200000Y27100000D03*
X14200000Y29100000D03*
X14200000Y31100000D03*
X15700000Y26100000D03*
X15700000Y28100000D03*
X15700000Y30100000D03*
X17200000Y31100000D03*
X17200000Y29100000D03*
X17200000Y27100000D03*
X17200000Y25100000D03*
X8200000Y33100000D03*
X9700000Y32100000D03*
X45000000Y17900004D03*
X122200000Y29200000D03*
D34*
X76550000Y37800000D03*
X77450000Y37800000D03*
X78350000Y37800000D03*
X79250000Y37800000D03*
X76550000Y36900000D03*
X77450000Y36900000D03*
X78350000Y36900000D03*
X79250000Y36900000D03*
X63250000Y36900000D03*
X64150000Y36900000D03*
X62350000Y36900000D03*
X62350000Y37800000D03*
X63250000Y37800000D03*
X64150000Y37800000D03*
X77450000Y45750000D03*
X78350000Y45750000D03*
X76550000Y44850000D03*
X77450000Y44850000D03*
X78350000Y44850000D03*
X61450000Y37800000D03*
X61450000Y36900000D03*
X61400000Y45600000D03*
X61400000Y46600000D03*
X60400000Y46600000D03*
X60400000Y45600000D03*
X62400000Y45600000D03*
X62400000Y46600000D03*
X76550000Y45750000D03*
X79250000Y44850000D03*
X76550000Y46650000D03*
X77450000Y46650000D03*
X76550000Y47550000D03*
D27*
X85900000Y38400000D03*
X52900000Y31300000D03*
X52900000Y29300000D03*
X85900000Y42900000D03*
X52900000Y30300000D03*
X72600000Y30500000D03*
X113000000Y21500000D03*
X58300000Y30500000D03*
D36*
X93100000Y21500000D03*
D34*
X109691735Y23100000D03*
X109700000Y21500000D03*
D13*
X5000000Y10600000D03*
X25700000Y4300000D03*
D27*
X41000000Y17907016D03*
D34*
X26300000Y33600000D03*
D37*
X10000000Y13200000D03*
D35*
X23600000Y39399996D03*
X21700000Y39400000D03*
D34*
X46318208Y3299989D03*
X48199984Y3600000D03*
D37*
X23400000Y19700000D03*
X23400000Y11950006D03*
D35*
X15570000Y37000000D03*
X14300000Y36300000D03*
X11760000Y37000008D03*
D34*
X4140000Y37000000D03*
D35*
X13030000Y34200000D03*
D37*
X23400000Y21100000D03*
X21800000Y21100000D03*
D35*
X53400000Y38700000D03*
X53400000Y40600000D03*
X51400000Y38700000D03*
D34*
X114600108Y22899996D03*
D35*
X57100000Y40100000D03*
X51400000Y41300000D03*
X57100000Y42100000D03*
X72200000Y42100010D03*
X72200000Y40600000D03*
X49400000Y38700000D03*
D34*
X116199990Y22900000D03*
D35*
X58000000Y40099990D03*
X49400000Y42000000D03*
X9200000Y40200000D03*
X9200000Y42600000D03*
X58000000Y42700000D03*
X73100000Y42699990D03*
X73100000Y40399992D03*
D37*
X16840000Y18060000D03*
D34*
X16840000Y10200000D03*
X94800000Y46250000D03*
X93950000Y46250000D03*
X93950000Y47750000D03*
X94800000Y47750000D03*
X93950000Y47000000D03*
X94800000Y47000000D03*
X104800000Y48000000D03*
X105700000Y48000000D03*
X105700000Y47000000D03*
X105700000Y46000000D03*
X104800000Y46000000D03*
X104800000Y47000000D03*
D35*
X123650000Y44900000D03*
X123650000Y43600000D03*
X123650000Y45750000D03*
X126350000Y45750000D03*
X16840000Y40199957D03*
X16840000Y43700000D03*
X47400000Y38700000D03*
X18100000Y40199957D03*
X47400006Y42700000D03*
X18100000Y43000000D03*
D38*
X65400000Y21100000D02*
X56900000Y21100000D01*
X66200000Y18800000D02*
X66200000Y20300000D01*
X66200000Y20300000D02*
X65400000Y21100000D01*
X80483399Y21100000D02*
X72000000Y21100000D01*
X81300000Y18800000D02*
X81300000Y20283399D01*
X81300000Y20283399D02*
X80483399Y21100000D01*
D39*
X123000000Y19100000D02*
X123000000Y18500000D01*
X123300000Y19400000D02*
X123000000Y19100000D01*
X125800000Y19400000D02*
X123300000Y19400000D01*
X126100000Y17700000D02*
X126100000Y19100000D01*
X126100000Y19100000D02*
X125800000Y19400000D01*
D38*
X117700000Y10770000D02*
X117700000Y11700000D01*
X117150000Y12250000D02*
X114750000Y12250000D01*
X117700000Y11700000D02*
X117150000Y12250000D01*
X114750000Y12250000D02*
X105650000Y12250000D01*
X78300000Y10770000D02*
X78300000Y11700000D01*
X77750000Y12250000D02*
X75350000Y12250000D01*
X78300000Y11700000D02*
X77750000Y12250000D01*
D40*
X49000000Y20200000D02*
X43500000Y20200000D01*
D39*
X8430000Y11800000D02*
X8430000Y9500000D01*
X2000000Y13200000D02*
X5700000Y13200000D01*
X7100000Y11800000D02*
X8430000Y11800000D01*
X5700000Y13200000D02*
X7100000Y11800000D01*
X11650000Y41750000D02*
X13450000Y41750000D01*
X11000000Y43230000D02*
X11000000Y42400000D01*
X11000000Y42400000D02*
X11650000Y41750000D01*
D38*
X34520000Y48840000D02*
X34520000Y46300000D01*
X34520000Y46300000D02*
X34520000Y43760000D01*
X34520000Y43760000D02*
X34520000Y41220000D01*
X29020000Y41220000D02*
X34520000Y41220000D01*
X71950000Y12250000D02*
X66250000Y12250000D01*
X75350000Y12250000D02*
X71950000Y12250000D01*
X36880000Y41220000D02*
X34520000Y41220000D01*
D39*
X37100000Y41000000D02*
X36880000Y41220000D01*
X37100000Y33900000D02*
X37100000Y41000000D01*
X34520000Y33600000D02*
X36800000Y33600000D01*
X36800000Y33600000D02*
X37100000Y33900000D01*
D38*
X29020000Y43760000D02*
X34520000Y43760000D01*
X29020000Y46300000D02*
X34520000Y46300000D01*
D39*
X123000000Y17000000D02*
X123000000Y18450000D01*
D38*
X85900000Y38400000D02*
X85900000Y42900000D01*
D39*
X123000000Y14600000D02*
X123000000Y15500000D01*
X125800000Y14600000D02*
X123000000Y14600000D01*
X126100000Y16230000D02*
X126100000Y14900000D01*
X126100000Y14900000D02*
X125800000Y14600000D01*
X109691735Y23100000D02*
X109691735Y21508265D01*
X109691735Y21508265D02*
X109700000Y21500000D01*
X121300000Y14600000D02*
X123000000Y14600000D01*
X113000000Y19800000D02*
X116200000Y16600000D01*
X116200000Y16600000D02*
X120200000Y16600000D01*
X120200000Y16600000D02*
X120800000Y16000000D01*
X113000000Y21500000D02*
X113000000Y19800000D01*
X120800000Y16000000D02*
X120800000Y15100000D01*
X120800000Y15100000D02*
X121300000Y14600000D01*
D38*
X82800000Y30500000D02*
X58300000Y30500000D01*
X83900000Y29400000D02*
X82800000Y30500000D01*
X83900000Y23900000D02*
X83900000Y29400000D01*
X93100000Y21500000D02*
X86300000Y21500000D01*
X86300000Y21500000D02*
X83900000Y23900000D01*
D40*
X5000000Y10600000D02*
X5000000Y9400000D01*
X5000000Y9400000D02*
X10100000Y4300000D01*
D39*
X14900000Y8225000D02*
X14900000Y4300000D01*
D40*
X10100000Y4300000D02*
X14900000Y4300000D01*
D38*
X41000000Y20300000D02*
X41000000Y17907042D01*
X34500000Y21000000D02*
X40300000Y21000000D01*
X40300000Y21000000D02*
X41000000Y20300000D01*
X29020000Y33600000D02*
X26300000Y33600000D01*
D40*
X41000000Y14500000D02*
X41000000Y17907016D01*
X14900000Y4300000D02*
X30800000Y4300000D01*
X30800000Y4300000D02*
X41000000Y14500000D01*
D39*
X10000000Y11830000D02*
X9970000Y11800000D01*
X10000000Y13200000D02*
X10000000Y11830000D01*
X14325000Y11800000D02*
X14350000Y11775000D01*
X9970000Y11800000D02*
X14325000Y11800000D01*
X9970000Y9500000D02*
X9970000Y11800000D01*
X13450000Y46250000D02*
X22550000Y46250000D01*
X11650000Y46250000D02*
X13450000Y46250000D01*
X11000000Y44770000D02*
X11000000Y45600000D01*
X11000000Y45600000D02*
X11650000Y46250000D01*
X24099990Y39899986D02*
X23600000Y39399996D01*
X22550000Y46250000D02*
X23750000Y46250000D01*
X23750000Y46250000D02*
X24099990Y45900010D01*
X24099990Y45900010D02*
X24099990Y39899986D01*
X21600000Y39400000D02*
X21700000Y39400000D01*
X23599996Y39400000D02*
X23600000Y39399996D01*
X21700000Y39400000D02*
X23599996Y39400000D01*
D38*
X114750000Y7750000D02*
X105650000Y7750000D01*
D39*
X115900000Y7750000D02*
X114750000Y7750000D01*
D38*
X117150000Y7750000D02*
X115900000Y7750000D01*
X117700000Y9230000D02*
X117700000Y8300000D01*
X117700000Y8300000D02*
X117150000Y7750000D01*
X46718207Y2899990D02*
X46318208Y3299989D01*
X104300000Y7750000D02*
X99050000Y2500000D01*
X99050000Y2500000D02*
X47118197Y2500000D01*
X105650000Y7750000D02*
X104300000Y7750000D01*
X47118197Y2500000D02*
X46718207Y2899990D01*
X77750000Y7750000D02*
X75350000Y7750000D01*
X78300000Y9230000D02*
X78300000Y8300000D01*
X78300000Y8300000D02*
X77750000Y7750000D01*
X75350000Y7750000D02*
X66250000Y7750000D01*
X48599983Y3200001D02*
X48199984Y3600000D01*
X65400001Y3200001D02*
X48599983Y3200001D01*
X66250000Y7750000D02*
X66250000Y4050000D01*
X66250000Y4050000D02*
X65400001Y3200001D01*
D39*
X23400000Y19700000D02*
X23400000Y11950006D01*
X22600000Y37000000D02*
X15570000Y37000000D01*
X24700000Y39100000D02*
X22600000Y37000000D01*
X24700000Y49300000D02*
X24700000Y39100000D01*
X29020000Y51380000D02*
X26780000Y51380000D01*
X26780000Y51380000D02*
X24700000Y49300000D01*
X23200000Y36300000D02*
X14300000Y36300000D01*
X32480000Y51380000D02*
X31200000Y50100000D01*
X34520000Y51380000D02*
X32480000Y51380000D01*
X31200000Y50100000D02*
X26800000Y50100000D01*
X26800000Y50100000D02*
X25300000Y48600000D01*
X25300000Y48600000D02*
X25300000Y38400000D01*
X25300000Y38400000D02*
X23200000Y36300000D01*
X12059999Y36700009D02*
X11760000Y37000008D01*
X26840000Y48840000D02*
X25900000Y47900000D01*
X29020000Y48840000D02*
X26840000Y48840000D01*
X25900000Y47900000D02*
X25900000Y37700000D01*
X25900000Y37700000D02*
X23800000Y35600000D01*
X23800000Y35600000D02*
X13160008Y35600000D01*
X13160008Y35600000D02*
X12059999Y36700009D01*
X34520000Y38680000D02*
X32480000Y38680000D01*
X31200000Y37400000D02*
X26900000Y37400000D01*
X26900000Y37400000D02*
X24400000Y34900000D01*
X6240000Y34900000D02*
X4140000Y37000000D01*
X32480000Y38680000D02*
X31200000Y37400000D01*
X24400000Y34900000D02*
X6240000Y34900000D01*
X25000000Y34200000D02*
X13030000Y34200000D01*
X29020000Y36140000D02*
X26940000Y36140000D01*
X26940000Y36140000D02*
X25000000Y34200000D01*
X23400000Y21100000D02*
X21800000Y21100000D01*
X53400000Y38700000D02*
X53400000Y40600000D01*
X114600108Y19799892D02*
X114600108Y22899996D01*
X121550000Y15550000D02*
X121300000Y15800000D01*
X122000000Y15550000D02*
X121550000Y15550000D01*
X121300000Y16400000D02*
X120600000Y17100000D01*
X121300000Y15800000D02*
X121300000Y16400000D01*
X120600000Y17100000D02*
X117300000Y17100000D01*
X117300000Y17100000D02*
X114600108Y19799892D01*
X51400000Y38700000D02*
X51400000Y41300000D01*
X57100000Y40100000D02*
X57100000Y42100000D01*
X72200000Y42100010D02*
X72200000Y40600000D01*
X116199990Y19800010D02*
X116199990Y22900000D01*
X118400000Y17600000D02*
X116199990Y19800010D01*
X120600000Y17600000D02*
X118400000Y17600000D01*
X122000000Y18450000D02*
X121450000Y18450000D01*
X121450000Y18450000D02*
X120600000Y17600000D01*
X49400000Y38700000D02*
X49400000Y42000000D01*
X9200000Y40200000D02*
X9200000Y42600000D01*
X58000000Y40099990D02*
X58000000Y42700000D01*
X73100000Y42699990D02*
X73100000Y40399992D01*
X16840000Y18060000D02*
X16840000Y10200000D01*
X123650000Y44900000D02*
X123650000Y43600000D01*
X123650000Y45750000D02*
X126350000Y45750000D01*
X16840000Y40199957D02*
X16840000Y43700000D01*
X47400000Y38700000D02*
X47400000Y42699994D01*
X47400000Y42699994D02*
X47400006Y42700000D01*
X18100000Y40199957D02*
X18100000Y43000000D01*
D41*
G36*
X76869480Y47750914D02*
G01*
X79450914Y45169480D01*
X79573000Y44874737D01*
X79573000Y36652606D01*
X79447394Y36527000D01*
X76352606Y36527000D01*
X76227000Y36652606D01*
X76227000Y47747394D01*
X76352606Y47873000D01*
X76574737Y47873000D01*
X76869480Y47750914D01*
X76869480Y47750914D01*
G37*
X76869480Y47750914D02*
X79450914Y45169480D01*
X79573000Y44874737D01*
X79573000Y36652606D01*
X79447394Y36527000D01*
X76352606Y36527000D01*
X76227000Y36652606D01*
X76227000Y47747394D01*
X76352606Y47873000D01*
X76574737Y47873000D01*
X76869480Y47750914D01*
G36*
X81769480Y55850914D02*
G01*
X84350914Y53269480D01*
X84473000Y52974737D01*
X84473000Y36652606D01*
X84347394Y36527000D01*
X81252606Y36527000D01*
X81127000Y36652606D01*
X81127000Y55847394D01*
X81252606Y55973000D01*
X81474737Y55973000D01*
X81769480Y55850914D01*
X81769480Y55850914D01*
G37*
X81769480Y55850914D02*
X84350914Y53269480D01*
X84473000Y52974737D01*
X84473000Y36652606D01*
X84347394Y36527000D01*
X81252606Y36527000D01*
X81127000Y36652606D01*
X81127000Y55847394D01*
X81252606Y55973000D01*
X81474737Y55973000D01*
X81769480Y55850914D01*
G36*
X106073000Y48247394D02*
G01*
X106073000Y45752606D01*
X105947394Y45627000D01*
X93752606Y45627000D01*
X93627000Y45752606D01*
X93627000Y48247394D01*
X93752606Y48373000D01*
X105947394Y48373000D01*
X106073000Y48247394D01*
X106073000Y48247394D01*
G37*
X106073000Y48247394D02*
X106073000Y45752606D01*
X105947394Y45627000D01*
X93752606Y45627000D01*
X93627000Y45752606D01*
X93627000Y48247394D01*
X93752606Y48373000D01*
X105947394Y48373000D01*
X106073000Y48247394D01*
D39*
G36*
X124200000Y58958578D02*
G01*
X124200000Y54200000D01*
X124201921Y54180491D01*
X124207612Y54161732D01*
X124216853Y54144443D01*
X124229289Y54129289D01*
X124629289Y53729289D01*
X124644443Y53716853D01*
X124661732Y53707612D01*
X124680491Y53701921D01*
X124700000Y53700000D01*
X129258578Y53700000D01*
X129450000Y53508578D01*
X129450000Y30891422D01*
X129258578Y30700000D01*
X124800000Y30700000D01*
X124780491Y30698079D01*
X124761732Y30692388D01*
X124744443Y30683147D01*
X124729289Y30670711D01*
X124358578Y30300000D01*
X115900000Y30300000D01*
X115880491Y30298079D01*
X115861732Y30292388D01*
X115844443Y30283147D01*
X115829289Y30270711D01*
X115429289Y29870711D01*
X115416853Y29855557D01*
X115407612Y29838268D01*
X115401921Y29819509D01*
X115400000Y29800000D01*
X115400000Y28441422D01*
X114958578Y28000000D01*
X96741422Y28000000D01*
X96400000Y28341422D01*
X96400000Y39457065D01*
X121801691Y39457065D01*
X121849268Y39318691D01*
X121933604Y39185026D01*
X122042397Y39070382D01*
X122171465Y38979165D01*
X122315849Y38914881D01*
X122470000Y38880000D01*
X123020000Y38880000D01*
X123020000Y39580000D01*
X123220000Y39580000D01*
X123220000Y38880000D01*
X123770000Y38880000D01*
X123924151Y38914881D01*
X124068535Y38979165D01*
X124197603Y39070382D01*
X124306396Y39185026D01*
X124390732Y39318691D01*
X124438309Y39457065D01*
X126231691Y39457065D01*
X126279268Y39318691D01*
X126363604Y39185026D01*
X126472397Y39070382D01*
X126601465Y38979165D01*
X126745849Y38914881D01*
X126900000Y38880000D01*
X127200000Y38880000D01*
X127200000Y39580000D01*
X127400000Y39580000D01*
X127400000Y38880000D01*
X127700000Y38880000D01*
X127854151Y38914881D01*
X127998535Y38979165D01*
X128127603Y39070382D01*
X128236396Y39185026D01*
X128320732Y39318691D01*
X128368309Y39457065D01*
X128318070Y39580000D01*
X127400000Y39580000D01*
X127200000Y39580000D01*
X126281930Y39580000D01*
X126231691Y39457065D01*
X124438309Y39457065D01*
X124388070Y39580000D01*
X123220000Y39580000D01*
X123020000Y39580000D01*
X121851930Y39580000D01*
X121801691Y39457065D01*
X96400000Y39457065D01*
X96400000Y39902935D01*
X121801691Y39902935D01*
X121851930Y39780000D01*
X123020000Y39780000D01*
X123020000Y39800000D01*
X123220000Y39800000D01*
X123220000Y39780000D01*
X124388070Y39780000D01*
X124438309Y39902935D01*
X126231691Y39902935D01*
X126281930Y39780000D01*
X127200000Y39780000D01*
X127200000Y40480000D01*
X127400000Y40480000D01*
X127400000Y39780000D01*
X128318070Y39780000D01*
X128368309Y39902935D01*
X128320732Y40041309D01*
X128236396Y40174974D01*
X128127603Y40289618D01*
X127998535Y40380835D01*
X127854151Y40445119D01*
X127700000Y40480000D01*
X127400000Y40480000D01*
X127200000Y40480000D01*
X126900000Y40480000D01*
X126745849Y40445119D01*
X126601465Y40380835D01*
X126472397Y40289618D01*
X126363604Y40174974D01*
X126279268Y40041309D01*
X126231691Y39902935D01*
X124438309Y39902935D01*
X124390732Y40041309D01*
X124306396Y40174974D01*
X124197603Y40289618D01*
X124068535Y40380835D01*
X124050755Y40388751D01*
X124110563Y40420719D01*
X124236185Y40523815D01*
X124339281Y40649437D01*
X124415888Y40792759D01*
X124463062Y40948272D01*
X124478991Y41110000D01*
X124463062Y41271728D01*
X124415888Y41427241D01*
X124339281Y41570563D01*
X124236185Y41696185D01*
X124110563Y41799281D01*
X123967241Y41875888D01*
X123811728Y41923062D01*
X123690521Y41935000D01*
X123609479Y41935000D01*
X123488272Y41923062D01*
X123332759Y41875888D01*
X123189437Y41799281D01*
X123063815Y41696185D01*
X122960719Y41570563D01*
X122884112Y41427241D01*
X122836938Y41271728D01*
X122821009Y41110000D01*
X122836938Y40948272D01*
X122884112Y40792759D01*
X122960719Y40649437D01*
X123063815Y40523815D01*
X123117203Y40480000D01*
X122470000Y40480000D01*
X122315849Y40445119D01*
X122171465Y40380835D01*
X122042397Y40289618D01*
X121933604Y40174974D01*
X121849268Y40041309D01*
X121801691Y39902935D01*
X96400000Y39902935D01*
X96400000Y44458578D01*
X96741422Y44800000D01*
X106400000Y44800000D01*
X106419509Y44801921D01*
X106438268Y44807612D01*
X106455557Y44816853D01*
X106470711Y44829289D01*
X106870711Y45229289D01*
X106883147Y45244443D01*
X106892388Y45261732D01*
X106898079Y45280491D01*
X106900000Y45300000D01*
X106900000Y46890000D01*
X122821009Y46890000D01*
X122836938Y46728272D01*
X122884112Y46572759D01*
X122960719Y46429437D01*
X123063815Y46303815D01*
X123068554Y46299925D01*
X123028599Y46259970D01*
X122941049Y46128942D01*
X122880743Y45983351D01*
X122850000Y45828793D01*
X122850000Y45671207D01*
X122880743Y45516649D01*
X122941049Y45371058D01*
X122971824Y45325000D01*
X122941049Y45278942D01*
X122880743Y45133351D01*
X122850000Y44978793D01*
X122850000Y44821207D01*
X122880743Y44666649D01*
X122941049Y44521058D01*
X123028599Y44390030D01*
X123050000Y44368629D01*
X123050001Y44131372D01*
X123028599Y44109970D01*
X122941049Y43978942D01*
X122880743Y43833351D01*
X122850000Y43678793D01*
X122850000Y43521207D01*
X122880743Y43366649D01*
X122941049Y43221058D01*
X123028599Y43090030D01*
X123140030Y42978599D01*
X123271058Y42891049D01*
X123416649Y42830743D01*
X123571207Y42800000D01*
X123728793Y42800000D01*
X123883351Y42830743D01*
X124028942Y42891049D01*
X124159970Y42978599D01*
X124271401Y43090030D01*
X124358951Y43221058D01*
X124419257Y43366649D01*
X124450000Y43521207D01*
X124450000Y43678793D01*
X124419257Y43833351D01*
X124358951Y43978942D01*
X124271401Y44109970D01*
X124250000Y44131371D01*
X124250000Y44368629D01*
X124271401Y44390030D01*
X124358951Y44521058D01*
X124419257Y44666649D01*
X124450000Y44821207D01*
X124450000Y44978793D01*
X124419257Y45133351D01*
X124412361Y45150000D01*
X125818629Y45150000D01*
X125840030Y45128599D01*
X125971058Y45041049D01*
X126116649Y44980743D01*
X126271207Y44950000D01*
X126428793Y44950000D01*
X126583351Y44980743D01*
X126728942Y45041049D01*
X126859970Y45128599D01*
X126971401Y45240030D01*
X127058951Y45371058D01*
X127119257Y45516649D01*
X127150000Y45671207D01*
X127150000Y45828793D01*
X127119257Y45983351D01*
X127058951Y46128942D01*
X126971401Y46259970D01*
X126859970Y46371401D01*
X126728942Y46458951D01*
X126583351Y46519257D01*
X126428793Y46550000D01*
X126271207Y46550000D01*
X126116649Y46519257D01*
X125971058Y46458951D01*
X125840030Y46371401D01*
X125818629Y46350000D01*
X124274088Y46350000D01*
X124339281Y46429437D01*
X124415888Y46572759D01*
X124463062Y46728272D01*
X124478991Y46890000D01*
X124463062Y47051728D01*
X124415888Y47207241D01*
X124339281Y47350563D01*
X124236185Y47476185D01*
X124110563Y47579281D01*
X124003257Y47636637D01*
X124107603Y47710382D01*
X124216396Y47825026D01*
X124300732Y47958691D01*
X124348309Y48097065D01*
X126231691Y48097065D01*
X126279268Y47958691D01*
X126363604Y47825026D01*
X126472397Y47710382D01*
X126601465Y47619165D01*
X126745849Y47554881D01*
X126900000Y47520000D01*
X127200000Y47520000D01*
X127200000Y48220000D01*
X127400000Y48220000D01*
X127400000Y47520000D01*
X127700000Y47520000D01*
X127854151Y47554881D01*
X127998535Y47619165D01*
X128127603Y47710382D01*
X128236396Y47825026D01*
X128320732Y47958691D01*
X128368309Y48097065D01*
X128318070Y48220000D01*
X127400000Y48220000D01*
X127200000Y48220000D01*
X126281930Y48220000D01*
X126231691Y48097065D01*
X124348309Y48097065D01*
X124298070Y48220000D01*
X123130000Y48220000D01*
X123130000Y47530502D01*
X123063815Y47476185D01*
X122960719Y47350563D01*
X122884112Y47207241D01*
X122836938Y47051728D01*
X122821009Y46890000D01*
X106900000Y46890000D01*
X106900000Y48097065D01*
X121711691Y48097065D01*
X121759268Y47958691D01*
X121843604Y47825026D01*
X121952397Y47710382D01*
X122081465Y47619165D01*
X122225849Y47554881D01*
X122380000Y47520000D01*
X122930000Y47520000D01*
X122930000Y48220000D01*
X121761930Y48220000D01*
X121711691Y48097065D01*
X106900000Y48097065D01*
X106900000Y48542935D01*
X121711691Y48542935D01*
X121761930Y48420000D01*
X122930000Y48420000D01*
X122930000Y49120000D01*
X123130000Y49120000D01*
X123130000Y48420000D01*
X124298070Y48420000D01*
X124348309Y48542935D01*
X126231691Y48542935D01*
X126281930Y48420000D01*
X127200000Y48420000D01*
X127200000Y49120000D01*
X127400000Y49120000D01*
X127400000Y48420000D01*
X128318070Y48420000D01*
X128368309Y48542935D01*
X128320732Y48681309D01*
X128236396Y48814974D01*
X128127603Y48929618D01*
X127998535Y49020835D01*
X127854151Y49085119D01*
X127700000Y49120000D01*
X127400000Y49120000D01*
X127200000Y49120000D01*
X126900000Y49120000D01*
X126745849Y49085119D01*
X126601465Y49020835D01*
X126472397Y48929618D01*
X126363604Y48814974D01*
X126279268Y48681309D01*
X126231691Y48542935D01*
X124348309Y48542935D01*
X124300732Y48681309D01*
X124216396Y48814974D01*
X124107603Y48929618D01*
X123978535Y49020835D01*
X123834151Y49085119D01*
X123680000Y49120000D01*
X123130000Y49120000D01*
X122930000Y49120000D01*
X122380000Y49120000D01*
X122225849Y49085119D01*
X122081465Y49020835D01*
X121952397Y48929618D01*
X121843604Y48814974D01*
X121759268Y48681309D01*
X121711691Y48542935D01*
X106900000Y48542935D01*
X106900000Y48700000D01*
X106898079Y48719509D01*
X106892388Y48738268D01*
X106883147Y48755557D01*
X106870711Y48770711D01*
X106470711Y49170711D01*
X106455557Y49183147D01*
X106438268Y49192388D01*
X106419509Y49198079D01*
X106400000Y49200000D01*
X96741422Y49200000D01*
X96400000Y49541422D01*
X96400000Y58958578D01*
X96741422Y59300000D01*
X123858578Y59300000D01*
X124200000Y58958578D01*
X124200000Y58958578D01*
G37*
X124200000Y58958578D02*
X124200000Y54200000D01*
X124201921Y54180491D01*
X124207612Y54161732D01*
X124216853Y54144443D01*
X124229289Y54129289D01*
X124629289Y53729289D01*
X124644443Y53716853D01*
X124661732Y53707612D01*
X124680491Y53701921D01*
X124700000Y53700000D01*
X129258578Y53700000D01*
X129450000Y53508578D01*
X129450000Y30891422D01*
X129258578Y30700000D01*
X124800000Y30700000D01*
X124780491Y30698079D01*
X124761732Y30692388D01*
X124744443Y30683147D01*
X124729289Y30670711D01*
X124358578Y30300000D01*
X115900000Y30300000D01*
X115880491Y30298079D01*
X115861732Y30292388D01*
X115844443Y30283147D01*
X115829289Y30270711D01*
X115429289Y29870711D01*
X115416853Y29855557D01*
X115407612Y29838268D01*
X115401921Y29819509D01*
X115400000Y29800000D01*
X115400000Y28441422D01*
X114958578Y28000000D01*
X96741422Y28000000D01*
X96400000Y28341422D01*
X96400000Y39457065D01*
X121801691Y39457065D01*
X121849268Y39318691D01*
X121933604Y39185026D01*
X122042397Y39070382D01*
X122171465Y38979165D01*
X122315849Y38914881D01*
X122470000Y38880000D01*
X123020000Y38880000D01*
X123020000Y39580000D01*
X123220000Y39580000D01*
X123220000Y38880000D01*
X123770000Y38880000D01*
X123924151Y38914881D01*
X124068535Y38979165D01*
X124197603Y39070382D01*
X124306396Y39185026D01*
X124390732Y39318691D01*
X124438309Y39457065D01*
X126231691Y39457065D01*
X126279268Y39318691D01*
X126363604Y39185026D01*
X126472397Y39070382D01*
X126601465Y38979165D01*
X126745849Y38914881D01*
X126900000Y38880000D01*
X127200000Y38880000D01*
X127200000Y39580000D01*
X127400000Y39580000D01*
X127400000Y38880000D01*
X127700000Y38880000D01*
X127854151Y38914881D01*
X127998535Y38979165D01*
X128127603Y39070382D01*
X128236396Y39185026D01*
X128320732Y39318691D01*
X128368309Y39457065D01*
X128318070Y39580000D01*
X127400000Y39580000D01*
X127200000Y39580000D01*
X126281930Y39580000D01*
X126231691Y39457065D01*
X124438309Y39457065D01*
X124388070Y39580000D01*
X123220000Y39580000D01*
X123020000Y39580000D01*
X121851930Y39580000D01*
X121801691Y39457065D01*
X96400000Y39457065D01*
X96400000Y39902935D01*
X121801691Y39902935D01*
X121851930Y39780000D01*
X123020000Y39780000D01*
X123020000Y39800000D01*
X123220000Y39800000D01*
X123220000Y39780000D01*
X124388070Y39780000D01*
X124438309Y39902935D01*
X126231691Y39902935D01*
X126281930Y39780000D01*
X127200000Y39780000D01*
X127200000Y40480000D01*
X127400000Y40480000D01*
X127400000Y39780000D01*
X128318070Y39780000D01*
X128368309Y39902935D01*
X128320732Y40041309D01*
X128236396Y40174974D01*
X128127603Y40289618D01*
X127998535Y40380835D01*
X127854151Y40445119D01*
X127700000Y40480000D01*
X127400000Y40480000D01*
X127200000Y40480000D01*
X126900000Y40480000D01*
X126745849Y40445119D01*
X126601465Y40380835D01*
X126472397Y40289618D01*
X126363604Y40174974D01*
X126279268Y40041309D01*
X126231691Y39902935D01*
X124438309Y39902935D01*
X124390732Y40041309D01*
X124306396Y40174974D01*
X124197603Y40289618D01*
X124068535Y40380835D01*
X124050755Y40388751D01*
X124110563Y40420719D01*
X124236185Y40523815D01*
X124339281Y40649437D01*
X124415888Y40792759D01*
X124463062Y40948272D01*
X124478991Y41110000D01*
X124463062Y41271728D01*
X124415888Y41427241D01*
X124339281Y41570563D01*
X124236185Y41696185D01*
X124110563Y41799281D01*
X123967241Y41875888D01*
X123811728Y41923062D01*
X123690521Y41935000D01*
X123609479Y41935000D01*
X123488272Y41923062D01*
X123332759Y41875888D01*
X123189437Y41799281D01*
X123063815Y41696185D01*
X122960719Y41570563D01*
X122884112Y41427241D01*
X122836938Y41271728D01*
X122821009Y41110000D01*
X122836938Y40948272D01*
X122884112Y40792759D01*
X122960719Y40649437D01*
X123063815Y40523815D01*
X123117203Y40480000D01*
X122470000Y40480000D01*
X122315849Y40445119D01*
X122171465Y40380835D01*
X122042397Y40289618D01*
X121933604Y40174974D01*
X121849268Y40041309D01*
X121801691Y39902935D01*
X96400000Y39902935D01*
X96400000Y44458578D01*
X96741422Y44800000D01*
X106400000Y44800000D01*
X106419509Y44801921D01*
X106438268Y44807612D01*
X106455557Y44816853D01*
X106470711Y44829289D01*
X106870711Y45229289D01*
X106883147Y45244443D01*
X106892388Y45261732D01*
X106898079Y45280491D01*
X106900000Y45300000D01*
X106900000Y46890000D01*
X122821009Y46890000D01*
X122836938Y46728272D01*
X122884112Y46572759D01*
X122960719Y46429437D01*
X123063815Y46303815D01*
X123068554Y46299925D01*
X123028599Y46259970D01*
X122941049Y46128942D01*
X122880743Y45983351D01*
X122850000Y45828793D01*
X122850000Y45671207D01*
X122880743Y45516649D01*
X122941049Y45371058D01*
X122971824Y45325000D01*
X122941049Y45278942D01*
X122880743Y45133351D01*
X122850000Y44978793D01*
X122850000Y44821207D01*
X122880743Y44666649D01*
X122941049Y44521058D01*
X123028599Y44390030D01*
X123050000Y44368629D01*
X123050001Y44131372D01*
X123028599Y44109970D01*
X122941049Y43978942D01*
X122880743Y43833351D01*
X122850000Y43678793D01*
X122850000Y43521207D01*
X122880743Y43366649D01*
X122941049Y43221058D01*
X123028599Y43090030D01*
X123140030Y42978599D01*
X123271058Y42891049D01*
X123416649Y42830743D01*
X123571207Y42800000D01*
X123728793Y42800000D01*
X123883351Y42830743D01*
X124028942Y42891049D01*
X124159970Y42978599D01*
X124271401Y43090030D01*
X124358951Y43221058D01*
X124419257Y43366649D01*
X124450000Y43521207D01*
X124450000Y43678793D01*
X124419257Y43833351D01*
X124358951Y43978942D01*
X124271401Y44109970D01*
X124250000Y44131371D01*
X124250000Y44368629D01*
X124271401Y44390030D01*
X124358951Y44521058D01*
X124419257Y44666649D01*
X124450000Y44821207D01*
X124450000Y44978793D01*
X124419257Y45133351D01*
X124412361Y45150000D01*
X125818629Y45150000D01*
X125840030Y45128599D01*
X125971058Y45041049D01*
X126116649Y44980743D01*
X126271207Y44950000D01*
X126428793Y44950000D01*
X126583351Y44980743D01*
X126728942Y45041049D01*
X126859970Y45128599D01*
X126971401Y45240030D01*
X127058951Y45371058D01*
X127119257Y45516649D01*
X127150000Y45671207D01*
X127150000Y45828793D01*
X127119257Y45983351D01*
X127058951Y46128942D01*
X126971401Y46259970D01*
X126859970Y46371401D01*
X126728942Y46458951D01*
X126583351Y46519257D01*
X126428793Y46550000D01*
X126271207Y46550000D01*
X126116649Y46519257D01*
X125971058Y46458951D01*
X125840030Y46371401D01*
X125818629Y46350000D01*
X124274088Y46350000D01*
X124339281Y46429437D01*
X124415888Y46572759D01*
X124463062Y46728272D01*
X124478991Y46890000D01*
X124463062Y47051728D01*
X124415888Y47207241D01*
X124339281Y47350563D01*
X124236185Y47476185D01*
X124110563Y47579281D01*
X124003257Y47636637D01*
X124107603Y47710382D01*
X124216396Y47825026D01*
X124300732Y47958691D01*
X124348309Y48097065D01*
X126231691Y48097065D01*
X126279268Y47958691D01*
X126363604Y47825026D01*
X126472397Y47710382D01*
X126601465Y47619165D01*
X126745849Y47554881D01*
X126900000Y47520000D01*
X127200000Y47520000D01*
X127200000Y48220000D01*
X127400000Y48220000D01*
X127400000Y47520000D01*
X127700000Y47520000D01*
X127854151Y47554881D01*
X127998535Y47619165D01*
X128127603Y47710382D01*
X128236396Y47825026D01*
X128320732Y47958691D01*
X128368309Y48097065D01*
X128318070Y48220000D01*
X127400000Y48220000D01*
X127200000Y48220000D01*
X126281930Y48220000D01*
X126231691Y48097065D01*
X124348309Y48097065D01*
X124298070Y48220000D01*
X123130000Y48220000D01*
X123130000Y47530502D01*
X123063815Y47476185D01*
X122960719Y47350563D01*
X122884112Y47207241D01*
X122836938Y47051728D01*
X122821009Y46890000D01*
X106900000Y46890000D01*
X106900000Y48097065D01*
X121711691Y48097065D01*
X121759268Y47958691D01*
X121843604Y47825026D01*
X121952397Y47710382D01*
X122081465Y47619165D01*
X122225849Y47554881D01*
X122380000Y47520000D01*
X122930000Y47520000D01*
X122930000Y48220000D01*
X121761930Y48220000D01*
X121711691Y48097065D01*
X106900000Y48097065D01*
X106900000Y48542935D01*
X121711691Y48542935D01*
X121761930Y48420000D01*
X122930000Y48420000D01*
X122930000Y49120000D01*
X123130000Y49120000D01*
X123130000Y48420000D01*
X124298070Y48420000D01*
X124348309Y48542935D01*
X126231691Y48542935D01*
X126281930Y48420000D01*
X127200000Y48420000D01*
X127200000Y49120000D01*
X127400000Y49120000D01*
X127400000Y48420000D01*
X128318070Y48420000D01*
X128368309Y48542935D01*
X128320732Y48681309D01*
X128236396Y48814974D01*
X128127603Y48929618D01*
X127998535Y49020835D01*
X127854151Y49085119D01*
X127700000Y49120000D01*
X127400000Y49120000D01*
X127200000Y49120000D01*
X126900000Y49120000D01*
X126745849Y49085119D01*
X126601465Y49020835D01*
X126472397Y48929618D01*
X126363604Y48814974D01*
X126279268Y48681309D01*
X126231691Y48542935D01*
X124348309Y48542935D01*
X124300732Y48681309D01*
X124216396Y48814974D01*
X124107603Y48929618D01*
X123978535Y49020835D01*
X123834151Y49085119D01*
X123680000Y49120000D01*
X123130000Y49120000D01*
X122930000Y49120000D01*
X122380000Y49120000D01*
X122225849Y49085119D01*
X122081465Y49020835D01*
X121952397Y48929618D01*
X121843604Y48814974D01*
X121759268Y48681309D01*
X121711691Y48542935D01*
X106900000Y48542935D01*
X106900000Y48700000D01*
X106898079Y48719509D01*
X106892388Y48738268D01*
X106883147Y48755557D01*
X106870711Y48770711D01*
X106470711Y49170711D01*
X106455557Y49183147D01*
X106438268Y49192388D01*
X106419509Y49198079D01*
X106400000Y49200000D01*
X96741422Y49200000D01*
X96400000Y49541422D01*
X96400000Y58958578D01*
X96741422Y59300000D01*
X123858578Y59300000D01*
X124200000Y58958578D01*
G36*
X49568216Y51123607D02*
G01*
X49367315Y51016223D01*
X49224813Y50816609D01*
X50200000Y49841421D01*
X51128078Y50769500D01*
X54927048Y50769500D01*
X54928500Y49865000D01*
X55003500Y49790000D01*
X56500000Y49790000D01*
X56500000Y50994500D01*
X56700000Y50994500D01*
X56700000Y49790000D01*
X58196500Y49790000D01*
X58271500Y49865000D01*
X58271790Y50045800D01*
X59650748Y50045800D01*
X59652200Y49020650D01*
X59727200Y48945650D01*
X61300000Y48945650D01*
X61300000Y50270800D01*
X61500000Y50270800D01*
X61500000Y48945650D01*
X63072800Y48945650D01*
X63147800Y49020650D01*
X63149252Y50045800D01*
X63143460Y50104610D01*
X63126305Y50161161D01*
X63098448Y50213278D01*
X63060959Y50258959D01*
X63015278Y50296448D01*
X62963161Y50324305D01*
X62906610Y50341460D01*
X62847800Y50347252D01*
X61575000Y50345800D01*
X61500000Y50270800D01*
X61300000Y50270800D01*
X61225000Y50345800D01*
X59952200Y50347252D01*
X59893390Y50341460D01*
X59836839Y50324305D01*
X59784722Y50296448D01*
X59739041Y50258959D01*
X59701552Y50213278D01*
X59673695Y50161161D01*
X59656540Y50104610D01*
X59650748Y50045800D01*
X58271790Y50045800D01*
X58272952Y50769500D01*
X58267160Y50828310D01*
X58250005Y50884861D01*
X58222148Y50936978D01*
X58184659Y50982659D01*
X58138978Y51020148D01*
X58086861Y51048005D01*
X58030310Y51065160D01*
X57971500Y51070952D01*
X56775000Y51069500D01*
X56700000Y50994500D01*
X56500000Y50994500D01*
X56425000Y51069500D01*
X55228500Y51070952D01*
X55169690Y51065160D01*
X55113139Y51048005D01*
X55061022Y51020148D01*
X55015341Y50982659D01*
X54977852Y50936978D01*
X54949995Y50884861D01*
X54932840Y50828310D01*
X54927048Y50769500D01*
X51128078Y50769500D01*
X51175187Y50816609D01*
X51032685Y51016223D01*
X50759903Y51153380D01*
X50591153Y51200000D01*
X64158578Y51200000D01*
X64500000Y50858578D01*
X64500000Y36641422D01*
X64358578Y36500000D01*
X61241422Y36500000D01*
X61100000Y36641422D01*
X61100000Y44000000D01*
X61098079Y44019509D01*
X61092388Y44038268D01*
X61083147Y44055557D01*
X61070711Y44070711D01*
X60670711Y44470711D01*
X60655557Y44483147D01*
X60638268Y44492388D01*
X60619509Y44498079D01*
X60600000Y44500000D01*
X46800000Y44500000D01*
X46780491Y44498079D01*
X46761732Y44492388D01*
X46744443Y44483147D01*
X46729289Y44470711D01*
X46329289Y44070711D01*
X46316853Y44055557D01*
X46307612Y44038268D01*
X46301921Y44019509D01*
X46300000Y44000000D01*
X46300000Y37400000D01*
X46301921Y37380491D01*
X46307612Y37361732D01*
X46316853Y37344443D01*
X46329289Y37329289D01*
X46729289Y36929289D01*
X46744443Y36916853D01*
X46761732Y36907612D01*
X46780491Y36901921D01*
X46800000Y36900000D01*
X53158578Y36900000D01*
X53500000Y36558578D01*
X53500000Y29241422D01*
X53158578Y28900000D01*
X50441422Y28900000D01*
X50100000Y29241422D01*
X50100000Y32900000D01*
X50098079Y32919509D01*
X50092388Y32938268D01*
X50083147Y32955557D01*
X50070711Y32970711D01*
X49670711Y33370711D01*
X49655557Y33383147D01*
X49638268Y33392388D01*
X49619509Y33398079D01*
X49600000Y33400000D01*
X44041422Y33400000D01*
X43700000Y33741422D01*
X43700000Y45083391D01*
X49224813Y45083391D01*
X49367315Y44883777D01*
X49640097Y44746620D01*
X49934396Y44665315D01*
X50238902Y44642986D01*
X50541913Y44680493D01*
X50831784Y44776393D01*
X51032685Y44883777D01*
X51175187Y45083391D01*
X50200000Y46058579D01*
X49224813Y45083391D01*
X43700000Y45083391D01*
X43700000Y46161098D01*
X48642986Y46161098D01*
X48680493Y45858087D01*
X48776393Y45568216D01*
X48883777Y45367315D01*
X49083391Y45224813D01*
X50058579Y46200000D01*
X50341421Y46200000D01*
X51316609Y45224813D01*
X51516223Y45367315D01*
X51653380Y45640097D01*
X51734685Y45934396D01*
X51757014Y46238902D01*
X51719507Y46541913D01*
X51623607Y46831784D01*
X51516223Y47032685D01*
X51316609Y47175187D01*
X50341421Y46200000D01*
X50058579Y46200000D01*
X49083391Y47175187D01*
X48883777Y47032685D01*
X48746620Y46759903D01*
X48665315Y46465604D01*
X48642986Y46161098D01*
X43700000Y46161098D01*
X43700000Y47316609D01*
X49224813Y47316609D01*
X50200000Y46341421D01*
X51175187Y47316609D01*
X51032685Y47516223D01*
X50775575Y47645500D01*
X59650748Y47645500D01*
X59656540Y47586690D01*
X59673695Y47530139D01*
X59701552Y47478022D01*
X59739041Y47432341D01*
X59784722Y47394852D01*
X59836839Y47366995D01*
X59893390Y47349840D01*
X59952200Y47344048D01*
X61225000Y47345500D01*
X61300000Y47420500D01*
X61300000Y48745650D01*
X61500000Y48745650D01*
X61500000Y47420500D01*
X61575000Y47345500D01*
X62847800Y47344048D01*
X62906610Y47349840D01*
X62963161Y47366995D01*
X63015278Y47394852D01*
X63060959Y47432341D01*
X63098448Y47478022D01*
X63126305Y47530139D01*
X63143460Y47586690D01*
X63149252Y47645500D01*
X63147800Y48670650D01*
X63072800Y48745650D01*
X61500000Y48745650D01*
X61300000Y48745650D01*
X59727200Y48745650D01*
X59652200Y48670650D01*
X59650748Y47645500D01*
X50775575Y47645500D01*
X50759903Y47653380D01*
X50465604Y47734685D01*
X50161098Y47757014D01*
X49858087Y47719507D01*
X49568216Y47623607D01*
X49367315Y47516223D01*
X49224813Y47316609D01*
X43700000Y47316609D01*
X43700000Y48583391D01*
X49224813Y48583391D01*
X49367315Y48383777D01*
X49640097Y48246620D01*
X49934396Y48165315D01*
X50238902Y48142986D01*
X50541913Y48180493D01*
X50831784Y48276393D01*
X51032685Y48383777D01*
X51175187Y48583391D01*
X51148079Y48610500D01*
X54927048Y48610500D01*
X54932840Y48551690D01*
X54949995Y48495139D01*
X54977852Y48443022D01*
X55015341Y48397341D01*
X55061022Y48359852D01*
X55113139Y48331995D01*
X55169690Y48314840D01*
X55228500Y48309048D01*
X56425000Y48310500D01*
X56500000Y48385500D01*
X56500000Y49590000D01*
X56700000Y49590000D01*
X56700000Y48385500D01*
X56775000Y48310500D01*
X57971500Y48309048D01*
X58030310Y48314840D01*
X58086861Y48331995D01*
X58138978Y48359852D01*
X58184659Y48397341D01*
X58222148Y48443022D01*
X58250005Y48495139D01*
X58267160Y48551690D01*
X58272952Y48610500D01*
X58271500Y49515000D01*
X58196500Y49590000D01*
X56700000Y49590000D01*
X56500000Y49590000D01*
X55003500Y49590000D01*
X54928500Y49515000D01*
X54927048Y48610500D01*
X51148079Y48610500D01*
X50200000Y49558579D01*
X49224813Y48583391D01*
X43700000Y48583391D01*
X43700000Y49661098D01*
X48642986Y49661098D01*
X48680493Y49358087D01*
X48776393Y49068216D01*
X48883777Y48867315D01*
X49083391Y48724813D01*
X50058579Y49700000D01*
X50341421Y49700000D01*
X51316609Y48724813D01*
X51516223Y48867315D01*
X51653380Y49140097D01*
X51734685Y49434396D01*
X51757014Y49738902D01*
X51719507Y50041913D01*
X51623607Y50331784D01*
X51516223Y50532685D01*
X51316609Y50675187D01*
X50341421Y49700000D01*
X50058579Y49700000D01*
X49083391Y50675187D01*
X48883777Y50532685D01*
X48746620Y50259903D01*
X48665315Y49965604D01*
X48642986Y49661098D01*
X43700000Y49661098D01*
X43700000Y50858578D01*
X44041422Y51200000D01*
X49799124Y51200000D01*
X49568216Y51123607D01*
X49568216Y51123607D01*
G37*
X49568216Y51123607D02*
X49367315Y51016223D01*
X49224813Y50816609D01*
X50200000Y49841421D01*
X51128078Y50769500D01*
X54927048Y50769500D01*
X54928500Y49865000D01*
X55003500Y49790000D01*
X56500000Y49790000D01*
X56500000Y50994500D01*
X56700000Y50994500D01*
X56700000Y49790000D01*
X58196500Y49790000D01*
X58271500Y49865000D01*
X58271790Y50045800D01*
X59650748Y50045800D01*
X59652200Y49020650D01*
X59727200Y48945650D01*
X61300000Y48945650D01*
X61300000Y50270800D01*
X61500000Y50270800D01*
X61500000Y48945650D01*
X63072800Y48945650D01*
X63147800Y49020650D01*
X63149252Y50045800D01*
X63143460Y50104610D01*
X63126305Y50161161D01*
X63098448Y50213278D01*
X63060959Y50258959D01*
X63015278Y50296448D01*
X62963161Y50324305D01*
X62906610Y50341460D01*
X62847800Y50347252D01*
X61575000Y50345800D01*
X61500000Y50270800D01*
X61300000Y50270800D01*
X61225000Y50345800D01*
X59952200Y50347252D01*
X59893390Y50341460D01*
X59836839Y50324305D01*
X59784722Y50296448D01*
X59739041Y50258959D01*
X59701552Y50213278D01*
X59673695Y50161161D01*
X59656540Y50104610D01*
X59650748Y50045800D01*
X58271790Y50045800D01*
X58272952Y50769500D01*
X58267160Y50828310D01*
X58250005Y50884861D01*
X58222148Y50936978D01*
X58184659Y50982659D01*
X58138978Y51020148D01*
X58086861Y51048005D01*
X58030310Y51065160D01*
X57971500Y51070952D01*
X56775000Y51069500D01*
X56700000Y50994500D01*
X56500000Y50994500D01*
X56425000Y51069500D01*
X55228500Y51070952D01*
X55169690Y51065160D01*
X55113139Y51048005D01*
X55061022Y51020148D01*
X55015341Y50982659D01*
X54977852Y50936978D01*
X54949995Y50884861D01*
X54932840Y50828310D01*
X54927048Y50769500D01*
X51128078Y50769500D01*
X51175187Y50816609D01*
X51032685Y51016223D01*
X50759903Y51153380D01*
X50591153Y51200000D01*
X64158578Y51200000D01*
X64500000Y50858578D01*
X64500000Y36641422D01*
X64358578Y36500000D01*
X61241422Y36500000D01*
X61100000Y36641422D01*
X61100000Y44000000D01*
X61098079Y44019509D01*
X61092388Y44038268D01*
X61083147Y44055557D01*
X61070711Y44070711D01*
X60670711Y44470711D01*
X60655557Y44483147D01*
X60638268Y44492388D01*
X60619509Y44498079D01*
X60600000Y44500000D01*
X46800000Y44500000D01*
X46780491Y44498079D01*
X46761732Y44492388D01*
X46744443Y44483147D01*
X46729289Y44470711D01*
X46329289Y44070711D01*
X46316853Y44055557D01*
X46307612Y44038268D01*
X46301921Y44019509D01*
X46300000Y44000000D01*
X46300000Y37400000D01*
X46301921Y37380491D01*
X46307612Y37361732D01*
X46316853Y37344443D01*
X46329289Y37329289D01*
X46729289Y36929289D01*
X46744443Y36916853D01*
X46761732Y36907612D01*
X46780491Y36901921D01*
X46800000Y36900000D01*
X53158578Y36900000D01*
X53500000Y36558578D01*
X53500000Y29241422D01*
X53158578Y28900000D01*
X50441422Y28900000D01*
X50100000Y29241422D01*
X50100000Y32900000D01*
X50098079Y32919509D01*
X50092388Y32938268D01*
X50083147Y32955557D01*
X50070711Y32970711D01*
X49670711Y33370711D01*
X49655557Y33383147D01*
X49638268Y33392388D01*
X49619509Y33398079D01*
X49600000Y33400000D01*
X44041422Y33400000D01*
X43700000Y33741422D01*
X43700000Y45083391D01*
X49224813Y45083391D01*
X49367315Y44883777D01*
X49640097Y44746620D01*
X49934396Y44665315D01*
X50238902Y44642986D01*
X50541913Y44680493D01*
X50831784Y44776393D01*
X51032685Y44883777D01*
X51175187Y45083391D01*
X50200000Y46058579D01*
X49224813Y45083391D01*
X43700000Y45083391D01*
X43700000Y46161098D01*
X48642986Y46161098D01*
X48680493Y45858087D01*
X48776393Y45568216D01*
X48883777Y45367315D01*
X49083391Y45224813D01*
X50058579Y46200000D01*
X50341421Y46200000D01*
X51316609Y45224813D01*
X51516223Y45367315D01*
X51653380Y45640097D01*
X51734685Y45934396D01*
X51757014Y46238902D01*
X51719507Y46541913D01*
X51623607Y46831784D01*
X51516223Y47032685D01*
X51316609Y47175187D01*
X50341421Y46200000D01*
X50058579Y46200000D01*
X49083391Y47175187D01*
X48883777Y47032685D01*
X48746620Y46759903D01*
X48665315Y46465604D01*
X48642986Y46161098D01*
X43700000Y46161098D01*
X43700000Y47316609D01*
X49224813Y47316609D01*
X50200000Y46341421D01*
X51175187Y47316609D01*
X51032685Y47516223D01*
X50775575Y47645500D01*
X59650748Y47645500D01*
X59656540Y47586690D01*
X59673695Y47530139D01*
X59701552Y47478022D01*
X59739041Y47432341D01*
X59784722Y47394852D01*
X59836839Y47366995D01*
X59893390Y47349840D01*
X59952200Y47344048D01*
X61225000Y47345500D01*
X61300000Y47420500D01*
X61300000Y48745650D01*
X61500000Y48745650D01*
X61500000Y47420500D01*
X61575000Y47345500D01*
X62847800Y47344048D01*
X62906610Y47349840D01*
X62963161Y47366995D01*
X63015278Y47394852D01*
X63060959Y47432341D01*
X63098448Y47478022D01*
X63126305Y47530139D01*
X63143460Y47586690D01*
X63149252Y47645500D01*
X63147800Y48670650D01*
X63072800Y48745650D01*
X61500000Y48745650D01*
X61300000Y48745650D01*
X59727200Y48745650D01*
X59652200Y48670650D01*
X59650748Y47645500D01*
X50775575Y47645500D01*
X50759903Y47653380D01*
X50465604Y47734685D01*
X50161098Y47757014D01*
X49858087Y47719507D01*
X49568216Y47623607D01*
X49367315Y47516223D01*
X49224813Y47316609D01*
X43700000Y47316609D01*
X43700000Y48583391D01*
X49224813Y48583391D01*
X49367315Y48383777D01*
X49640097Y48246620D01*
X49934396Y48165315D01*
X50238902Y48142986D01*
X50541913Y48180493D01*
X50831784Y48276393D01*
X51032685Y48383777D01*
X51175187Y48583391D01*
X51148079Y48610500D01*
X54927048Y48610500D01*
X54932840Y48551690D01*
X54949995Y48495139D01*
X54977852Y48443022D01*
X55015341Y48397341D01*
X55061022Y48359852D01*
X55113139Y48331995D01*
X55169690Y48314840D01*
X55228500Y48309048D01*
X56425000Y48310500D01*
X56500000Y48385500D01*
X56500000Y49590000D01*
X56700000Y49590000D01*
X56700000Y48385500D01*
X56775000Y48310500D01*
X57971500Y48309048D01*
X58030310Y48314840D01*
X58086861Y48331995D01*
X58138978Y48359852D01*
X58184659Y48397341D01*
X58222148Y48443022D01*
X58250005Y48495139D01*
X58267160Y48551690D01*
X58272952Y48610500D01*
X58271500Y49515000D01*
X58196500Y49590000D01*
X56700000Y49590000D01*
X56500000Y49590000D01*
X55003500Y49590000D01*
X54928500Y49515000D01*
X54927048Y48610500D01*
X51148079Y48610500D01*
X50200000Y49558579D01*
X49224813Y48583391D01*
X43700000Y48583391D01*
X43700000Y49661098D01*
X48642986Y49661098D01*
X48680493Y49358087D01*
X48776393Y49068216D01*
X48883777Y48867315D01*
X49083391Y48724813D01*
X50058579Y49700000D01*
X50341421Y49700000D01*
X51316609Y48724813D01*
X51516223Y48867315D01*
X51653380Y49140097D01*
X51734685Y49434396D01*
X51757014Y49738902D01*
X51719507Y50041913D01*
X51623607Y50331784D01*
X51516223Y50532685D01*
X51316609Y50675187D01*
X50341421Y49700000D01*
X50058579Y49700000D01*
X49083391Y50675187D01*
X48883777Y50532685D01*
X48746620Y50259903D01*
X48665315Y49965604D01*
X48642986Y49661098D01*
X43700000Y49661098D01*
X43700000Y50858578D01*
X44041422Y51200000D01*
X49799124Y51200000D01*
X49568216Y51123607D01*
G36*
X91900000Y58958578D02*
G01*
X91900000Y28000000D01*
X91901921Y27980491D01*
X91907612Y27961732D01*
X91916853Y27944443D01*
X91929289Y27929289D01*
X92529289Y27329289D01*
X92544443Y27316853D01*
X92561732Y27307612D01*
X92580491Y27301921D01*
X92600000Y27300000D01*
X116700000Y27300000D01*
X116719509Y27301921D01*
X116738268Y27307612D01*
X116755557Y27316853D01*
X116770711Y27329289D01*
X117170711Y27729289D01*
X117183147Y27744443D01*
X117192388Y27761732D01*
X117198079Y27780491D01*
X117200000Y27800000D01*
X117200000Y29258578D01*
X117541422Y29600000D01*
X123058578Y29600000D01*
X123400000Y29258578D01*
X123400000Y23941422D01*
X123058578Y23600000D01*
X116772324Y23600000D01*
X116626300Y23697570D01*
X116462510Y23765414D01*
X116288632Y23800000D01*
X116111348Y23800000D01*
X115937470Y23765414D01*
X115773680Y23697570D01*
X115627656Y23600000D01*
X115172436Y23600000D01*
X115026418Y23697566D01*
X114862628Y23765410D01*
X114688750Y23799996D01*
X114511466Y23799996D01*
X114337588Y23765410D01*
X114173798Y23697566D01*
X114027780Y23600000D01*
X110440067Y23600000D01*
X110390811Y23673717D01*
X110265452Y23799076D01*
X110118045Y23897570D01*
X109954255Y23965414D01*
X109780377Y24000000D01*
X109603093Y24000000D01*
X109429215Y23965414D01*
X109265425Y23897570D01*
X109118018Y23799076D01*
X108992659Y23673717D01*
X108943403Y23600000D01*
X85541422Y23600000D01*
X85200000Y23941422D01*
X85200000Y31100000D01*
X85198079Y31119509D01*
X85192388Y31138268D01*
X85183147Y31155557D01*
X85170711Y31170711D01*
X84770711Y31570711D01*
X84755557Y31583147D01*
X84738268Y31592388D01*
X84719509Y31598079D01*
X84700000Y31600000D01*
X57041422Y31600000D01*
X56700000Y31941422D01*
X56700000Y39258578D01*
X56799839Y39358417D01*
X56866649Y39330743D01*
X57021207Y39300000D01*
X57178793Y39300000D01*
X57333351Y39330743D01*
X57478942Y39391049D01*
X57492338Y39400000D01*
X57607647Y39400000D01*
X57621058Y39391039D01*
X57766649Y39330733D01*
X57921207Y39299990D01*
X58078793Y39299990D01*
X58233351Y39330733D01*
X58378942Y39391039D01*
X58392353Y39400000D01*
X59658578Y39400000D01*
X59800000Y39258578D01*
X59800000Y34800000D01*
X59801921Y34780491D01*
X59807612Y34761732D01*
X59816853Y34744443D01*
X59829289Y34729289D01*
X60229289Y34329289D01*
X60244443Y34316853D01*
X60261732Y34307612D01*
X60280491Y34301921D01*
X60300000Y34300000D01*
X71300000Y34300000D01*
X71319509Y34301921D01*
X71338268Y34307612D01*
X71355557Y34316853D01*
X71370711Y34329289D01*
X71770711Y34729289D01*
X71783147Y34744443D01*
X71792388Y34761732D01*
X71798079Y34780491D01*
X71800000Y34800000D01*
X71800000Y39258578D01*
X71941422Y39400000D01*
X74758578Y39400000D01*
X74900000Y39258578D01*
X74900000Y34800000D01*
X74901921Y34780491D01*
X74907612Y34761732D01*
X74916853Y34744443D01*
X74929289Y34729289D01*
X75329289Y34329289D01*
X75344443Y34316853D01*
X75361732Y34307612D01*
X75380491Y34301921D01*
X75400000Y34300000D01*
X84700000Y34300000D01*
X84719509Y34301921D01*
X84738268Y34307612D01*
X84755557Y34316853D01*
X84770711Y34329289D01*
X85170711Y34729289D01*
X85183147Y34744443D01*
X85192388Y34761732D01*
X85198079Y34780491D01*
X85200000Y34800000D01*
X85200000Y37258578D01*
X85341422Y37400000D01*
X87000000Y37400000D01*
X87019509Y37401921D01*
X87038268Y37407612D01*
X87055557Y37416853D01*
X87070711Y37429289D01*
X87270711Y37629289D01*
X87283147Y37644443D01*
X87292388Y37661732D01*
X87298079Y37680491D01*
X87300000Y37700000D01*
X87300000Y56500000D01*
X87298079Y56519509D01*
X87292388Y56538268D01*
X87283147Y56555557D01*
X87270711Y56570711D01*
X86870711Y56970711D01*
X86855557Y56983147D01*
X86838268Y56992388D01*
X86819509Y56998079D01*
X86800000Y57000000D01*
X63500000Y57000000D01*
X63480491Y56998079D01*
X63461732Y56992388D01*
X63444443Y56983147D01*
X63429289Y56970711D01*
X63329289Y56870711D01*
X63316853Y56855557D01*
X63307612Y56838268D01*
X63301921Y56819509D01*
X63300000Y56800000D01*
X63300000Y56700000D01*
X63301921Y56680491D01*
X63307612Y56661732D01*
X63316853Y56644443D01*
X63329289Y56629289D01*
X63429289Y56529289D01*
X63444443Y56516853D01*
X63461732Y56507612D01*
X63480491Y56501921D01*
X63500000Y56500000D01*
X69058578Y56500000D01*
X69400000Y56158578D01*
X69400000Y36641422D01*
X69258578Y36500000D01*
X66141422Y36500000D01*
X66000000Y36641422D01*
X66000000Y52100000D01*
X65998079Y52119509D01*
X65992388Y52138268D01*
X65983147Y52155557D01*
X65970711Y52170711D01*
X65570711Y52570711D01*
X65555557Y52583147D01*
X65538268Y52592388D01*
X65519509Y52598079D01*
X65500000Y52600000D01*
X50600876Y52600000D01*
X50831784Y52676393D01*
X51032685Y52783777D01*
X51175187Y52983391D01*
X51128079Y53030500D01*
X54927048Y53030500D01*
X54932840Y52971690D01*
X54949995Y52915139D01*
X54977852Y52863022D01*
X55015341Y52817341D01*
X55061022Y52779852D01*
X55113139Y52751995D01*
X55169690Y52734840D01*
X55228500Y52729048D01*
X56425000Y52730500D01*
X56500000Y52805500D01*
X56500000Y54010000D01*
X56700000Y54010000D01*
X56700000Y52805500D01*
X56775000Y52730500D01*
X57971500Y52729048D01*
X58030310Y52734840D01*
X58086861Y52751995D01*
X58138978Y52779852D01*
X58184659Y52817341D01*
X58222148Y52863022D01*
X58250005Y52915139D01*
X58267160Y52971690D01*
X58272952Y53030500D01*
X58271791Y53754200D01*
X59650748Y53754200D01*
X59656540Y53695390D01*
X59673695Y53638839D01*
X59701552Y53586722D01*
X59739041Y53541041D01*
X59784722Y53503552D01*
X59836839Y53475695D01*
X59893390Y53458540D01*
X59952200Y53452748D01*
X61225000Y53454200D01*
X61300000Y53529200D01*
X61300000Y54854350D01*
X61500000Y54854350D01*
X61500000Y53529200D01*
X61575000Y53454200D01*
X62847800Y53452748D01*
X62906610Y53458540D01*
X62963161Y53475695D01*
X63015278Y53503552D01*
X63060959Y53541041D01*
X63098448Y53586722D01*
X63126305Y53638839D01*
X63143460Y53695390D01*
X63149252Y53754200D01*
X63147800Y54779350D01*
X63072800Y54854350D01*
X61500000Y54854350D01*
X61300000Y54854350D01*
X59727200Y54854350D01*
X59652200Y54779350D01*
X59650748Y53754200D01*
X58271791Y53754200D01*
X58271500Y53935000D01*
X58196500Y54010000D01*
X56700000Y54010000D01*
X56500000Y54010000D01*
X55003500Y54010000D01*
X54928500Y53935000D01*
X54927048Y53030500D01*
X51128079Y53030500D01*
X50200000Y53958579D01*
X49224813Y52983391D01*
X49367315Y52783777D01*
X49640097Y52646620D01*
X49808847Y52600000D01*
X43000000Y52600000D01*
X42980491Y52598079D01*
X42961732Y52592388D01*
X42944443Y52583147D01*
X42929289Y52570711D01*
X42529289Y52170711D01*
X42516853Y52155557D01*
X42507612Y52138268D01*
X42501921Y52119509D01*
X42500000Y52100000D01*
X42500000Y32700000D01*
X42501921Y32680491D01*
X42507612Y32661732D01*
X42516853Y32644443D01*
X42529289Y32629289D01*
X42929289Y32229289D01*
X42944443Y32216853D01*
X42961732Y32207612D01*
X42980491Y32201921D01*
X43000000Y32200000D01*
X48658578Y32200000D01*
X49000000Y31858578D01*
X49000000Y28800000D01*
X49001921Y28780491D01*
X49007612Y28761732D01*
X49016853Y28744443D01*
X49029289Y28729289D01*
X49429289Y28329289D01*
X49444443Y28316853D01*
X49461732Y28307612D01*
X49480491Y28301921D01*
X49500000Y28300000D01*
X53158578Y28300000D01*
X53500000Y27958578D01*
X53500000Y19841422D01*
X53158578Y19500000D01*
X46000000Y19500000D01*
X45980491Y19498079D01*
X45961732Y19492388D01*
X45944443Y19483147D01*
X45929289Y19470711D01*
X45529289Y19070711D01*
X45516853Y19055557D01*
X45507612Y19038268D01*
X45501921Y19019509D01*
X45500000Y19000000D01*
X45500000Y3676474D01*
X45452794Y3562509D01*
X45418208Y3388631D01*
X45418208Y3211347D01*
X45452794Y3037469D01*
X45500000Y2923504D01*
X45500000Y2200000D01*
X45501921Y2180491D01*
X45507612Y2161732D01*
X45516853Y2144443D01*
X45529289Y2129289D01*
X45829289Y1829289D01*
X45844443Y1816853D01*
X45861732Y1807612D01*
X45880491Y1801921D01*
X45900000Y1800000D01*
X47083809Y1800000D01*
X47118196Y1796613D01*
X47152583Y1800000D01*
X99015613Y1800000D01*
X99050000Y1796613D01*
X99084387Y1800000D01*
X119300000Y1800000D01*
X119319509Y1801921D01*
X119338268Y1807612D01*
X119355557Y1816853D01*
X119370711Y1829289D01*
X119770711Y2229289D01*
X119783147Y2244443D01*
X119792388Y2261732D01*
X119798079Y2280491D01*
X119800000Y2300000D01*
X119800000Y10100000D01*
X119798079Y10119509D01*
X119792388Y10138268D01*
X119783147Y10155557D01*
X119770711Y10170711D01*
X119760000Y10180000D01*
X119360000Y10480000D01*
X119343240Y10490168D01*
X119324818Y10496871D01*
X119300000Y10500000D01*
X118490476Y10500000D01*
X118490000Y10595000D01*
X118415000Y10670000D01*
X117800000Y10670000D01*
X117800000Y10650000D01*
X117600000Y10650000D01*
X117600000Y10670000D01*
X117580000Y10670000D01*
X117580000Y10870000D01*
X117600000Y10870000D01*
X117600000Y10890000D01*
X117800000Y10890000D01*
X117800000Y10870000D01*
X118415000Y10870000D01*
X118490000Y10945000D01*
X118490275Y11000000D01*
X119758578Y11000000D01*
X120100000Y10658578D01*
X120100000Y941422D01*
X119758578Y600000D01*
X6341422Y600000D01*
X6000000Y941422D01*
X6000000Y4400000D01*
X5998079Y4419509D01*
X5992388Y4438268D01*
X5983147Y4455557D01*
X5970711Y4470711D01*
X3970711Y6470711D01*
X3955557Y6483147D01*
X3938268Y6492388D01*
X3919509Y6498079D01*
X3900000Y6500000D01*
X941422Y6500000D01*
X600000Y6841422D01*
X600000Y10708341D01*
X3900000Y10708341D01*
X3900000Y10491659D01*
X3942273Y10279142D01*
X4025193Y10078955D01*
X4100001Y9966998D01*
X4100001Y9444216D01*
X4095646Y9400000D01*
X4113023Y9223570D01*
X4164487Y9053919D01*
X4248057Y8897569D01*
X4332345Y8794863D01*
X4332348Y8794860D01*
X4360526Y8760525D01*
X4394861Y8732347D01*
X9432347Y3694860D01*
X9460525Y3660525D01*
X9494860Y3632347D01*
X9494862Y3632345D01*
X9559447Y3579342D01*
X9597568Y3548057D01*
X9753919Y3464486D01*
X9923569Y3413023D01*
X10055793Y3400000D01*
X10055795Y3400000D01*
X10099999Y3395646D01*
X10144203Y3400000D01*
X25066999Y3400000D01*
X25178955Y3325193D01*
X25379142Y3242273D01*
X25591659Y3200000D01*
X25808341Y3200000D01*
X26020858Y3242273D01*
X26221045Y3325193D01*
X26333001Y3400000D01*
X30755794Y3400000D01*
X30800000Y3395646D01*
X30844206Y3400000D01*
X30844207Y3400000D01*
X30976431Y3413023D01*
X31146081Y3464486D01*
X31302432Y3548057D01*
X31439475Y3660525D01*
X31467657Y3694865D01*
X41605136Y13832344D01*
X41639475Y13860525D01*
X41751943Y13997568D01*
X41835514Y14153919D01*
X41886977Y14323569D01*
X41900000Y14455793D01*
X41900000Y14455802D01*
X41904353Y14499999D01*
X41900000Y14544196D01*
X41900000Y17466681D01*
X41961571Y17615327D01*
X42000000Y17808525D01*
X42000000Y18005507D01*
X41961571Y18198705D01*
X41886189Y18380694D01*
X41776751Y18544479D01*
X41700000Y18621230D01*
X41700000Y20265614D01*
X41703387Y20300001D01*
X41698824Y20346330D01*
X41689872Y20437224D01*
X41649845Y20569175D01*
X41584845Y20690781D01*
X41497369Y20797370D01*
X41470658Y20819291D01*
X40819296Y21470653D01*
X40797370Y21497370D01*
X40690781Y21584845D01*
X40569175Y21649845D01*
X40437224Y21689872D01*
X40334390Y21700000D01*
X40334387Y21700000D01*
X40300000Y21703387D01*
X40265613Y21700000D01*
X35383316Y21700000D01*
X35367746Y21729129D01*
X35305264Y21805264D01*
X35229129Y21867746D01*
X35142267Y21914175D01*
X35048017Y21942765D01*
X34950000Y21952419D01*
X34050000Y21952419D01*
X33951983Y21942765D01*
X33857733Y21914175D01*
X33770871Y21867746D01*
X33712094Y21819509D01*
X33595308Y21881932D01*
X33416232Y21936254D01*
X33276665Y21950000D01*
X33183335Y21950000D01*
X33043768Y21936254D01*
X32864692Y21881932D01*
X32699655Y21793718D01*
X32595000Y21707829D01*
X32490345Y21793718D01*
X32325308Y21881932D01*
X32146232Y21936254D01*
X32006665Y21950000D01*
X31913335Y21950000D01*
X31773768Y21936254D01*
X31594692Y21881932D01*
X31429655Y21793718D01*
X31325000Y21707829D01*
X31220345Y21793718D01*
X31055308Y21881932D01*
X30876232Y21936254D01*
X30736665Y21950000D01*
X30643335Y21950000D01*
X30503768Y21936254D01*
X30324692Y21881932D01*
X30159655Y21793718D01*
X30014999Y21675001D01*
X29918245Y21557106D01*
X29893642Y21581527D01*
X29771091Y21662756D01*
X29635048Y21718516D01*
X29520000Y21668311D01*
X29520000Y21100000D01*
X29540000Y21100000D01*
X29540000Y20900000D01*
X29520000Y20900000D01*
X29520000Y20880000D01*
X29320000Y20880000D01*
X29320000Y20900000D01*
X28752449Y20900000D01*
X28701492Y20784953D01*
X28703103Y20779619D01*
X28759872Y20643994D01*
X28842009Y20522050D01*
X28862653Y20501558D01*
X28744999Y20405001D01*
X28626282Y20260345D01*
X28538068Y20095308D01*
X28483746Y19916232D01*
X28465404Y19730000D01*
X28483746Y19543768D01*
X28538068Y19364692D01*
X28626282Y19199655D01*
X28744999Y19054999D01*
X28889655Y18936282D01*
X29054692Y18848068D01*
X29233768Y18793746D01*
X29373335Y18780000D01*
X29466665Y18780000D01*
X29606232Y18793746D01*
X29785308Y18848068D01*
X29950345Y18936282D01*
X30055000Y19022171D01*
X30159655Y18936282D01*
X30324692Y18848068D01*
X30503768Y18793746D01*
X30643335Y18780000D01*
X30736665Y18780000D01*
X30876232Y18793746D01*
X31055308Y18848068D01*
X31220345Y18936282D01*
X31325000Y19022171D01*
X31429655Y18936282D01*
X31594692Y18848068D01*
X31773768Y18793746D01*
X31913335Y18780000D01*
X32006665Y18780000D01*
X32146232Y18793746D01*
X32325308Y18848068D01*
X32490345Y18936282D01*
X32595000Y19022171D01*
X32699655Y18936282D01*
X32864692Y18848068D01*
X33043768Y18793746D01*
X33183335Y18780000D01*
X33276665Y18780000D01*
X33416232Y18793746D01*
X33595308Y18848068D01*
X33760345Y18936282D01*
X33865000Y19022171D01*
X33969655Y18936282D01*
X34134692Y18848068D01*
X34313768Y18793746D01*
X34453335Y18780000D01*
X34546665Y18780000D01*
X34686232Y18793746D01*
X34865308Y18848068D01*
X35030345Y18936282D01*
X35175001Y19054999D01*
X35293718Y19199655D01*
X35381932Y19364692D01*
X35436254Y19543768D01*
X35454596Y19730000D01*
X35436254Y19916232D01*
X35381932Y20095308D01*
X35319509Y20212094D01*
X35367746Y20270871D01*
X35383316Y20300000D01*
X40010051Y20300000D01*
X40300000Y20010051D01*
X40300001Y18621231D01*
X40223249Y18544479D01*
X40113811Y18380694D01*
X40038429Y18198705D01*
X40000000Y18005507D01*
X40000000Y17808525D01*
X40038429Y17615327D01*
X40100001Y17466679D01*
X40100000Y14872792D01*
X30427208Y5200000D01*
X26333001Y5200000D01*
X26221045Y5274807D01*
X26020858Y5357727D01*
X25808341Y5400000D01*
X25591659Y5400000D01*
X25379142Y5357727D01*
X25178955Y5274807D01*
X25066999Y5200000D01*
X15500000Y5200000D01*
X15500000Y7182837D01*
X15592267Y7210825D01*
X15679129Y7257254D01*
X15755264Y7319736D01*
X15817746Y7395871D01*
X15864175Y7482733D01*
X15892765Y7576983D01*
X15902419Y7675000D01*
X15902419Y8775000D01*
X15892765Y8873017D01*
X15864175Y8967267D01*
X15817746Y9054129D01*
X15755264Y9130264D01*
X15679129Y9192746D01*
X15592267Y9239175D01*
X15498017Y9267765D01*
X15400000Y9277419D01*
X14400000Y9277419D01*
X14301983Y9267765D01*
X14207733Y9239175D01*
X14120871Y9192746D01*
X14044736Y9130264D01*
X13982254Y9054129D01*
X13935825Y8967267D01*
X13907235Y8873017D01*
X13897581Y8775000D01*
X13897581Y7675000D01*
X13907235Y7576983D01*
X13935825Y7482733D01*
X13982254Y7395871D01*
X14044736Y7319736D01*
X14120871Y7257254D01*
X14207733Y7210825D01*
X14300000Y7182836D01*
X14300001Y5200000D01*
X10472793Y5200000D01*
X6662793Y9010000D01*
X7663548Y9010000D01*
X7669340Y8951190D01*
X7686495Y8894639D01*
X7714352Y8842522D01*
X7751841Y8796841D01*
X7797522Y8759352D01*
X7849639Y8731495D01*
X7906190Y8714340D01*
X7965000Y8708548D01*
X8255000Y8710000D01*
X8330000Y8785000D01*
X8330000Y9400000D01*
X7740000Y9400000D01*
X7665000Y9325000D01*
X7663548Y9010000D01*
X6662793Y9010000D01*
X5900000Y9772792D01*
X5900000Y9966999D01*
X5915368Y9990000D01*
X7663548Y9990000D01*
X7665000Y9675000D01*
X7740000Y9600000D01*
X8330000Y9600000D01*
X8330000Y10215000D01*
X8255000Y10290000D01*
X7965000Y10291452D01*
X7906190Y10285660D01*
X7849639Y10268505D01*
X7797522Y10240648D01*
X7751841Y10203159D01*
X7714352Y10157478D01*
X7686495Y10105361D01*
X7669340Y10048810D01*
X7663548Y9990000D01*
X5915368Y9990000D01*
X5974807Y10078955D01*
X6057727Y10279142D01*
X6100000Y10491659D01*
X6100000Y10708341D01*
X6057727Y10920858D01*
X5974807Y11121045D01*
X5854425Y11301209D01*
X5845634Y11310000D01*
X7663548Y11310000D01*
X7669340Y11251190D01*
X7686495Y11194639D01*
X7714352Y11142522D01*
X7751841Y11096841D01*
X7797522Y11059352D01*
X7849639Y11031495D01*
X7906190Y11014340D01*
X7965000Y11008548D01*
X8255000Y11010000D01*
X8330000Y11085000D01*
X8330000Y11700000D01*
X7740000Y11700000D01*
X7665000Y11625000D01*
X7663548Y11310000D01*
X5845634Y11310000D01*
X5701209Y11454425D01*
X5521045Y11574807D01*
X5320858Y11657727D01*
X5108341Y11700000D01*
X4891659Y11700000D01*
X4679142Y11657727D01*
X4478955Y11574807D01*
X4298791Y11454425D01*
X4145575Y11301209D01*
X4025193Y11121045D01*
X3942273Y10920858D01*
X3900000Y10708341D01*
X600000Y10708341D01*
X600000Y12290000D01*
X7663548Y12290000D01*
X7665000Y11975000D01*
X7740000Y11900000D01*
X8330000Y11900000D01*
X8330000Y12515000D01*
X8530000Y12515000D01*
X8530000Y11900000D01*
X8550000Y11900000D01*
X8550000Y11700000D01*
X8530000Y11700000D01*
X8530000Y11085000D01*
X8605000Y11010000D01*
X8895000Y11008548D01*
X8953810Y11014340D01*
X9010361Y11031495D01*
X9062478Y11059352D01*
X9069118Y11064801D01*
X9087254Y11030871D01*
X9149736Y10954736D01*
X9225871Y10892254D01*
X9312733Y10845825D01*
X9370001Y10828453D01*
X9370000Y10471547D01*
X9312733Y10454175D01*
X9225871Y10407746D01*
X9149736Y10345264D01*
X9087254Y10269129D01*
X9069118Y10235199D01*
X9062478Y10240648D01*
X9010361Y10268505D01*
X8953810Y10285660D01*
X8895000Y10291452D01*
X8605000Y10290000D01*
X8530000Y10215000D01*
X8530000Y9600000D01*
X8550000Y9600000D01*
X8550000Y9400000D01*
X8530000Y9400000D01*
X8530000Y8785000D01*
X8605000Y8710000D01*
X8895000Y8708548D01*
X8953810Y8714340D01*
X9010361Y8731495D01*
X9062478Y8759352D01*
X9069118Y8764801D01*
X9087254Y8730871D01*
X9149736Y8654736D01*
X9225871Y8592254D01*
X9312733Y8545825D01*
X9406983Y8517235D01*
X9505000Y8507581D01*
X10435000Y8507581D01*
X10533017Y8517235D01*
X10627267Y8545825D01*
X10714129Y8592254D01*
X10790264Y8654736D01*
X10852746Y8730871D01*
X10899175Y8817733D01*
X10927765Y8911983D01*
X10937419Y9010000D01*
X10937419Y9990000D01*
X10927765Y10088017D01*
X10899175Y10182267D01*
X10852746Y10269129D01*
X10790264Y10345264D01*
X10714129Y10407746D01*
X10627267Y10454175D01*
X10570000Y10471546D01*
X10570000Y10828454D01*
X10627267Y10845825D01*
X10714129Y10892254D01*
X10790264Y10954736D01*
X10852746Y11030871D01*
X10899175Y11117733D01*
X10924130Y11200000D01*
X13450043Y11200000D01*
X13457235Y11126983D01*
X13485825Y11032733D01*
X13532254Y10945871D01*
X13594736Y10869736D01*
X13670871Y10807254D01*
X13757733Y10760825D01*
X13851983Y10732235D01*
X13950000Y10722581D01*
X14750000Y10722581D01*
X14848017Y10732235D01*
X14900000Y10748004D01*
X14951983Y10732235D01*
X15050000Y10722581D01*
X15850000Y10722581D01*
X15948017Y10732235D01*
X16042267Y10760825D01*
X16129129Y10807254D01*
X16205264Y10869736D01*
X16240001Y10912063D01*
X16240001Y10872794D01*
X16140924Y10773717D01*
X16042430Y10626310D01*
X15974586Y10462520D01*
X15940000Y10288642D01*
X15940000Y10111358D01*
X15974586Y9937480D01*
X16042430Y9773690D01*
X16140924Y9626283D01*
X16266283Y9500924D01*
X16413690Y9402430D01*
X16577480Y9334586D01*
X16751358Y9300000D01*
X16928642Y9300000D01*
X17102520Y9334586D01*
X17266310Y9402430D01*
X17413717Y9500924D01*
X17539076Y9626283D01*
X17637570Y9773690D01*
X17705414Y9937480D01*
X17740000Y10111358D01*
X17740000Y10288642D01*
X17705414Y10462520D01*
X17637570Y10626310D01*
X17539076Y10773717D01*
X17512793Y10800000D01*
X27197581Y10800000D01*
X27197581Y9200000D01*
X27207235Y9101983D01*
X27235825Y9007733D01*
X27282254Y8920871D01*
X27344736Y8844736D01*
X27420871Y8782254D01*
X27507733Y8735825D01*
X27601983Y8707235D01*
X27700000Y8697581D01*
X29300000Y8697581D01*
X29398017Y8707235D01*
X29492267Y8735825D01*
X29579129Y8782254D01*
X29655264Y8844736D01*
X29717746Y8920871D01*
X29764175Y9007733D01*
X29792765Y9101983D01*
X29802419Y9200000D01*
X29802419Y10128039D01*
X31200000Y10128039D01*
X31200000Y9871961D01*
X31249958Y9620804D01*
X31347955Y9384219D01*
X31490224Y9171298D01*
X31671298Y8990224D01*
X31884219Y8847955D01*
X32120804Y8749958D01*
X32371961Y8700000D01*
X32628039Y8700000D01*
X32879196Y8749958D01*
X33115781Y8847955D01*
X33328702Y8990224D01*
X33509776Y9171298D01*
X33652045Y9384219D01*
X33750042Y9620804D01*
X33800000Y9871961D01*
X33800000Y10128039D01*
X33750042Y10379196D01*
X33652045Y10615781D01*
X33509776Y10828702D01*
X33328702Y11009776D01*
X33115781Y11152045D01*
X32879196Y11250042D01*
X32628039Y11300000D01*
X32371961Y11300000D01*
X32120804Y11250042D01*
X31884219Y11152045D01*
X31671298Y11009776D01*
X31490224Y10828702D01*
X31347955Y10615781D01*
X31249958Y10379196D01*
X31200000Y10128039D01*
X29802419Y10128039D01*
X29802419Y10800000D01*
X29792765Y10898017D01*
X29764175Y10992267D01*
X29717746Y11079129D01*
X29655264Y11155264D01*
X29579129Y11217746D01*
X29492267Y11264175D01*
X29398017Y11292765D01*
X29300000Y11302419D01*
X27700000Y11302419D01*
X27601983Y11292765D01*
X27507733Y11264175D01*
X27420871Y11217746D01*
X27344736Y11155264D01*
X27282254Y11079129D01*
X27235825Y10992267D01*
X27207235Y10898017D01*
X27197581Y10800000D01*
X17512793Y10800000D01*
X17440000Y10872793D01*
X17440000Y17457918D01*
X17500238Y17518156D01*
X17593260Y17657374D01*
X17657335Y17812064D01*
X17690000Y17976282D01*
X17690000Y18143718D01*
X17657335Y18307936D01*
X17593260Y18462626D01*
X17500238Y18601844D01*
X17381844Y18720238D01*
X17242626Y18813260D01*
X17087936Y18877335D01*
X16923718Y18910000D01*
X16756282Y18910000D01*
X16592064Y18877335D01*
X16437374Y18813260D01*
X16298156Y18720238D01*
X16179762Y18601844D01*
X16086740Y18462626D01*
X16022665Y18307936D01*
X15990000Y18143718D01*
X15990000Y17976282D01*
X16022665Y17812064D01*
X16086740Y17657374D01*
X16179762Y17518156D01*
X16240000Y17457918D01*
X16240001Y12637937D01*
X16205264Y12680264D01*
X16129129Y12742746D01*
X16042267Y12789175D01*
X15948017Y12817765D01*
X15850000Y12827419D01*
X15050000Y12827419D01*
X14951983Y12817765D01*
X14900000Y12801996D01*
X14848017Y12817765D01*
X14750000Y12827419D01*
X13950000Y12827419D01*
X13851983Y12817765D01*
X13757733Y12789175D01*
X13670871Y12742746D01*
X13594736Y12680264D01*
X13532254Y12604129D01*
X13485825Y12517267D01*
X13457235Y12423017D01*
X13454968Y12400000D01*
X10924130Y12400000D01*
X10899175Y12482267D01*
X10852746Y12569129D01*
X10790264Y12645264D01*
X10714129Y12707746D01*
X10698835Y12715921D01*
X10753260Y12797374D01*
X10817335Y12952064D01*
X10850000Y13116282D01*
X10850000Y13283718D01*
X10817335Y13447936D01*
X10753260Y13602626D01*
X10660238Y13741844D01*
X10541844Y13860238D01*
X10402626Y13953260D01*
X10247936Y14017335D01*
X10083718Y14050000D01*
X9916282Y14050000D01*
X9752064Y14017335D01*
X9597374Y13953260D01*
X9458156Y13860238D01*
X9339762Y13741844D01*
X9246740Y13602626D01*
X9182665Y13447936D01*
X9150000Y13283718D01*
X9150000Y13116282D01*
X9182665Y12952064D01*
X9246740Y12797374D01*
X9285375Y12739552D01*
X9225871Y12707746D01*
X9149736Y12645264D01*
X9087254Y12569129D01*
X9069118Y12535199D01*
X9062478Y12540648D01*
X9010361Y12568505D01*
X8953810Y12585660D01*
X8895000Y12591452D01*
X8605000Y12590000D01*
X8530000Y12515000D01*
X8330000Y12515000D01*
X8255000Y12590000D01*
X7965000Y12591452D01*
X7906190Y12585660D01*
X7849639Y12568505D01*
X7797522Y12540648D01*
X7751841Y12503159D01*
X7714352Y12457478D01*
X7686495Y12405361D01*
X7669340Y12348810D01*
X7663548Y12290000D01*
X600000Y12290000D01*
X600000Y21183718D01*
X20950000Y21183718D01*
X20950000Y21016282D01*
X20982665Y20852064D01*
X21046740Y20697374D01*
X21139762Y20558156D01*
X21258156Y20439762D01*
X21397374Y20346740D01*
X21552064Y20282665D01*
X21716282Y20250000D01*
X21883718Y20250000D01*
X22047936Y20282665D01*
X22202626Y20346740D01*
X22341844Y20439762D01*
X22402082Y20500000D01*
X22797918Y20500000D01*
X22858156Y20439762D01*
X22917664Y20400000D01*
X22858156Y20360238D01*
X22739762Y20241844D01*
X22646740Y20102626D01*
X22582665Y19947936D01*
X22550000Y19783718D01*
X22550000Y19616282D01*
X22582665Y19452064D01*
X22646740Y19297374D01*
X22739762Y19158156D01*
X22800000Y19097918D01*
X22800001Y12552089D01*
X22739762Y12491850D01*
X22646740Y12352632D01*
X22582665Y12197942D01*
X22550000Y12033724D01*
X22550000Y11866288D01*
X22582665Y11702070D01*
X22646740Y11547380D01*
X22739762Y11408162D01*
X22858156Y11289768D01*
X22997374Y11196746D01*
X23152064Y11132671D01*
X23316282Y11100006D01*
X23483718Y11100006D01*
X23647936Y11132671D01*
X23802626Y11196746D01*
X23941844Y11289768D01*
X24060238Y11408162D01*
X24153260Y11547380D01*
X24217335Y11702070D01*
X24250000Y11866288D01*
X24250000Y12033724D01*
X24217335Y12197942D01*
X24153260Y12352632D01*
X24060238Y12491850D01*
X24000000Y12552088D01*
X24000000Y19097918D01*
X24060238Y19158156D01*
X24153260Y19297374D01*
X24217335Y19452064D01*
X24250000Y19616282D01*
X24250000Y19783718D01*
X24217335Y19947936D01*
X24153260Y20102626D01*
X24060238Y20241844D01*
X23941844Y20360238D01*
X23882336Y20400000D01*
X23941844Y20439762D01*
X24060238Y20558156D01*
X24153260Y20697374D01*
X24217335Y20852064D01*
X24250000Y21016282D01*
X24250000Y21183718D01*
X24243769Y21215047D01*
X28701492Y21215047D01*
X28752449Y21100000D01*
X29320000Y21100000D01*
X29320000Y21668311D01*
X29204952Y21718516D01*
X29068909Y21662756D01*
X28946358Y21581527D01*
X28842009Y21477950D01*
X28759872Y21356006D01*
X28703103Y21220381D01*
X28701492Y21215047D01*
X24243769Y21215047D01*
X24217335Y21347936D01*
X24153260Y21502626D01*
X24060238Y21641844D01*
X23941844Y21760238D01*
X23802626Y21853260D01*
X23647936Y21917335D01*
X23483718Y21950000D01*
X23316282Y21950000D01*
X23152064Y21917335D01*
X22997374Y21853260D01*
X22858156Y21760238D01*
X22797918Y21700000D01*
X22402082Y21700000D01*
X22341844Y21760238D01*
X22202626Y21853260D01*
X22047936Y21917335D01*
X21883718Y21950000D01*
X21716282Y21950000D01*
X21552064Y21917335D01*
X21397374Y21853260D01*
X21258156Y21760238D01*
X21139762Y21641844D01*
X21046740Y21502626D01*
X20982665Y21347936D01*
X20950000Y21183718D01*
X600000Y21183718D01*
X600000Y29000000D01*
X29300000Y29000000D01*
X29300000Y27000000D01*
X29301921Y26980491D01*
X29307612Y26961732D01*
X29316853Y26944443D01*
X29329289Y26929289D01*
X30929289Y25329289D01*
X30944443Y25316853D01*
X30961732Y25307612D01*
X30980491Y25301921D01*
X31000000Y25300000D01*
X33000000Y25300000D01*
X33019509Y25301921D01*
X33038268Y25307612D01*
X33055557Y25316853D01*
X33070711Y25329289D01*
X34670711Y26929289D01*
X34683147Y26944443D01*
X34692388Y26961732D01*
X34698079Y26980491D01*
X34700000Y27000000D01*
X34700000Y29000000D01*
X34698079Y29019509D01*
X34692388Y29038268D01*
X34683147Y29055557D01*
X34670711Y29070711D01*
X33070711Y30670711D01*
X33055557Y30683147D01*
X33038268Y30692388D01*
X33019509Y30698079D01*
X33000000Y30700000D01*
X31000000Y30700000D01*
X30980491Y30698079D01*
X30961732Y30692388D01*
X30944443Y30683147D01*
X30929289Y30670711D01*
X29329289Y29070711D01*
X29316853Y29055557D01*
X29307612Y29038268D01*
X29301921Y29019509D01*
X29300000Y29000000D01*
X600000Y29000000D01*
X600000Y37088642D01*
X3240000Y37088642D01*
X3240000Y36911358D01*
X3274586Y36737480D01*
X3342430Y36573690D01*
X3440924Y36426283D01*
X3566283Y36300924D01*
X3713690Y36202430D01*
X3877480Y36134586D01*
X4051358Y36100000D01*
X4191473Y36100000D01*
X5794891Y34496581D01*
X5813683Y34473683D01*
X5905045Y34398704D01*
X6009279Y34342990D01*
X6088070Y34319089D01*
X6122378Y34308682D01*
X6133640Y34307573D01*
X6210526Y34300000D01*
X6210533Y34300000D01*
X6239999Y34297098D01*
X6269465Y34300000D01*
X12234218Y34300000D01*
X12230000Y34278793D01*
X12230000Y34121207D01*
X12260743Y33966649D01*
X12321049Y33821058D01*
X12408599Y33690030D01*
X12520030Y33578599D01*
X12651058Y33491049D01*
X12796649Y33430743D01*
X12951207Y33400000D01*
X13108793Y33400000D01*
X13263351Y33430743D01*
X13408942Y33491049D01*
X13539970Y33578599D01*
X13561371Y33600000D01*
X24970526Y33600000D01*
X25000000Y33597097D01*
X25029474Y33600000D01*
X25117621Y33608682D01*
X25230721Y33642990D01*
X25334955Y33698704D01*
X25415081Y33764462D01*
X25400000Y33688642D01*
X25400000Y33511358D01*
X25434586Y33337480D01*
X25502430Y33173690D01*
X25600924Y33026283D01*
X25726283Y32900924D01*
X25873690Y32802430D01*
X26037480Y32734586D01*
X26211358Y32700000D01*
X26388642Y32700000D01*
X26562520Y32734586D01*
X26726310Y32802430D01*
X26872334Y32900000D01*
X27378333Y32900000D01*
X27402813Y32854200D01*
X27502604Y32732604D01*
X27624200Y32632813D01*
X27762928Y32558662D01*
X27913456Y32512999D01*
X28070000Y32497581D01*
X29970000Y32497581D01*
X30126544Y32512999D01*
X30277072Y32558662D01*
X30415800Y32632813D01*
X30537396Y32732604D01*
X30637187Y32854200D01*
X30711338Y32992928D01*
X30713483Y33000000D01*
X32968548Y33000000D01*
X32974340Y32941190D01*
X32991495Y32884639D01*
X33019352Y32832522D01*
X33056841Y32786841D01*
X33102522Y32749352D01*
X33154639Y32721495D01*
X33211190Y32704340D01*
X33270000Y32698548D01*
X34345000Y32700000D01*
X34420000Y32775000D01*
X34420000Y33500000D01*
X34620000Y33500000D01*
X34620000Y32775000D01*
X34695000Y32700000D01*
X35770000Y32698548D01*
X35828810Y32704340D01*
X35885361Y32721495D01*
X35937478Y32749352D01*
X35983159Y32786841D01*
X36020648Y32832522D01*
X36048505Y32884639D01*
X36065660Y32941190D01*
X36071452Y33000000D01*
X36070000Y33425000D01*
X35995000Y33500000D01*
X34620000Y33500000D01*
X34420000Y33500000D01*
X33045000Y33500000D01*
X32970000Y33425000D01*
X32968548Y33000000D01*
X30713483Y33000000D01*
X30757001Y33143456D01*
X30772419Y33300000D01*
X30772419Y33900000D01*
X30757001Y34056544D01*
X30711338Y34207072D01*
X30637187Y34345800D01*
X30592706Y34400000D01*
X30882288Y34400000D01*
X30883811Y34396322D01*
X30993249Y34232537D01*
X31132537Y34093249D01*
X31296322Y33983811D01*
X31478311Y33908429D01*
X31671509Y33870000D01*
X31868491Y33870000D01*
X32061689Y33908429D01*
X32243678Y33983811D01*
X32407463Y34093249D01*
X32514214Y34200000D01*
X32968548Y34200000D01*
X32970000Y33775000D01*
X33045000Y33700000D01*
X34420000Y33700000D01*
X34420000Y34425000D01*
X34620000Y34425000D01*
X34620000Y33700000D01*
X35995000Y33700000D01*
X36070000Y33775000D01*
X36071452Y34200000D01*
X36065660Y34258810D01*
X36048505Y34315361D01*
X36020648Y34367478D01*
X35983159Y34413159D01*
X35937478Y34450648D01*
X35885361Y34478505D01*
X35828810Y34495660D01*
X35770000Y34501452D01*
X34695000Y34500000D01*
X34620000Y34425000D01*
X34420000Y34425000D01*
X34345000Y34500000D01*
X33270000Y34501452D01*
X33211190Y34495660D01*
X33154639Y34478505D01*
X33102522Y34450648D01*
X33056841Y34413159D01*
X33019352Y34367478D01*
X32991495Y34315361D01*
X32974340Y34258810D01*
X32968548Y34200000D01*
X32514214Y34200000D01*
X32546751Y34232537D01*
X32656189Y34396322D01*
X32657712Y34400000D01*
X32700000Y34400000D01*
X32719509Y34401921D01*
X32738268Y34407612D01*
X32755557Y34416853D01*
X32770711Y34429289D01*
X33341422Y35000000D01*
X36200000Y35000000D01*
X36219509Y35001921D01*
X36238268Y35007612D01*
X36255557Y35016853D01*
X36270711Y35029289D01*
X36670711Y35429289D01*
X36683147Y35444443D01*
X36692388Y35461732D01*
X36698079Y35480491D01*
X36700000Y35500000D01*
X36700000Y52400000D01*
X36698079Y52419509D01*
X36692388Y52438268D01*
X36683147Y52455557D01*
X36670711Y52470711D01*
X36270711Y52870711D01*
X36255557Y52883147D01*
X36238268Y52892388D01*
X36219509Y52898079D01*
X36200000Y52900000D01*
X26800000Y52900000D01*
X26780491Y52898079D01*
X26761732Y52892388D01*
X26744443Y52883147D01*
X26729289Y52870711D01*
X26329289Y52470711D01*
X26316853Y52455557D01*
X26307612Y52438268D01*
X26301921Y52419509D01*
X26300000Y52400000D01*
X26300000Y51748528D01*
X24296586Y49745113D01*
X24273683Y49726317D01*
X24198704Y49634954D01*
X24142990Y49530720D01*
X24115471Y49440000D01*
X24108682Y49417620D01*
X24097097Y49300000D01*
X24100000Y49270526D01*
X24100000Y46738949D01*
X24084955Y46751296D01*
X24002419Y46795412D01*
X24002419Y46900000D01*
X23992765Y46998017D01*
X23964175Y47092267D01*
X23917746Y47179129D01*
X23855264Y47255264D01*
X23779129Y47317746D01*
X23692267Y47364175D01*
X23598017Y47392765D01*
X23500000Y47402419D01*
X21600000Y47402419D01*
X21501983Y47392765D01*
X21407733Y47364175D01*
X21320871Y47317746D01*
X21244736Y47255264D01*
X21182254Y47179129D01*
X21135825Y47092267D01*
X21107235Y46998017D01*
X21097581Y46900000D01*
X21097581Y46850000D01*
X14902419Y46850000D01*
X14902419Y46900000D01*
X14892765Y46998017D01*
X14864175Y47092267D01*
X14817746Y47179129D01*
X14755264Y47255264D01*
X14679129Y47317746D01*
X14592267Y47364175D01*
X14498017Y47392765D01*
X14400000Y47402419D01*
X12500000Y47402419D01*
X12401983Y47392765D01*
X12307733Y47364175D01*
X12220871Y47317746D01*
X12144736Y47255264D01*
X12082254Y47179129D01*
X12035825Y47092267D01*
X12007235Y46998017D01*
X11997581Y46900000D01*
X11997581Y46850000D01*
X11679474Y46850000D01*
X11650000Y46852903D01*
X11532379Y46841318D01*
X11419278Y46807010D01*
X11382971Y46787603D01*
X11315045Y46751296D01*
X11223683Y46676317D01*
X11204891Y46653419D01*
X10596581Y46045108D01*
X10573684Y46026317D01*
X10498705Y45934955D01*
X10442991Y45830721D01*
X10411737Y45727690D01*
X10317733Y45699175D01*
X10230871Y45652746D01*
X10154736Y45590264D01*
X10092254Y45514129D01*
X10045825Y45427267D01*
X10017235Y45333017D01*
X10007581Y45235000D01*
X10007581Y44305000D01*
X10017235Y44206983D01*
X10045825Y44112733D01*
X10092254Y44025871D01*
X10154736Y43949736D01*
X10230871Y43887254D01*
X10264801Y43869118D01*
X10259352Y43862478D01*
X10231495Y43810361D01*
X10214340Y43753810D01*
X10208548Y43695000D01*
X10210000Y43405000D01*
X10285000Y43330000D01*
X10900000Y43330000D01*
X10900000Y43350000D01*
X11100000Y43350000D01*
X11100000Y43330000D01*
X11715000Y43330000D01*
X11790000Y43405000D01*
X11791452Y43695000D01*
X11785660Y43753810D01*
X11778082Y43778793D01*
X16040000Y43778793D01*
X16040000Y43621207D01*
X16070743Y43466649D01*
X16131049Y43321058D01*
X16218599Y43190030D01*
X16240001Y43168628D01*
X16240000Y40731328D01*
X16218599Y40709927D01*
X16131049Y40578899D01*
X16070743Y40433308D01*
X16040000Y40278750D01*
X16040000Y40121164D01*
X16070743Y39966606D01*
X16131049Y39821015D01*
X16218599Y39689987D01*
X16330030Y39578556D01*
X16461058Y39491006D01*
X16606649Y39430700D01*
X16761207Y39399957D01*
X16918793Y39399957D01*
X17073351Y39430700D01*
X17218942Y39491006D01*
X17349970Y39578556D01*
X17461401Y39689987D01*
X17470000Y39702856D01*
X17478599Y39689987D01*
X17590030Y39578556D01*
X17721058Y39491006D01*
X17866649Y39430700D01*
X18021207Y39399957D01*
X18178793Y39399957D01*
X18333351Y39430700D01*
X18478942Y39491006D01*
X18609970Y39578556D01*
X18721401Y39689987D01*
X18808951Y39821015D01*
X18869257Y39966606D01*
X18900000Y40121164D01*
X18900000Y40278750D01*
X18869257Y40433308D01*
X18808951Y40578899D01*
X18721401Y40709927D01*
X18700000Y40731328D01*
X18700000Y41100000D01*
X21298548Y41100000D01*
X21304340Y41041190D01*
X21321495Y40984639D01*
X21349352Y40932522D01*
X21386841Y40886841D01*
X21432522Y40849352D01*
X21484639Y40821495D01*
X21541190Y40804340D01*
X21600000Y40798548D01*
X22375000Y40800000D01*
X22450000Y40875000D01*
X22450000Y41650000D01*
X21375000Y41650000D01*
X21300000Y41575000D01*
X21298548Y41100000D01*
X18700000Y41100000D01*
X18700000Y42400000D01*
X21298548Y42400000D01*
X21300000Y41925000D01*
X21375000Y41850000D01*
X22450000Y41850000D01*
X22450000Y42625000D01*
X22375000Y42700000D01*
X21600000Y42701452D01*
X21541190Y42695660D01*
X21484639Y42678505D01*
X21432522Y42650648D01*
X21386841Y42613159D01*
X21349352Y42567478D01*
X21321495Y42515361D01*
X21304340Y42458810D01*
X21298548Y42400000D01*
X18700000Y42400000D01*
X18700000Y42468629D01*
X18721401Y42490030D01*
X18808951Y42621058D01*
X18869257Y42766649D01*
X18900000Y42921207D01*
X18900000Y43078793D01*
X18869257Y43233351D01*
X18808951Y43378942D01*
X18721401Y43509970D01*
X18609970Y43621401D01*
X18478942Y43708951D01*
X18333351Y43769257D01*
X18178793Y43800000D01*
X18021207Y43800000D01*
X17866649Y43769257D01*
X17721058Y43708951D01*
X17640000Y43654790D01*
X17640000Y43778793D01*
X17609257Y43933351D01*
X17548951Y44078942D01*
X17461401Y44209970D01*
X17349970Y44321401D01*
X17218942Y44408951D01*
X17073351Y44469257D01*
X16918793Y44500000D01*
X16761207Y44500000D01*
X16606649Y44469257D01*
X16461058Y44408951D01*
X16330030Y44321401D01*
X16218599Y44209970D01*
X16131049Y44078942D01*
X16070743Y43933351D01*
X16040000Y43778793D01*
X11778082Y43778793D01*
X11768505Y43810361D01*
X11740648Y43862478D01*
X11735199Y43869118D01*
X11769129Y43887254D01*
X11845264Y43949736D01*
X11907746Y44025871D01*
X11954175Y44112733D01*
X11982765Y44206983D01*
X11992419Y44305000D01*
X11992419Y45235000D01*
X11982765Y45333017D01*
X11954175Y45427267D01*
X11907746Y45514129D01*
X11845264Y45590264D01*
X11841709Y45593181D01*
X11898528Y45650000D01*
X11997581Y45650000D01*
X11997581Y45600000D01*
X12007235Y45501983D01*
X12035825Y45407733D01*
X12082254Y45320871D01*
X12144736Y45244736D01*
X12220871Y45182254D01*
X12307733Y45135825D01*
X12401983Y45107235D01*
X12500000Y45097581D01*
X14400000Y45097581D01*
X14498017Y45107235D01*
X14592267Y45135825D01*
X14679129Y45182254D01*
X14755264Y45244736D01*
X14817746Y45320871D01*
X14864175Y45407733D01*
X14892765Y45501983D01*
X14902419Y45600000D01*
X14902419Y45650000D01*
X21097581Y45650000D01*
X21097581Y45600000D01*
X21107235Y45501983D01*
X21135825Y45407733D01*
X21182254Y45320871D01*
X21244736Y45244736D01*
X21320871Y45182254D01*
X21407733Y45135825D01*
X21501983Y45107235D01*
X21600000Y45097581D01*
X23499990Y45097581D01*
X23499991Y42701452D01*
X22725000Y42700000D01*
X22650000Y42625000D01*
X22650000Y41850000D01*
X22670000Y41850000D01*
X22670000Y41650000D01*
X22650000Y41650000D01*
X22650000Y40875000D01*
X22725000Y40800000D01*
X23499991Y40798548D01*
X23499991Y40195776D01*
X23366649Y40169253D01*
X23221058Y40108947D01*
X23090030Y40021397D01*
X23068633Y40000000D01*
X22231371Y40000000D01*
X22209970Y40021401D01*
X22078942Y40108951D01*
X21933351Y40169257D01*
X21778793Y40200000D01*
X21621207Y40200000D01*
X21466649Y40169257D01*
X21321058Y40108951D01*
X21190030Y40021401D01*
X21078599Y39909970D01*
X20991049Y39778942D01*
X20930743Y39633351D01*
X20900000Y39478793D01*
X20900000Y39321207D01*
X20930743Y39166649D01*
X20991049Y39021058D01*
X21078599Y38890030D01*
X21190030Y38778599D01*
X21321058Y38691049D01*
X21466649Y38630743D01*
X21621207Y38600000D01*
X21778793Y38600000D01*
X21933351Y38630743D01*
X22078942Y38691049D01*
X22209970Y38778599D01*
X22231371Y38800000D01*
X23068625Y38800000D01*
X23090030Y38778595D01*
X23221058Y38691045D01*
X23366649Y38630739D01*
X23379629Y38628157D01*
X22351473Y37600000D01*
X16101371Y37600000D01*
X16079970Y37621401D01*
X15948942Y37708951D01*
X15803351Y37769257D01*
X15648793Y37800000D01*
X15491207Y37800000D01*
X15336649Y37769257D01*
X15191058Y37708951D01*
X15060030Y37621401D01*
X14948599Y37509970D01*
X14861049Y37378942D01*
X14800743Y37233351D01*
X14770000Y37078793D01*
X14770000Y36948108D01*
X14678942Y37008951D01*
X14533351Y37069257D01*
X14378793Y37100000D01*
X14221207Y37100000D01*
X14066649Y37069257D01*
X13921058Y37008951D01*
X13790030Y36921401D01*
X13678599Y36809970D01*
X13591049Y36678942D01*
X13530743Y36533351D01*
X13500000Y36378793D01*
X13500000Y36221207D01*
X13504218Y36200000D01*
X13408536Y36200000D01*
X12560000Y37048535D01*
X12560000Y37078801D01*
X12529257Y37233359D01*
X12468951Y37378950D01*
X12381401Y37509978D01*
X12269970Y37621409D01*
X12138942Y37708959D01*
X11993351Y37769265D01*
X11838793Y37800008D01*
X11681207Y37800008D01*
X11526649Y37769265D01*
X11381058Y37708959D01*
X11250030Y37621409D01*
X11138599Y37509978D01*
X11051049Y37378950D01*
X10990743Y37233359D01*
X10960000Y37078801D01*
X10960000Y36921215D01*
X10990743Y36766657D01*
X11051049Y36621066D01*
X11138599Y36490038D01*
X11250030Y36378607D01*
X11381058Y36291057D01*
X11526649Y36230751D01*
X11681207Y36200008D01*
X11711473Y36200008D01*
X12411480Y35500000D01*
X6488528Y35500000D01*
X5040000Y36948527D01*
X5040000Y37088642D01*
X5005414Y37262520D01*
X4937570Y37426310D01*
X4839076Y37573717D01*
X4713717Y37699076D01*
X4566310Y37797570D01*
X4402520Y37865414D01*
X4228642Y37900000D01*
X4051358Y37900000D01*
X3877480Y37865414D01*
X3713690Y37797570D01*
X3566283Y37699076D01*
X3440924Y37573717D01*
X3342430Y37426310D01*
X3274586Y37262520D01*
X3240000Y37088642D01*
X600000Y37088642D01*
X600000Y42678793D01*
X8400000Y42678793D01*
X8400000Y42521207D01*
X8430743Y42366649D01*
X8491049Y42221058D01*
X8578599Y42090030D01*
X8600001Y42068628D01*
X8600000Y40731371D01*
X8578599Y40709970D01*
X8491049Y40578942D01*
X8430743Y40433351D01*
X8400000Y40278793D01*
X8400000Y40121207D01*
X8430743Y39966649D01*
X8491049Y39821058D01*
X8578599Y39690030D01*
X8690030Y39578599D01*
X8821058Y39491049D01*
X8966649Y39430743D01*
X9121207Y39400000D01*
X9278793Y39400000D01*
X9433351Y39430743D01*
X9578942Y39491049D01*
X9709970Y39578599D01*
X9821401Y39690030D01*
X9908951Y39821058D01*
X9969257Y39966649D01*
X10000000Y40121207D01*
X10000000Y40278793D01*
X9969257Y40433351D01*
X9908951Y40578942D01*
X9821401Y40709970D01*
X9800000Y40731371D01*
X9800000Y41100000D01*
X12198548Y41100000D01*
X12204340Y41041190D01*
X12221495Y40984639D01*
X12249352Y40932522D01*
X12286841Y40886841D01*
X12332522Y40849352D01*
X12384639Y40821495D01*
X12441190Y40804340D01*
X12500000Y40798548D01*
X13275000Y40800000D01*
X13350000Y40875000D01*
X13350000Y41650000D01*
X13550000Y41650000D01*
X13550000Y40875000D01*
X13625000Y40800000D01*
X14400000Y40798548D01*
X14458810Y40804340D01*
X14515361Y40821495D01*
X14567478Y40849352D01*
X14613159Y40886841D01*
X14650648Y40932522D01*
X14678505Y40984639D01*
X14695660Y41041190D01*
X14701452Y41100000D01*
X14700000Y41575000D01*
X14625000Y41650000D01*
X13550000Y41650000D01*
X13350000Y41650000D01*
X12275000Y41650000D01*
X12200000Y41575000D01*
X12198548Y41100000D01*
X9800000Y41100000D01*
X9800000Y42068629D01*
X9821401Y42090030D01*
X9908951Y42221058D01*
X9969257Y42366649D01*
X9975890Y42400000D01*
X12198548Y42400000D01*
X12200000Y41925000D01*
X12275000Y41850000D01*
X13350000Y41850000D01*
X13350000Y42625000D01*
X13550000Y42625000D01*
X13550000Y41850000D01*
X14625000Y41850000D01*
X14700000Y41925000D01*
X14701452Y42400000D01*
X14695660Y42458810D01*
X14678505Y42515361D01*
X14650648Y42567478D01*
X14613159Y42613159D01*
X14567478Y42650648D01*
X14515361Y42678505D01*
X14458810Y42695660D01*
X14400000Y42701452D01*
X13625000Y42700000D01*
X13550000Y42625000D01*
X13350000Y42625000D01*
X13275000Y42700000D01*
X12500000Y42701452D01*
X12441190Y42695660D01*
X12384639Y42678505D01*
X12332522Y42650648D01*
X12286841Y42613159D01*
X12249352Y42567478D01*
X12221495Y42515361D01*
X12204340Y42458810D01*
X12198548Y42400000D01*
X9975890Y42400000D01*
X10000000Y42521207D01*
X10000000Y42678793D01*
X9982853Y42765000D01*
X10208548Y42765000D01*
X10214340Y42706190D01*
X10231495Y42649639D01*
X10259352Y42597522D01*
X10296841Y42551841D01*
X10342522Y42514352D01*
X10394639Y42486495D01*
X10451190Y42469340D01*
X10510000Y42463548D01*
X10825000Y42465000D01*
X10900000Y42540000D01*
X10900000Y43130000D01*
X11100000Y43130000D01*
X11100000Y42540000D01*
X11175000Y42465000D01*
X11490000Y42463548D01*
X11548810Y42469340D01*
X11605361Y42486495D01*
X11657478Y42514352D01*
X11703159Y42551841D01*
X11740648Y42597522D01*
X11768505Y42649639D01*
X11785660Y42706190D01*
X11791452Y42765000D01*
X11790000Y43055000D01*
X11715000Y43130000D01*
X11100000Y43130000D01*
X10900000Y43130000D01*
X10285000Y43130000D01*
X10210000Y43055000D01*
X10208548Y42765000D01*
X9982853Y42765000D01*
X9969257Y42833351D01*
X9908951Y42978942D01*
X9821401Y43109970D01*
X9709970Y43221401D01*
X9578942Y43308951D01*
X9433351Y43369257D01*
X9278793Y43400000D01*
X9121207Y43400000D01*
X8966649Y43369257D01*
X8821058Y43308951D01*
X8690030Y43221401D01*
X8578599Y43109970D01*
X8491049Y42978942D01*
X8430743Y42833351D01*
X8400000Y42678793D01*
X600000Y42678793D01*
X600000Y53158578D01*
X941422Y53500000D01*
X3900000Y53500000D01*
X3919509Y53501921D01*
X3938268Y53507612D01*
X3955557Y53516853D01*
X3970711Y53529289D01*
X5970711Y55529289D01*
X5983147Y55544443D01*
X5992388Y55561732D01*
X5998079Y55580491D01*
X6000000Y55600000D01*
X6000000Y57500000D01*
X29300000Y57500000D01*
X29300000Y55500000D01*
X29301921Y55480491D01*
X29307612Y55461732D01*
X29316853Y55444443D01*
X29329289Y55429289D01*
X30929289Y53829289D01*
X30944443Y53816853D01*
X30961732Y53807612D01*
X30980491Y53801921D01*
X31000000Y53800000D01*
X33000000Y53800000D01*
X33019509Y53801921D01*
X33038268Y53807612D01*
X33055557Y53816853D01*
X33070711Y53829289D01*
X33302520Y54061098D01*
X48642986Y54061098D01*
X48680493Y53758087D01*
X48776393Y53468216D01*
X48883777Y53267315D01*
X49083391Y53124813D01*
X50058579Y54100000D01*
X50341421Y54100000D01*
X51316609Y53124813D01*
X51516223Y53267315D01*
X51653380Y53540097D01*
X51734685Y53834396D01*
X51757014Y54138902D01*
X51719507Y54441913D01*
X51623607Y54731784D01*
X51516223Y54932685D01*
X51316609Y55075187D01*
X50341421Y54100000D01*
X50058579Y54100000D01*
X49083391Y55075187D01*
X48883777Y54932685D01*
X48746620Y54659903D01*
X48665315Y54365604D01*
X48642986Y54061098D01*
X33302520Y54061098D01*
X34458031Y55216609D01*
X49224813Y55216609D01*
X50200000Y54241421D01*
X51148078Y55189500D01*
X54927048Y55189500D01*
X54928500Y54285000D01*
X55003500Y54210000D01*
X56500000Y54210000D01*
X56500000Y55414500D01*
X56700000Y55414500D01*
X56700000Y54210000D01*
X58196500Y54210000D01*
X58271500Y54285000D01*
X58272952Y55189500D01*
X58267160Y55248310D01*
X58250005Y55304861D01*
X58222148Y55356978D01*
X58184659Y55402659D01*
X58138978Y55440148D01*
X58086861Y55468005D01*
X58030310Y55485160D01*
X57971500Y55490952D01*
X56775000Y55489500D01*
X56700000Y55414500D01*
X56500000Y55414500D01*
X56425000Y55489500D01*
X55228500Y55490952D01*
X55169690Y55485160D01*
X55113139Y55468005D01*
X55061022Y55440148D01*
X55015341Y55402659D01*
X54977852Y55356978D01*
X54949995Y55304861D01*
X54932840Y55248310D01*
X54927048Y55189500D01*
X51148078Y55189500D01*
X51175187Y55216609D01*
X51032685Y55416223D01*
X50759903Y55553380D01*
X50465604Y55634685D01*
X50161098Y55657014D01*
X49858087Y55619507D01*
X49568216Y55523607D01*
X49367315Y55416223D01*
X49224813Y55216609D01*
X34458031Y55216609D01*
X34670711Y55429289D01*
X34683147Y55444443D01*
X34692388Y55461732D01*
X34698079Y55480491D01*
X34700000Y55500000D01*
X34700000Y56483391D01*
X49224813Y56483391D01*
X49367315Y56283777D01*
X49640097Y56146620D01*
X49934396Y56065315D01*
X50238902Y56042986D01*
X50541913Y56080493D01*
X50765609Y56154500D01*
X59650748Y56154500D01*
X59652200Y55129350D01*
X59727200Y55054350D01*
X61300000Y55054350D01*
X61300000Y56379500D01*
X61500000Y56379500D01*
X61500000Y55054350D01*
X63072800Y55054350D01*
X63147800Y55129350D01*
X63149252Y56154500D01*
X63143460Y56213310D01*
X63126305Y56269861D01*
X63098448Y56321978D01*
X63060959Y56367659D01*
X63015278Y56405148D01*
X62963161Y56433005D01*
X62906610Y56450160D01*
X62847800Y56455952D01*
X61575000Y56454500D01*
X61500000Y56379500D01*
X61300000Y56379500D01*
X61225000Y56454500D01*
X59952200Y56455952D01*
X59893390Y56450160D01*
X59836839Y56433005D01*
X59784722Y56405148D01*
X59739041Y56367659D01*
X59701552Y56321978D01*
X59673695Y56269861D01*
X59656540Y56213310D01*
X59650748Y56154500D01*
X50765609Y56154500D01*
X50831784Y56176393D01*
X51032685Y56283777D01*
X51175187Y56483391D01*
X50200000Y57458579D01*
X49224813Y56483391D01*
X34700000Y56483391D01*
X34700000Y57500000D01*
X34698079Y57519509D01*
X34692388Y57538268D01*
X34683147Y57555557D01*
X34678600Y57561098D01*
X48642986Y57561098D01*
X48680493Y57258087D01*
X48776393Y56968216D01*
X48883777Y56767315D01*
X49083391Y56624813D01*
X50058579Y57600000D01*
X50341421Y57600000D01*
X51316609Y56624813D01*
X51516223Y56767315D01*
X51653380Y57040097D01*
X51734685Y57334396D01*
X51757014Y57638902D01*
X51719507Y57941913D01*
X51623607Y58231784D01*
X51516223Y58432685D01*
X51316609Y58575187D01*
X50341421Y57600000D01*
X50058579Y57600000D01*
X49083391Y58575187D01*
X48883777Y58432685D01*
X48746620Y58159903D01*
X48665315Y57865604D01*
X48642986Y57561098D01*
X34678600Y57561098D01*
X34670711Y57570711D01*
X33524813Y58716609D01*
X49224813Y58716609D01*
X50200000Y57741421D01*
X51175187Y58716609D01*
X51032685Y58916223D01*
X50759903Y59053380D01*
X50465604Y59134685D01*
X50161098Y59157014D01*
X49858087Y59119507D01*
X49568216Y59023607D01*
X49367315Y58916223D01*
X49224813Y58716609D01*
X33524813Y58716609D01*
X33070711Y59170711D01*
X33055557Y59183147D01*
X33038268Y59192388D01*
X33019509Y59198079D01*
X33000000Y59200000D01*
X31000000Y59200000D01*
X30980491Y59198079D01*
X30961732Y59192388D01*
X30944443Y59183147D01*
X30929289Y59170711D01*
X29329289Y57570711D01*
X29316853Y57555557D01*
X29307612Y57538268D01*
X29301921Y57519509D01*
X29300000Y57500000D01*
X6000000Y57500000D01*
X6000000Y58958578D01*
X6341422Y59300000D01*
X91558578Y59300000D01*
X91900000Y58958578D01*
X91900000Y58958578D01*
G37*
X91900000Y58958578D02*
X91900000Y28000000D01*
X91901921Y27980491D01*
X91907612Y27961732D01*
X91916853Y27944443D01*
X91929289Y27929289D01*
X92529289Y27329289D01*
X92544443Y27316853D01*
X92561732Y27307612D01*
X92580491Y27301921D01*
X92600000Y27300000D01*
X116700000Y27300000D01*
X116719509Y27301921D01*
X116738268Y27307612D01*
X116755557Y27316853D01*
X116770711Y27329289D01*
X117170711Y27729289D01*
X117183147Y27744443D01*
X117192388Y27761732D01*
X117198079Y27780491D01*
X117200000Y27800000D01*
X117200000Y29258578D01*
X117541422Y29600000D01*
X123058578Y29600000D01*
X123400000Y29258578D01*
X123400000Y23941422D01*
X123058578Y23600000D01*
X116772324Y23600000D01*
X116626300Y23697570D01*
X116462510Y23765414D01*
X116288632Y23800000D01*
X116111348Y23800000D01*
X115937470Y23765414D01*
X115773680Y23697570D01*
X115627656Y23600000D01*
X115172436Y23600000D01*
X115026418Y23697566D01*
X114862628Y23765410D01*
X114688750Y23799996D01*
X114511466Y23799996D01*
X114337588Y23765410D01*
X114173798Y23697566D01*
X114027780Y23600000D01*
X110440067Y23600000D01*
X110390811Y23673717D01*
X110265452Y23799076D01*
X110118045Y23897570D01*
X109954255Y23965414D01*
X109780377Y24000000D01*
X109603093Y24000000D01*
X109429215Y23965414D01*
X109265425Y23897570D01*
X109118018Y23799076D01*
X108992659Y23673717D01*
X108943403Y23600000D01*
X85541422Y23600000D01*
X85200000Y23941422D01*
X85200000Y31100000D01*
X85198079Y31119509D01*
X85192388Y31138268D01*
X85183147Y31155557D01*
X85170711Y31170711D01*
X84770711Y31570711D01*
X84755557Y31583147D01*
X84738268Y31592388D01*
X84719509Y31598079D01*
X84700000Y31600000D01*
X57041422Y31600000D01*
X56700000Y31941422D01*
X56700000Y39258578D01*
X56799839Y39358417D01*
X56866649Y39330743D01*
X57021207Y39300000D01*
X57178793Y39300000D01*
X57333351Y39330743D01*
X57478942Y39391049D01*
X57492338Y39400000D01*
X57607647Y39400000D01*
X57621058Y39391039D01*
X57766649Y39330733D01*
X57921207Y39299990D01*
X58078793Y39299990D01*
X58233351Y39330733D01*
X58378942Y39391039D01*
X58392353Y39400000D01*
X59658578Y39400000D01*
X59800000Y39258578D01*
X59800000Y34800000D01*
X59801921Y34780491D01*
X59807612Y34761732D01*
X59816853Y34744443D01*
X59829289Y34729289D01*
X60229289Y34329289D01*
X60244443Y34316853D01*
X60261732Y34307612D01*
X60280491Y34301921D01*
X60300000Y34300000D01*
X71300000Y34300000D01*
X71319509Y34301921D01*
X71338268Y34307612D01*
X71355557Y34316853D01*
X71370711Y34329289D01*
X71770711Y34729289D01*
X71783147Y34744443D01*
X71792388Y34761732D01*
X71798079Y34780491D01*
X71800000Y34800000D01*
X71800000Y39258578D01*
X71941422Y39400000D01*
X74758578Y39400000D01*
X74900000Y39258578D01*
X74900000Y34800000D01*
X74901921Y34780491D01*
X74907612Y34761732D01*
X74916853Y34744443D01*
X74929289Y34729289D01*
X75329289Y34329289D01*
X75344443Y34316853D01*
X75361732Y34307612D01*
X75380491Y34301921D01*
X75400000Y34300000D01*
X84700000Y34300000D01*
X84719509Y34301921D01*
X84738268Y34307612D01*
X84755557Y34316853D01*
X84770711Y34329289D01*
X85170711Y34729289D01*
X85183147Y34744443D01*
X85192388Y34761732D01*
X85198079Y34780491D01*
X85200000Y34800000D01*
X85200000Y37258578D01*
X85341422Y37400000D01*
X87000000Y37400000D01*
X87019509Y37401921D01*
X87038268Y37407612D01*
X87055557Y37416853D01*
X87070711Y37429289D01*
X87270711Y37629289D01*
X87283147Y37644443D01*
X87292388Y37661732D01*
X87298079Y37680491D01*
X87300000Y37700000D01*
X87300000Y56500000D01*
X87298079Y56519509D01*
X87292388Y56538268D01*
X87283147Y56555557D01*
X87270711Y56570711D01*
X86870711Y56970711D01*
X86855557Y56983147D01*
X86838268Y56992388D01*
X86819509Y56998079D01*
X86800000Y57000000D01*
X63500000Y57000000D01*
X63480491Y56998079D01*
X63461732Y56992388D01*
X63444443Y56983147D01*
X63429289Y56970711D01*
X63329289Y56870711D01*
X63316853Y56855557D01*
X63307612Y56838268D01*
X63301921Y56819509D01*
X63300000Y56800000D01*
X63300000Y56700000D01*
X63301921Y56680491D01*
X63307612Y56661732D01*
X63316853Y56644443D01*
X63329289Y56629289D01*
X63429289Y56529289D01*
X63444443Y56516853D01*
X63461732Y56507612D01*
X63480491Y56501921D01*
X63500000Y56500000D01*
X69058578Y56500000D01*
X69400000Y56158578D01*
X69400000Y36641422D01*
X69258578Y36500000D01*
X66141422Y36500000D01*
X66000000Y36641422D01*
X66000000Y52100000D01*
X65998079Y52119509D01*
X65992388Y52138268D01*
X65983147Y52155557D01*
X65970711Y52170711D01*
X65570711Y52570711D01*
X65555557Y52583147D01*
X65538268Y52592388D01*
X65519509Y52598079D01*
X65500000Y52600000D01*
X50600876Y52600000D01*
X50831784Y52676393D01*
X51032685Y52783777D01*
X51175187Y52983391D01*
X51128079Y53030500D01*
X54927048Y53030500D01*
X54932840Y52971690D01*
X54949995Y52915139D01*
X54977852Y52863022D01*
X55015341Y52817341D01*
X55061022Y52779852D01*
X55113139Y52751995D01*
X55169690Y52734840D01*
X55228500Y52729048D01*
X56425000Y52730500D01*
X56500000Y52805500D01*
X56500000Y54010000D01*
X56700000Y54010000D01*
X56700000Y52805500D01*
X56775000Y52730500D01*
X57971500Y52729048D01*
X58030310Y52734840D01*
X58086861Y52751995D01*
X58138978Y52779852D01*
X58184659Y52817341D01*
X58222148Y52863022D01*
X58250005Y52915139D01*
X58267160Y52971690D01*
X58272952Y53030500D01*
X58271791Y53754200D01*
X59650748Y53754200D01*
X59656540Y53695390D01*
X59673695Y53638839D01*
X59701552Y53586722D01*
X59739041Y53541041D01*
X59784722Y53503552D01*
X59836839Y53475695D01*
X59893390Y53458540D01*
X59952200Y53452748D01*
X61225000Y53454200D01*
X61300000Y53529200D01*
X61300000Y54854350D01*
X61500000Y54854350D01*
X61500000Y53529200D01*
X61575000Y53454200D01*
X62847800Y53452748D01*
X62906610Y53458540D01*
X62963161Y53475695D01*
X63015278Y53503552D01*
X63060959Y53541041D01*
X63098448Y53586722D01*
X63126305Y53638839D01*
X63143460Y53695390D01*
X63149252Y53754200D01*
X63147800Y54779350D01*
X63072800Y54854350D01*
X61500000Y54854350D01*
X61300000Y54854350D01*
X59727200Y54854350D01*
X59652200Y54779350D01*
X59650748Y53754200D01*
X58271791Y53754200D01*
X58271500Y53935000D01*
X58196500Y54010000D01*
X56700000Y54010000D01*
X56500000Y54010000D01*
X55003500Y54010000D01*
X54928500Y53935000D01*
X54927048Y53030500D01*
X51128079Y53030500D01*
X50200000Y53958579D01*
X49224813Y52983391D01*
X49367315Y52783777D01*
X49640097Y52646620D01*
X49808847Y52600000D01*
X43000000Y52600000D01*
X42980491Y52598079D01*
X42961732Y52592388D01*
X42944443Y52583147D01*
X42929289Y52570711D01*
X42529289Y52170711D01*
X42516853Y52155557D01*
X42507612Y52138268D01*
X42501921Y52119509D01*
X42500000Y52100000D01*
X42500000Y32700000D01*
X42501921Y32680491D01*
X42507612Y32661732D01*
X42516853Y32644443D01*
X42529289Y32629289D01*
X42929289Y32229289D01*
X42944443Y32216853D01*
X42961732Y32207612D01*
X42980491Y32201921D01*
X43000000Y32200000D01*
X48658578Y32200000D01*
X49000000Y31858578D01*
X49000000Y28800000D01*
X49001921Y28780491D01*
X49007612Y28761732D01*
X49016853Y28744443D01*
X49029289Y28729289D01*
X49429289Y28329289D01*
X49444443Y28316853D01*
X49461732Y28307612D01*
X49480491Y28301921D01*
X49500000Y28300000D01*
X53158578Y28300000D01*
X53500000Y27958578D01*
X53500000Y19841422D01*
X53158578Y19500000D01*
X46000000Y19500000D01*
X45980491Y19498079D01*
X45961732Y19492388D01*
X45944443Y19483147D01*
X45929289Y19470711D01*
X45529289Y19070711D01*
X45516853Y19055557D01*
X45507612Y19038268D01*
X45501921Y19019509D01*
X45500000Y19000000D01*
X45500000Y3676474D01*
X45452794Y3562509D01*
X45418208Y3388631D01*
X45418208Y3211347D01*
X45452794Y3037469D01*
X45500000Y2923504D01*
X45500000Y2200000D01*
X45501921Y2180491D01*
X45507612Y2161732D01*
X45516853Y2144443D01*
X45529289Y2129289D01*
X45829289Y1829289D01*
X45844443Y1816853D01*
X45861732Y1807612D01*
X45880491Y1801921D01*
X45900000Y1800000D01*
X47083809Y1800000D01*
X47118196Y1796613D01*
X47152583Y1800000D01*
X99015613Y1800000D01*
X99050000Y1796613D01*
X99084387Y1800000D01*
X119300000Y1800000D01*
X119319509Y1801921D01*
X119338268Y1807612D01*
X119355557Y1816853D01*
X119370711Y1829289D01*
X119770711Y2229289D01*
X119783147Y2244443D01*
X119792388Y2261732D01*
X119798079Y2280491D01*
X119800000Y2300000D01*
X119800000Y10100000D01*
X119798079Y10119509D01*
X119792388Y10138268D01*
X119783147Y10155557D01*
X119770711Y10170711D01*
X119760000Y10180000D01*
X119360000Y10480000D01*
X119343240Y10490168D01*
X119324818Y10496871D01*
X119300000Y10500000D01*
X118490476Y10500000D01*
X118490000Y10595000D01*
X118415000Y10670000D01*
X117800000Y10670000D01*
X117800000Y10650000D01*
X117600000Y10650000D01*
X117600000Y10670000D01*
X117580000Y10670000D01*
X117580000Y10870000D01*
X117600000Y10870000D01*
X117600000Y10890000D01*
X117800000Y10890000D01*
X117800000Y10870000D01*
X118415000Y10870000D01*
X118490000Y10945000D01*
X118490275Y11000000D01*
X119758578Y11000000D01*
X120100000Y10658578D01*
X120100000Y941422D01*
X119758578Y600000D01*
X6341422Y600000D01*
X6000000Y941422D01*
X6000000Y4400000D01*
X5998079Y4419509D01*
X5992388Y4438268D01*
X5983147Y4455557D01*
X5970711Y4470711D01*
X3970711Y6470711D01*
X3955557Y6483147D01*
X3938268Y6492388D01*
X3919509Y6498079D01*
X3900000Y6500000D01*
X941422Y6500000D01*
X600000Y6841422D01*
X600000Y10708341D01*
X3900000Y10708341D01*
X3900000Y10491659D01*
X3942273Y10279142D01*
X4025193Y10078955D01*
X4100001Y9966998D01*
X4100001Y9444216D01*
X4095646Y9400000D01*
X4113023Y9223570D01*
X4164487Y9053919D01*
X4248057Y8897569D01*
X4332345Y8794863D01*
X4332348Y8794860D01*
X4360526Y8760525D01*
X4394861Y8732347D01*
X9432347Y3694860D01*
X9460525Y3660525D01*
X9494860Y3632347D01*
X9494862Y3632345D01*
X9559447Y3579342D01*
X9597568Y3548057D01*
X9753919Y3464486D01*
X9923569Y3413023D01*
X10055793Y3400000D01*
X10055795Y3400000D01*
X10099999Y3395646D01*
X10144203Y3400000D01*
X25066999Y3400000D01*
X25178955Y3325193D01*
X25379142Y3242273D01*
X25591659Y3200000D01*
X25808341Y3200000D01*
X26020858Y3242273D01*
X26221045Y3325193D01*
X26333001Y3400000D01*
X30755794Y3400000D01*
X30800000Y3395646D01*
X30844206Y3400000D01*
X30844207Y3400000D01*
X30976431Y3413023D01*
X31146081Y3464486D01*
X31302432Y3548057D01*
X31439475Y3660525D01*
X31467657Y3694865D01*
X41605136Y13832344D01*
X41639475Y13860525D01*
X41751943Y13997568D01*
X41835514Y14153919D01*
X41886977Y14323569D01*
X41900000Y14455793D01*
X41900000Y14455802D01*
X41904353Y14499999D01*
X41900000Y14544196D01*
X41900000Y17466681D01*
X41961571Y17615327D01*
X42000000Y17808525D01*
X42000000Y18005507D01*
X41961571Y18198705D01*
X41886189Y18380694D01*
X41776751Y18544479D01*
X41700000Y18621230D01*
X41700000Y20265614D01*
X41703387Y20300001D01*
X41698824Y20346330D01*
X41689872Y20437224D01*
X41649845Y20569175D01*
X41584845Y20690781D01*
X41497369Y20797370D01*
X41470658Y20819291D01*
X40819296Y21470653D01*
X40797370Y21497370D01*
X40690781Y21584845D01*
X40569175Y21649845D01*
X40437224Y21689872D01*
X40334390Y21700000D01*
X40334387Y21700000D01*
X40300000Y21703387D01*
X40265613Y21700000D01*
X35383316Y21700000D01*
X35367746Y21729129D01*
X35305264Y21805264D01*
X35229129Y21867746D01*
X35142267Y21914175D01*
X35048017Y21942765D01*
X34950000Y21952419D01*
X34050000Y21952419D01*
X33951983Y21942765D01*
X33857733Y21914175D01*
X33770871Y21867746D01*
X33712094Y21819509D01*
X33595308Y21881932D01*
X33416232Y21936254D01*
X33276665Y21950000D01*
X33183335Y21950000D01*
X33043768Y21936254D01*
X32864692Y21881932D01*
X32699655Y21793718D01*
X32595000Y21707829D01*
X32490345Y21793718D01*
X32325308Y21881932D01*
X32146232Y21936254D01*
X32006665Y21950000D01*
X31913335Y21950000D01*
X31773768Y21936254D01*
X31594692Y21881932D01*
X31429655Y21793718D01*
X31325000Y21707829D01*
X31220345Y21793718D01*
X31055308Y21881932D01*
X30876232Y21936254D01*
X30736665Y21950000D01*
X30643335Y21950000D01*
X30503768Y21936254D01*
X30324692Y21881932D01*
X30159655Y21793718D01*
X30014999Y21675001D01*
X29918245Y21557106D01*
X29893642Y21581527D01*
X29771091Y21662756D01*
X29635048Y21718516D01*
X29520000Y21668311D01*
X29520000Y21100000D01*
X29540000Y21100000D01*
X29540000Y20900000D01*
X29520000Y20900000D01*
X29520000Y20880000D01*
X29320000Y20880000D01*
X29320000Y20900000D01*
X28752449Y20900000D01*
X28701492Y20784953D01*
X28703103Y20779619D01*
X28759872Y20643994D01*
X28842009Y20522050D01*
X28862653Y20501558D01*
X28744999Y20405001D01*
X28626282Y20260345D01*
X28538068Y20095308D01*
X28483746Y19916232D01*
X28465404Y19730000D01*
X28483746Y19543768D01*
X28538068Y19364692D01*
X28626282Y19199655D01*
X28744999Y19054999D01*
X28889655Y18936282D01*
X29054692Y18848068D01*
X29233768Y18793746D01*
X29373335Y18780000D01*
X29466665Y18780000D01*
X29606232Y18793746D01*
X29785308Y18848068D01*
X29950345Y18936282D01*
X30055000Y19022171D01*
X30159655Y18936282D01*
X30324692Y18848068D01*
X30503768Y18793746D01*
X30643335Y18780000D01*
X30736665Y18780000D01*
X30876232Y18793746D01*
X31055308Y18848068D01*
X31220345Y18936282D01*
X31325000Y19022171D01*
X31429655Y18936282D01*
X31594692Y18848068D01*
X31773768Y18793746D01*
X31913335Y18780000D01*
X32006665Y18780000D01*
X32146232Y18793746D01*
X32325308Y18848068D01*
X32490345Y18936282D01*
X32595000Y19022171D01*
X32699655Y18936282D01*
X32864692Y18848068D01*
X33043768Y18793746D01*
X33183335Y18780000D01*
X33276665Y18780000D01*
X33416232Y18793746D01*
X33595308Y18848068D01*
X33760345Y18936282D01*
X33865000Y19022171D01*
X33969655Y18936282D01*
X34134692Y18848068D01*
X34313768Y18793746D01*
X34453335Y18780000D01*
X34546665Y18780000D01*
X34686232Y18793746D01*
X34865308Y18848068D01*
X35030345Y18936282D01*
X35175001Y19054999D01*
X35293718Y19199655D01*
X35381932Y19364692D01*
X35436254Y19543768D01*
X35454596Y19730000D01*
X35436254Y19916232D01*
X35381932Y20095308D01*
X35319509Y20212094D01*
X35367746Y20270871D01*
X35383316Y20300000D01*
X40010051Y20300000D01*
X40300000Y20010051D01*
X40300001Y18621231D01*
X40223249Y18544479D01*
X40113811Y18380694D01*
X40038429Y18198705D01*
X40000000Y18005507D01*
X40000000Y17808525D01*
X40038429Y17615327D01*
X40100001Y17466679D01*
X40100000Y14872792D01*
X30427208Y5200000D01*
X26333001Y5200000D01*
X26221045Y5274807D01*
X26020858Y5357727D01*
X25808341Y5400000D01*
X25591659Y5400000D01*
X25379142Y5357727D01*
X25178955Y5274807D01*
X25066999Y5200000D01*
X15500000Y5200000D01*
X15500000Y7182837D01*
X15592267Y7210825D01*
X15679129Y7257254D01*
X15755264Y7319736D01*
X15817746Y7395871D01*
X15864175Y7482733D01*
X15892765Y7576983D01*
X15902419Y7675000D01*
X15902419Y8775000D01*
X15892765Y8873017D01*
X15864175Y8967267D01*
X15817746Y9054129D01*
X15755264Y9130264D01*
X15679129Y9192746D01*
X15592267Y9239175D01*
X15498017Y9267765D01*
X15400000Y9277419D01*
X14400000Y9277419D01*
X14301983Y9267765D01*
X14207733Y9239175D01*
X14120871Y9192746D01*
X14044736Y9130264D01*
X13982254Y9054129D01*
X13935825Y8967267D01*
X13907235Y8873017D01*
X13897581Y8775000D01*
X13897581Y7675000D01*
X13907235Y7576983D01*
X13935825Y7482733D01*
X13982254Y7395871D01*
X14044736Y7319736D01*
X14120871Y7257254D01*
X14207733Y7210825D01*
X14300000Y7182836D01*
X14300001Y5200000D01*
X10472793Y5200000D01*
X6662793Y9010000D01*
X7663548Y9010000D01*
X7669340Y8951190D01*
X7686495Y8894639D01*
X7714352Y8842522D01*
X7751841Y8796841D01*
X7797522Y8759352D01*
X7849639Y8731495D01*
X7906190Y8714340D01*
X7965000Y8708548D01*
X8255000Y8710000D01*
X8330000Y8785000D01*
X8330000Y9400000D01*
X7740000Y9400000D01*
X7665000Y9325000D01*
X7663548Y9010000D01*
X6662793Y9010000D01*
X5900000Y9772792D01*
X5900000Y9966999D01*
X5915368Y9990000D01*
X7663548Y9990000D01*
X7665000Y9675000D01*
X7740000Y9600000D01*
X8330000Y9600000D01*
X8330000Y10215000D01*
X8255000Y10290000D01*
X7965000Y10291452D01*
X7906190Y10285660D01*
X7849639Y10268505D01*
X7797522Y10240648D01*
X7751841Y10203159D01*
X7714352Y10157478D01*
X7686495Y10105361D01*
X7669340Y10048810D01*
X7663548Y9990000D01*
X5915368Y9990000D01*
X5974807Y10078955D01*
X6057727Y10279142D01*
X6100000Y10491659D01*
X6100000Y10708341D01*
X6057727Y10920858D01*
X5974807Y11121045D01*
X5854425Y11301209D01*
X5845634Y11310000D01*
X7663548Y11310000D01*
X7669340Y11251190D01*
X7686495Y11194639D01*
X7714352Y11142522D01*
X7751841Y11096841D01*
X7797522Y11059352D01*
X7849639Y11031495D01*
X7906190Y11014340D01*
X7965000Y11008548D01*
X8255000Y11010000D01*
X8330000Y11085000D01*
X8330000Y11700000D01*
X7740000Y11700000D01*
X7665000Y11625000D01*
X7663548Y11310000D01*
X5845634Y11310000D01*
X5701209Y11454425D01*
X5521045Y11574807D01*
X5320858Y11657727D01*
X5108341Y11700000D01*
X4891659Y11700000D01*
X4679142Y11657727D01*
X4478955Y11574807D01*
X4298791Y11454425D01*
X4145575Y11301209D01*
X4025193Y11121045D01*
X3942273Y10920858D01*
X3900000Y10708341D01*
X600000Y10708341D01*
X600000Y12290000D01*
X7663548Y12290000D01*
X7665000Y11975000D01*
X7740000Y11900000D01*
X8330000Y11900000D01*
X8330000Y12515000D01*
X8530000Y12515000D01*
X8530000Y11900000D01*
X8550000Y11900000D01*
X8550000Y11700000D01*
X8530000Y11700000D01*
X8530000Y11085000D01*
X8605000Y11010000D01*
X8895000Y11008548D01*
X8953810Y11014340D01*
X9010361Y11031495D01*
X9062478Y11059352D01*
X9069118Y11064801D01*
X9087254Y11030871D01*
X9149736Y10954736D01*
X9225871Y10892254D01*
X9312733Y10845825D01*
X9370001Y10828453D01*
X9370000Y10471547D01*
X9312733Y10454175D01*
X9225871Y10407746D01*
X9149736Y10345264D01*
X9087254Y10269129D01*
X9069118Y10235199D01*
X9062478Y10240648D01*
X9010361Y10268505D01*
X8953810Y10285660D01*
X8895000Y10291452D01*
X8605000Y10290000D01*
X8530000Y10215000D01*
X8530000Y9600000D01*
X8550000Y9600000D01*
X8550000Y9400000D01*
X8530000Y9400000D01*
X8530000Y8785000D01*
X8605000Y8710000D01*
X8895000Y8708548D01*
X8953810Y8714340D01*
X9010361Y8731495D01*
X9062478Y8759352D01*
X9069118Y8764801D01*
X9087254Y8730871D01*
X9149736Y8654736D01*
X9225871Y8592254D01*
X9312733Y8545825D01*
X9406983Y8517235D01*
X9505000Y8507581D01*
X10435000Y8507581D01*
X10533017Y8517235D01*
X10627267Y8545825D01*
X10714129Y8592254D01*
X10790264Y8654736D01*
X10852746Y8730871D01*
X10899175Y8817733D01*
X10927765Y8911983D01*
X10937419Y9010000D01*
X10937419Y9990000D01*
X10927765Y10088017D01*
X10899175Y10182267D01*
X10852746Y10269129D01*
X10790264Y10345264D01*
X10714129Y10407746D01*
X10627267Y10454175D01*
X10570000Y10471546D01*
X10570000Y10828454D01*
X10627267Y10845825D01*
X10714129Y10892254D01*
X10790264Y10954736D01*
X10852746Y11030871D01*
X10899175Y11117733D01*
X10924130Y11200000D01*
X13450043Y11200000D01*
X13457235Y11126983D01*
X13485825Y11032733D01*
X13532254Y10945871D01*
X13594736Y10869736D01*
X13670871Y10807254D01*
X13757733Y10760825D01*
X13851983Y10732235D01*
X13950000Y10722581D01*
X14750000Y10722581D01*
X14848017Y10732235D01*
X14900000Y10748004D01*
X14951983Y10732235D01*
X15050000Y10722581D01*
X15850000Y10722581D01*
X15948017Y10732235D01*
X16042267Y10760825D01*
X16129129Y10807254D01*
X16205264Y10869736D01*
X16240001Y10912063D01*
X16240001Y10872794D01*
X16140924Y10773717D01*
X16042430Y10626310D01*
X15974586Y10462520D01*
X15940000Y10288642D01*
X15940000Y10111358D01*
X15974586Y9937480D01*
X16042430Y9773690D01*
X16140924Y9626283D01*
X16266283Y9500924D01*
X16413690Y9402430D01*
X16577480Y9334586D01*
X16751358Y9300000D01*
X16928642Y9300000D01*
X17102520Y9334586D01*
X17266310Y9402430D01*
X17413717Y9500924D01*
X17539076Y9626283D01*
X17637570Y9773690D01*
X17705414Y9937480D01*
X17740000Y10111358D01*
X17740000Y10288642D01*
X17705414Y10462520D01*
X17637570Y10626310D01*
X17539076Y10773717D01*
X17512793Y10800000D01*
X27197581Y10800000D01*
X27197581Y9200000D01*
X27207235Y9101983D01*
X27235825Y9007733D01*
X27282254Y8920871D01*
X27344736Y8844736D01*
X27420871Y8782254D01*
X27507733Y8735825D01*
X27601983Y8707235D01*
X27700000Y8697581D01*
X29300000Y8697581D01*
X29398017Y8707235D01*
X29492267Y8735825D01*
X29579129Y8782254D01*
X29655264Y8844736D01*
X29717746Y8920871D01*
X29764175Y9007733D01*
X29792765Y9101983D01*
X29802419Y9200000D01*
X29802419Y10128039D01*
X31200000Y10128039D01*
X31200000Y9871961D01*
X31249958Y9620804D01*
X31347955Y9384219D01*
X31490224Y9171298D01*
X31671298Y8990224D01*
X31884219Y8847955D01*
X32120804Y8749958D01*
X32371961Y8700000D01*
X32628039Y8700000D01*
X32879196Y8749958D01*
X33115781Y8847955D01*
X33328702Y8990224D01*
X33509776Y9171298D01*
X33652045Y9384219D01*
X33750042Y9620804D01*
X33800000Y9871961D01*
X33800000Y10128039D01*
X33750042Y10379196D01*
X33652045Y10615781D01*
X33509776Y10828702D01*
X33328702Y11009776D01*
X33115781Y11152045D01*
X32879196Y11250042D01*
X32628039Y11300000D01*
X32371961Y11300000D01*
X32120804Y11250042D01*
X31884219Y11152045D01*
X31671298Y11009776D01*
X31490224Y10828702D01*
X31347955Y10615781D01*
X31249958Y10379196D01*
X31200000Y10128039D01*
X29802419Y10128039D01*
X29802419Y10800000D01*
X29792765Y10898017D01*
X29764175Y10992267D01*
X29717746Y11079129D01*
X29655264Y11155264D01*
X29579129Y11217746D01*
X29492267Y11264175D01*
X29398017Y11292765D01*
X29300000Y11302419D01*
X27700000Y11302419D01*
X27601983Y11292765D01*
X27507733Y11264175D01*
X27420871Y11217746D01*
X27344736Y11155264D01*
X27282254Y11079129D01*
X27235825Y10992267D01*
X27207235Y10898017D01*
X27197581Y10800000D01*
X17512793Y10800000D01*
X17440000Y10872793D01*
X17440000Y17457918D01*
X17500238Y17518156D01*
X17593260Y17657374D01*
X17657335Y17812064D01*
X17690000Y17976282D01*
X17690000Y18143718D01*
X17657335Y18307936D01*
X17593260Y18462626D01*
X17500238Y18601844D01*
X17381844Y18720238D01*
X17242626Y18813260D01*
X17087936Y18877335D01*
X16923718Y18910000D01*
X16756282Y18910000D01*
X16592064Y18877335D01*
X16437374Y18813260D01*
X16298156Y18720238D01*
X16179762Y18601844D01*
X16086740Y18462626D01*
X16022665Y18307936D01*
X15990000Y18143718D01*
X15990000Y17976282D01*
X16022665Y17812064D01*
X16086740Y17657374D01*
X16179762Y17518156D01*
X16240000Y17457918D01*
X16240001Y12637937D01*
X16205264Y12680264D01*
X16129129Y12742746D01*
X16042267Y12789175D01*
X15948017Y12817765D01*
X15850000Y12827419D01*
X15050000Y12827419D01*
X14951983Y12817765D01*
X14900000Y12801996D01*
X14848017Y12817765D01*
X14750000Y12827419D01*
X13950000Y12827419D01*
X13851983Y12817765D01*
X13757733Y12789175D01*
X13670871Y12742746D01*
X13594736Y12680264D01*
X13532254Y12604129D01*
X13485825Y12517267D01*
X13457235Y12423017D01*
X13454968Y12400000D01*
X10924130Y12400000D01*
X10899175Y12482267D01*
X10852746Y12569129D01*
X10790264Y12645264D01*
X10714129Y12707746D01*
X10698835Y12715921D01*
X10753260Y12797374D01*
X10817335Y12952064D01*
X10850000Y13116282D01*
X10850000Y13283718D01*
X10817335Y13447936D01*
X10753260Y13602626D01*
X10660238Y13741844D01*
X10541844Y13860238D01*
X10402626Y13953260D01*
X10247936Y14017335D01*
X10083718Y14050000D01*
X9916282Y14050000D01*
X9752064Y14017335D01*
X9597374Y13953260D01*
X9458156Y13860238D01*
X9339762Y13741844D01*
X9246740Y13602626D01*
X9182665Y13447936D01*
X9150000Y13283718D01*
X9150000Y13116282D01*
X9182665Y12952064D01*
X9246740Y12797374D01*
X9285375Y12739552D01*
X9225871Y12707746D01*
X9149736Y12645264D01*
X9087254Y12569129D01*
X9069118Y12535199D01*
X9062478Y12540648D01*
X9010361Y12568505D01*
X8953810Y12585660D01*
X8895000Y12591452D01*
X8605000Y12590000D01*
X8530000Y12515000D01*
X8330000Y12515000D01*
X8255000Y12590000D01*
X7965000Y12591452D01*
X7906190Y12585660D01*
X7849639Y12568505D01*
X7797522Y12540648D01*
X7751841Y12503159D01*
X7714352Y12457478D01*
X7686495Y12405361D01*
X7669340Y12348810D01*
X7663548Y12290000D01*
X600000Y12290000D01*
X600000Y21183718D01*
X20950000Y21183718D01*
X20950000Y21016282D01*
X20982665Y20852064D01*
X21046740Y20697374D01*
X21139762Y20558156D01*
X21258156Y20439762D01*
X21397374Y20346740D01*
X21552064Y20282665D01*
X21716282Y20250000D01*
X21883718Y20250000D01*
X22047936Y20282665D01*
X22202626Y20346740D01*
X22341844Y20439762D01*
X22402082Y20500000D01*
X22797918Y20500000D01*
X22858156Y20439762D01*
X22917664Y20400000D01*
X22858156Y20360238D01*
X22739762Y20241844D01*
X22646740Y20102626D01*
X22582665Y19947936D01*
X22550000Y19783718D01*
X22550000Y19616282D01*
X22582665Y19452064D01*
X22646740Y19297374D01*
X22739762Y19158156D01*
X22800000Y19097918D01*
X22800001Y12552089D01*
X22739762Y12491850D01*
X22646740Y12352632D01*
X22582665Y12197942D01*
X22550000Y12033724D01*
X22550000Y11866288D01*
X22582665Y11702070D01*
X22646740Y11547380D01*
X22739762Y11408162D01*
X22858156Y11289768D01*
X22997374Y11196746D01*
X23152064Y11132671D01*
X23316282Y11100006D01*
X23483718Y11100006D01*
X23647936Y11132671D01*
X23802626Y11196746D01*
X23941844Y11289768D01*
X24060238Y11408162D01*
X24153260Y11547380D01*
X24217335Y11702070D01*
X24250000Y11866288D01*
X24250000Y12033724D01*
X24217335Y12197942D01*
X24153260Y12352632D01*
X24060238Y12491850D01*
X24000000Y12552088D01*
X24000000Y19097918D01*
X24060238Y19158156D01*
X24153260Y19297374D01*
X24217335Y19452064D01*
X24250000Y19616282D01*
X24250000Y19783718D01*
X24217335Y19947936D01*
X24153260Y20102626D01*
X24060238Y20241844D01*
X23941844Y20360238D01*
X23882336Y20400000D01*
X23941844Y20439762D01*
X24060238Y20558156D01*
X24153260Y20697374D01*
X24217335Y20852064D01*
X24250000Y21016282D01*
X24250000Y21183718D01*
X24243769Y21215047D01*
X28701492Y21215047D01*
X28752449Y21100000D01*
X29320000Y21100000D01*
X29320000Y21668311D01*
X29204952Y21718516D01*
X29068909Y21662756D01*
X28946358Y21581527D01*
X28842009Y21477950D01*
X28759872Y21356006D01*
X28703103Y21220381D01*
X28701492Y21215047D01*
X24243769Y21215047D01*
X24217335Y21347936D01*
X24153260Y21502626D01*
X24060238Y21641844D01*
X23941844Y21760238D01*
X23802626Y21853260D01*
X23647936Y21917335D01*
X23483718Y21950000D01*
X23316282Y21950000D01*
X23152064Y21917335D01*
X22997374Y21853260D01*
X22858156Y21760238D01*
X22797918Y21700000D01*
X22402082Y21700000D01*
X22341844Y21760238D01*
X22202626Y21853260D01*
X22047936Y21917335D01*
X21883718Y21950000D01*
X21716282Y21950000D01*
X21552064Y21917335D01*
X21397374Y21853260D01*
X21258156Y21760238D01*
X21139762Y21641844D01*
X21046740Y21502626D01*
X20982665Y21347936D01*
X20950000Y21183718D01*
X600000Y21183718D01*
X600000Y29000000D01*
X29300000Y29000000D01*
X29300000Y27000000D01*
X29301921Y26980491D01*
X29307612Y26961732D01*
X29316853Y26944443D01*
X29329289Y26929289D01*
X30929289Y25329289D01*
X30944443Y25316853D01*
X30961732Y25307612D01*
X30980491Y25301921D01*
X31000000Y25300000D01*
X33000000Y25300000D01*
X33019509Y25301921D01*
X33038268Y25307612D01*
X33055557Y25316853D01*
X33070711Y25329289D01*
X34670711Y26929289D01*
X34683147Y26944443D01*
X34692388Y26961732D01*
X34698079Y26980491D01*
X34700000Y27000000D01*
X34700000Y29000000D01*
X34698079Y29019509D01*
X34692388Y29038268D01*
X34683147Y29055557D01*
X34670711Y29070711D01*
X33070711Y30670711D01*
X33055557Y30683147D01*
X33038268Y30692388D01*
X33019509Y30698079D01*
X33000000Y30700000D01*
X31000000Y30700000D01*
X30980491Y30698079D01*
X30961732Y30692388D01*
X30944443Y30683147D01*
X30929289Y30670711D01*
X29329289Y29070711D01*
X29316853Y29055557D01*
X29307612Y29038268D01*
X29301921Y29019509D01*
X29300000Y29000000D01*
X600000Y29000000D01*
X600000Y37088642D01*
X3240000Y37088642D01*
X3240000Y36911358D01*
X3274586Y36737480D01*
X3342430Y36573690D01*
X3440924Y36426283D01*
X3566283Y36300924D01*
X3713690Y36202430D01*
X3877480Y36134586D01*
X4051358Y36100000D01*
X4191473Y36100000D01*
X5794891Y34496581D01*
X5813683Y34473683D01*
X5905045Y34398704D01*
X6009279Y34342990D01*
X6088070Y34319089D01*
X6122378Y34308682D01*
X6133640Y34307573D01*
X6210526Y34300000D01*
X6210533Y34300000D01*
X6239999Y34297098D01*
X6269465Y34300000D01*
X12234218Y34300000D01*
X12230000Y34278793D01*
X12230000Y34121207D01*
X12260743Y33966649D01*
X12321049Y33821058D01*
X12408599Y33690030D01*
X12520030Y33578599D01*
X12651058Y33491049D01*
X12796649Y33430743D01*
X12951207Y33400000D01*
X13108793Y33400000D01*
X13263351Y33430743D01*
X13408942Y33491049D01*
X13539970Y33578599D01*
X13561371Y33600000D01*
X24970526Y33600000D01*
X25000000Y33597097D01*
X25029474Y33600000D01*
X25117621Y33608682D01*
X25230721Y33642990D01*
X25334955Y33698704D01*
X25415081Y33764462D01*
X25400000Y33688642D01*
X25400000Y33511358D01*
X25434586Y33337480D01*
X25502430Y33173690D01*
X25600924Y33026283D01*
X25726283Y32900924D01*
X25873690Y32802430D01*
X26037480Y32734586D01*
X26211358Y32700000D01*
X26388642Y32700000D01*
X26562520Y32734586D01*
X26726310Y32802430D01*
X26872334Y32900000D01*
X27378333Y32900000D01*
X27402813Y32854200D01*
X27502604Y32732604D01*
X27624200Y32632813D01*
X27762928Y32558662D01*
X27913456Y32512999D01*
X28070000Y32497581D01*
X29970000Y32497581D01*
X30126544Y32512999D01*
X30277072Y32558662D01*
X30415800Y32632813D01*
X30537396Y32732604D01*
X30637187Y32854200D01*
X30711338Y32992928D01*
X30713483Y33000000D01*
X32968548Y33000000D01*
X32974340Y32941190D01*
X32991495Y32884639D01*
X33019352Y32832522D01*
X33056841Y32786841D01*
X33102522Y32749352D01*
X33154639Y32721495D01*
X33211190Y32704340D01*
X33270000Y32698548D01*
X34345000Y32700000D01*
X34420000Y32775000D01*
X34420000Y33500000D01*
X34620000Y33500000D01*
X34620000Y32775000D01*
X34695000Y32700000D01*
X35770000Y32698548D01*
X35828810Y32704340D01*
X35885361Y32721495D01*
X35937478Y32749352D01*
X35983159Y32786841D01*
X36020648Y32832522D01*
X36048505Y32884639D01*
X36065660Y32941190D01*
X36071452Y33000000D01*
X36070000Y33425000D01*
X35995000Y33500000D01*
X34620000Y33500000D01*
X34420000Y33500000D01*
X33045000Y33500000D01*
X32970000Y33425000D01*
X32968548Y33000000D01*
X30713483Y33000000D01*
X30757001Y33143456D01*
X30772419Y33300000D01*
X30772419Y33900000D01*
X30757001Y34056544D01*
X30711338Y34207072D01*
X30637187Y34345800D01*
X30592706Y34400000D01*
X30882288Y34400000D01*
X30883811Y34396322D01*
X30993249Y34232537D01*
X31132537Y34093249D01*
X31296322Y33983811D01*
X31478311Y33908429D01*
X31671509Y33870000D01*
X31868491Y33870000D01*
X32061689Y33908429D01*
X32243678Y33983811D01*
X32407463Y34093249D01*
X32514214Y34200000D01*
X32968548Y34200000D01*
X32970000Y33775000D01*
X33045000Y33700000D01*
X34420000Y33700000D01*
X34420000Y34425000D01*
X34620000Y34425000D01*
X34620000Y33700000D01*
X35995000Y33700000D01*
X36070000Y33775000D01*
X36071452Y34200000D01*
X36065660Y34258810D01*
X36048505Y34315361D01*
X36020648Y34367478D01*
X35983159Y34413159D01*
X35937478Y34450648D01*
X35885361Y34478505D01*
X35828810Y34495660D01*
X35770000Y34501452D01*
X34695000Y34500000D01*
X34620000Y34425000D01*
X34420000Y34425000D01*
X34345000Y34500000D01*
X33270000Y34501452D01*
X33211190Y34495660D01*
X33154639Y34478505D01*
X33102522Y34450648D01*
X33056841Y34413159D01*
X33019352Y34367478D01*
X32991495Y34315361D01*
X32974340Y34258810D01*
X32968548Y34200000D01*
X32514214Y34200000D01*
X32546751Y34232537D01*
X32656189Y34396322D01*
X32657712Y34400000D01*
X32700000Y34400000D01*
X32719509Y34401921D01*
X32738268Y34407612D01*
X32755557Y34416853D01*
X32770711Y34429289D01*
X33341422Y35000000D01*
X36200000Y35000000D01*
X36219509Y35001921D01*
X36238268Y35007612D01*
X36255557Y35016853D01*
X36270711Y35029289D01*
X36670711Y35429289D01*
X36683147Y35444443D01*
X36692388Y35461732D01*
X36698079Y35480491D01*
X36700000Y35500000D01*
X36700000Y52400000D01*
X36698079Y52419509D01*
X36692388Y52438268D01*
X36683147Y52455557D01*
X36670711Y52470711D01*
X36270711Y52870711D01*
X36255557Y52883147D01*
X36238268Y52892388D01*
X36219509Y52898079D01*
X36200000Y52900000D01*
X26800000Y52900000D01*
X26780491Y52898079D01*
X26761732Y52892388D01*
X26744443Y52883147D01*
X26729289Y52870711D01*
X26329289Y52470711D01*
X26316853Y52455557D01*
X26307612Y52438268D01*
X26301921Y52419509D01*
X26300000Y52400000D01*
X26300000Y51748528D01*
X24296586Y49745113D01*
X24273683Y49726317D01*
X24198704Y49634954D01*
X24142990Y49530720D01*
X24115471Y49440000D01*
X24108682Y49417620D01*
X24097097Y49300000D01*
X24100000Y49270526D01*
X24100000Y46738949D01*
X24084955Y46751296D01*
X24002419Y46795412D01*
X24002419Y46900000D01*
X23992765Y46998017D01*
X23964175Y47092267D01*
X23917746Y47179129D01*
X23855264Y47255264D01*
X23779129Y47317746D01*
X23692267Y47364175D01*
X23598017Y47392765D01*
X23500000Y47402419D01*
X21600000Y47402419D01*
X21501983Y47392765D01*
X21407733Y47364175D01*
X21320871Y47317746D01*
X21244736Y47255264D01*
X21182254Y47179129D01*
X21135825Y47092267D01*
X21107235Y46998017D01*
X21097581Y46900000D01*
X21097581Y46850000D01*
X14902419Y46850000D01*
X14902419Y46900000D01*
X14892765Y46998017D01*
X14864175Y47092267D01*
X14817746Y47179129D01*
X14755264Y47255264D01*
X14679129Y47317746D01*
X14592267Y47364175D01*
X14498017Y47392765D01*
X14400000Y47402419D01*
X12500000Y47402419D01*
X12401983Y47392765D01*
X12307733Y47364175D01*
X12220871Y47317746D01*
X12144736Y47255264D01*
X12082254Y47179129D01*
X12035825Y47092267D01*
X12007235Y46998017D01*
X11997581Y46900000D01*
X11997581Y46850000D01*
X11679474Y46850000D01*
X11650000Y46852903D01*
X11532379Y46841318D01*
X11419278Y46807010D01*
X11382971Y46787603D01*
X11315045Y46751296D01*
X11223683Y46676317D01*
X11204891Y46653419D01*
X10596581Y46045108D01*
X10573684Y46026317D01*
X10498705Y45934955D01*
X10442991Y45830721D01*
X10411737Y45727690D01*
X10317733Y45699175D01*
X10230871Y45652746D01*
X10154736Y45590264D01*
X10092254Y45514129D01*
X10045825Y45427267D01*
X10017235Y45333017D01*
X10007581Y45235000D01*
X10007581Y44305000D01*
X10017235Y44206983D01*
X10045825Y44112733D01*
X10092254Y44025871D01*
X10154736Y43949736D01*
X10230871Y43887254D01*
X10264801Y43869118D01*
X10259352Y43862478D01*
X10231495Y43810361D01*
X10214340Y43753810D01*
X10208548Y43695000D01*
X10210000Y43405000D01*
X10285000Y43330000D01*
X10900000Y43330000D01*
X10900000Y43350000D01*
X11100000Y43350000D01*
X11100000Y43330000D01*
X11715000Y43330000D01*
X11790000Y43405000D01*
X11791452Y43695000D01*
X11785660Y43753810D01*
X11778082Y43778793D01*
X16040000Y43778793D01*
X16040000Y43621207D01*
X16070743Y43466649D01*
X16131049Y43321058D01*
X16218599Y43190030D01*
X16240001Y43168628D01*
X16240000Y40731328D01*
X16218599Y40709927D01*
X16131049Y40578899D01*
X16070743Y40433308D01*
X16040000Y40278750D01*
X16040000Y40121164D01*
X16070743Y39966606D01*
X16131049Y39821015D01*
X16218599Y39689987D01*
X16330030Y39578556D01*
X16461058Y39491006D01*
X16606649Y39430700D01*
X16761207Y39399957D01*
X16918793Y39399957D01*
X17073351Y39430700D01*
X17218942Y39491006D01*
X17349970Y39578556D01*
X17461401Y39689987D01*
X17470000Y39702856D01*
X17478599Y39689987D01*
X17590030Y39578556D01*
X17721058Y39491006D01*
X17866649Y39430700D01*
X18021207Y39399957D01*
X18178793Y39399957D01*
X18333351Y39430700D01*
X18478942Y39491006D01*
X18609970Y39578556D01*
X18721401Y39689987D01*
X18808951Y39821015D01*
X18869257Y39966606D01*
X18900000Y40121164D01*
X18900000Y40278750D01*
X18869257Y40433308D01*
X18808951Y40578899D01*
X18721401Y40709927D01*
X18700000Y40731328D01*
X18700000Y41100000D01*
X21298548Y41100000D01*
X21304340Y41041190D01*
X21321495Y40984639D01*
X21349352Y40932522D01*
X21386841Y40886841D01*
X21432522Y40849352D01*
X21484639Y40821495D01*
X21541190Y40804340D01*
X21600000Y40798548D01*
X22375000Y40800000D01*
X22450000Y40875000D01*
X22450000Y41650000D01*
X21375000Y41650000D01*
X21300000Y41575000D01*
X21298548Y41100000D01*
X18700000Y41100000D01*
X18700000Y42400000D01*
X21298548Y42400000D01*
X21300000Y41925000D01*
X21375000Y41850000D01*
X22450000Y41850000D01*
X22450000Y42625000D01*
X22375000Y42700000D01*
X21600000Y42701452D01*
X21541190Y42695660D01*
X21484639Y42678505D01*
X21432522Y42650648D01*
X21386841Y42613159D01*
X21349352Y42567478D01*
X21321495Y42515361D01*
X21304340Y42458810D01*
X21298548Y42400000D01*
X18700000Y42400000D01*
X18700000Y42468629D01*
X18721401Y42490030D01*
X18808951Y42621058D01*
X18869257Y42766649D01*
X18900000Y42921207D01*
X18900000Y43078793D01*
X18869257Y43233351D01*
X18808951Y43378942D01*
X18721401Y43509970D01*
X18609970Y43621401D01*
X18478942Y43708951D01*
X18333351Y43769257D01*
X18178793Y43800000D01*
X18021207Y43800000D01*
X17866649Y43769257D01*
X17721058Y43708951D01*
X17640000Y43654790D01*
X17640000Y43778793D01*
X17609257Y43933351D01*
X17548951Y44078942D01*
X17461401Y44209970D01*
X17349970Y44321401D01*
X17218942Y44408951D01*
X17073351Y44469257D01*
X16918793Y44500000D01*
X16761207Y44500000D01*
X16606649Y44469257D01*
X16461058Y44408951D01*
X16330030Y44321401D01*
X16218599Y44209970D01*
X16131049Y44078942D01*
X16070743Y43933351D01*
X16040000Y43778793D01*
X11778082Y43778793D01*
X11768505Y43810361D01*
X11740648Y43862478D01*
X11735199Y43869118D01*
X11769129Y43887254D01*
X11845264Y43949736D01*
X11907746Y44025871D01*
X11954175Y44112733D01*
X11982765Y44206983D01*
X11992419Y44305000D01*
X11992419Y45235000D01*
X11982765Y45333017D01*
X11954175Y45427267D01*
X11907746Y45514129D01*
X11845264Y45590264D01*
X11841709Y45593181D01*
X11898528Y45650000D01*
X11997581Y45650000D01*
X11997581Y45600000D01*
X12007235Y45501983D01*
X12035825Y45407733D01*
X12082254Y45320871D01*
X12144736Y45244736D01*
X12220871Y45182254D01*
X12307733Y45135825D01*
X12401983Y45107235D01*
X12500000Y45097581D01*
X14400000Y45097581D01*
X14498017Y45107235D01*
X14592267Y45135825D01*
X14679129Y45182254D01*
X14755264Y45244736D01*
X14817746Y45320871D01*
X14864175Y45407733D01*
X14892765Y45501983D01*
X14902419Y45600000D01*
X14902419Y45650000D01*
X21097581Y45650000D01*
X21097581Y45600000D01*
X21107235Y45501983D01*
X21135825Y45407733D01*
X21182254Y45320871D01*
X21244736Y45244736D01*
X21320871Y45182254D01*
X21407733Y45135825D01*
X21501983Y45107235D01*
X21600000Y45097581D01*
X23499990Y45097581D01*
X23499991Y42701452D01*
X22725000Y42700000D01*
X22650000Y42625000D01*
X22650000Y41850000D01*
X22670000Y41850000D01*
X22670000Y41650000D01*
X22650000Y41650000D01*
X22650000Y40875000D01*
X22725000Y40800000D01*
X23499991Y40798548D01*
X23499991Y40195776D01*
X23366649Y40169253D01*
X23221058Y40108947D01*
X23090030Y40021397D01*
X23068633Y40000000D01*
X22231371Y40000000D01*
X22209970Y40021401D01*
X22078942Y40108951D01*
X21933351Y40169257D01*
X21778793Y40200000D01*
X21621207Y40200000D01*
X21466649Y40169257D01*
X21321058Y40108951D01*
X21190030Y40021401D01*
X21078599Y39909970D01*
X20991049Y39778942D01*
X20930743Y39633351D01*
X20900000Y39478793D01*
X20900000Y39321207D01*
X20930743Y39166649D01*
X20991049Y39021058D01*
X21078599Y38890030D01*
X21190030Y38778599D01*
X21321058Y38691049D01*
X21466649Y38630743D01*
X21621207Y38600000D01*
X21778793Y38600000D01*
X21933351Y38630743D01*
X22078942Y38691049D01*
X22209970Y38778599D01*
X22231371Y38800000D01*
X23068625Y38800000D01*
X23090030Y38778595D01*
X23221058Y38691045D01*
X23366649Y38630739D01*
X23379629Y38628157D01*
X22351473Y37600000D01*
X16101371Y37600000D01*
X16079970Y37621401D01*
X15948942Y37708951D01*
X15803351Y37769257D01*
X15648793Y37800000D01*
X15491207Y37800000D01*
X15336649Y37769257D01*
X15191058Y37708951D01*
X15060030Y37621401D01*
X14948599Y37509970D01*
X14861049Y37378942D01*
X14800743Y37233351D01*
X14770000Y37078793D01*
X14770000Y36948108D01*
X14678942Y37008951D01*
X14533351Y37069257D01*
X14378793Y37100000D01*
X14221207Y37100000D01*
X14066649Y37069257D01*
X13921058Y37008951D01*
X13790030Y36921401D01*
X13678599Y36809970D01*
X13591049Y36678942D01*
X13530743Y36533351D01*
X13500000Y36378793D01*
X13500000Y36221207D01*
X13504218Y36200000D01*
X13408536Y36200000D01*
X12560000Y37048535D01*
X12560000Y37078801D01*
X12529257Y37233359D01*
X12468951Y37378950D01*
X12381401Y37509978D01*
X12269970Y37621409D01*
X12138942Y37708959D01*
X11993351Y37769265D01*
X11838793Y37800008D01*
X11681207Y37800008D01*
X11526649Y37769265D01*
X11381058Y37708959D01*
X11250030Y37621409D01*
X11138599Y37509978D01*
X11051049Y37378950D01*
X10990743Y37233359D01*
X10960000Y37078801D01*
X10960000Y36921215D01*
X10990743Y36766657D01*
X11051049Y36621066D01*
X11138599Y36490038D01*
X11250030Y36378607D01*
X11381058Y36291057D01*
X11526649Y36230751D01*
X11681207Y36200008D01*
X11711473Y36200008D01*
X12411480Y35500000D01*
X6488528Y35500000D01*
X5040000Y36948527D01*
X5040000Y37088642D01*
X5005414Y37262520D01*
X4937570Y37426310D01*
X4839076Y37573717D01*
X4713717Y37699076D01*
X4566310Y37797570D01*
X4402520Y37865414D01*
X4228642Y37900000D01*
X4051358Y37900000D01*
X3877480Y37865414D01*
X3713690Y37797570D01*
X3566283Y37699076D01*
X3440924Y37573717D01*
X3342430Y37426310D01*
X3274586Y37262520D01*
X3240000Y37088642D01*
X600000Y37088642D01*
X600000Y42678793D01*
X8400000Y42678793D01*
X8400000Y42521207D01*
X8430743Y42366649D01*
X8491049Y42221058D01*
X8578599Y42090030D01*
X8600001Y42068628D01*
X8600000Y40731371D01*
X8578599Y40709970D01*
X8491049Y40578942D01*
X8430743Y40433351D01*
X8400000Y40278793D01*
X8400000Y40121207D01*
X8430743Y39966649D01*
X8491049Y39821058D01*
X8578599Y39690030D01*
X8690030Y39578599D01*
X8821058Y39491049D01*
X8966649Y39430743D01*
X9121207Y39400000D01*
X9278793Y39400000D01*
X9433351Y39430743D01*
X9578942Y39491049D01*
X9709970Y39578599D01*
X9821401Y39690030D01*
X9908951Y39821058D01*
X9969257Y39966649D01*
X10000000Y40121207D01*
X10000000Y40278793D01*
X9969257Y40433351D01*
X9908951Y40578942D01*
X9821401Y40709970D01*
X9800000Y40731371D01*
X9800000Y41100000D01*
X12198548Y41100000D01*
X12204340Y41041190D01*
X12221495Y40984639D01*
X12249352Y40932522D01*
X12286841Y40886841D01*
X12332522Y40849352D01*
X12384639Y40821495D01*
X12441190Y40804340D01*
X12500000Y40798548D01*
X13275000Y40800000D01*
X13350000Y40875000D01*
X13350000Y41650000D01*
X13550000Y41650000D01*
X13550000Y40875000D01*
X13625000Y40800000D01*
X14400000Y40798548D01*
X14458810Y40804340D01*
X14515361Y40821495D01*
X14567478Y40849352D01*
X14613159Y40886841D01*
X14650648Y40932522D01*
X14678505Y40984639D01*
X14695660Y41041190D01*
X14701452Y41100000D01*
X14700000Y41575000D01*
X14625000Y41650000D01*
X13550000Y41650000D01*
X13350000Y41650000D01*
X12275000Y41650000D01*
X12200000Y41575000D01*
X12198548Y41100000D01*
X9800000Y41100000D01*
X9800000Y42068629D01*
X9821401Y42090030D01*
X9908951Y42221058D01*
X9969257Y42366649D01*
X9975890Y42400000D01*
X12198548Y42400000D01*
X12200000Y41925000D01*
X12275000Y41850000D01*
X13350000Y41850000D01*
X13350000Y42625000D01*
X13550000Y42625000D01*
X13550000Y41850000D01*
X14625000Y41850000D01*
X14700000Y41925000D01*
X14701452Y42400000D01*
X14695660Y42458810D01*
X14678505Y42515361D01*
X14650648Y42567478D01*
X14613159Y42613159D01*
X14567478Y42650648D01*
X14515361Y42678505D01*
X14458810Y42695660D01*
X14400000Y42701452D01*
X13625000Y42700000D01*
X13550000Y42625000D01*
X13350000Y42625000D01*
X13275000Y42700000D01*
X12500000Y42701452D01*
X12441190Y42695660D01*
X12384639Y42678505D01*
X12332522Y42650648D01*
X12286841Y42613159D01*
X12249352Y42567478D01*
X12221495Y42515361D01*
X12204340Y42458810D01*
X12198548Y42400000D01*
X9975890Y42400000D01*
X10000000Y42521207D01*
X10000000Y42678793D01*
X9982853Y42765000D01*
X10208548Y42765000D01*
X10214340Y42706190D01*
X10231495Y42649639D01*
X10259352Y42597522D01*
X10296841Y42551841D01*
X10342522Y42514352D01*
X10394639Y42486495D01*
X10451190Y42469340D01*
X10510000Y42463548D01*
X10825000Y42465000D01*
X10900000Y42540000D01*
X10900000Y43130000D01*
X11100000Y43130000D01*
X11100000Y42540000D01*
X11175000Y42465000D01*
X11490000Y42463548D01*
X11548810Y42469340D01*
X11605361Y42486495D01*
X11657478Y42514352D01*
X11703159Y42551841D01*
X11740648Y42597522D01*
X11768505Y42649639D01*
X11785660Y42706190D01*
X11791452Y42765000D01*
X11790000Y43055000D01*
X11715000Y43130000D01*
X11100000Y43130000D01*
X10900000Y43130000D01*
X10285000Y43130000D01*
X10210000Y43055000D01*
X10208548Y42765000D01*
X9982853Y42765000D01*
X9969257Y42833351D01*
X9908951Y42978942D01*
X9821401Y43109970D01*
X9709970Y43221401D01*
X9578942Y43308951D01*
X9433351Y43369257D01*
X9278793Y43400000D01*
X9121207Y43400000D01*
X8966649Y43369257D01*
X8821058Y43308951D01*
X8690030Y43221401D01*
X8578599Y43109970D01*
X8491049Y42978942D01*
X8430743Y42833351D01*
X8400000Y42678793D01*
X600000Y42678793D01*
X600000Y53158578D01*
X941422Y53500000D01*
X3900000Y53500000D01*
X3919509Y53501921D01*
X3938268Y53507612D01*
X3955557Y53516853D01*
X3970711Y53529289D01*
X5970711Y55529289D01*
X5983147Y55544443D01*
X5992388Y55561732D01*
X5998079Y55580491D01*
X6000000Y55600000D01*
X6000000Y57500000D01*
X29300000Y57500000D01*
X29300000Y55500000D01*
X29301921Y55480491D01*
X29307612Y55461732D01*
X29316853Y55444443D01*
X29329289Y55429289D01*
X30929289Y53829289D01*
X30944443Y53816853D01*
X30961732Y53807612D01*
X30980491Y53801921D01*
X31000000Y53800000D01*
X33000000Y53800000D01*
X33019509Y53801921D01*
X33038268Y53807612D01*
X33055557Y53816853D01*
X33070711Y53829289D01*
X33302520Y54061098D01*
X48642986Y54061098D01*
X48680493Y53758087D01*
X48776393Y53468216D01*
X48883777Y53267315D01*
X49083391Y53124813D01*
X50058579Y54100000D01*
X50341421Y54100000D01*
X51316609Y53124813D01*
X51516223Y53267315D01*
X51653380Y53540097D01*
X51734685Y53834396D01*
X51757014Y54138902D01*
X51719507Y54441913D01*
X51623607Y54731784D01*
X51516223Y54932685D01*
X51316609Y55075187D01*
X50341421Y54100000D01*
X50058579Y54100000D01*
X49083391Y55075187D01*
X48883777Y54932685D01*
X48746620Y54659903D01*
X48665315Y54365604D01*
X48642986Y54061098D01*
X33302520Y54061098D01*
X34458031Y55216609D01*
X49224813Y55216609D01*
X50200000Y54241421D01*
X51148078Y55189500D01*
X54927048Y55189500D01*
X54928500Y54285000D01*
X55003500Y54210000D01*
X56500000Y54210000D01*
X56500000Y55414500D01*
X56700000Y55414500D01*
X56700000Y54210000D01*
X58196500Y54210000D01*
X58271500Y54285000D01*
X58272952Y55189500D01*
X58267160Y55248310D01*
X58250005Y55304861D01*
X58222148Y55356978D01*
X58184659Y55402659D01*
X58138978Y55440148D01*
X58086861Y55468005D01*
X58030310Y55485160D01*
X57971500Y55490952D01*
X56775000Y55489500D01*
X56700000Y55414500D01*
X56500000Y55414500D01*
X56425000Y55489500D01*
X55228500Y55490952D01*
X55169690Y55485160D01*
X55113139Y55468005D01*
X55061022Y55440148D01*
X55015341Y55402659D01*
X54977852Y55356978D01*
X54949995Y55304861D01*
X54932840Y55248310D01*
X54927048Y55189500D01*
X51148078Y55189500D01*
X51175187Y55216609D01*
X51032685Y55416223D01*
X50759903Y55553380D01*
X50465604Y55634685D01*
X50161098Y55657014D01*
X49858087Y55619507D01*
X49568216Y55523607D01*
X49367315Y55416223D01*
X49224813Y55216609D01*
X34458031Y55216609D01*
X34670711Y55429289D01*
X34683147Y55444443D01*
X34692388Y55461732D01*
X34698079Y55480491D01*
X34700000Y55500000D01*
X34700000Y56483391D01*
X49224813Y56483391D01*
X49367315Y56283777D01*
X49640097Y56146620D01*
X49934396Y56065315D01*
X50238902Y56042986D01*
X50541913Y56080493D01*
X50765609Y56154500D01*
X59650748Y56154500D01*
X59652200Y55129350D01*
X59727200Y55054350D01*
X61300000Y55054350D01*
X61300000Y56379500D01*
X61500000Y56379500D01*
X61500000Y55054350D01*
X63072800Y55054350D01*
X63147800Y55129350D01*
X63149252Y56154500D01*
X63143460Y56213310D01*
X63126305Y56269861D01*
X63098448Y56321978D01*
X63060959Y56367659D01*
X63015278Y56405148D01*
X62963161Y56433005D01*
X62906610Y56450160D01*
X62847800Y56455952D01*
X61575000Y56454500D01*
X61500000Y56379500D01*
X61300000Y56379500D01*
X61225000Y56454500D01*
X59952200Y56455952D01*
X59893390Y56450160D01*
X59836839Y56433005D01*
X59784722Y56405148D01*
X59739041Y56367659D01*
X59701552Y56321978D01*
X59673695Y56269861D01*
X59656540Y56213310D01*
X59650748Y56154500D01*
X50765609Y56154500D01*
X50831784Y56176393D01*
X51032685Y56283777D01*
X51175187Y56483391D01*
X50200000Y57458579D01*
X49224813Y56483391D01*
X34700000Y56483391D01*
X34700000Y57500000D01*
X34698079Y57519509D01*
X34692388Y57538268D01*
X34683147Y57555557D01*
X34678600Y57561098D01*
X48642986Y57561098D01*
X48680493Y57258087D01*
X48776393Y56968216D01*
X48883777Y56767315D01*
X49083391Y56624813D01*
X50058579Y57600000D01*
X50341421Y57600000D01*
X51316609Y56624813D01*
X51516223Y56767315D01*
X51653380Y57040097D01*
X51734685Y57334396D01*
X51757014Y57638902D01*
X51719507Y57941913D01*
X51623607Y58231784D01*
X51516223Y58432685D01*
X51316609Y58575187D01*
X50341421Y57600000D01*
X50058579Y57600000D01*
X49083391Y58575187D01*
X48883777Y58432685D01*
X48746620Y58159903D01*
X48665315Y57865604D01*
X48642986Y57561098D01*
X34678600Y57561098D01*
X34670711Y57570711D01*
X33524813Y58716609D01*
X49224813Y58716609D01*
X50200000Y57741421D01*
X51175187Y58716609D01*
X51032685Y58916223D01*
X50759903Y59053380D01*
X50465604Y59134685D01*
X50161098Y59157014D01*
X49858087Y59119507D01*
X49568216Y59023607D01*
X49367315Y58916223D01*
X49224813Y58716609D01*
X33524813Y58716609D01*
X33070711Y59170711D01*
X33055557Y59183147D01*
X33038268Y59192388D01*
X33019509Y59198079D01*
X33000000Y59200000D01*
X31000000Y59200000D01*
X30980491Y59198079D01*
X30961732Y59192388D01*
X30944443Y59183147D01*
X30929289Y59170711D01*
X29329289Y57570711D01*
X29316853Y57555557D01*
X29307612Y57538268D01*
X29301921Y57519509D01*
X29300000Y57500000D01*
X6000000Y57500000D01*
X6000000Y58958578D01*
X6341422Y59300000D01*
X91558578Y59300000D01*
X91900000Y58958578D01*
M02*
