G04 #@! TF.GenerationSoftware,KiCad,Pcbnew,(5.1.4)-1*
G04 #@! TF.CreationDate,2020-04-03T20:38:11+08:00*
G04 #@! TF.ProjectId,SmartAPS,536d6172-7441-4505-932e-6b696361645f,1.0*
G04 #@! TF.SameCoordinates,PX5f5e100PY7bfa480*
G04 #@! TF.FileFunction,Profile,NP*
%FSLAX46Y46*%
G04 Gerber Fmt 4.6, Leading zero omitted, Abs format (unit mm)*
G04 Created by KiCad (PCBNEW (5.1.4)-1) date 2020-04-03 20:38:11*
%MOMM*%
%LPD*%
G04 APERTURE LIST*
%ADD10C,0.100000*%
G04 APERTURE END LIST*
D10*
X1000000Y0D02*
G75*
G02X0Y1000000I0J1000000D01*
G01*
X0Y59000000D02*
G75*
G02X1000000Y60000000I1000000J0D01*
G01*
X129000000Y60000000D02*
G75*
G02X130000000Y59000000I0J-1000000D01*
G01*
X130000000Y1000000D02*
G75*
G02X129000000Y0I-1000000J0D01*
G01*
X128200000Y14000000D02*
G75*
G02X128200000Y13200000I0J-400000D01*
G01*
X119400000Y15300000D02*
G75*
G02X120200000Y15300000I400000J0D01*
G01*
X120200000Y14000000D02*
X120200000Y15300000D01*
X128200000Y14000000D02*
X120200000Y14000000D01*
X119400000Y13200000D02*
X128200000Y13200000D01*
X119400000Y15300000D02*
X119400000Y13200000D01*
X119400000Y20400000D02*
G75*
G02X119800000Y20800000I400000J0D01*
G01*
X120200000Y18700000D02*
G75*
G02X119400000Y18700000I-400000J0D01*
G01*
X128200000Y20800000D02*
G75*
G02X128200000Y20000000I0J-400000D01*
G01*
X119800000Y20800000D02*
X128200000Y20800000D01*
X119400000Y18700000D02*
X119400000Y20400000D01*
X120200000Y20000000D02*
X120200000Y18700000D01*
X128200000Y20000000D02*
X120200000Y20000000D01*
X58800000Y10000000D02*
G75*
G03X58800000Y10000000I-6000000J0D01*
G01*
X98200000Y10000000D02*
G75*
G03X98200000Y10000000I-6000000J0D01*
G01*
X0Y1000000D02*
X0Y59000000D01*
X129000000Y0D02*
X1000000Y0D01*
X130000000Y59000000D02*
X130000000Y1000000D01*
X1000000Y60000000D02*
X129000000Y60000000D01*
M02*
