G04 #@! TF.GenerationSoftware,KiCad,Pcbnew,(5.1.5)-3*
G04 #@! TF.CreationDate,2020-05-10T15:15:20+08:00*
G04 #@! TF.ProjectId,SmartAPS,536d6172-7441-4505-932e-6b696361645f,1.0*
G04 #@! TF.SameCoordinates,PX5f5e100PY7bfa480*
G04 #@! TF.FileFunction,Soldermask,Bot*
G04 #@! TF.FilePolarity,Negative*
%FSLAX46Y46*%
G04 Gerber Fmt 4.6, Leading zero omitted, Abs format (unit mm)*
G04 Created by KiCad (PCBNEW (5.1.5)-3) date 2020-05-10 15:15:20*
%MOMM*%
%LPD*%
G04 APERTURE LIST*
%ADD10C,0.100000*%
G04 APERTURE END LIST*
D10*
G36*
X13300000Y25300000D02*
G01*
X7800000Y25300000D01*
X7800000Y30900000D01*
X13300000Y30900000D01*
X13300000Y25300000D01*
G37*
G36*
X127393779Y4798121D02*
G01*
X127639465Y4696355D01*
X127860572Y4548616D01*
X128048616Y4360572D01*
X128196355Y4139465D01*
X128298121Y3893779D01*
X128350000Y3632966D01*
X128350000Y3367034D01*
X128298121Y3106221D01*
X128196355Y2860535D01*
X128048616Y2639428D01*
X127860572Y2451384D01*
X127639465Y2303645D01*
X127393779Y2201879D01*
X127132966Y2150000D01*
X126867034Y2150000D01*
X126606221Y2201879D01*
X126360535Y2303645D01*
X126139428Y2451384D01*
X125951384Y2639428D01*
X125803645Y2860535D01*
X125701879Y3106221D01*
X125650000Y3367034D01*
X125650000Y3632966D01*
X125701879Y3893779D01*
X125803645Y4139465D01*
X125951384Y4360572D01*
X126139428Y4548616D01*
X126360535Y4696355D01*
X126606221Y4798121D01*
X126867034Y4850000D01*
X127132966Y4850000D01*
X127393779Y4798121D01*
G37*
G36*
X3393779Y4798121D02*
G01*
X3639465Y4696355D01*
X3860572Y4548616D01*
X4048616Y4360572D01*
X4196355Y4139465D01*
X4298121Y3893779D01*
X4350000Y3632966D01*
X4350000Y3367034D01*
X4298121Y3106221D01*
X4196355Y2860535D01*
X4048616Y2639428D01*
X3860572Y2451384D01*
X3639465Y2303645D01*
X3393779Y2201879D01*
X3132966Y2150000D01*
X2867034Y2150000D01*
X2606221Y2201879D01*
X2360535Y2303645D01*
X2139428Y2451384D01*
X1951384Y2639428D01*
X1803645Y2860535D01*
X1701879Y3106221D01*
X1650000Y3367034D01*
X1650000Y3632966D01*
X1701879Y3893779D01*
X1803645Y4139465D01*
X1951384Y4360572D01*
X2139428Y4548616D01*
X2360535Y4696355D01*
X2606221Y4798121D01*
X2867034Y4850000D01*
X3132966Y4850000D01*
X3393779Y4798121D01*
G37*
G36*
X106650000Y7050000D02*
G01*
X104650000Y7050000D01*
X104650000Y8450000D01*
X106650000Y8450000D01*
X106650000Y7050000D01*
G37*
G36*
X115750000Y7050000D02*
G01*
X113750000Y7050000D01*
X113750000Y8450000D01*
X115750000Y8450000D01*
X115750000Y7050000D01*
G37*
G36*
X67250000Y7050000D02*
G01*
X65250000Y7050000D01*
X65250000Y8450000D01*
X67250000Y8450000D01*
X67250000Y7050000D01*
G37*
G36*
X76350000Y7050000D02*
G01*
X74350000Y7050000D01*
X74350000Y8450000D01*
X76350000Y8450000D01*
X76350000Y7050000D01*
G37*
G36*
X15450000Y7625000D02*
G01*
X14350000Y7625000D01*
X14350000Y8825000D01*
X15450000Y8825000D01*
X15450000Y7625000D01*
G37*
G36*
X78840000Y8715000D02*
G01*
X77760000Y8715000D01*
X77760000Y9745000D01*
X78840000Y9745000D01*
X78840000Y8715000D01*
G37*
G36*
X103240000Y8715000D02*
G01*
X102160000Y8715000D01*
X102160000Y9745000D01*
X103240000Y9745000D01*
X103240000Y8715000D01*
G37*
G36*
X10485000Y8960000D02*
G01*
X9455000Y8960000D01*
X9455000Y10040000D01*
X10485000Y10040000D01*
X10485000Y8960000D01*
G37*
G36*
X8945000Y8960000D02*
G01*
X7915000Y8960000D01*
X7915000Y10040000D01*
X8945000Y10040000D01*
X8945000Y8960000D01*
G37*
G36*
X32747934Y10817336D02*
G01*
X32902625Y10753261D01*
X32902626Y10753260D01*
X33041844Y10660238D01*
X33160238Y10541844D01*
X33222533Y10448612D01*
X33253261Y10402625D01*
X33317336Y10247934D01*
X33350000Y10083720D01*
X33350000Y9916280D01*
X33317336Y9752066D01*
X33253261Y9597375D01*
X33253260Y9597374D01*
X33160238Y9458156D01*
X33041844Y9339762D01*
X32948612Y9277467D01*
X32902625Y9246739D01*
X32747934Y9182664D01*
X32583720Y9150000D01*
X32416280Y9150000D01*
X32252066Y9182664D01*
X32097375Y9246739D01*
X32051388Y9277467D01*
X31958156Y9339762D01*
X31839762Y9458156D01*
X31746740Y9597374D01*
X31746739Y9597375D01*
X31682664Y9752066D01*
X31650000Y9916280D01*
X31650000Y10083720D01*
X31682664Y10247934D01*
X31746739Y10402625D01*
X31777467Y10448612D01*
X31839762Y10541844D01*
X31958156Y10660238D01*
X32097374Y10753260D01*
X32097375Y10753261D01*
X32252066Y10817336D01*
X32416280Y10850000D01*
X32583720Y10850000D01*
X32747934Y10817336D01*
G37*
G36*
X29350000Y9150000D02*
G01*
X27650000Y9150000D01*
X27650000Y10850000D01*
X29350000Y10850000D01*
X29350000Y9150000D01*
G37*
G36*
X103240000Y10255000D02*
G01*
X102160000Y10255000D01*
X102160000Y11285000D01*
X103240000Y11285000D01*
X103240000Y10255000D01*
G37*
G36*
X78840000Y10255000D02*
G01*
X77760000Y10255000D01*
X77760000Y11285000D01*
X78840000Y11285000D01*
X78840000Y10255000D01*
G37*
G36*
X15900000Y11175000D02*
G01*
X15000000Y11175000D01*
X15000000Y12375000D01*
X15900000Y12375000D01*
X15900000Y11175000D01*
G37*
G36*
X14800000Y11175000D02*
G01*
X13900000Y11175000D01*
X13900000Y12375000D01*
X14800000Y12375000D01*
X14800000Y11175000D01*
G37*
G36*
X10485000Y11260000D02*
G01*
X9455000Y11260000D01*
X9455000Y12340000D01*
X10485000Y12340000D01*
X10485000Y11260000D01*
G37*
G36*
X8945000Y11260000D02*
G01*
X7915000Y11260000D01*
X7915000Y12340000D01*
X8945000Y12340000D01*
X8945000Y11260000D01*
G37*
G36*
X115750000Y11550000D02*
G01*
X113750000Y11550000D01*
X113750000Y12950000D01*
X115750000Y12950000D01*
X115750000Y11550000D01*
G37*
G36*
X76350000Y11550000D02*
G01*
X74350000Y11550000D01*
X74350000Y12950000D01*
X76350000Y12950000D01*
X76350000Y11550000D01*
G37*
G36*
X106650000Y11550000D02*
G01*
X104650000Y11550000D01*
X104650000Y12950000D01*
X106650000Y12950000D01*
X106650000Y11550000D01*
G37*
G36*
X67250000Y11550000D02*
G01*
X65250000Y11550000D01*
X65250000Y12950000D01*
X67250000Y12950000D01*
X67250000Y11550000D01*
G37*
G36*
X59789597Y17425022D02*
G01*
X59907890Y17376024D01*
X60014348Y17304891D01*
X60104891Y17214348D01*
X60176024Y17107890D01*
X60225022Y16989597D01*
X60250000Y16864022D01*
X60250000Y16735978D01*
X60225022Y16610403D01*
X60176024Y16492110D01*
X60104891Y16385652D01*
X60014348Y16295109D01*
X59907890Y16223976D01*
X59789597Y16174978D01*
X59664022Y16150000D01*
X59535978Y16150000D01*
X59410403Y16174978D01*
X59292110Y16223976D01*
X59185652Y16295109D01*
X59095109Y16385652D01*
X59023976Y16492110D01*
X58974978Y16610403D01*
X58950000Y16735978D01*
X58950000Y16864022D01*
X58974978Y16989597D01*
X59023976Y17107890D01*
X59095109Y17214348D01*
X59185652Y17304891D01*
X59292110Y17376024D01*
X59410403Y17425022D01*
X59535978Y17450000D01*
X59664022Y17450000D01*
X59789597Y17425022D01*
G37*
G36*
X74889597Y17425022D02*
G01*
X75007890Y17376024D01*
X75114348Y17304891D01*
X75204891Y17214348D01*
X75276024Y17107890D01*
X75325022Y16989597D01*
X75350000Y16864022D01*
X75350000Y16735978D01*
X75325022Y16610403D01*
X75276024Y16492110D01*
X75204891Y16385652D01*
X75114348Y16295109D01*
X75007890Y16223976D01*
X74889597Y16174978D01*
X74764022Y16150000D01*
X74635978Y16150000D01*
X74510403Y16174978D01*
X74392110Y16223976D01*
X74285652Y16295109D01*
X74195109Y16385652D01*
X74123976Y16492110D01*
X74074978Y16610403D01*
X74050000Y16735978D01*
X74050000Y16864022D01*
X74074978Y16989597D01*
X74123976Y17107890D01*
X74195109Y17214348D01*
X74285652Y17304891D01*
X74392110Y17376024D01*
X74510403Y17425022D01*
X74635978Y17450000D01*
X74764022Y17450000D01*
X74889597Y17425022D01*
G37*
G36*
X63876427Y19811978D02*
G01*
X64046082Y19760514D01*
X64202431Y19676944D01*
X64339475Y19564475D01*
X64451944Y19427431D01*
X64535514Y19271083D01*
X64586978Y19101428D01*
X64600000Y18969216D01*
X64600000Y18630785D01*
X64586978Y18498573D01*
X64535514Y18328917D01*
X64451944Y18172569D01*
X64339475Y18035525D01*
X64202431Y17923056D01*
X64046083Y17839486D01*
X63876428Y17788022D01*
X63700000Y17770645D01*
X63523573Y17788022D01*
X63353918Y17839486D01*
X63197570Y17923056D01*
X63060525Y18035525D01*
X62948056Y18172569D01*
X62864486Y18328917D01*
X62813022Y18498572D01*
X62800000Y18630784D01*
X62800000Y18969215D01*
X62813022Y19101427D01*
X62864486Y19271082D01*
X62948056Y19427431D01*
X63060525Y19564475D01*
X63197569Y19676944D01*
X63353917Y19760514D01*
X63523572Y19811978D01*
X63700000Y19829355D01*
X63876427Y19811978D01*
G37*
G36*
X66376427Y19811978D02*
G01*
X66546082Y19760514D01*
X66702431Y19676944D01*
X66839475Y19564475D01*
X66951944Y19427431D01*
X67035514Y19271083D01*
X67086978Y19101428D01*
X67100000Y18969216D01*
X67100000Y18630785D01*
X67086978Y18498573D01*
X67035514Y18328917D01*
X66951944Y18172569D01*
X66839475Y18035525D01*
X66702431Y17923056D01*
X66546083Y17839486D01*
X66376428Y17788022D01*
X66200000Y17770645D01*
X66023573Y17788022D01*
X65853918Y17839486D01*
X65697570Y17923056D01*
X65560525Y18035525D01*
X65448056Y18172569D01*
X65364486Y18328917D01*
X65313022Y18498572D01*
X65300000Y18630784D01*
X65300000Y18969215D01*
X65313022Y19101427D01*
X65364486Y19271082D01*
X65448056Y19427431D01*
X65560525Y19564475D01*
X65697569Y19676944D01*
X65853917Y19760514D01*
X66023572Y19811978D01*
X66200000Y19829355D01*
X66376427Y19811978D01*
G37*
G36*
X68876427Y19811978D02*
G01*
X69046082Y19760514D01*
X69202431Y19676944D01*
X69339475Y19564475D01*
X69451944Y19427431D01*
X69535514Y19271083D01*
X69586978Y19101428D01*
X69600000Y18969216D01*
X69600000Y18630785D01*
X69586978Y18498573D01*
X69535514Y18328917D01*
X69451944Y18172569D01*
X69339475Y18035525D01*
X69202431Y17923056D01*
X69046083Y17839486D01*
X68876428Y17788022D01*
X68700000Y17770645D01*
X68523573Y17788022D01*
X68353918Y17839486D01*
X68197570Y17923056D01*
X68060525Y18035525D01*
X67948056Y18172569D01*
X67864486Y18328917D01*
X67813022Y18498572D01*
X67800000Y18630784D01*
X67800000Y18969215D01*
X67813022Y19101427D01*
X67864486Y19271082D01*
X67948056Y19427431D01*
X68060525Y19564475D01*
X68197569Y19676944D01*
X68353917Y19760514D01*
X68523572Y19811978D01*
X68700000Y19829355D01*
X68876427Y19811978D01*
G37*
G36*
X78976427Y19811978D02*
G01*
X79146082Y19760514D01*
X79302431Y19676944D01*
X79439475Y19564475D01*
X79551944Y19427431D01*
X79635514Y19271083D01*
X79686978Y19101428D01*
X79700000Y18969216D01*
X79700000Y18630785D01*
X79686978Y18498573D01*
X79635514Y18328917D01*
X79551944Y18172569D01*
X79439475Y18035525D01*
X79302431Y17923056D01*
X79146083Y17839486D01*
X78976428Y17788022D01*
X78800000Y17770645D01*
X78623573Y17788022D01*
X78453918Y17839486D01*
X78297570Y17923056D01*
X78160525Y18035525D01*
X78048056Y18172569D01*
X77964486Y18328917D01*
X77913022Y18498572D01*
X77900000Y18630784D01*
X77900000Y18969215D01*
X77913022Y19101427D01*
X77964486Y19271082D01*
X78048056Y19427431D01*
X78160525Y19564475D01*
X78297569Y19676944D01*
X78453917Y19760514D01*
X78623572Y19811978D01*
X78800000Y19829355D01*
X78976427Y19811978D01*
G37*
G36*
X81476427Y19811978D02*
G01*
X81646082Y19760514D01*
X81802431Y19676944D01*
X81939475Y19564475D01*
X82051944Y19427431D01*
X82135514Y19271083D01*
X82186978Y19101428D01*
X82200000Y18969216D01*
X82200000Y18630785D01*
X82186978Y18498573D01*
X82135514Y18328917D01*
X82051944Y18172569D01*
X81939475Y18035525D01*
X81802431Y17923056D01*
X81646083Y17839486D01*
X81476428Y17788022D01*
X81300000Y17770645D01*
X81123573Y17788022D01*
X80953918Y17839486D01*
X80797570Y17923056D01*
X80660525Y18035525D01*
X80548056Y18172569D01*
X80464486Y18328917D01*
X80413022Y18498572D01*
X80400000Y18630784D01*
X80400000Y18969215D01*
X80413022Y19101427D01*
X80464486Y19271082D01*
X80548056Y19427431D01*
X80660525Y19564475D01*
X80797569Y19676944D01*
X80953917Y19760514D01*
X81123572Y19811978D01*
X81300000Y19829355D01*
X81476427Y19811978D01*
G37*
G36*
X83976427Y19811978D02*
G01*
X84146082Y19760514D01*
X84302431Y19676944D01*
X84439475Y19564475D01*
X84551944Y19427431D01*
X84635514Y19271083D01*
X84686978Y19101428D01*
X84700000Y18969216D01*
X84700000Y18630785D01*
X84686978Y18498573D01*
X84635514Y18328917D01*
X84551944Y18172569D01*
X84439475Y18035525D01*
X84302431Y17923056D01*
X84146083Y17839486D01*
X83976428Y17788022D01*
X83800000Y17770645D01*
X83623573Y17788022D01*
X83453918Y17839486D01*
X83297570Y17923056D01*
X83160525Y18035525D01*
X83048056Y18172569D01*
X82964486Y18328917D01*
X82913022Y18498572D01*
X82900000Y18630784D01*
X82900000Y18969215D01*
X82913022Y19101427D01*
X82964486Y19271082D01*
X83048056Y19427431D01*
X83160525Y19564475D01*
X83297569Y19676944D01*
X83453917Y19760514D01*
X83623572Y19811978D01*
X83800000Y19829355D01*
X83976427Y19811978D01*
G37*
G36*
X61909621Y19820268D02*
G01*
X61953950Y19806820D01*
X61994797Y19784987D01*
X62030602Y19755602D01*
X62059987Y19719797D01*
X62081820Y19678950D01*
X62095268Y19634621D01*
X62100000Y19586569D01*
X62100000Y18013431D01*
X62095268Y17965379D01*
X62081820Y17921050D01*
X62059987Y17880203D01*
X62030602Y17844398D01*
X61994797Y17815013D01*
X61953950Y17793180D01*
X61909621Y17779732D01*
X61861569Y17775000D01*
X60538431Y17775000D01*
X60490379Y17779732D01*
X60446050Y17793180D01*
X60405203Y17815013D01*
X60369398Y17844398D01*
X60340013Y17880203D01*
X60318180Y17921050D01*
X60304732Y17965379D01*
X60300000Y18013431D01*
X60300000Y19586569D01*
X60304732Y19634621D01*
X60318180Y19678950D01*
X60340013Y19719797D01*
X60369398Y19755602D01*
X60405203Y19784987D01*
X60446050Y19806820D01*
X60490379Y19820268D01*
X60538431Y19825000D01*
X61861569Y19825000D01*
X61909621Y19820268D01*
G37*
G36*
X77009621Y19820268D02*
G01*
X77053950Y19806820D01*
X77094797Y19784987D01*
X77130602Y19755602D01*
X77159987Y19719797D01*
X77181820Y19678950D01*
X77195268Y19634621D01*
X77200000Y19586569D01*
X77200000Y18013431D01*
X77195268Y17965379D01*
X77181820Y17921050D01*
X77159987Y17880203D01*
X77130602Y17844398D01*
X77094797Y17815013D01*
X77053950Y17793180D01*
X77009621Y17779732D01*
X76961569Y17775000D01*
X75638431Y17775000D01*
X75590379Y17779732D01*
X75546050Y17793180D01*
X75505203Y17815013D01*
X75469398Y17844398D01*
X75440013Y17880203D01*
X75418180Y17921050D01*
X75404732Y17965379D01*
X75400000Y18013431D01*
X75400000Y19586569D01*
X75404732Y19634621D01*
X75418180Y19678950D01*
X75440013Y19719797D01*
X75469398Y19755602D01*
X75505203Y19784987D01*
X75546050Y19806820D01*
X75590379Y19820268D01*
X75638431Y19825000D01*
X76961569Y19825000D01*
X77009621Y19820268D01*
G37*
G36*
X29565844Y20210786D02*
G01*
X29656839Y20173095D01*
X29738728Y20118378D01*
X29808378Y20048728D01*
X29863095Y19966839D01*
X29900786Y19875844D01*
X29920000Y19779248D01*
X29920000Y19680752D01*
X29900786Y19584156D01*
X29863095Y19493161D01*
X29808378Y19411272D01*
X29738728Y19341622D01*
X29656839Y19286905D01*
X29565844Y19249214D01*
X29469248Y19230000D01*
X29370752Y19230000D01*
X29274156Y19249214D01*
X29183161Y19286905D01*
X29101272Y19341622D01*
X29031622Y19411272D01*
X28976905Y19493161D01*
X28939214Y19584156D01*
X28920000Y19680752D01*
X28920000Y19779248D01*
X28939214Y19875844D01*
X28976905Y19966839D01*
X29031622Y20048728D01*
X29101272Y20118378D01*
X29183161Y20173095D01*
X29274156Y20210786D01*
X29370752Y20230000D01*
X29469248Y20230000D01*
X29565844Y20210786D01*
G37*
G36*
X34645844Y20210786D02*
G01*
X34736839Y20173095D01*
X34818728Y20118378D01*
X34888378Y20048728D01*
X34943095Y19966839D01*
X34980786Y19875844D01*
X35000000Y19779248D01*
X35000000Y19680752D01*
X34980786Y19584156D01*
X34943095Y19493161D01*
X34888378Y19411272D01*
X34818728Y19341622D01*
X34736839Y19286905D01*
X34645844Y19249214D01*
X34549248Y19230000D01*
X34450752Y19230000D01*
X34354156Y19249214D01*
X34263161Y19286905D01*
X34181272Y19341622D01*
X34111622Y19411272D01*
X34056905Y19493161D01*
X34019214Y19584156D01*
X34000000Y19680752D01*
X34000000Y19779248D01*
X34019214Y19875844D01*
X34056905Y19966839D01*
X34111622Y20048728D01*
X34181272Y20118378D01*
X34263161Y20173095D01*
X34354156Y20210786D01*
X34450752Y20230000D01*
X34549248Y20230000D01*
X34645844Y20210786D01*
G37*
G36*
X33375844Y20210786D02*
G01*
X33466839Y20173095D01*
X33548728Y20118378D01*
X33618378Y20048728D01*
X33673095Y19966839D01*
X33710786Y19875844D01*
X33730000Y19779248D01*
X33730000Y19680752D01*
X33710786Y19584156D01*
X33673095Y19493161D01*
X33618378Y19411272D01*
X33548728Y19341622D01*
X33466839Y19286905D01*
X33375844Y19249214D01*
X33279248Y19230000D01*
X33180752Y19230000D01*
X33084156Y19249214D01*
X32993161Y19286905D01*
X32911272Y19341622D01*
X32841622Y19411272D01*
X32786905Y19493161D01*
X32749214Y19584156D01*
X32730000Y19680752D01*
X32730000Y19779248D01*
X32749214Y19875844D01*
X32786905Y19966839D01*
X32841622Y20048728D01*
X32911272Y20118378D01*
X32993161Y20173095D01*
X33084156Y20210786D01*
X33180752Y20230000D01*
X33279248Y20230000D01*
X33375844Y20210786D01*
G37*
G36*
X32105844Y20210786D02*
G01*
X32196839Y20173095D01*
X32278728Y20118378D01*
X32348378Y20048728D01*
X32403095Y19966839D01*
X32440786Y19875844D01*
X32460000Y19779248D01*
X32460000Y19680752D01*
X32440786Y19584156D01*
X32403095Y19493161D01*
X32348378Y19411272D01*
X32278728Y19341622D01*
X32196839Y19286905D01*
X32105844Y19249214D01*
X32009248Y19230000D01*
X31910752Y19230000D01*
X31814156Y19249214D01*
X31723161Y19286905D01*
X31641272Y19341622D01*
X31571622Y19411272D01*
X31516905Y19493161D01*
X31479214Y19584156D01*
X31460000Y19680752D01*
X31460000Y19779248D01*
X31479214Y19875844D01*
X31516905Y19966839D01*
X31571622Y20048728D01*
X31641272Y20118378D01*
X31723161Y20173095D01*
X31814156Y20210786D01*
X31910752Y20230000D01*
X32009248Y20230000D01*
X32105844Y20210786D01*
G37*
G36*
X30835844Y20210786D02*
G01*
X30926839Y20173095D01*
X31008728Y20118378D01*
X31078378Y20048728D01*
X31133095Y19966839D01*
X31170786Y19875844D01*
X31190000Y19779248D01*
X31190000Y19680752D01*
X31170786Y19584156D01*
X31133095Y19493161D01*
X31078378Y19411272D01*
X31008728Y19341622D01*
X30926839Y19286905D01*
X30835844Y19249214D01*
X30739248Y19230000D01*
X30640752Y19230000D01*
X30544156Y19249214D01*
X30453161Y19286905D01*
X30371272Y19341622D01*
X30301622Y19411272D01*
X30246905Y19493161D01*
X30209214Y19584156D01*
X30190000Y19680752D01*
X30190000Y19779248D01*
X30209214Y19875844D01*
X30246905Y19966839D01*
X30301622Y20048728D01*
X30371272Y20118378D01*
X30453161Y20173095D01*
X30544156Y20210786D01*
X30640752Y20230000D01*
X30739248Y20230000D01*
X30835844Y20210786D01*
G37*
G36*
X32105844Y21480786D02*
G01*
X32196839Y21443095D01*
X32278728Y21388378D01*
X32348378Y21318728D01*
X32403095Y21236839D01*
X32440786Y21145844D01*
X32460000Y21049248D01*
X32460000Y20950752D01*
X32440786Y20854156D01*
X32403095Y20763161D01*
X32348378Y20681272D01*
X32278728Y20611622D01*
X32196839Y20556905D01*
X32105844Y20519214D01*
X32009248Y20500000D01*
X31910752Y20500000D01*
X31814156Y20519214D01*
X31723161Y20556905D01*
X31641272Y20611622D01*
X31571622Y20681272D01*
X31516905Y20763161D01*
X31479214Y20854156D01*
X31460000Y20950752D01*
X31460000Y21049248D01*
X31479214Y21145844D01*
X31516905Y21236839D01*
X31571622Y21318728D01*
X31641272Y21388378D01*
X31723161Y21443095D01*
X31814156Y21480786D01*
X31910752Y21500000D01*
X32009248Y21500000D01*
X32105844Y21480786D01*
G37*
G36*
X29565844Y21480786D02*
G01*
X29656839Y21443095D01*
X29738728Y21388378D01*
X29808378Y21318728D01*
X29863095Y21236839D01*
X29900786Y21145844D01*
X29920000Y21049248D01*
X29920000Y20950752D01*
X29900786Y20854156D01*
X29863095Y20763161D01*
X29808378Y20681272D01*
X29738728Y20611622D01*
X29656839Y20556905D01*
X29565844Y20519214D01*
X29469248Y20500000D01*
X29370752Y20500000D01*
X29274156Y20519214D01*
X29183161Y20556905D01*
X29101272Y20611622D01*
X29031622Y20681272D01*
X28976905Y20763161D01*
X28939214Y20854156D01*
X28920000Y20950752D01*
X28920000Y21049248D01*
X28939214Y21145844D01*
X28976905Y21236839D01*
X29031622Y21318728D01*
X29101272Y21388378D01*
X29183161Y21443095D01*
X29274156Y21480786D01*
X29370752Y21500000D01*
X29469248Y21500000D01*
X29565844Y21480786D01*
G37*
G36*
X33375844Y21480786D02*
G01*
X33466839Y21443095D01*
X33548728Y21388378D01*
X33618378Y21318728D01*
X33673095Y21236839D01*
X33710786Y21145844D01*
X33730000Y21049248D01*
X33730000Y20950752D01*
X33710786Y20854156D01*
X33673095Y20763161D01*
X33618378Y20681272D01*
X33548728Y20611622D01*
X33466839Y20556905D01*
X33375844Y20519214D01*
X33279248Y20500000D01*
X33180752Y20500000D01*
X33084156Y20519214D01*
X32993161Y20556905D01*
X32911272Y20611622D01*
X32841622Y20681272D01*
X32786905Y20763161D01*
X32749214Y20854156D01*
X32730000Y20950752D01*
X32730000Y21049248D01*
X32749214Y21145844D01*
X32786905Y21236839D01*
X32841622Y21318728D01*
X32911272Y21388378D01*
X32993161Y21443095D01*
X33084156Y21480786D01*
X33180752Y21500000D01*
X33279248Y21500000D01*
X33375844Y21480786D01*
G37*
G36*
X35000000Y20500000D02*
G01*
X34000000Y20500000D01*
X34000000Y21500000D01*
X35000000Y21500000D01*
X35000000Y20500000D01*
G37*
G36*
X30835844Y21480786D02*
G01*
X30926839Y21443095D01*
X31008728Y21388378D01*
X31078378Y21318728D01*
X31133095Y21236839D01*
X31170786Y21145844D01*
X31190000Y21049248D01*
X31190000Y20950752D01*
X31170786Y20854156D01*
X31133095Y20763161D01*
X31078378Y20681272D01*
X31008728Y20611622D01*
X30926839Y20556905D01*
X30835844Y20519214D01*
X30739248Y20500000D01*
X30640752Y20500000D01*
X30544156Y20519214D01*
X30453161Y20556905D01*
X30371272Y20611622D01*
X30301622Y20681272D01*
X30246905Y20763161D01*
X30209214Y20854156D01*
X30190000Y20950752D01*
X30190000Y21049248D01*
X30209214Y21145844D01*
X30246905Y21236839D01*
X30301622Y21318728D01*
X30371272Y21388378D01*
X30453161Y21443095D01*
X30544156Y21480786D01*
X30640752Y21500000D01*
X30739248Y21500000D01*
X30835844Y21480786D01*
G37*
G36*
X32340935Y29451571D02*
G01*
X32437534Y29432356D01*
X32710517Y29319283D01*
X32956194Y29155126D01*
X33165126Y28946194D01*
X33329283Y28700517D01*
X33442356Y28427534D01*
X33500000Y28137737D01*
X33500000Y27842263D01*
X33442356Y27552466D01*
X33329283Y27279483D01*
X33165126Y27033806D01*
X32956194Y26824874D01*
X32710517Y26660717D01*
X32437534Y26547644D01*
X32340935Y26528429D01*
X32147739Y26490000D01*
X31852261Y26490000D01*
X31659065Y26528429D01*
X31562466Y26547644D01*
X31289483Y26660717D01*
X31043806Y26824874D01*
X30834874Y27033806D01*
X30670717Y27279483D01*
X30557644Y27552466D01*
X30500000Y27842263D01*
X30500000Y28137737D01*
X30557644Y28427534D01*
X30670717Y28700517D01*
X30834874Y28946194D01*
X31043806Y29155126D01*
X31289483Y29319283D01*
X31562466Y29432356D01*
X31659065Y29451571D01*
X31852261Y29490000D01*
X32147739Y29490000D01*
X32340935Y29451571D01*
G37*
G36*
X127340935Y29451571D02*
G01*
X127437534Y29432356D01*
X127710517Y29319283D01*
X127956194Y29155126D01*
X128165126Y28946194D01*
X128329283Y28700517D01*
X128442356Y28427534D01*
X128500000Y28137737D01*
X128500000Y27842263D01*
X128442356Y27552466D01*
X128329283Y27279483D01*
X128165126Y27033806D01*
X127956194Y26824874D01*
X127710517Y26660717D01*
X127437534Y26547644D01*
X127340935Y26528429D01*
X127147739Y26490000D01*
X126852261Y26490000D01*
X126659065Y26528429D01*
X126562466Y26547644D01*
X126289483Y26660717D01*
X126043806Y26824874D01*
X125834874Y27033806D01*
X125670717Y27279483D01*
X125557644Y27552466D01*
X125500000Y27842263D01*
X125500000Y28137737D01*
X125557644Y28427534D01*
X125670717Y28700517D01*
X125834874Y28946194D01*
X126043806Y29155126D01*
X126289483Y29319283D01*
X126562466Y29432356D01*
X126659065Y29451571D01*
X126852261Y29490000D01*
X127147739Y29490000D01*
X127340935Y29451571D01*
G37*
G36*
X30074462Y34243950D02*
G01*
X30131644Y34226605D01*
X30184341Y34198437D01*
X30230530Y34160530D01*
X30268437Y34114341D01*
X30296605Y34061644D01*
X30313950Y34004462D01*
X30320000Y33943039D01*
X30320000Y33256961D01*
X30313950Y33195538D01*
X30296605Y33138356D01*
X30268437Y33085659D01*
X30230530Y33039470D01*
X30184341Y33001563D01*
X30131644Y32973395D01*
X30074462Y32956050D01*
X30013039Y32950000D01*
X28026961Y32950000D01*
X27965538Y32956050D01*
X27908356Y32973395D01*
X27855659Y33001563D01*
X27809470Y33039470D01*
X27771563Y33085659D01*
X27743395Y33138356D01*
X27726050Y33195538D01*
X27720000Y33256961D01*
X27720000Y33943039D01*
X27726050Y34004462D01*
X27743395Y34061644D01*
X27771563Y34114341D01*
X27809470Y34160530D01*
X27855659Y34198437D01*
X27908356Y34226605D01*
X27965538Y34243950D01*
X28026961Y34250000D01*
X30013039Y34250000D01*
X30074462Y34243950D01*
G37*
G36*
X35574462Y34243950D02*
G01*
X35631644Y34226605D01*
X35684341Y34198437D01*
X35730530Y34160530D01*
X35768437Y34114341D01*
X35796605Y34061644D01*
X35813950Y34004462D01*
X35820000Y33943039D01*
X35820000Y33256961D01*
X35813950Y33195538D01*
X35796605Y33138356D01*
X35768437Y33085659D01*
X35730530Y33039470D01*
X35684341Y33001563D01*
X35631644Y32973395D01*
X35574462Y32956050D01*
X35513039Y32950000D01*
X33526961Y32950000D01*
X33465538Y32956050D01*
X33408356Y32973395D01*
X33355659Y33001563D01*
X33309470Y33039470D01*
X33271563Y33085659D01*
X33243395Y33138356D01*
X33226050Y33195538D01*
X33220000Y33256961D01*
X33220000Y33943039D01*
X33226050Y34004462D01*
X33243395Y34061644D01*
X33271563Y34114341D01*
X33309470Y34160530D01*
X33355659Y34198437D01*
X33408356Y34226605D01*
X33465538Y34243950D01*
X33526961Y34250000D01*
X35513039Y34250000D01*
X35574462Y34243950D01*
G37*
G36*
X31930428Y35398865D02*
G01*
X32030522Y35357405D01*
X32120602Y35297215D01*
X32197215Y35220602D01*
X32257405Y35130522D01*
X32298865Y35030428D01*
X32320000Y34924173D01*
X32320000Y34815827D01*
X32298865Y34709572D01*
X32257405Y34609478D01*
X32197215Y34519398D01*
X32120602Y34442785D01*
X32030522Y34382595D01*
X31930428Y34341135D01*
X31824173Y34320000D01*
X31715827Y34320000D01*
X31609572Y34341135D01*
X31509478Y34382595D01*
X31419398Y34442785D01*
X31342785Y34519398D01*
X31282595Y34609478D01*
X31241135Y34709572D01*
X31220000Y34815827D01*
X31220000Y34924173D01*
X31241135Y35030428D01*
X31282595Y35130522D01*
X31342785Y35220602D01*
X31419398Y35297215D01*
X31509478Y35357405D01*
X31609572Y35398865D01*
X31715827Y35420000D01*
X31824173Y35420000D01*
X31930428Y35398865D01*
G37*
G36*
X35574462Y36783950D02*
G01*
X35631644Y36766605D01*
X35684341Y36738437D01*
X35730530Y36700530D01*
X35768437Y36654341D01*
X35796605Y36601644D01*
X35813950Y36544462D01*
X35820000Y36483039D01*
X35820000Y35796961D01*
X35813950Y35735538D01*
X35796605Y35678356D01*
X35768437Y35625659D01*
X35730530Y35579470D01*
X35684341Y35541563D01*
X35631644Y35513395D01*
X35574462Y35496050D01*
X35513039Y35490000D01*
X33526961Y35490000D01*
X33465538Y35496050D01*
X33408356Y35513395D01*
X33355659Y35541563D01*
X33309470Y35579470D01*
X33271563Y35625659D01*
X33243395Y35678356D01*
X33226050Y35735538D01*
X33220000Y35796961D01*
X33220000Y36483039D01*
X33226050Y36544462D01*
X33243395Y36601644D01*
X33271563Y36654341D01*
X33309470Y36700530D01*
X33355659Y36738437D01*
X33408356Y36766605D01*
X33465538Y36783950D01*
X33526961Y36790000D01*
X35513039Y36790000D01*
X35574462Y36783950D01*
G37*
G36*
X30074462Y36783950D02*
G01*
X30131644Y36766605D01*
X30184341Y36738437D01*
X30230530Y36700530D01*
X30268437Y36654341D01*
X30296605Y36601644D01*
X30313950Y36544462D01*
X30320000Y36483039D01*
X30320000Y35796961D01*
X30313950Y35735538D01*
X30296605Y35678356D01*
X30268437Y35625659D01*
X30230530Y35579470D01*
X30184341Y35541563D01*
X30131644Y35513395D01*
X30074462Y35496050D01*
X30013039Y35490000D01*
X28026961Y35490000D01*
X27965538Y35496050D01*
X27908356Y35513395D01*
X27855659Y35541563D01*
X27809470Y35579470D01*
X27771563Y35625659D01*
X27743395Y35678356D01*
X27726050Y35735538D01*
X27720000Y35796961D01*
X27720000Y36483039D01*
X27726050Y36544462D01*
X27743395Y36601644D01*
X27771563Y36654341D01*
X27809470Y36700530D01*
X27855659Y36738437D01*
X27908356Y36766605D01*
X27965538Y36783950D01*
X28026961Y36790000D01*
X30013039Y36790000D01*
X30074462Y36783950D01*
G37*
G36*
X128448017Y37992765D02*
G01*
X128542267Y37964175D01*
X128600175Y37933222D01*
X128629128Y37917747D01*
X128629130Y37917746D01*
X128629129Y37917746D01*
X128705264Y37855264D01*
X128767746Y37779129D01*
X128814175Y37692267D01*
X128842765Y37598017D01*
X128852419Y37500000D01*
X128842765Y37401983D01*
X128814175Y37307733D01*
X128767746Y37220871D01*
X128705264Y37144736D01*
X128635955Y37087856D01*
X128629128Y37082253D01*
X128600175Y37066778D01*
X128542267Y37035825D01*
X128448017Y37007235D01*
X128374560Y37000000D01*
X123825440Y37000000D01*
X123751983Y37007235D01*
X123657733Y37035825D01*
X123599825Y37066778D01*
X123570872Y37082253D01*
X123564046Y37087856D01*
X123494736Y37144736D01*
X123432254Y37220871D01*
X123385825Y37307733D01*
X123357235Y37401983D01*
X123347581Y37500000D01*
X123357235Y37598017D01*
X123385825Y37692267D01*
X123432254Y37779129D01*
X123494736Y37855264D01*
X123570871Y37917746D01*
X123570870Y37917746D01*
X123570872Y37917747D01*
X123599825Y37933222D01*
X123657733Y37964175D01*
X123751983Y37992765D01*
X123825440Y38000000D01*
X128374560Y38000000D01*
X128448017Y37992765D01*
G37*
G36*
X30074462Y39323950D02*
G01*
X30131644Y39306605D01*
X30184341Y39278437D01*
X30230530Y39240530D01*
X30268437Y39194341D01*
X30296605Y39141644D01*
X30313950Y39084462D01*
X30320000Y39023039D01*
X30320000Y38336961D01*
X30313950Y38275538D01*
X30296605Y38218356D01*
X30268437Y38165659D01*
X30230530Y38119470D01*
X30184341Y38081563D01*
X30131644Y38053395D01*
X30074462Y38036050D01*
X30013039Y38030000D01*
X28026961Y38030000D01*
X27965538Y38036050D01*
X27908356Y38053395D01*
X27855659Y38081563D01*
X27809470Y38119470D01*
X27771563Y38165659D01*
X27743395Y38218356D01*
X27726050Y38275538D01*
X27720000Y38336961D01*
X27720000Y39023039D01*
X27726050Y39084462D01*
X27743395Y39141644D01*
X27771563Y39194341D01*
X27809470Y39240530D01*
X27855659Y39278437D01*
X27908356Y39306605D01*
X27965538Y39323950D01*
X28026961Y39330000D01*
X30013039Y39330000D01*
X30074462Y39323950D01*
G37*
G36*
X35574462Y39323950D02*
G01*
X35631644Y39306605D01*
X35684341Y39278437D01*
X35730530Y39240530D01*
X35768437Y39194341D01*
X35796605Y39141644D01*
X35813950Y39084462D01*
X35820000Y39023039D01*
X35820000Y38336961D01*
X35813950Y38275538D01*
X35796605Y38218356D01*
X35768437Y38165659D01*
X35730530Y38119470D01*
X35684341Y38081563D01*
X35631644Y38053395D01*
X35574462Y38036050D01*
X35513039Y38030000D01*
X33526961Y38030000D01*
X33465538Y38036050D01*
X33408356Y38053395D01*
X33355659Y38081563D01*
X33309470Y38119470D01*
X33271563Y38165659D01*
X33243395Y38218356D01*
X33226050Y38275538D01*
X33220000Y38336961D01*
X33220000Y39023039D01*
X33226050Y39084462D01*
X33243395Y39141644D01*
X33271563Y39194341D01*
X33309470Y39240530D01*
X33355659Y39278437D01*
X33408356Y39306605D01*
X33465538Y39323950D01*
X33526961Y39330000D01*
X35513039Y39330000D01*
X35574462Y39323950D01*
G37*
G36*
X123777819Y40222042D02*
G01*
X123881494Y40190592D01*
X123977042Y40139521D01*
X124060790Y40070790D01*
X124129521Y39987042D01*
X124180592Y39891494D01*
X124212042Y39787819D01*
X124222661Y39680000D01*
X124212042Y39572181D01*
X124180592Y39468506D01*
X124129521Y39372958D01*
X124060790Y39289210D01*
X123977042Y39220479D01*
X123881494Y39169408D01*
X123777819Y39137958D01*
X123697018Y39130000D01*
X122542982Y39130000D01*
X122462181Y39137958D01*
X122358506Y39169408D01*
X122262958Y39220479D01*
X122179210Y39289210D01*
X122110479Y39372958D01*
X122059408Y39468506D01*
X122027958Y39572181D01*
X122017339Y39680000D01*
X122027958Y39787819D01*
X122059408Y39891494D01*
X122110479Y39987042D01*
X122179210Y40070790D01*
X122262958Y40139521D01*
X122358506Y40190592D01*
X122462181Y40222042D01*
X122542982Y40230000D01*
X123697018Y40230000D01*
X123777819Y40222042D01*
G37*
G36*
X127707819Y40222042D02*
G01*
X127811494Y40190592D01*
X127907042Y40139521D01*
X127990790Y40070790D01*
X128059521Y39987042D01*
X128110592Y39891494D01*
X128142042Y39787819D01*
X128152661Y39680000D01*
X128142042Y39572181D01*
X128110592Y39468506D01*
X128059521Y39372958D01*
X127990790Y39289210D01*
X127907042Y39220479D01*
X127811494Y39169408D01*
X127707819Y39137958D01*
X127627018Y39130000D01*
X126972982Y39130000D01*
X126892181Y39137958D01*
X126788506Y39169408D01*
X126692958Y39220479D01*
X126609210Y39289210D01*
X126540479Y39372958D01*
X126489408Y39468506D01*
X126457958Y39572181D01*
X126447339Y39680000D01*
X126457958Y39787819D01*
X126489408Y39891494D01*
X126540479Y39987042D01*
X126609210Y40070790D01*
X126692958Y40139521D01*
X126788506Y40190592D01*
X126892181Y40222042D01*
X126972982Y40230000D01*
X127627018Y40230000D01*
X127707819Y40222042D01*
G37*
G36*
X30074462Y41863950D02*
G01*
X30131644Y41846605D01*
X30184341Y41818437D01*
X30230530Y41780530D01*
X30268437Y41734341D01*
X30296605Y41681644D01*
X30313950Y41624462D01*
X30320000Y41563039D01*
X30320000Y40876961D01*
X30313950Y40815538D01*
X30296605Y40758356D01*
X30268437Y40705659D01*
X30230530Y40659470D01*
X30184341Y40621563D01*
X30131644Y40593395D01*
X30074462Y40576050D01*
X30013039Y40570000D01*
X28026961Y40570000D01*
X27965538Y40576050D01*
X27908356Y40593395D01*
X27855659Y40621563D01*
X27809470Y40659470D01*
X27771563Y40705659D01*
X27743395Y40758356D01*
X27726050Y40815538D01*
X27720000Y40876961D01*
X27720000Y41563039D01*
X27726050Y41624462D01*
X27743395Y41681644D01*
X27771563Y41734341D01*
X27809470Y41780530D01*
X27855659Y41818437D01*
X27908356Y41846605D01*
X27965538Y41863950D01*
X28026961Y41870000D01*
X30013039Y41870000D01*
X30074462Y41863950D01*
G37*
G36*
X35574462Y41863950D02*
G01*
X35631644Y41846605D01*
X35684341Y41818437D01*
X35730530Y41780530D01*
X35768437Y41734341D01*
X35796605Y41681644D01*
X35813950Y41624462D01*
X35820000Y41563039D01*
X35820000Y40876961D01*
X35813950Y40815538D01*
X35796605Y40758356D01*
X35768437Y40705659D01*
X35730530Y40659470D01*
X35684341Y40621563D01*
X35631644Y40593395D01*
X35574462Y40576050D01*
X35513039Y40570000D01*
X33526961Y40570000D01*
X33465538Y40576050D01*
X33408356Y40593395D01*
X33355659Y40621563D01*
X33309470Y40659470D01*
X33271563Y40705659D01*
X33243395Y40758356D01*
X33226050Y40815538D01*
X33220000Y40876961D01*
X33220000Y41563039D01*
X33226050Y41624462D01*
X33243395Y41681644D01*
X33271563Y41734341D01*
X33309470Y41780530D01*
X33355659Y41818437D01*
X33408356Y41846605D01*
X33465538Y41863950D01*
X33526961Y41870000D01*
X35513039Y41870000D01*
X35574462Y41863950D01*
G37*
G36*
X123759382Y41470590D02*
G01*
X123827629Y41442321D01*
X123889045Y41401284D01*
X123941284Y41349045D01*
X123982321Y41287629D01*
X124010590Y41219382D01*
X124025000Y41146937D01*
X124025000Y41073063D01*
X124010590Y41000618D01*
X123982321Y40932371D01*
X123941284Y40870955D01*
X123889045Y40818716D01*
X123827629Y40777679D01*
X123759382Y40749410D01*
X123686937Y40735000D01*
X123613063Y40735000D01*
X123540618Y40749410D01*
X123472371Y40777679D01*
X123410955Y40818716D01*
X123358716Y40870955D01*
X123317679Y40932371D01*
X123289410Y41000618D01*
X123275000Y41073063D01*
X123275000Y41146937D01*
X123289410Y41219382D01*
X123317679Y41287629D01*
X123358716Y41349045D01*
X123410955Y41401284D01*
X123472371Y41442321D01*
X123540618Y41470590D01*
X123613063Y41485000D01*
X123686937Y41485000D01*
X123759382Y41470590D01*
G37*
G36*
X23550000Y41050000D02*
G01*
X21550000Y41050000D01*
X21550000Y42450000D01*
X23550000Y42450000D01*
X23550000Y41050000D01*
G37*
G36*
X14450000Y41050000D02*
G01*
X12450000Y41050000D01*
X12450000Y42450000D01*
X14450000Y42450000D01*
X14450000Y41050000D01*
G37*
G36*
X30074462Y44403950D02*
G01*
X30131644Y44386605D01*
X30184341Y44358437D01*
X30230530Y44320530D01*
X30268437Y44274341D01*
X30296605Y44221644D01*
X30313950Y44164462D01*
X30320000Y44103039D01*
X30320000Y43416961D01*
X30313950Y43355538D01*
X30296605Y43298356D01*
X30268437Y43245659D01*
X30230530Y43199470D01*
X30184341Y43161563D01*
X30131644Y43133395D01*
X30074462Y43116050D01*
X30013039Y43110000D01*
X28026961Y43110000D01*
X27965538Y43116050D01*
X27908356Y43133395D01*
X27855659Y43161563D01*
X27809470Y43199470D01*
X27771563Y43245659D01*
X27743395Y43298356D01*
X27726050Y43355538D01*
X27720000Y43416961D01*
X27720000Y44103039D01*
X27726050Y44164462D01*
X27743395Y44221644D01*
X27771563Y44274341D01*
X27809470Y44320530D01*
X27855659Y44358437D01*
X27908356Y44386605D01*
X27965538Y44403950D01*
X28026961Y44410000D01*
X30013039Y44410000D01*
X30074462Y44403950D01*
G37*
G36*
X35574462Y44403950D02*
G01*
X35631644Y44386605D01*
X35684341Y44358437D01*
X35730530Y44320530D01*
X35768437Y44274341D01*
X35796605Y44221644D01*
X35813950Y44164462D01*
X35820000Y44103039D01*
X35820000Y43416961D01*
X35813950Y43355538D01*
X35796605Y43298356D01*
X35768437Y43245659D01*
X35730530Y43199470D01*
X35684341Y43161563D01*
X35631644Y43133395D01*
X35574462Y43116050D01*
X35513039Y43110000D01*
X33526961Y43110000D01*
X33465538Y43116050D01*
X33408356Y43133395D01*
X33355659Y43161563D01*
X33309470Y43199470D01*
X33271563Y43245659D01*
X33243395Y43298356D01*
X33226050Y43355538D01*
X33220000Y43416961D01*
X33220000Y44103039D01*
X33226050Y44164462D01*
X33243395Y44221644D01*
X33271563Y44274341D01*
X33309470Y44320530D01*
X33355659Y44358437D01*
X33408356Y44386605D01*
X33465538Y44403950D01*
X33526961Y44410000D01*
X35513039Y44410000D01*
X35574462Y44403950D01*
G37*
G36*
X50579194Y47450043D02*
G01*
X50815781Y47352046D01*
X50967621Y47250589D01*
X51028702Y47209776D01*
X51209776Y47028702D01*
X51209778Y47028699D01*
X51352046Y46815781D01*
X51450043Y46579194D01*
X51500000Y46328041D01*
X51500000Y46071959D01*
X51450043Y45820806D01*
X51352046Y45584219D01*
X51329181Y45550000D01*
X51209776Y45371298D01*
X51028702Y45190224D01*
X51028699Y45190222D01*
X50815781Y45047954D01*
X50579194Y44949957D01*
X50328041Y44900000D01*
X50071959Y44900000D01*
X49820806Y44949957D01*
X49584219Y45047954D01*
X49371301Y45190222D01*
X49371298Y45190224D01*
X49190224Y45371298D01*
X49070819Y45550000D01*
X49047954Y45584219D01*
X48949957Y45820806D01*
X48900000Y46071959D01*
X48900000Y46328041D01*
X48949957Y46579194D01*
X49047954Y46815781D01*
X49190222Y47028699D01*
X49190224Y47028702D01*
X49371298Y47209776D01*
X49432379Y47250589D01*
X49584219Y47352046D01*
X49820806Y47450043D01*
X50071959Y47500000D01*
X50328041Y47500000D01*
X50579194Y47450043D01*
G37*
G36*
X56825131Y47625790D02*
G01*
X56906274Y47609650D01*
X57018210Y47563284D01*
X57097361Y47530499D01*
X57097362Y47530498D01*
X57269336Y47415589D01*
X57415589Y47269336D01*
X57474423Y47181284D01*
X57530499Y47097361D01*
X57542814Y47067629D01*
X57609650Y46906274D01*
X57620233Y46853066D01*
X57650000Y46703419D01*
X57650000Y46496581D01*
X57625790Y46374869D01*
X57609650Y46293726D01*
X57563284Y46181790D01*
X57530499Y46102639D01*
X57530498Y46102638D01*
X57415589Y45930664D01*
X57269336Y45784411D01*
X57150147Y45704772D01*
X57097361Y45669501D01*
X57018210Y45636716D01*
X56906274Y45590350D01*
X56825131Y45574210D01*
X56703419Y45550000D01*
X56496581Y45550000D01*
X56374869Y45574210D01*
X56293726Y45590350D01*
X56181790Y45636716D01*
X56102639Y45669501D01*
X56049853Y45704772D01*
X55930664Y45784411D01*
X55784411Y45930664D01*
X55669502Y46102638D01*
X55669501Y46102639D01*
X55636716Y46181790D01*
X55590350Y46293726D01*
X55574210Y46374869D01*
X55550000Y46496581D01*
X55550000Y46703419D01*
X55579767Y46853066D01*
X55590350Y46906274D01*
X55657186Y47067629D01*
X55669501Y47097361D01*
X55725577Y47181284D01*
X55784411Y47269336D01*
X55930664Y47415589D01*
X56102638Y47530498D01*
X56102639Y47530499D01*
X56181790Y47563284D01*
X56293726Y47609650D01*
X56374869Y47625790D01*
X56496581Y47650000D01*
X56703419Y47650000D01*
X56825131Y47625790D01*
G37*
G36*
X23550000Y45550000D02*
G01*
X21550000Y45550000D01*
X21550000Y46950000D01*
X23550000Y46950000D01*
X23550000Y45550000D01*
G37*
G36*
X14450000Y45550000D02*
G01*
X12450000Y45550000D01*
X12450000Y46950000D01*
X14450000Y46950000D01*
X14450000Y45550000D01*
G37*
G36*
X35574462Y46943950D02*
G01*
X35631644Y46926605D01*
X35684341Y46898437D01*
X35730530Y46860530D01*
X35768437Y46814341D01*
X35796605Y46761644D01*
X35813950Y46704462D01*
X35820000Y46643039D01*
X35820000Y45956961D01*
X35813950Y45895538D01*
X35796605Y45838356D01*
X35768437Y45785659D01*
X35730530Y45739470D01*
X35684341Y45701563D01*
X35631644Y45673395D01*
X35574462Y45656050D01*
X35513039Y45650000D01*
X33526961Y45650000D01*
X33465538Y45656050D01*
X33408356Y45673395D01*
X33355659Y45701563D01*
X33309470Y45739470D01*
X33271563Y45785659D01*
X33243395Y45838356D01*
X33226050Y45895538D01*
X33220000Y45956961D01*
X33220000Y46643039D01*
X33226050Y46704462D01*
X33243395Y46761644D01*
X33271563Y46814341D01*
X33309470Y46860530D01*
X33355659Y46898437D01*
X33408356Y46926605D01*
X33465538Y46943950D01*
X33526961Y46950000D01*
X35513039Y46950000D01*
X35574462Y46943950D01*
G37*
G36*
X30074462Y46943950D02*
G01*
X30131644Y46926605D01*
X30184341Y46898437D01*
X30230530Y46860530D01*
X30268437Y46814341D01*
X30296605Y46761644D01*
X30313950Y46704462D01*
X30320000Y46643039D01*
X30320000Y45956961D01*
X30313950Y45895538D01*
X30296605Y45838356D01*
X30268437Y45785659D01*
X30230530Y45739470D01*
X30184341Y45701563D01*
X30131644Y45673395D01*
X30074462Y45656050D01*
X30013039Y45650000D01*
X28026961Y45650000D01*
X27965538Y45656050D01*
X27908356Y45673395D01*
X27855659Y45701563D01*
X27809470Y45739470D01*
X27771563Y45785659D01*
X27743395Y45838356D01*
X27726050Y45895538D01*
X27720000Y45956961D01*
X27720000Y46643039D01*
X27726050Y46704462D01*
X27743395Y46761644D01*
X27771563Y46814341D01*
X27809470Y46860530D01*
X27855659Y46898437D01*
X27908356Y46926605D01*
X27965538Y46943950D01*
X28026961Y46950000D01*
X30013039Y46950000D01*
X30074462Y46943950D01*
G37*
G36*
X123759382Y47250590D02*
G01*
X123827629Y47222321D01*
X123889045Y47181284D01*
X123941284Y47129045D01*
X123982321Y47067629D01*
X124010590Y46999382D01*
X124025000Y46926937D01*
X124025000Y46853063D01*
X124010590Y46780618D01*
X123982321Y46712371D01*
X123941284Y46650955D01*
X123889045Y46598716D01*
X123827629Y46557679D01*
X123759382Y46529410D01*
X123686937Y46515000D01*
X123613063Y46515000D01*
X123540618Y46529410D01*
X123472371Y46557679D01*
X123410955Y46598716D01*
X123358716Y46650955D01*
X123317679Y46712371D01*
X123289410Y46780618D01*
X123275000Y46853063D01*
X123275000Y46926937D01*
X123289410Y46999382D01*
X123317679Y47067629D01*
X123358716Y47129045D01*
X123410955Y47181284D01*
X123472371Y47222321D01*
X123540618Y47250590D01*
X123613063Y47265000D01*
X123686937Y47265000D01*
X123759382Y47250590D01*
G37*
G36*
X62897800Y47595500D02*
G01*
X59902200Y47595500D01*
X59902200Y50095800D01*
X62897800Y50095800D01*
X62897800Y47595500D01*
G37*
G36*
X127707819Y48862042D02*
G01*
X127811494Y48830592D01*
X127907042Y48779521D01*
X127990790Y48710790D01*
X128059521Y48627042D01*
X128110592Y48531494D01*
X128142042Y48427819D01*
X128152661Y48320000D01*
X128142042Y48212181D01*
X128110592Y48108506D01*
X128059521Y48012958D01*
X127990790Y47929210D01*
X127907042Y47860479D01*
X127811494Y47809408D01*
X127707819Y47777958D01*
X127627018Y47770000D01*
X126972982Y47770000D01*
X126892181Y47777958D01*
X126788506Y47809408D01*
X126692958Y47860479D01*
X126609210Y47929210D01*
X126540479Y48012958D01*
X126489408Y48108506D01*
X126457958Y48212181D01*
X126447339Y48320000D01*
X126457958Y48427819D01*
X126489408Y48531494D01*
X126540479Y48627042D01*
X126609210Y48710790D01*
X126692958Y48779521D01*
X126788506Y48830592D01*
X126892181Y48862042D01*
X126972982Y48870000D01*
X127627018Y48870000D01*
X127707819Y48862042D01*
G37*
G36*
X123687819Y48862042D02*
G01*
X123791494Y48830592D01*
X123887042Y48779521D01*
X123970790Y48710790D01*
X124039521Y48627042D01*
X124090592Y48531494D01*
X124122042Y48427819D01*
X124132661Y48320000D01*
X124122042Y48212181D01*
X124090592Y48108506D01*
X124039521Y48012958D01*
X123970790Y47929210D01*
X123887042Y47860479D01*
X123791494Y47809408D01*
X123687819Y47777958D01*
X123607018Y47770000D01*
X122452982Y47770000D01*
X122372181Y47777958D01*
X122268506Y47809408D01*
X122172958Y47860479D01*
X122089210Y47929210D01*
X122020479Y48012958D01*
X121969408Y48108506D01*
X121937958Y48212181D01*
X121927339Y48320000D01*
X121937958Y48427819D01*
X121969408Y48531494D01*
X122020479Y48627042D01*
X122089210Y48710790D01*
X122172958Y48779521D01*
X122268506Y48830592D01*
X122372181Y48862042D01*
X122452982Y48870000D01*
X123607018Y48870000D01*
X123687819Y48862042D01*
G37*
G36*
X30074462Y49483950D02*
G01*
X30131644Y49466605D01*
X30184341Y49438437D01*
X30230530Y49400530D01*
X30268437Y49354341D01*
X30296605Y49301644D01*
X30313950Y49244462D01*
X30320000Y49183039D01*
X30320000Y48496961D01*
X30313950Y48435538D01*
X30296605Y48378356D01*
X30268437Y48325659D01*
X30230530Y48279470D01*
X30184341Y48241563D01*
X30131644Y48213395D01*
X30074462Y48196050D01*
X30013039Y48190000D01*
X28026961Y48190000D01*
X27965538Y48196050D01*
X27908356Y48213395D01*
X27855659Y48241563D01*
X27809470Y48279470D01*
X27771563Y48325659D01*
X27743395Y48378356D01*
X27726050Y48435538D01*
X27720000Y48496961D01*
X27720000Y49183039D01*
X27726050Y49244462D01*
X27743395Y49301644D01*
X27771563Y49354341D01*
X27809470Y49400530D01*
X27855659Y49438437D01*
X27908356Y49466605D01*
X27965538Y49483950D01*
X28026961Y49490000D01*
X30013039Y49490000D01*
X30074462Y49483950D01*
G37*
G36*
X35574462Y49483950D02*
G01*
X35631644Y49466605D01*
X35684341Y49438437D01*
X35730530Y49400530D01*
X35768437Y49354341D01*
X35796605Y49301644D01*
X35813950Y49244462D01*
X35820000Y49183039D01*
X35820000Y48496961D01*
X35813950Y48435538D01*
X35796605Y48378356D01*
X35768437Y48325659D01*
X35730530Y48279470D01*
X35684341Y48241563D01*
X35631644Y48213395D01*
X35574462Y48196050D01*
X35513039Y48190000D01*
X33526961Y48190000D01*
X33465538Y48196050D01*
X33408356Y48213395D01*
X33355659Y48241563D01*
X33309470Y48279470D01*
X33271563Y48325659D01*
X33243395Y48378356D01*
X33226050Y48435538D01*
X33220000Y48496961D01*
X33220000Y49183039D01*
X33226050Y49244462D01*
X33243395Y49301644D01*
X33271563Y49354341D01*
X33309470Y49400530D01*
X33355659Y49438437D01*
X33408356Y49466605D01*
X33465538Y49483950D01*
X33526961Y49490000D01*
X35513039Y49490000D01*
X35574462Y49483950D01*
G37*
G36*
X50579194Y50950043D02*
G01*
X50815781Y50852046D01*
X50989380Y50736050D01*
X51028702Y50709776D01*
X51209776Y50528702D01*
X51209778Y50528699D01*
X51352046Y50315781D01*
X51450043Y50079194D01*
X51500000Y49828041D01*
X51500000Y49571959D01*
X51450043Y49320806D01*
X51352046Y49084219D01*
X51210420Y48872262D01*
X51209776Y48871298D01*
X51028702Y48690224D01*
X51028699Y48690222D01*
X50815781Y48547954D01*
X50579194Y48449957D01*
X50328041Y48400000D01*
X50071959Y48400000D01*
X49820806Y48449957D01*
X49584219Y48547954D01*
X49371301Y48690222D01*
X49371298Y48690224D01*
X49190224Y48871298D01*
X49189580Y48872262D01*
X49047954Y49084219D01*
X48949957Y49320806D01*
X48900000Y49571959D01*
X48900000Y49828041D01*
X48949957Y50079194D01*
X49047954Y50315781D01*
X49190222Y50528699D01*
X49190224Y50528702D01*
X49371298Y50709776D01*
X49410620Y50736050D01*
X49584219Y50852046D01*
X49820806Y50950043D01*
X50071959Y51000000D01*
X50328041Y51000000D01*
X50579194Y50950043D01*
G37*
G36*
X58021500Y48560500D02*
G01*
X55178500Y48560500D01*
X55178500Y50819500D01*
X58021500Y50819500D01*
X58021500Y48560500D01*
G37*
G36*
X30074462Y52023950D02*
G01*
X30131644Y52006605D01*
X30184341Y51978437D01*
X30230530Y51940530D01*
X30268437Y51894341D01*
X30296605Y51841644D01*
X30313950Y51784462D01*
X30320000Y51723039D01*
X30320000Y51036961D01*
X30313950Y50975538D01*
X30296605Y50918356D01*
X30268437Y50865659D01*
X30230530Y50819470D01*
X30184341Y50781563D01*
X30131644Y50753395D01*
X30074462Y50736050D01*
X30013039Y50730000D01*
X28026961Y50730000D01*
X27965538Y50736050D01*
X27908356Y50753395D01*
X27855659Y50781563D01*
X27809470Y50819470D01*
X27771563Y50865659D01*
X27743395Y50918356D01*
X27726050Y50975538D01*
X27720000Y51036961D01*
X27720000Y51723039D01*
X27726050Y51784462D01*
X27743395Y51841644D01*
X27771563Y51894341D01*
X27809470Y51940530D01*
X27855659Y51978437D01*
X27908356Y52006605D01*
X27965538Y52023950D01*
X28026961Y52030000D01*
X30013039Y52030000D01*
X30074462Y52023950D01*
G37*
G36*
X35574462Y52023950D02*
G01*
X35631644Y52006605D01*
X35684341Y51978437D01*
X35730530Y51940530D01*
X35768437Y51894341D01*
X35796605Y51841644D01*
X35813950Y51784462D01*
X35820000Y51723039D01*
X35820000Y51036961D01*
X35813950Y50975538D01*
X35796605Y50918356D01*
X35768437Y50865659D01*
X35730530Y50819470D01*
X35684341Y50781563D01*
X35631644Y50753395D01*
X35574462Y50736050D01*
X35513039Y50730000D01*
X33526961Y50730000D01*
X33465538Y50736050D01*
X33408356Y50753395D01*
X33355659Y50781563D01*
X33309470Y50819470D01*
X33271563Y50865659D01*
X33243395Y50918356D01*
X33226050Y50975538D01*
X33220000Y51036961D01*
X33220000Y51723039D01*
X33226050Y51784462D01*
X33243395Y51841644D01*
X33271563Y51894341D01*
X33309470Y51940530D01*
X33355659Y51978437D01*
X33408356Y52006605D01*
X33465538Y52023950D01*
X33526961Y52030000D01*
X35513039Y52030000D01*
X35574462Y52023950D01*
G37*
G36*
X50579194Y55350043D02*
G01*
X50815781Y55252046D01*
X51027738Y55110420D01*
X51028702Y55109776D01*
X51209776Y54928702D01*
X51209778Y54928699D01*
X51352046Y54715781D01*
X51450043Y54479194D01*
X51500000Y54228041D01*
X51500000Y53971959D01*
X51450043Y53720806D01*
X51352046Y53484219D01*
X51210420Y53272262D01*
X51209776Y53271298D01*
X51028702Y53090224D01*
X51028699Y53090222D01*
X50815781Y52947954D01*
X50579194Y52849957D01*
X50328041Y52800000D01*
X50071959Y52800000D01*
X49820806Y52849957D01*
X49584219Y52947954D01*
X49371301Y53090222D01*
X49371298Y53090224D01*
X49190224Y53271298D01*
X49189580Y53272262D01*
X49047954Y53484219D01*
X48949957Y53720806D01*
X48900000Y53971959D01*
X48900000Y54228041D01*
X48949957Y54479194D01*
X49047954Y54715781D01*
X49190222Y54928699D01*
X49190224Y54928702D01*
X49371298Y55109776D01*
X49372262Y55110420D01*
X49584219Y55252046D01*
X49820806Y55350043D01*
X50071959Y55400000D01*
X50328041Y55400000D01*
X50579194Y55350043D01*
G37*
G36*
X58021500Y52980500D02*
G01*
X55178500Y52980500D01*
X55178500Y55239500D01*
X58021500Y55239500D01*
X58021500Y52980500D01*
G37*
G36*
X62897800Y53704200D02*
G01*
X59902200Y53704200D01*
X59902200Y56204500D01*
X62897800Y56204500D01*
X62897800Y53704200D01*
G37*
G36*
X32340935Y57951571D02*
G01*
X32437534Y57932356D01*
X32710517Y57819283D01*
X32956194Y57655126D01*
X33165126Y57446194D01*
X33329283Y57200517D01*
X33418876Y56984219D01*
X33442356Y56927533D01*
X33500000Y56637739D01*
X33500000Y56342261D01*
X33485527Y56269502D01*
X33442356Y56052466D01*
X33329283Y55779483D01*
X33165126Y55533806D01*
X32956194Y55324874D01*
X32710517Y55160717D01*
X32437534Y55047644D01*
X32340935Y55028429D01*
X32147739Y54990000D01*
X31852261Y54990000D01*
X31659065Y55028429D01*
X31562466Y55047644D01*
X31289483Y55160717D01*
X31043806Y55324874D01*
X30834874Y55533806D01*
X30670717Y55779483D01*
X30557644Y56052466D01*
X30514473Y56269502D01*
X30500000Y56342261D01*
X30500000Y56637739D01*
X30557644Y56927533D01*
X30581124Y56984219D01*
X30670717Y57200517D01*
X30834874Y57446194D01*
X31043806Y57655126D01*
X31289483Y57819283D01*
X31562466Y57932356D01*
X31659065Y57951571D01*
X31852261Y57990000D01*
X32147739Y57990000D01*
X32340935Y57951571D01*
G37*
G36*
X127340935Y57951571D02*
G01*
X127437534Y57932356D01*
X127710517Y57819283D01*
X127956194Y57655126D01*
X128165126Y57446194D01*
X128329283Y57200517D01*
X128418876Y56984219D01*
X128442356Y56927533D01*
X128500000Y56637739D01*
X128500000Y56342261D01*
X128485527Y56269502D01*
X128442356Y56052466D01*
X128329283Y55779483D01*
X128165126Y55533806D01*
X127956194Y55324874D01*
X127710517Y55160717D01*
X127437534Y55047644D01*
X127340935Y55028429D01*
X127147739Y54990000D01*
X126852261Y54990000D01*
X126659065Y55028429D01*
X126562466Y55047644D01*
X126289483Y55160717D01*
X126043806Y55324874D01*
X125834874Y55533806D01*
X125670717Y55779483D01*
X125557644Y56052466D01*
X125514473Y56269502D01*
X125500000Y56342261D01*
X125500000Y56637739D01*
X125557644Y56927533D01*
X125581124Y56984219D01*
X125670717Y57200517D01*
X125834874Y57446194D01*
X126043806Y57655126D01*
X126289483Y57819283D01*
X126562466Y57932356D01*
X126659065Y57951571D01*
X126852261Y57990000D01*
X127147739Y57990000D01*
X127340935Y57951571D01*
G37*
G36*
X3393779Y57798121D02*
G01*
X3639465Y57696355D01*
X3860572Y57548616D01*
X4048616Y57360572D01*
X4196355Y57139465D01*
X4298121Y56893779D01*
X4350000Y56632966D01*
X4350000Y56367034D01*
X4298121Y56106221D01*
X4196355Y55860535D01*
X4048616Y55639428D01*
X3860572Y55451384D01*
X3639465Y55303645D01*
X3393779Y55201879D01*
X3132966Y55150000D01*
X2867034Y55150000D01*
X2606221Y55201879D01*
X2360535Y55303645D01*
X2139428Y55451384D01*
X1951384Y55639428D01*
X1803645Y55860535D01*
X1701879Y56106221D01*
X1650000Y56367034D01*
X1650000Y56632966D01*
X1701879Y56893779D01*
X1803645Y57139465D01*
X1951384Y57360572D01*
X2139428Y57548616D01*
X2360535Y57696355D01*
X2606221Y57798121D01*
X2867034Y57850000D01*
X3132966Y57850000D01*
X3393779Y57798121D01*
G37*
G36*
X56825131Y58225790D02*
G01*
X56906274Y58209650D01*
X57018210Y58163284D01*
X57097361Y58130499D01*
X57097362Y58130498D01*
X57269336Y58015589D01*
X57415589Y57869336D01*
X57501966Y57740063D01*
X57530499Y57697361D01*
X57530916Y57696354D01*
X57609650Y57506274D01*
X57621600Y57446194D01*
X57650000Y57303419D01*
X57650000Y57096581D01*
X57627650Y56984219D01*
X57609650Y56893726D01*
X57563284Y56781790D01*
X57530499Y56702639D01*
X57530498Y56702638D01*
X57415589Y56530664D01*
X57269336Y56384411D01*
X57143006Y56300000D01*
X57097361Y56269501D01*
X57018210Y56236716D01*
X56906274Y56190350D01*
X56825131Y56174210D01*
X56703419Y56150000D01*
X56496581Y56150000D01*
X56374869Y56174210D01*
X56293726Y56190350D01*
X56181790Y56236716D01*
X56102639Y56269501D01*
X56056994Y56300000D01*
X55930664Y56384411D01*
X55784411Y56530664D01*
X55669502Y56702638D01*
X55669501Y56702639D01*
X55636716Y56781790D01*
X55590350Y56893726D01*
X55572350Y56984219D01*
X55550000Y57096581D01*
X55550000Y57303419D01*
X55578400Y57446194D01*
X55590350Y57506274D01*
X55669084Y57696354D01*
X55669501Y57697361D01*
X55698034Y57740063D01*
X55784411Y57869336D01*
X55930664Y58015589D01*
X56102638Y58130498D01*
X56102639Y58130499D01*
X56181790Y58163284D01*
X56293726Y58209650D01*
X56374869Y58225790D01*
X56496581Y58250000D01*
X56703419Y58250000D01*
X56825131Y58225790D01*
G37*
G36*
X50579194Y58850043D02*
G01*
X50815781Y58752046D01*
X51027738Y58610420D01*
X51028702Y58609776D01*
X51209776Y58428702D01*
X51209778Y58428699D01*
X51352046Y58215781D01*
X51450043Y57979194D01*
X51500000Y57728041D01*
X51500000Y57471959D01*
X51450043Y57220806D01*
X51352046Y56984219D01*
X51291580Y56893726D01*
X51209776Y56771298D01*
X51028702Y56590224D01*
X51028699Y56590222D01*
X50815781Y56447954D01*
X50579194Y56349957D01*
X50328041Y56300000D01*
X50071959Y56300000D01*
X49820806Y56349957D01*
X49584219Y56447954D01*
X49371301Y56590222D01*
X49371298Y56590224D01*
X49190224Y56771298D01*
X49108420Y56893726D01*
X49047954Y56984219D01*
X48949957Y57220806D01*
X48900000Y57471959D01*
X48900000Y57728041D01*
X48949957Y57979194D01*
X49047954Y58215781D01*
X49190222Y58428699D01*
X49190224Y58428702D01*
X49371298Y58609776D01*
X49372262Y58610420D01*
X49584219Y58752046D01*
X49820806Y58850043D01*
X50071959Y58900000D01*
X50328041Y58900000D01*
X50579194Y58850043D01*
G37*
M02*
