M48
; DRILL file {KiCad (5.1.4)-1} date 4/3/2020 8:38:13 PM
; FORMAT={2:4/ absolute / inch / suppress trailing zeros}
; #@! TF.CreationDate,2020-04-03T20:38:13+08:00
; #@! TF.GenerationSoftware,Kicad,Pcbnew,(5.1.4)-1
FMAT,2
INCH,LZ
T1C0.0118
T2C0.0157
T3C0.0197
T4C0.0236
T5C0.0256
T6C0.0315
T7C0.0374
T8C0.0394
T9C0.0472
T10C0.0394
T11C0.0472
T12C0.1024
T13C0.1142
%
G90
G05
T1
X003622Y016772
X003622Y015827
X00463Y014567
X00513Y013465
X00563Y014291
X00613Y014567
X00663Y017205
X00663Y015827
X007126Y016929
X007126Y015827
X008543Y015512
X009291Y015512
X018661Y015236
X018661Y016811
X018898Y010906
X018898Y009646
X019094Y012323
X019094Y011929
X019094Y011535
X019291Y010906
X019291Y009646
X019449Y016535
X019449Y015236
X020236Y01626
X020236Y015236
X021024Y015984
X021024Y015236
X02248Y016575
X02248Y015787
X022835Y016811
X022835Y015787
X028425Y016575
X028425Y015984
X02878Y016811
X02878Y015906
X044213Y009646
X048681Y018012
X048681Y017677
X048681Y017165
X049744Y018012
T2
X00163Y014567
X003937Y005197
X00663Y00711
X00663Y004016
X008583Y008307
X009213Y008307
X009213Y007756
X009213Y004705
X010354Y013228
X018236Y001299
X018976Y001417
X022402Y008307
X028327Y004823
X028327Y000472
X028346Y008307
X043186Y009094
X043189Y008465
X045118Y009016
X045748Y009016
T3
X000787Y005197
X000866Y013819
X000866Y013031
X000866Y012244
X000866Y011457
X000866Y010669
X000866Y009882
X000866Y009094
X001457Y013425
X001457Y012638
X001457Y01185
X001457Y011063
X001457Y010276
X001457Y009488
X001969Y004173
X002047Y013031
X002047Y012244
X002047Y011457
X002047Y010669
X002047Y009882
X002047Y009094
X002638Y012638
X002638Y01185
X002638Y011063
X002638Y010276
X002638Y009488
X003228Y013031
X003228Y009094
X003819Y012638
X003819Y009488
X004409Y009094
X005Y009488
X005591Y012244
X005591Y011457
X005591Y010669
X005591Y009882
X005591Y009094
X005748Y001024
X006181Y01185
X006181Y011063
X006181Y010276
X006181Y009488
X006772Y012244
X006772Y011457
X006772Y010669
X006772Y009882
X006772Y009094
X007992Y001024
X010118Y001693
X016142Y012441
X016142Y01185
X016142Y01126
X016142Y00705
X016732Y012441
X016732Y01185
X016732Y01126
X017323Y012441
X017323Y01185
X017717Y007047
X017913Y012441
X017913Y01185
X019291Y007953
X019803Y007953
X020315Y009724
X020315Y009134
X020315Y008543
X020315Y007953
X020827Y012323
X020827Y011929
X020827Y011535
X020827Y009724
X020827Y009134
X020827Y008543
X020827Y007953
X022953Y012008
X023031Y014213
X02374Y012638
X02378Y022913
X02378Y02252
X02378Y018346
X02378Y017953
X024173Y022913
X024173Y02252
X024173Y018346
X024173Y017953
X024193Y014882
X024193Y014528
X024547Y014882
X024547Y014528
X024567Y022913
X024567Y02252
X024567Y018346
X024567Y017953
X024902Y014882
X024902Y014528
X025256Y014882
X025256Y014528
X026122Y014882
X026122Y014528
X026476Y014882
X026476Y014528
X026831Y014882
X026831Y014528
X027185Y014882
X027185Y014528
X028583Y012008
X028976Y014213
X029724Y012638
X030138Y01872
X030138Y018366
X030138Y018012
X030138Y017657
X030138Y014882
X030138Y014528
X030492Y018366
X030492Y018012
X030492Y017657
X030492Y014882
X030492Y014528
X030846Y018012
X030846Y017657
X030846Y014882
X030846Y014528
X031201Y017657
X031201Y014882
X031201Y014528
X032067Y021909
X032067Y021555
X032067Y021201
X032067Y020846
X032067Y014882
X032067Y014528
X032421Y021555
X032421Y021201
X032421Y020846
X032421Y014882
X032421Y014528
X032776Y021201
X032776Y020846
X032776Y014882
X032776Y014528
X03313Y020846
X03313Y014882
X03313Y014528
X033819Y01689
X033819Y015118
X033819Y014409
X034055Y012165
X034055Y010315
X034055Y009724
X034528Y010315
X034528Y009724
X035Y010315
X035Y009724
X035472Y010315
X035472Y009724
X035945Y010315
X035945Y009724
X036654Y008465
X036988Y018799
X036988Y018504
X036988Y018209
X037323Y018799
X037323Y018504
X037323Y018209
X038268Y022913
X038268Y022126
X038268Y021339
X038268Y020551
X038268Y019764
X038346Y01748
X038346Y017008
X038346Y015591
X038346Y015118
X038346Y014646
X038346Y014173
X038346Y013701
X038346Y012283
X038346Y011811
X038346Y011339
X038661Y02252
X038661Y021732
X038661Y020945
X038661Y020157
X038819Y014646
X038819Y011339
X039055Y022126
X039055Y021339
X039055Y020551
X039055Y019764
X039291Y014646
X039291Y011339
X039449Y021693
X039449Y020945
X039449Y020157
X039764Y011339
X039843Y021339
X039843Y020551
X040236Y020945
X040236Y011339
X040709Y011339
X040787Y02126
X040787Y02063
X041181Y011339
X04126Y018898
X04126Y018504
X04126Y01811
X041417Y02126
X041417Y02063
X041614Y018898
X041614Y018504
X041614Y01811
X041654Y011339
X04189Y020945
X042126Y011811
X042126Y011339
X042362Y02126
X042362Y02063
X04311Y02126
X04311Y02063
X043976Y011339
X044409Y011339
X044488Y008465
X044843Y011339
X046969Y010748
X04811Y011496
X048425Y006693
X050157Y013976
X050157Y013583
X05063Y013976
X05063Y013583
X011583Y008268
X011583Y007768
X012083Y008268
X012083Y007768
X012583Y008268
X012583Y007768
X013083Y008268
X013083Y007768
X013583Y008268
X013583Y007768
T5
X048681Y018461
X048681Y016185
T6
X003441Y011783
X003441Y011063
X003441Y010343
X004161Y011783
X004161Y011063
X004161Y010343
X004882Y011783
X004882Y011063
X004882Y010343
X01122Y003937
X012795Y003937
T7
X030039Y007402
X031024Y007402
X032008Y007402
X032992Y007402
X024094Y007402
X025079Y007402
X026063Y007402
X027047Y007402
T8
X022283Y02252
X022283Y018346
T9
X019764Y022677
X019764Y021299
X019764Y019567
X019764Y018189
T10
X012508Y013728
T11
X029409Y006614
X023465Y006614
T12
X05Y001378
X001181Y001378
X001181Y022244
T13
X012598Y02224
X012598Y01102
X05Y02224
X05Y01102
T3
G00X04876Y014764
M15
G01X050531Y014764
M16
G05
T4
G00X04822Y019024
M15
G01X048654Y019024
M16
G05
G00X048256Y015622
M15
G01X048689Y015622
M16
G05
G00X05Y019024
M15
G01X050236Y019024
M16
G05
G00X05Y015622
M15
G01X050236Y015622
M16
G05
T0
M30
