G04 #@! TF.GenerationSoftware,KiCad,Pcbnew,(5.1.4)-1*
G04 #@! TF.CreationDate,2020-04-03T20:38:11+08:00*
G04 #@! TF.ProjectId,SmartAPS,536d6172-7441-4505-932e-6b696361645f,1.0*
G04 #@! TF.SameCoordinates,PX5f5e100PY7bfa480*
G04 #@! TF.FileFunction,Legend,Top*
G04 #@! TF.FilePolarity,Positive*
%FSLAX46Y46*%
G04 Gerber Fmt 4.6, Leading zero omitted, Abs format (unit mm)*
G04 Created by KiCad (PCBNEW (5.1.4)-1) date 2020-04-03 20:38:11*
%MOMM*%
%LPD*%
G04 APERTURE LIST*
%ADD10C,0.150000*%
%ADD11C,0.300000*%
%ADD12C,0.120000*%
%ADD13C,0.200000*%
%ADD14C,0.100000*%
%ADD15C,0.250000*%
%ADD16C,0.350000*%
G04 APERTURE END LIST*
D10*
X5080952Y35747620D02*
X5080952Y35033334D01*
X5033333Y34890477D01*
X4938095Y34795239D01*
X4795238Y34747620D01*
X4700000Y34747620D01*
X6033333Y34747620D02*
X5557142Y34747620D01*
X5557142Y35747620D01*
X6938095Y34842858D02*
X6890476Y34795239D01*
X6747619Y34747620D01*
X6652380Y34747620D01*
X6509523Y34795239D01*
X6414285Y34890477D01*
X6366666Y34985715D01*
X6319047Y35176191D01*
X6319047Y35319048D01*
X6366666Y35509524D01*
X6414285Y35604762D01*
X6509523Y35700000D01*
X6652380Y35747620D01*
X6747619Y35747620D01*
X6890476Y35700000D01*
X6938095Y35652381D01*
X7652380Y35747620D02*
X7652380Y35033334D01*
X7604761Y34890477D01*
X7509523Y34795239D01*
X7366666Y34747620D01*
X7271428Y34747620D01*
X8604761Y34747620D02*
X8128571Y34747620D01*
X8128571Y35747620D01*
X9509523Y34842858D02*
X9461904Y34795239D01*
X9319047Y34747620D01*
X9223809Y34747620D01*
X9080952Y34795239D01*
X8985714Y34890477D01*
X8938095Y34985715D01*
X8890476Y35176191D01*
X8890476Y35319048D01*
X8938095Y35509524D01*
X8985714Y35604762D01*
X9080952Y35700000D01*
X9223809Y35747620D01*
X9319047Y35747620D01*
X9461904Y35700000D01*
X9509523Y35652381D01*
X10223809Y35747620D02*
X10223809Y35033334D01*
X10176190Y34890477D01*
X10080952Y34795239D01*
X9938095Y34747620D01*
X9842857Y34747620D01*
X11176190Y34747620D02*
X10700000Y34747620D01*
X10700000Y35747620D01*
X12080952Y34842858D02*
X12033333Y34795239D01*
X11890476Y34747620D01*
X11795238Y34747620D01*
X11652380Y34795239D01*
X11557142Y34890477D01*
X11509523Y34985715D01*
X11461904Y35176191D01*
X11461904Y35319048D01*
X11509523Y35509524D01*
X11557142Y35604762D01*
X11652380Y35700000D01*
X11795238Y35747620D01*
X11890476Y35747620D01*
X12033333Y35700000D01*
X12080952Y35652381D01*
X12795238Y35747620D02*
X12795238Y35033334D01*
X12747619Y34890477D01*
X12652380Y34795239D01*
X12509523Y34747620D01*
X12414285Y34747620D01*
X13747619Y34747620D02*
X13271428Y34747620D01*
X13271428Y35747620D01*
X14652380Y34842858D02*
X14604761Y34795239D01*
X14461904Y34747620D01*
X14366666Y34747620D01*
X14223809Y34795239D01*
X14128571Y34890477D01*
X14080952Y34985715D01*
X14033333Y35176191D01*
X14033333Y35319048D01*
X14080952Y35509524D01*
X14128571Y35604762D01*
X14223809Y35700000D01*
X14366666Y35747620D01*
X14461904Y35747620D01*
X14604761Y35700000D01*
X14652380Y35652381D01*
X121680952Y1452381D02*
X121728571Y1500000D01*
X121823809Y1547620D01*
X122061904Y1547620D01*
X122157142Y1500000D01*
X122204761Y1452381D01*
X122252380Y1357143D01*
X122252380Y1261905D01*
X122204761Y1119048D01*
X121633333Y547620D01*
X122252380Y547620D01*
X122871428Y1547620D02*
X122966666Y1547620D01*
X123061904Y1500000D01*
X123109523Y1452381D01*
X123157142Y1357143D01*
X123204761Y1166667D01*
X123204761Y928572D01*
X123157142Y738096D01*
X123109523Y642858D01*
X123061904Y595239D01*
X122966666Y547620D01*
X122871428Y547620D01*
X122776190Y595239D01*
X122728571Y642858D01*
X122680952Y738096D01*
X122633333Y928572D01*
X122633333Y1166667D01*
X122680952Y1357143D01*
X122728571Y1452381D01*
X122776190Y1500000D01*
X122871428Y1547620D01*
X123585714Y1452381D02*
X123633333Y1500000D01*
X123728571Y1547620D01*
X123966666Y1547620D01*
X124061904Y1500000D01*
X124109523Y1452381D01*
X124157142Y1357143D01*
X124157142Y1261905D01*
X124109523Y1119048D01*
X123538095Y547620D01*
X124157142Y547620D01*
X124776190Y1547620D02*
X124871428Y1547620D01*
X124966666Y1500000D01*
X125014285Y1452381D01*
X125061904Y1357143D01*
X125109523Y1166667D01*
X125109523Y928572D01*
X125061904Y738096D01*
X125014285Y642858D01*
X124966666Y595239D01*
X124871428Y547620D01*
X124776190Y547620D01*
X124680952Y595239D01*
X124633333Y642858D01*
X124585714Y738096D01*
X124538095Y928572D01*
X124538095Y1166667D01*
X124585714Y1357143D01*
X124633333Y1452381D01*
X124680952Y1500000D01*
X124776190Y1547620D01*
X125728571Y1547620D02*
X125823809Y1547620D01*
X125919047Y1500000D01*
X125966666Y1452381D01*
X126014285Y1357143D01*
X126061904Y1166667D01*
X126061904Y928572D01*
X126014285Y738096D01*
X125966666Y642858D01*
X125919047Y595239D01*
X125823809Y547620D01*
X125728571Y547620D01*
X125633333Y595239D01*
X125585714Y642858D01*
X125538095Y738096D01*
X125490476Y928572D01*
X125490476Y1166667D01*
X125538095Y1357143D01*
X125585714Y1452381D01*
X125633333Y1500000D01*
X125728571Y1547620D01*
X126919047Y1214286D02*
X126919047Y547620D01*
X126680952Y1595239D02*
X126442857Y880953D01*
X127061904Y880953D01*
X127633333Y1547620D02*
X127728571Y1547620D01*
X127823809Y1500000D01*
X127871428Y1452381D01*
X127919047Y1357143D01*
X127966666Y1166667D01*
X127966666Y928572D01*
X127919047Y738096D01*
X127871428Y642858D01*
X127823809Y595239D01*
X127728571Y547620D01*
X127633333Y547620D01*
X127538095Y595239D01*
X127490476Y642858D01*
X127442857Y738096D01*
X127395238Y928572D01*
X127395238Y1166667D01*
X127442857Y1357143D01*
X127490476Y1452381D01*
X127538095Y1500000D01*
X127633333Y1547620D01*
X128347619Y1452381D02*
X128395238Y1500000D01*
X128490476Y1547620D01*
X128728571Y1547620D01*
X128823809Y1500000D01*
X128871428Y1452381D01*
X128919047Y1357143D01*
X128919047Y1261905D01*
X128871428Y1119048D01*
X128300000Y547620D01*
X128919047Y547620D01*
D11*
X6980714Y56967858D02*
X7195000Y56896429D01*
X7552142Y56896429D01*
X7695000Y56967858D01*
X7766428Y57039286D01*
X7837857Y57182143D01*
X7837857Y57325000D01*
X7766428Y57467858D01*
X7695000Y57539286D01*
X7552142Y57610715D01*
X7266428Y57682143D01*
X7123571Y57753572D01*
X7052142Y57825000D01*
X6980714Y57967858D01*
X6980714Y58110715D01*
X7052142Y58253572D01*
X7123571Y58325000D01*
X7266428Y58396429D01*
X7623571Y58396429D01*
X7837857Y58325000D01*
X8480714Y56896429D02*
X8480714Y57896429D01*
X8480714Y57753572D02*
X8552142Y57825000D01*
X8695000Y57896429D01*
X8909285Y57896429D01*
X9052142Y57825000D01*
X9123571Y57682143D01*
X9123571Y56896429D01*
X9123571Y57682143D02*
X9195000Y57825000D01*
X9337857Y57896429D01*
X9552142Y57896429D01*
X9695000Y57825000D01*
X9766428Y57682143D01*
X9766428Y56896429D01*
X11123571Y56896429D02*
X11123571Y57682143D01*
X11052142Y57825000D01*
X10909285Y57896429D01*
X10623571Y57896429D01*
X10480714Y57825000D01*
X11123571Y56967858D02*
X10980714Y56896429D01*
X10623571Y56896429D01*
X10480714Y56967858D01*
X10409285Y57110715D01*
X10409285Y57253572D01*
X10480714Y57396429D01*
X10623571Y57467858D01*
X10980714Y57467858D01*
X11123571Y57539286D01*
X11837857Y56896429D02*
X11837857Y57896429D01*
X11837857Y57610715D02*
X11909285Y57753572D01*
X11980714Y57825000D01*
X12123571Y57896429D01*
X12266428Y57896429D01*
X12552142Y57896429D02*
X13123571Y57896429D01*
X12766428Y58396429D02*
X12766428Y57110715D01*
X12837857Y56967858D01*
X12980714Y56896429D01*
X13123571Y56896429D01*
X14695000Y57325000D02*
X15409285Y57325000D01*
X14552142Y56896429D02*
X15052142Y58396429D01*
X15552142Y56896429D01*
X16052142Y56896429D02*
X16052142Y58396429D01*
X16623571Y58396429D01*
X16766428Y58325000D01*
X16837857Y58253572D01*
X16909285Y58110715D01*
X16909285Y57896429D01*
X16837857Y57753572D01*
X16766428Y57682143D01*
X16623571Y57610715D01*
X16052142Y57610715D01*
X17480714Y56967858D02*
X17695000Y56896429D01*
X18052142Y56896429D01*
X18195000Y56967858D01*
X18266428Y57039286D01*
X18337857Y57182143D01*
X18337857Y57325000D01*
X18266428Y57467858D01*
X18195000Y57539286D01*
X18052142Y57610715D01*
X17766428Y57682143D01*
X17623571Y57753572D01*
X17552142Y57825000D01*
X17480714Y57967858D01*
X17480714Y58110715D01*
X17552142Y58253572D01*
X17623571Y58325000D01*
X17766428Y58396429D01*
X18123571Y58396429D01*
X18337857Y58325000D01*
X6909285Y55346429D02*
X7195000Y54346429D01*
X7480714Y55060715D01*
X7766428Y54346429D01*
X8052142Y55346429D01*
X8480714Y55346429D02*
X8766428Y54346429D01*
X9052142Y55060715D01*
X9337857Y54346429D01*
X9623571Y55346429D01*
X10052142Y55346429D02*
X10337857Y54346429D01*
X10623571Y55060715D01*
X10909285Y54346429D01*
X11195000Y55346429D01*
X11766428Y54489286D02*
X11837857Y54417858D01*
X11766428Y54346429D01*
X11695000Y54417858D01*
X11766428Y54489286D01*
X11766428Y54346429D01*
X12480714Y54346429D02*
X12480714Y55846429D01*
X12480714Y55275000D02*
X12623571Y55346429D01*
X12909285Y55346429D01*
X13052142Y55275000D01*
X13123571Y55203572D01*
X13195000Y55060715D01*
X13195000Y54632143D01*
X13123571Y54489286D01*
X13052142Y54417858D01*
X12909285Y54346429D01*
X12623571Y54346429D01*
X12480714Y54417858D01*
X14480714Y54346429D02*
X14480714Y55132143D01*
X14409285Y55275000D01*
X14266428Y55346429D01*
X13980714Y55346429D01*
X13837857Y55275000D01*
X14480714Y54417858D02*
X14337857Y54346429D01*
X13980714Y54346429D01*
X13837857Y54417858D01*
X13766428Y54560715D01*
X13766428Y54703572D01*
X13837857Y54846429D01*
X13980714Y54917858D01*
X14337857Y54917858D01*
X14480714Y54989286D01*
X15480714Y55846429D02*
X15623571Y55846429D01*
X15766428Y55775000D01*
X15837857Y55703572D01*
X15909285Y55560715D01*
X15980714Y55275000D01*
X15980714Y54917858D01*
X15909285Y54632143D01*
X15837857Y54489286D01*
X15766428Y54417858D01*
X15623571Y54346429D01*
X15480714Y54346429D01*
X15337857Y54417858D01*
X15266428Y54489286D01*
X15195000Y54632143D01*
X15123571Y54917858D01*
X15123571Y55275000D01*
X15195000Y55560715D01*
X15266428Y55703572D01*
X15337857Y55775000D01*
X15480714Y55846429D01*
X16552142Y54417858D02*
X16695000Y54346429D01*
X16980714Y54346429D01*
X17123571Y54417858D01*
X17195000Y54560715D01*
X17195000Y54632143D01*
X17123571Y54775000D01*
X16980714Y54846429D01*
X16766428Y54846429D01*
X16623571Y54917858D01*
X16552142Y55060715D01*
X16552142Y55132143D01*
X16623571Y55275000D01*
X16766428Y55346429D01*
X16980714Y55346429D01*
X17123571Y55275000D01*
X17837857Y54346429D02*
X17837857Y55846429D01*
X18480714Y54346429D02*
X18480714Y55132143D01*
X18409285Y55275000D01*
X18266428Y55346429D01*
X18052142Y55346429D01*
X17909285Y55275000D01*
X17837857Y55203572D01*
X19980714Y54346429D02*
X19123571Y54346429D01*
X19552142Y54346429D02*
X19552142Y55846429D01*
X19409285Y55632143D01*
X19266428Y55489286D01*
X19123571Y55417858D01*
X20623571Y54489286D02*
X20695000Y54417858D01*
X20623571Y54346429D01*
X20552142Y54417858D01*
X20623571Y54489286D01*
X20623571Y54346429D01*
X21980714Y54417858D02*
X21837857Y54346429D01*
X21552142Y54346429D01*
X21409285Y54417858D01*
X21337857Y54489286D01*
X21266428Y54632143D01*
X21266428Y55060715D01*
X21337857Y55203572D01*
X21409285Y55275000D01*
X21552142Y55346429D01*
X21837857Y55346429D01*
X21980714Y55275000D01*
X22837857Y54346429D02*
X22695000Y54417858D01*
X22623571Y54489286D01*
X22552142Y54632143D01*
X22552142Y55060715D01*
X22623571Y55203572D01*
X22695000Y55275000D01*
X22837857Y55346429D01*
X23052142Y55346429D01*
X23195000Y55275000D01*
X23266428Y55203572D01*
X23337857Y55060715D01*
X23337857Y54632143D01*
X23266428Y54489286D01*
X23195000Y54417858D01*
X23052142Y54346429D01*
X22837857Y54346429D01*
X23980714Y54346429D02*
X23980714Y55346429D01*
X23980714Y55203572D02*
X24052142Y55275000D01*
X24195000Y55346429D01*
X24409285Y55346429D01*
X24552142Y55275000D01*
X24623571Y55132143D01*
X24623571Y54346429D01*
X24623571Y55132143D02*
X24695000Y55275000D01*
X24837857Y55346429D01*
X25052142Y55346429D01*
X25195000Y55275000D01*
X25266428Y55132143D01*
X25266428Y54346429D01*
D10*
X78919047Y14938096D02*
X79071428Y14938096D01*
X79147619Y14900000D01*
X79223809Y14823810D01*
X79261904Y14671429D01*
X79261904Y14404762D01*
X79223809Y14252381D01*
X79147619Y14176191D01*
X79071428Y14138096D01*
X78919047Y14138096D01*
X78842857Y14176191D01*
X78766666Y14252381D01*
X78728571Y14404762D01*
X78728571Y14671429D01*
X78766666Y14823810D01*
X78842857Y14900000D01*
X78919047Y14938096D01*
X79604761Y14938096D02*
X79604761Y14290477D01*
X79642857Y14214286D01*
X79680952Y14176191D01*
X79757142Y14138096D01*
X79909523Y14138096D01*
X79985714Y14176191D01*
X80023809Y14214286D01*
X80061904Y14290477D01*
X80061904Y14938096D01*
X80328571Y14938096D02*
X80785714Y14938096D01*
X80557142Y14138096D02*
X80557142Y14938096D01*
X81014285Y14861905D02*
X81052380Y14900000D01*
X81128571Y14938096D01*
X81319047Y14938096D01*
X81395238Y14900000D01*
X81433333Y14861905D01*
X81471428Y14785715D01*
X81471428Y14709524D01*
X81433333Y14595239D01*
X80976190Y14138096D01*
X81471428Y14138096D01*
X63719047Y14938096D02*
X63871428Y14938096D01*
X63947619Y14900000D01*
X64023809Y14823810D01*
X64061904Y14671429D01*
X64061904Y14404762D01*
X64023809Y14252381D01*
X63947619Y14176191D01*
X63871428Y14138096D01*
X63719047Y14138096D01*
X63642857Y14176191D01*
X63566666Y14252381D01*
X63528571Y14404762D01*
X63528571Y14671429D01*
X63566666Y14823810D01*
X63642857Y14900000D01*
X63719047Y14938096D01*
X64404761Y14938096D02*
X64404761Y14290477D01*
X64442857Y14214286D01*
X64480952Y14176191D01*
X64557142Y14138096D01*
X64709523Y14138096D01*
X64785714Y14176191D01*
X64823809Y14214286D01*
X64861904Y14290477D01*
X64861904Y14938096D01*
X65128571Y14938096D02*
X65585714Y14938096D01*
X65357142Y14138096D02*
X65357142Y14938096D01*
X66271428Y14138096D02*
X65814285Y14138096D01*
X66042857Y14138096D02*
X66042857Y14938096D01*
X65966666Y14823810D01*
X65890476Y14747620D01*
X65814285Y14709524D01*
X129300000Y56500000D02*
G75*
G03X129300000Y56500000I-2300000J0D01*
G01*
X34300000Y56500000D02*
G75*
G03X34300000Y56500000I-2300000J0D01*
G01*
X34300000Y28000000D02*
G75*
G03X34300000Y28000000I-2300000J0D01*
G01*
X129200000Y28000000D02*
G75*
G03X129200000Y28000000I-2200000J0D01*
G01*
X58350000Y21550000D02*
X58350000Y20300000D01*
X59600000Y21550000D02*
X58350000Y21550000D01*
X70500000Y16050000D02*
X64950000Y16050000D01*
X70500000Y19000000D02*
X70500000Y16050000D01*
X71250000Y19000000D02*
X70500000Y19000000D01*
X64950000Y16050000D02*
X60460000Y16050000D01*
X59400000Y19000000D02*
X59400000Y17660000D01*
X58650000Y19000000D02*
X59400000Y19000000D01*
X71250000Y21250000D02*
X69450000Y21250000D01*
X71250000Y20500000D02*
X71250000Y21250000D01*
X69450000Y20500000D02*
X71250000Y20500000D01*
X69450000Y21250000D02*
X69450000Y20500000D01*
X60450000Y21250000D02*
X58650000Y21250000D01*
X60450000Y20500000D02*
X60450000Y21250000D01*
X58650000Y20500000D02*
X60450000Y20500000D01*
X58650000Y21250000D02*
X58650000Y20500000D01*
X67950000Y21250000D02*
X61950000Y21250000D01*
X67950000Y20500000D02*
X67950000Y21250000D01*
X61950000Y20500000D02*
X67950000Y20500000D01*
X61950000Y21250000D02*
X61950000Y20500000D01*
X71260000Y21260000D02*
X58640000Y21260000D01*
X71260000Y15290000D02*
X71260000Y21260000D01*
X58640000Y15290000D02*
X71260000Y15290000D01*
D12*
X58640000Y21260000D02*
X58640000Y15290000D01*
D10*
X73450000Y21550000D02*
X73450000Y20300000D01*
X74700000Y21550000D02*
X73450000Y21550000D01*
X85600000Y16050000D02*
X80050000Y16050000D01*
X85600000Y19000000D02*
X85600000Y16050000D01*
X86350000Y19000000D02*
X85600000Y19000000D01*
X80050000Y16050000D02*
X75560000Y16050000D01*
X74500000Y19000000D02*
X74500000Y17660000D01*
X73750000Y19000000D02*
X74500000Y19000000D01*
X86350000Y21250000D02*
X84550000Y21250000D01*
X86350000Y20500000D02*
X86350000Y21250000D01*
X84550000Y20500000D02*
X86350000Y20500000D01*
X84550000Y21250000D02*
X84550000Y20500000D01*
X75550000Y21250000D02*
X73750000Y21250000D01*
X75550000Y20500000D02*
X75550000Y21250000D01*
X73750000Y20500000D02*
X75550000Y20500000D01*
X73750000Y21250000D02*
X73750000Y20500000D01*
X83050000Y21250000D02*
X77050000Y21250000D01*
X83050000Y20500000D02*
X83050000Y21250000D01*
X77050000Y20500000D02*
X83050000Y20500000D01*
X77050000Y21250000D02*
X77050000Y20500000D01*
X86360000Y21260000D02*
X73740000Y21260000D01*
X86360000Y15290000D02*
X86360000Y21260000D01*
X73740000Y15290000D02*
X86360000Y15290000D01*
D12*
X73740000Y21260000D02*
X73740000Y15290000D01*
D10*
X129900000Y38900000D02*
X120900000Y38900000D01*
X120900000Y38900000D02*
X120900000Y49100000D01*
X129900000Y49100000D02*
X120900000Y49100000D01*
X129900000Y38900000D02*
X129900000Y49100000D01*
X107700000Y35800000D02*
X110300000Y35800000D01*
X107700000Y47000000D02*
X107700000Y35800000D01*
X110300000Y47000000D02*
X107700000Y47000000D01*
X118300000Y35800000D02*
X115700000Y35800000D01*
X118300000Y47000000D02*
X118300000Y35800000D01*
X115700000Y47000000D02*
X118300000Y47000000D01*
D13*
X93970000Y28935000D02*
X93970000Y27665000D01*
X93570000Y29335000D02*
X92650000Y29335000D01*
X90430000Y28935000D02*
X90430000Y27665000D01*
X91750000Y29335000D02*
X90830000Y29335000D01*
X91750000Y27265000D02*
X90830000Y27265000D01*
X93570000Y27265000D02*
X92650000Y27265000D01*
X93970000Y27664990D02*
G75*
G02X93570000Y27264990I-400000J0D01*
G01*
X93570000Y29335000D02*
G75*
G02X93970000Y28935000I0J-400000D01*
G01*
X90430000Y28935000D02*
G75*
G02X90830000Y29335000I400000J0D01*
G01*
X90830000Y27265000D02*
G75*
G02X90430000Y27665000I0J400000D01*
G01*
X89170000Y28935000D02*
X89170000Y27665000D01*
X88770000Y29335000D02*
X87850000Y29335000D01*
X85630000Y28935000D02*
X85630000Y27665000D01*
X86950000Y29335000D02*
X86030000Y29335000D01*
X86950000Y27265000D02*
X86030000Y27265000D01*
X88770000Y27265000D02*
X87850000Y27265000D01*
X89170000Y27664990D02*
G75*
G02X88770000Y27264990I-400000J0D01*
G01*
X88770000Y29335000D02*
G75*
G02X89170000Y28935000I0J-400000D01*
G01*
X85630000Y28935000D02*
G75*
G02X86030000Y29335000I400000J0D01*
G01*
X86030000Y27265000D02*
G75*
G02X85630000Y27665000I0J400000D01*
G01*
X86965000Y39270000D02*
X88235000Y39270000D01*
X86565000Y38870000D02*
X86565000Y37950000D01*
X86965000Y35730000D02*
X88235000Y35730000D01*
X86565000Y37050000D02*
X86565000Y36130000D01*
X88635000Y37050000D02*
X88635000Y36130000D01*
X88635000Y38870000D02*
X88635000Y37950000D01*
X88235010Y39270000D02*
G75*
G02X88635010Y38870000I0J-400000D01*
G01*
X86565000Y38870000D02*
G75*
G02X86965000Y39270000I400000J0D01*
G01*
X86965000Y35730000D02*
G75*
G02X86565000Y36130000I0J400000D01*
G01*
X88635000Y36130000D02*
G75*
G02X88235000Y35730000I-400000J0D01*
G01*
D14*
G36*
X44950000Y48900000D02*
G01*
X44950000Y50500000D01*
X46050000Y49700000D01*
X44950000Y48900000D01*
G37*
X44950000Y48900000D02*
X44950000Y50500000D01*
X46050000Y49700000D01*
X44950000Y48900000D01*
D10*
X46600000Y51700000D02*
X53900000Y51700000D01*
X53900000Y44200000D02*
X46600000Y44200000D01*
X46600000Y51700000D02*
X46600000Y44200000D01*
X53900000Y51700000D02*
X53900000Y44200000D01*
D14*
G36*
X44950000Y56800000D02*
G01*
X44950000Y58400000D01*
X46050000Y57600000D01*
X44950000Y56800000D01*
G37*
X44950000Y56800000D02*
X44950000Y58400000D01*
X46050000Y57600000D01*
X44950000Y56800000D01*
D10*
X46600000Y59600000D02*
X53900000Y59600000D01*
X53900000Y52100000D02*
X46600000Y52100000D01*
X46600000Y59600000D02*
X46600000Y52100000D01*
X53900000Y59600000D02*
X53900000Y52100000D01*
D14*
G36*
X35300000Y21000000D02*
G01*
X35800000Y20600000D01*
X35800000Y21400000D01*
X35300000Y21000000D01*
G37*
X35300000Y21000000D02*
X35800000Y20600000D01*
X35800000Y21400000D01*
X35300000Y21000000D01*
D10*
X38284800Y22915040D02*
X38284800Y17815040D01*
X38284800Y22915040D02*
X25635000Y22915040D01*
X25635000Y22915040D02*
X25635000Y17815040D01*
X38284800Y17815040D02*
X25635000Y17815040D01*
X33230000Y22905040D02*
X33230000Y22270040D01*
X33230000Y22270040D02*
X30690000Y22270040D01*
X30690000Y22915040D02*
X30690000Y22270040D01*
D13*
X126060000Y31145000D02*
X123540000Y31145000D01*
X126060000Y35855000D02*
X123540000Y35855000D01*
X123140000Y31545000D02*
X123140000Y32600000D01*
X123140000Y34400000D02*
X123140000Y35455000D01*
X126460000Y34400000D02*
X126460000Y35455000D01*
X126460000Y31545000D02*
X126460000Y32600000D01*
X123540000Y31145000D02*
G75*
G02X123140000Y31545000I0J400000D01*
G01*
X126460000Y31545000D02*
G75*
G02X126060000Y31145000I-400000J0D01*
G01*
X126060000Y35855000D02*
G75*
G02X126460000Y35455000I0J-400000D01*
G01*
X123140000Y35455000D02*
G75*
G02X123540000Y35855000I400000J0D01*
G01*
X108040000Y33255000D02*
X110560000Y33255000D01*
X108040000Y28545000D02*
X110560000Y28545000D01*
X110960000Y32855000D02*
X110960000Y31800000D01*
X110960000Y30000000D02*
X110960000Y28945000D01*
X107640000Y30000000D02*
X107640000Y28945000D01*
X107640000Y32855000D02*
X107640000Y31800000D01*
X110560000Y33255000D02*
G75*
G02X110960000Y32855000I0J-400000D01*
G01*
X107640000Y32855000D02*
G75*
G02X108040000Y33255000I400000J0D01*
G01*
X108040000Y28545000D02*
G75*
G02X107640000Y28945000I0J400000D01*
G01*
X110960000Y28945000D02*
G75*
G02X110560000Y28545000I-400000J0D01*
G01*
X104155000Y48260000D02*
X104155000Y45740000D01*
X99445000Y48260000D02*
X99445000Y45740000D01*
X103755000Y45340000D02*
X102700000Y45340000D01*
X100900000Y45340000D02*
X99845000Y45340000D01*
X100900000Y48660000D02*
X99845000Y48660000D01*
X103755000Y48660000D02*
X102700000Y48660000D01*
X104155000Y45740000D02*
G75*
G02X103755000Y45340000I-400000J0D01*
G01*
X103755000Y48660000D02*
G75*
G02X104155000Y48260000I0J-400000D01*
G01*
X99445000Y48260000D02*
G75*
G02X99845000Y48660000I400000J0D01*
G01*
X99845000Y45340000D02*
G75*
G02X99445000Y45740000I0J400000D01*
G01*
X50855000Y31560000D02*
X50855000Y29040000D01*
X46145000Y31560000D02*
X46145000Y29040000D01*
X50455000Y28640000D02*
X49400000Y28640000D01*
X47600000Y28640000D02*
X46545000Y28640000D01*
X47600000Y31960000D02*
X46545000Y31960000D01*
X50455000Y31960000D02*
X49400000Y31960000D01*
X50855000Y29040000D02*
G75*
G02X50455000Y28640000I-400000J0D01*
G01*
X50455000Y31960000D02*
G75*
G02X50855000Y31560000I0J-400000D01*
G01*
X46145000Y31560000D02*
G75*
G02X46545000Y31960000I400000J0D01*
G01*
X46545000Y28640000D02*
G75*
G02X46145000Y29040000I0J400000D01*
G01*
X5455000Y17100000D02*
X4500000Y17100000D01*
X2500000Y17100000D02*
X1545000Y17100000D01*
X2500000Y14700000D02*
X1545000Y14700000D01*
X5455000Y14700000D02*
X4500000Y14700000D01*
X1145000Y16700000D02*
X1145000Y15100000D01*
X5855000Y16700000D02*
X5855000Y15100000D01*
X1545000Y14700000D02*
G75*
G02X1145000Y15100000I0J400000D01*
G01*
X1145000Y16700000D02*
G75*
G02X1545000Y17100000I400000J0D01*
G01*
X5455000Y17100000D02*
G75*
G02X5855000Y16700000I0J-400000D01*
G01*
X5855000Y15100000D02*
G75*
G02X5455000Y14700000I-400000J0D01*
G01*
X23755000Y7000000D02*
X22800000Y7000000D01*
X20800000Y7000000D02*
X19845000Y7000000D01*
X20800000Y4600000D02*
X19845000Y4600000D01*
X23755000Y4600000D02*
X22800000Y4600000D01*
X19445000Y6600000D02*
X19445000Y5000000D01*
X24155000Y6600000D02*
X24155000Y5000000D01*
X19845000Y4600000D02*
G75*
G02X19445000Y5000000I0J400000D01*
G01*
X19445000Y6600000D02*
G75*
G02X19845000Y7000000I400000J0D01*
G01*
X23755000Y7000000D02*
G75*
G02X24155000Y6600000I0J-400000D01*
G01*
X24155000Y5000000D02*
G75*
G02X23755000Y4600000I-400000J0D01*
G01*
X46545000Y21200000D02*
X47500000Y21200000D01*
X49500000Y21200000D02*
X50455000Y21200000D01*
X49500000Y23600000D02*
X50455000Y23600000D01*
X46545000Y23600000D02*
X47500000Y23600000D01*
X50855000Y21600000D02*
X50855000Y23200000D01*
X46145000Y21600000D02*
X46145000Y23200000D01*
X50455000Y23600000D02*
G75*
G02X50855000Y23200000I0J-400000D01*
G01*
X50855000Y21600000D02*
G75*
G02X50455000Y21200000I-400000J0D01*
G01*
X46545000Y21200000D02*
G75*
G02X46145000Y21600000I0J400000D01*
G01*
X46145000Y23200000D02*
G75*
G02X46545000Y23600000I400000J0D01*
G01*
D10*
X1670000Y20600000D02*
X2270000Y20600000D01*
X20870000Y38600000D02*
X19970000Y38600000D01*
X20870000Y20600000D02*
X19970000Y20600000D01*
X1670000Y38600000D02*
X2270000Y38600000D01*
X20870000Y38600000D02*
X20870000Y35900000D01*
X20870000Y20600000D02*
X20870000Y23300000D01*
X1670000Y20600000D02*
X1670000Y38600000D01*
X44410000Y25835000D02*
X45190000Y25835000D01*
X44010000Y23165000D02*
X44010000Y23900000D01*
X45590000Y23165000D02*
X45590000Y23900000D01*
X45590000Y24700000D02*
X45590000Y25435000D01*
X45190000Y22765000D02*
X44410000Y22765000D01*
X44010000Y24700000D02*
X44010000Y25435000D01*
X45190000Y25835000D02*
G75*
G02X45590000Y25435000I0J-400000D01*
G01*
X44010000Y25435000D02*
G75*
G02X44410000Y25835000I400000J0D01*
G01*
X44410000Y22765000D02*
G75*
G02X44010000Y23165000I0J400000D01*
G01*
X45590000Y23165000D02*
G75*
G02X45190000Y22765000I-400000J0D01*
G01*
X111465000Y53110000D02*
X111465000Y53890000D01*
X114135000Y52710000D02*
X113400000Y52710000D01*
X114135000Y54290000D02*
X113400000Y54290000D01*
X112600000Y54290000D02*
X111865000Y54290000D01*
X114535000Y53890000D02*
X114535000Y53110000D01*
X112600000Y52710000D02*
X111865000Y52710000D01*
X111465000Y53890000D02*
G75*
G02X111865000Y54290000I400000J0D01*
G01*
X111865000Y52710000D02*
G75*
G02X111465000Y53110000I0J400000D01*
G01*
X114535000Y53110000D02*
G75*
G02X114135000Y52710000I-400000J0D01*
G01*
X114135000Y54290000D02*
G75*
G02X114535000Y53890000I0J-400000D01*
G01*
X11490000Y7165000D02*
X10710000Y7165000D01*
X11890000Y9835000D02*
X11890000Y9100000D01*
X10310000Y9835000D02*
X10310000Y9100000D01*
X10310000Y8300000D02*
X10310000Y7565000D01*
X10710000Y10235000D02*
X11490000Y10235000D01*
X11890000Y8300000D02*
X11890000Y7565000D01*
X10710000Y7165000D02*
G75*
G02X10310000Y7565000I0J400000D01*
G01*
X11890000Y7565000D02*
G75*
G02X11490000Y7165000I-400000J0D01*
G01*
X11490000Y10235000D02*
G75*
G02X11890000Y9835000I0J-400000D01*
G01*
X10310000Y9835000D02*
G75*
G02X10710000Y10235000I400000J0D01*
G01*
X2665000Y12810000D02*
X2665000Y13590000D01*
X5335000Y12410000D02*
X4600000Y12410000D01*
X5335000Y13990000D02*
X4600000Y13990000D01*
X3800000Y13990000D02*
X3065000Y13990000D01*
X5735000Y13590000D02*
X5735000Y12810000D01*
X3800000Y12410000D02*
X3065000Y12410000D01*
X2665000Y13590000D02*
G75*
G02X3065000Y13990000I400000J0D01*
G01*
X3065000Y12410000D02*
G75*
G02X2665000Y12810000I0J400000D01*
G01*
X5735000Y12810000D02*
G75*
G02X5335000Y12410000I-400000J0D01*
G01*
X5335000Y13990000D02*
G75*
G02X5735000Y13590000I0J-400000D01*
G01*
X121810000Y28435000D02*
X122590000Y28435000D01*
X121410000Y25765000D02*
X121410000Y26500000D01*
X122990000Y25765000D02*
X122990000Y26500000D01*
X122990000Y27300000D02*
X122990000Y28035000D01*
X122590000Y25365000D02*
X121810000Y25365000D01*
X121410000Y27300000D02*
X121410000Y28035000D01*
X122590000Y28435000D02*
G75*
G02X122990000Y28035000I0J-400000D01*
G01*
X121410000Y28035000D02*
G75*
G02X121810000Y28435000I400000J0D01*
G01*
X121810000Y25365000D02*
G75*
G02X121410000Y25765000I0J400000D01*
G01*
X122990000Y25765000D02*
G75*
G02X122590000Y25365000I-400000J0D01*
G01*
X111510000Y52235000D02*
X112290000Y52235000D01*
X111110000Y49565000D02*
X111110000Y50300000D01*
X112690000Y49565000D02*
X112690000Y50300000D01*
X112690000Y51100000D02*
X112690000Y51835000D01*
X112290000Y49165000D02*
X111510000Y49165000D01*
X111110000Y51100000D02*
X111110000Y51835000D01*
X112290000Y52235000D02*
G75*
G02X112690000Y51835000I0J-400000D01*
G01*
X111110000Y51835000D02*
G75*
G02X111510000Y52235000I400000J0D01*
G01*
X111510000Y49165000D02*
G75*
G02X111110000Y49565000I0J400000D01*
G01*
X112690000Y49565000D02*
G75*
G02X112290000Y49165000I-400000J0D01*
G01*
X59835000Y32490000D02*
X59835000Y31710000D01*
X57165000Y32890000D02*
X57900000Y32890000D01*
X57165000Y31310000D02*
X57900000Y31310000D01*
X58700000Y31310000D02*
X59435000Y31310000D01*
X56765000Y31710000D02*
X56765000Y32490000D01*
X58700000Y32890000D02*
X59435000Y32890000D01*
X59835000Y31710000D02*
G75*
G02X59435000Y31310000I-400000J0D01*
G01*
X59435000Y32890000D02*
G75*
G02X59835000Y32490000I0J-400000D01*
G01*
X56765000Y32490000D02*
G75*
G02X57165000Y32890000I400000J0D01*
G01*
X57165000Y31310000D02*
G75*
G02X56765000Y31710000I0J400000D01*
G01*
X74935000Y32490000D02*
X74935000Y31710000D01*
X72265000Y32890000D02*
X73000000Y32890000D01*
X72265000Y31310000D02*
X73000000Y31310000D01*
X73800000Y31310000D02*
X74535000Y31310000D01*
X71865000Y31710000D02*
X71865000Y32490000D01*
X73800000Y32890000D02*
X74535000Y32890000D01*
X74935000Y31710000D02*
G75*
G02X74535000Y31310000I-400000J0D01*
G01*
X74535000Y32890000D02*
G75*
G02X74935000Y32490000I0J-400000D01*
G01*
X71865000Y32490000D02*
G75*
G02X72265000Y32890000I400000J0D01*
G01*
X72265000Y31310000D02*
G75*
G02X71865000Y31710000I0J400000D01*
G01*
X95900000Y54100000D02*
X95435000Y54890000D01*
X93500000Y54890000D02*
X92365000Y54890000D01*
X95435000Y54890000D02*
X94300000Y54890000D01*
X95435000Y53310000D02*
X94300000Y53310000D01*
X95435000Y54890000D02*
X95435000Y53310000D01*
X95900000Y54100000D02*
X95435000Y53310000D01*
X93500000Y53310000D02*
X92365000Y53310000D01*
X92365000Y54890000D02*
X92365000Y53310000D01*
X75000000Y37800000D02*
X75000000Y35400000D01*
X75000000Y35400000D02*
X72200000Y35400000D01*
X72200000Y37800000D02*
X72200000Y35400000D01*
X75000000Y37800000D02*
X72200000Y37800000D01*
D15*
X75325000Y39000000D02*
G75*
G03X75325000Y39000000I-125000J0D01*
G01*
D16*
X74625000Y37300000D02*
G75*
G03X74625000Y37300000I-125000J0D01*
G01*
D10*
X117950000Y25700000D02*
X117950000Y28100000D01*
X117950000Y28100000D02*
X120750000Y28100000D01*
X120750000Y25700000D02*
X120750000Y28100000D01*
X117950000Y25700000D02*
X120750000Y25700000D01*
D15*
X117875000Y24500000D02*
G75*
G03X117875000Y24500000I-125000J0D01*
G01*
D16*
X118575000Y26200000D02*
G75*
G03X118575000Y26200000I-125000J0D01*
G01*
D10*
X59900000Y37800000D02*
X59900000Y35400000D01*
X59900000Y35400000D02*
X57100000Y35400000D01*
X57100000Y37800000D02*
X57100000Y35400000D01*
X59900000Y37800000D02*
X57100000Y37800000D01*
D15*
X60225000Y39000000D02*
G75*
G03X60225000Y39000000I-125000J0D01*
G01*
D16*
X59525000Y37300000D02*
G75*
G03X59525000Y37300000I-125000J0D01*
G01*
D10*
X91200000Y34000000D02*
X92100000Y34000000D01*
X87500000Y34000000D02*
X87500000Y31400000D01*
X92100000Y34000000D02*
X92100000Y31400000D01*
X87500000Y34000000D02*
X88400000Y34000000D01*
D13*
X61600000Y34900000D02*
X61600000Y36255000D01*
X64000000Y34900000D02*
X64000000Y36255000D01*
X64000000Y31545000D02*
X64000000Y32900000D01*
X64000000Y31545000D02*
X61600000Y31545000D01*
X64000000Y36255000D02*
X61600000Y36255000D01*
X61600000Y31545000D02*
X61600000Y32900000D01*
X76700000Y34900000D02*
X76700000Y36255000D01*
X79100000Y34900000D02*
X79100000Y36255000D01*
X79100000Y31545000D02*
X79100000Y32900000D01*
X79100000Y31545000D02*
X76700000Y31545000D01*
X79100000Y36255000D02*
X76700000Y36255000D01*
X76700000Y31545000D02*
X76700000Y32900000D01*
D10*
X21300000Y9700000D02*
X21300000Y9100000D01*
X22850000Y8600000D02*
X22850000Y7940000D01*
X22850000Y10860000D02*
X22850000Y10200000D01*
X22850000Y10860000D02*
X22035000Y10860000D01*
X22850000Y7940000D02*
X22035000Y7940000D01*
X92600000Y43000000D02*
X92600000Y43600000D01*
X91050000Y44100000D02*
X91050000Y44760000D01*
X91050000Y41840000D02*
X91050000Y42500000D01*
X91050000Y41840000D02*
X91865000Y41840000D01*
X91050000Y44760000D02*
X91865000Y44760000D01*
X57400000Y25100000D02*
X58000000Y25100000D01*
X58500000Y26650000D02*
X59160000Y26650000D01*
X56240000Y26650000D02*
X56900000Y26650000D01*
X56240000Y26650000D02*
X56240000Y25835000D01*
X59160000Y26650000D02*
X59160000Y25835000D01*
X72500000Y25100000D02*
X73100000Y25100000D01*
X73600000Y26650000D02*
X74260000Y26650000D01*
X71340000Y26650000D02*
X72000000Y26650000D01*
X71340000Y26650000D02*
X71340000Y25835000D01*
X74260000Y26650000D02*
X74260000Y25835000D01*
X8100000Y8100000D02*
X7500000Y8100000D01*
X7000000Y6550000D02*
X6340000Y6550000D01*
X9260000Y6550000D02*
X8600000Y6550000D01*
X9260000Y6550000D02*
X9260000Y7365000D01*
X6340000Y6550000D02*
X6340000Y7365000D01*
X105843750Y39158750D02*
X105843750Y39946250D01*
X106237500Y39552500D02*
X105450000Y39552500D01*
X105210000Y43745563D02*
X104145563Y44810000D01*
X105210000Y39054437D02*
X104145563Y37990000D01*
X105210000Y39054437D02*
X105210000Y40340000D01*
X105210000Y43745563D02*
X105210000Y42460000D01*
X104145563Y44810000D02*
X98390000Y44810000D01*
X104145563Y37990000D02*
X98390000Y37990000D01*
X98390000Y37990000D02*
X98390000Y40340000D01*
X98390000Y44810000D02*
X98390000Y42460000D01*
X103700000Y51200000D02*
X103800000Y51200000D01*
X103700000Y55200000D02*
X103700000Y51200000D01*
X103800000Y55200000D02*
X103700000Y55200000D01*
X109100000Y55200000D02*
X109000000Y55200000D01*
X109100000Y51200000D02*
X109100000Y55200000D01*
X109000000Y51200000D02*
X109100000Y51200000D01*
D11*
X103800000Y50300000D02*
G75*
G03X103800000Y50300000I-150000J0D01*
G01*
D13*
X48610000Y35265000D02*
X48610000Y36400000D01*
X50190000Y38335000D02*
X48610000Y38335000D01*
X50190000Y35265000D02*
X48610000Y35265000D01*
X48610000Y37200000D02*
X48610000Y38335000D01*
X50190000Y35265000D02*
X50190000Y36400000D01*
X50190000Y37200000D02*
X50190000Y38335000D01*
X50610000Y35265000D02*
X50610000Y36400000D01*
X52190000Y38335000D02*
X50610000Y38335000D01*
X52190000Y35265000D02*
X50610000Y35265000D01*
X50610000Y37200000D02*
X50610000Y38335000D01*
X52190000Y35265000D02*
X52190000Y36400000D01*
X52190000Y37200000D02*
X52190000Y38335000D01*
X6265000Y11390000D02*
X7400000Y11390000D01*
X9335000Y9810000D02*
X9335000Y11390000D01*
X6265000Y9810000D02*
X6265000Y11390000D01*
X8200000Y11390000D02*
X9335000Y11390000D01*
X6265000Y9810000D02*
X7400000Y9810000D01*
X8200000Y9810000D02*
X9335000Y9810000D01*
X26490000Y10935000D02*
X26490000Y9800000D01*
X24910000Y7865000D02*
X26490000Y7865000D01*
X24910000Y10935000D02*
X26490000Y10935000D01*
X26490000Y9000000D02*
X26490000Y7865000D01*
X24910000Y10935000D02*
X24910000Y9800000D01*
X24910000Y9000000D02*
X24910000Y7865000D01*
X19490000Y10935000D02*
X19490000Y9800000D01*
X17910000Y7865000D02*
X19490000Y7865000D01*
X17910000Y10935000D02*
X19490000Y10935000D01*
X19490000Y9000000D02*
X19490000Y7865000D01*
X17910000Y10935000D02*
X17910000Y9800000D01*
X17910000Y9000000D02*
X17910000Y7865000D01*
X48190000Y38335000D02*
X48190000Y37200000D01*
X46610000Y35265000D02*
X48190000Y35265000D01*
X46610000Y38335000D02*
X48190000Y38335000D01*
X48190000Y36400000D02*
X48190000Y35265000D01*
X46610000Y38335000D02*
X46610000Y37200000D01*
X46610000Y36400000D02*
X46610000Y35265000D01*
X117600000Y30800000D02*
X116245000Y30800000D01*
X117600000Y33200000D02*
X116245000Y33200000D01*
X120955000Y33200000D02*
X119600000Y33200000D01*
X120955000Y33200000D02*
X120955000Y30800000D01*
X116245000Y33200000D02*
X116245000Y30800000D01*
X120955000Y30800000D02*
X119600000Y30800000D01*
X113590000Y32435000D02*
X113590000Y31300000D01*
X112010000Y29365000D02*
X113590000Y29365000D01*
X112010000Y32435000D02*
X113590000Y32435000D01*
X113590000Y30500000D02*
X113590000Y29365000D01*
X112010000Y32435000D02*
X112010000Y31300000D01*
X112010000Y30500000D02*
X112010000Y29365000D01*
X113310000Y49165000D02*
X113310000Y50300000D01*
X114890000Y52235000D02*
X113310000Y52235000D01*
X114890000Y49165000D02*
X113310000Y49165000D01*
X113310000Y51100000D02*
X113310000Y52235000D01*
X114890000Y49165000D02*
X114890000Y50300000D01*
X114890000Y51100000D02*
X114890000Y52235000D01*
X95590000Y44835000D02*
X95590000Y43700000D01*
X94010000Y41765000D02*
X95590000Y41765000D01*
X94010000Y44835000D02*
X95590000Y44835000D01*
X95590000Y42900000D02*
X95590000Y41765000D01*
X94010000Y44835000D02*
X94010000Y43700000D01*
X94010000Y42900000D02*
X94010000Y41765000D01*
X88390000Y48535000D02*
X88390000Y47400000D01*
X86810000Y45465000D02*
X88390000Y45465000D01*
X86810000Y48535000D02*
X88390000Y48535000D01*
X88390000Y46600000D02*
X88390000Y45465000D01*
X86810000Y48535000D02*
X86810000Y47400000D01*
X86810000Y46600000D02*
X86810000Y45465000D01*
X59235000Y22110000D02*
X58100000Y22110000D01*
X56165000Y23690000D02*
X56165000Y22110000D01*
X59235000Y23690000D02*
X59235000Y22110000D01*
X57300000Y22110000D02*
X56165000Y22110000D01*
X59235000Y23690000D02*
X58100000Y23690000D01*
X57300000Y23690000D02*
X56165000Y23690000D01*
X62735000Y29210000D02*
X61600000Y29210000D01*
X59665000Y30790000D02*
X59665000Y29210000D01*
X62735000Y30790000D02*
X62735000Y29210000D01*
X60800000Y29210000D02*
X59665000Y29210000D01*
X62735000Y30790000D02*
X61600000Y30790000D01*
X60800000Y30790000D02*
X59665000Y30790000D01*
X56190000Y38335000D02*
X56190000Y37200000D01*
X54610000Y35265000D02*
X56190000Y35265000D01*
X54610000Y38335000D02*
X56190000Y38335000D01*
X56190000Y36400000D02*
X56190000Y35265000D01*
X54610000Y38335000D02*
X54610000Y37200000D01*
X54610000Y36400000D02*
X54610000Y35265000D01*
X74335000Y22110000D02*
X73200000Y22110000D01*
X71265000Y23690000D02*
X71265000Y22110000D01*
X74335000Y23690000D02*
X74335000Y22110000D01*
X72400000Y22110000D02*
X71265000Y22110000D01*
X74335000Y23690000D02*
X73200000Y23690000D01*
X72400000Y23690000D02*
X71265000Y23690000D01*
X77835000Y29210000D02*
X76700000Y29210000D01*
X74765000Y30790000D02*
X74765000Y29210000D01*
X77835000Y30790000D02*
X77835000Y29210000D01*
X75900000Y29210000D02*
X74765000Y29210000D01*
X77835000Y30790000D02*
X76700000Y30790000D01*
X75900000Y30790000D02*
X74765000Y30790000D01*
X54190000Y38335000D02*
X54190000Y37200000D01*
X52610000Y35265000D02*
X54190000Y35265000D01*
X52610000Y38335000D02*
X54190000Y38335000D01*
X54190000Y36400000D02*
X54190000Y35265000D01*
X52610000Y38335000D02*
X52610000Y37200000D01*
X52610000Y36400000D02*
X52610000Y35265000D01*
X44010000Y26365000D02*
X44010000Y27500000D01*
X45590000Y29435000D02*
X44010000Y29435000D01*
X45590000Y26365000D02*
X44010000Y26365000D01*
X44010000Y28300000D02*
X44010000Y29435000D01*
X45590000Y26365000D02*
X45590000Y27500000D01*
X45590000Y28300000D02*
X45590000Y29435000D01*
X91435000Y53310000D02*
X90300000Y53310000D01*
X88365000Y54890000D02*
X88365000Y53310000D01*
X91435000Y54890000D02*
X91435000Y53310000D01*
X89500000Y53310000D02*
X88365000Y53310000D01*
X91435000Y54890000D02*
X90300000Y54890000D01*
X89500000Y54890000D02*
X88365000Y54890000D01*
D10*
X95600000Y48500000D02*
X95600000Y48700000D01*
X92200000Y48700000D02*
X92200000Y48500000D01*
X92200000Y45500000D02*
X92200000Y45300000D01*
X95600000Y45300000D02*
X95600000Y45500000D01*
X91800000Y48000000D02*
G75*
G03X91800000Y48000000I-200000J0D01*
G01*
X95600000Y45300000D02*
X94200000Y45300000D01*
X93600000Y45300000D02*
X92200000Y45300000D01*
X95600000Y48700000D02*
X94200000Y48700000D01*
X93600000Y48700000D02*
X92200000Y48700000D01*
X64000000Y22900000D02*
X64200000Y22900000D01*
X64200000Y26300000D02*
X64000000Y26300000D01*
X61000000Y26300000D02*
X60800000Y26300000D01*
X60800000Y22900000D02*
X61000000Y22900000D01*
X63700000Y26900000D02*
G75*
G03X63700000Y26900000I-200000J0D01*
G01*
X60800000Y22900000D02*
X60800000Y24300000D01*
X60800000Y24900000D02*
X60800000Y26300000D01*
X64200000Y22900000D02*
X64200000Y24300000D01*
X64200000Y24900000D02*
X64200000Y26300000D01*
X79150000Y22900000D02*
X79350000Y22900000D01*
X79350000Y26300000D02*
X79150000Y26300000D01*
X76150000Y26300000D02*
X75950000Y26300000D01*
X75950000Y22900000D02*
X76150000Y22900000D01*
X78850000Y26900000D02*
G75*
G03X78850000Y26900000I-200000J0D01*
G01*
X75950000Y22900000D02*
X75950000Y24300000D01*
X75950000Y24900000D02*
X75950000Y26300000D01*
X79350000Y22900000D02*
X79350000Y24300000D01*
X79350000Y24900000D02*
X79350000Y26300000D01*
X90965000Y39270000D02*
X93035000Y39270000D01*
X93035000Y35730000D02*
X93035000Y39270000D01*
X93035000Y35730000D02*
X90965000Y35730000D01*
X90965000Y35730000D02*
X90965000Y39270000D01*
X28150000Y4300000D02*
X32850000Y4300000D01*
X29750000Y4300000D02*
X29750000Y7300000D01*
X28150000Y7300000D02*
X32850000Y7300000D01*
X28150000Y7100000D02*
X28150000Y7300000D01*
X28150000Y4300000D02*
X28150000Y4500000D01*
X32850000Y4300000D02*
X32850000Y4500000D01*
X32850000Y7100000D02*
X32850000Y7300000D01*
X89200000Y46500000D02*
X89200000Y47500000D01*
X90600000Y46500000D02*
X90600000Y47500000D01*
X90600000Y47500000D02*
X89200000Y47500000D01*
X90600000Y46500000D02*
X89200000Y46500000D01*
X90600000Y46800000D02*
X89200000Y46800000D01*
X62600000Y5000000D02*
X67300000Y5000000D01*
X64200000Y5000000D02*
X64200000Y8000000D01*
X62600000Y8000000D02*
X67300000Y8000000D01*
X62600000Y7800000D02*
X62600000Y8000000D01*
X62600000Y5000000D02*
X62600000Y5200000D01*
X67300000Y5000000D02*
X67300000Y5200000D01*
X67300000Y7800000D02*
X67300000Y8000000D01*
X60700000Y28600000D02*
X61700000Y28600000D01*
X60700000Y27200000D02*
X61700000Y27200000D01*
X61700000Y27200000D02*
X61700000Y28600000D01*
X60700000Y27200000D02*
X60700000Y28600000D01*
X61000000Y27200000D02*
X61000000Y28600000D01*
X77750000Y5000000D02*
X82450000Y5000000D01*
X79350000Y5000000D02*
X79350000Y8000000D01*
X77750000Y8000000D02*
X82450000Y8000000D01*
X77750000Y7800000D02*
X77750000Y8000000D01*
X77750000Y5000000D02*
X77750000Y5200000D01*
X82450000Y5000000D02*
X82450000Y5200000D01*
X82450000Y7800000D02*
X82450000Y8000000D01*
X75800000Y28600000D02*
X76800000Y28600000D01*
X75800000Y27200000D02*
X76800000Y27200000D01*
X76800000Y27200000D02*
X76800000Y28600000D01*
X75800000Y27200000D02*
X75800000Y28600000D01*
X76100000Y27200000D02*
X76100000Y28600000D01*
X105843750Y30758750D02*
X105843750Y31546250D01*
X106237500Y31152500D02*
X105450000Y31152500D01*
X105210000Y35345563D02*
X104145563Y36410000D01*
X105210000Y30654437D02*
X104145563Y29590000D01*
X105210000Y30654437D02*
X105210000Y31940000D01*
X105210000Y35345563D02*
X105210000Y34060000D01*
X104145563Y36410000D02*
X98390000Y36410000D01*
X104145563Y29590000D02*
X98390000Y29590000D01*
X98390000Y29590000D02*
X98390000Y31940000D01*
X98390000Y36410000D02*
X98390000Y34060000D01*
X63950000Y13700000D02*
X63950000Y9500000D01*
X61350000Y9500000D02*
X61350000Y10000000D01*
X68550000Y9500000D02*
X61350000Y9500000D01*
X68550000Y10000000D02*
X68550000Y9500000D01*
X68550000Y13700000D02*
X68550000Y13200000D01*
X61350000Y13700000D02*
X68550000Y13700000D01*
X61350000Y13200000D02*
X61350000Y13700000D01*
X60450000Y13800000D02*
X61050000Y13800000D01*
X60750000Y14100000D02*
X60750000Y13500000D01*
X79050000Y13700000D02*
X79050000Y9500000D01*
X76450000Y9500000D02*
X76450000Y10000000D01*
X83650000Y9500000D02*
X76450000Y9500000D01*
X83650000Y10000000D02*
X83650000Y9500000D01*
X83650000Y13700000D02*
X83650000Y13200000D01*
X76450000Y13700000D02*
X83650000Y13700000D01*
X76450000Y13200000D02*
X76450000Y13700000D01*
X75550000Y13800000D02*
X76150000Y13800000D01*
X75850000Y14100000D02*
X75850000Y13500000D01*
D12*
X46200000Y27950000D02*
X50800000Y27950000D01*
X50800000Y27950000D02*
X50800000Y24250000D01*
X50800000Y24250000D02*
X46200000Y24250000D01*
X46200000Y24250000D02*
X46200000Y27950000D01*
X46350000Y27950000D02*
X46200000Y27800000D01*
X46200000Y27700000D02*
X46450000Y27950000D01*
X46450000Y27950000D02*
X46550000Y27950000D01*
X46550000Y27950000D02*
X46200000Y27600000D01*
X46000000Y27700000D02*
G75*
G03X46000000Y27700000I-150000J0D01*
G01*
D10*
X57800000Y57200000D02*
G75*
G03X57800000Y57200000I-1200000J0D01*
G01*
X57800000Y46600000D02*
G75*
G03X57800000Y46600000I-1200000J0D01*
G01*
X13100000Y10700000D02*
X13100000Y6700000D01*
X16100000Y10700000D02*
X16100000Y6700000D01*
X15500000Y8700000D02*
G75*
G03X15500000Y8700000I-900000J0D01*
G01*
X64359523Y21838096D02*
X64359523Y22638096D01*
X64664285Y22638096D01*
X64740476Y22600000D01*
X64778571Y22561905D01*
X64816666Y22485715D01*
X64816666Y22371429D01*
X64778571Y22295239D01*
X64740476Y22257143D01*
X64664285Y22219048D01*
X64359523Y22219048D01*
X65502380Y22371429D02*
X65502380Y21838096D01*
X65311904Y22676191D02*
X65121428Y22104762D01*
X65616666Y22104762D01*
X79459523Y21838096D02*
X79459523Y22638096D01*
X79764285Y22638096D01*
X79840476Y22600000D01*
X79878571Y22561905D01*
X79916666Y22485715D01*
X79916666Y22371429D01*
X79878571Y22295239D01*
X79840476Y22257143D01*
X79764285Y22219048D01*
X79459523Y22219048D01*
X80183333Y22638096D02*
X80678571Y22638096D01*
X80411904Y22333334D01*
X80526190Y22333334D01*
X80602380Y22295239D01*
X80640476Y22257143D01*
X80678571Y22180953D01*
X80678571Y21990477D01*
X80640476Y21914286D01*
X80602380Y21876191D01*
X80526190Y21838096D01*
X80297619Y21838096D01*
X80221428Y21876191D01*
X80183333Y21914286D01*
X107361904Y41266667D02*
X107361904Y40885715D01*
X106561904Y40885715D01*
X107361904Y41952381D02*
X107361904Y41495239D01*
X107361904Y41723810D02*
X106561904Y41723810D01*
X106676190Y41647620D01*
X106752380Y41571429D01*
X106790476Y41495239D01*
X94866666Y28014286D02*
X94828571Y27976191D01*
X94714285Y27938096D01*
X94638095Y27938096D01*
X94523809Y27976191D01*
X94447619Y28052381D01*
X94409523Y28128572D01*
X94371428Y28280953D01*
X94371428Y28395239D01*
X94409523Y28547620D01*
X94447619Y28623810D01*
X94523809Y28700000D01*
X94638095Y28738096D01*
X94714285Y28738096D01*
X94828571Y28700000D01*
X94866666Y28661905D01*
X95552380Y28471429D02*
X95552380Y27938096D01*
X95361904Y28776191D02*
X95171428Y28204762D01*
X95666666Y28204762D01*
X84466666Y28014286D02*
X84428571Y27976191D01*
X84314285Y27938096D01*
X84238095Y27938096D01*
X84123809Y27976191D01*
X84047619Y28052381D01*
X84009523Y28128572D01*
X83971428Y28280953D01*
X83971428Y28395239D01*
X84009523Y28547620D01*
X84047619Y28623810D01*
X84123809Y28700000D01*
X84238095Y28738096D01*
X84314285Y28738096D01*
X84428571Y28700000D01*
X84466666Y28661905D01*
X84733333Y28738096D02*
X85228571Y28738096D01*
X84961904Y28433334D01*
X85076190Y28433334D01*
X85152380Y28395239D01*
X85190476Y28357143D01*
X85228571Y28280953D01*
X85228571Y28090477D01*
X85190476Y28014286D01*
X85152380Y27976191D01*
X85076190Y27938096D01*
X84847619Y27938096D01*
X84771428Y27976191D01*
X84733333Y28014286D01*
X89685714Y37366667D02*
X89723809Y37328572D01*
X89761904Y37214286D01*
X89761904Y37138096D01*
X89723809Y37023810D01*
X89647619Y36947620D01*
X89571428Y36909524D01*
X89419047Y36871429D01*
X89304761Y36871429D01*
X89152380Y36909524D01*
X89076190Y36947620D01*
X89000000Y37023810D01*
X88961904Y37138096D01*
X88961904Y37214286D01*
X89000000Y37328572D01*
X89038095Y37366667D01*
X89038095Y37671429D02*
X89000000Y37709524D01*
X88961904Y37785715D01*
X88961904Y37976191D01*
X89000000Y38052381D01*
X89038095Y38090477D01*
X89114285Y38128572D01*
X89190476Y38128572D01*
X89304761Y38090477D01*
X89761904Y37633334D01*
X89761904Y38128572D01*
X28514285Y17438096D02*
X28514285Y16866667D01*
X28476190Y16752381D01*
X28400000Y16676191D01*
X28285714Y16638096D01*
X28209523Y16638096D01*
X28895238Y17057143D02*
X29161904Y17057143D01*
X29276190Y16638096D02*
X28895238Y16638096D01*
X28895238Y17438096D01*
X29276190Y17438096D01*
X29580952Y16676191D02*
X29695238Y16638096D01*
X29885714Y16638096D01*
X29961904Y16676191D01*
X30000000Y16714286D01*
X30038095Y16790477D01*
X30038095Y16866667D01*
X30000000Y16942858D01*
X29961904Y16980953D01*
X29885714Y17019048D01*
X29733333Y17057143D01*
X29657142Y17095239D01*
X29619047Y17133334D01*
X29580952Y17209524D01*
X29580952Y17285715D01*
X29619047Y17361905D01*
X29657142Y17400000D01*
X29733333Y17438096D01*
X29923809Y17438096D01*
X30038095Y17400000D01*
X30380952Y16638096D02*
X30380952Y17438096D01*
X30685714Y17438096D01*
X30761904Y17400000D01*
X30800000Y17361905D01*
X30838095Y17285715D01*
X30838095Y17171429D01*
X30800000Y17095239D01*
X30761904Y17057143D01*
X30685714Y17019048D01*
X30380952Y17019048D01*
X31104761Y17438096D02*
X31600000Y17438096D01*
X31333333Y17133334D01*
X31447619Y17133334D01*
X31523809Y17095239D01*
X31561904Y17057143D01*
X31600000Y16980953D01*
X31600000Y16790477D01*
X31561904Y16714286D01*
X31523809Y16676191D01*
X31447619Y16638096D01*
X31219047Y16638096D01*
X31142857Y16676191D01*
X31104761Y16714286D01*
X31904761Y17361905D02*
X31942857Y17400000D01*
X32019047Y17438096D01*
X32209523Y17438096D01*
X32285714Y17400000D01*
X32323809Y17361905D01*
X32361904Y17285715D01*
X32361904Y17209524D01*
X32323809Y17095239D01*
X31866666Y16638096D01*
X32361904Y16638096D01*
X32704761Y16942858D02*
X33314285Y16942858D01*
X33695238Y16638096D02*
X33695238Y17438096D01*
X33885714Y17438096D01*
X34000000Y17400000D01*
X34076190Y17323810D01*
X34114285Y17247620D01*
X34152380Y17095239D01*
X34152380Y16980953D01*
X34114285Y16828572D01*
X34076190Y16752381D01*
X34000000Y16676191D01*
X33885714Y16638096D01*
X33695238Y16638096D01*
X34761904Y17057143D02*
X34876190Y17019048D01*
X34914285Y16980953D01*
X34952380Y16904762D01*
X34952380Y16790477D01*
X34914285Y16714286D01*
X34876190Y16676191D01*
X34800000Y16638096D01*
X34495238Y16638096D01*
X34495238Y17438096D01*
X34761904Y17438096D01*
X34838095Y17400000D01*
X34876190Y17361905D01*
X34914285Y17285715D01*
X34914285Y17209524D01*
X34876190Y17133334D01*
X34838095Y17095239D01*
X34761904Y17057143D01*
X34495238Y17057143D01*
X35714285Y17400000D02*
X35638095Y17438096D01*
X35523809Y17438096D01*
X35409523Y17400000D01*
X35333333Y17323810D01*
X35295238Y17247620D01*
X35257142Y17095239D01*
X35257142Y16980953D01*
X35295238Y16828572D01*
X35333333Y16752381D01*
X35409523Y16676191D01*
X35523809Y16638096D01*
X35600000Y16638096D01*
X35714285Y16676191D01*
X35752380Y16714286D01*
X35752380Y16980953D01*
X35600000Y16980953D01*
X122485714Y33085715D02*
X122523809Y33047620D01*
X122561904Y32933334D01*
X122561904Y32857143D01*
X122523809Y32742858D01*
X122447619Y32666667D01*
X122371428Y32628572D01*
X122219047Y32590477D01*
X122104761Y32590477D01*
X121952380Y32628572D01*
X121876190Y32666667D01*
X121800000Y32742858D01*
X121761904Y32857143D01*
X121761904Y32933334D01*
X121800000Y33047620D01*
X121838095Y33085715D01*
X122561904Y33847620D02*
X122561904Y33390477D01*
X122561904Y33619048D02*
X121761904Y33619048D01*
X121876190Y33542858D01*
X121952380Y33466667D01*
X121990476Y33390477D01*
X122561904Y34228572D02*
X122561904Y34380953D01*
X122523809Y34457143D01*
X122485714Y34495239D01*
X122371428Y34571429D01*
X122219047Y34609524D01*
X121914285Y34609524D01*
X121838095Y34571429D01*
X121800000Y34533334D01*
X121761904Y34457143D01*
X121761904Y34304762D01*
X121800000Y34228572D01*
X121838095Y34190477D01*
X121914285Y34152381D01*
X122104761Y34152381D01*
X122180952Y34190477D01*
X122219047Y34228572D01*
X122257142Y34304762D01*
X122257142Y34457143D01*
X122219047Y34533334D01*
X122180952Y34571429D01*
X122104761Y34609524D01*
X108785714Y27514286D02*
X108747619Y27476191D01*
X108633333Y27438096D01*
X108557142Y27438096D01*
X108442857Y27476191D01*
X108366666Y27552381D01*
X108328571Y27628572D01*
X108290476Y27780953D01*
X108290476Y27895239D01*
X108328571Y28047620D01*
X108366666Y28123810D01*
X108442857Y28200000D01*
X108557142Y28238096D01*
X108633333Y28238096D01*
X108747619Y28200000D01*
X108785714Y28161905D01*
X109547619Y27438096D02*
X109090476Y27438096D01*
X109319047Y27438096D02*
X109319047Y28238096D01*
X109242857Y28123810D01*
X109166666Y28047620D01*
X109090476Y28009524D01*
X110233333Y28238096D02*
X110080952Y28238096D01*
X110004761Y28200000D01*
X109966666Y28161905D01*
X109890476Y28047620D01*
X109852380Y27895239D01*
X109852380Y27590477D01*
X109890476Y27514286D01*
X109928571Y27476191D01*
X110004761Y27438096D01*
X110157142Y27438096D01*
X110233333Y27476191D01*
X110271428Y27514286D01*
X110309523Y27590477D01*
X110309523Y27780953D01*
X110271428Y27857143D01*
X110233333Y27895239D01*
X110157142Y27933334D01*
X110004761Y27933334D01*
X109928571Y27895239D01*
X109890476Y27857143D01*
X109852380Y27780953D01*
X101285714Y49114286D02*
X101247619Y49076191D01*
X101133333Y49038096D01*
X101057142Y49038096D01*
X100942857Y49076191D01*
X100866666Y49152381D01*
X100828571Y49228572D01*
X100790476Y49380953D01*
X100790476Y49495239D01*
X100828571Y49647620D01*
X100866666Y49723810D01*
X100942857Y49800000D01*
X101057142Y49838096D01*
X101133333Y49838096D01*
X101247619Y49800000D01*
X101285714Y49761905D01*
X102047619Y49038096D02*
X101590476Y49038096D01*
X101819047Y49038096D02*
X101819047Y49838096D01*
X101742857Y49723810D01*
X101666666Y49647620D01*
X101590476Y49609524D01*
X102352380Y49761905D02*
X102390476Y49800000D01*
X102466666Y49838096D01*
X102657142Y49838096D01*
X102733333Y49800000D01*
X102771428Y49761905D01*
X102809523Y49685715D01*
X102809523Y49609524D01*
X102771428Y49495239D01*
X102314285Y49038096D01*
X102809523Y49038096D01*
X51985714Y30166667D02*
X52023809Y30128572D01*
X52061904Y30014286D01*
X52061904Y29938096D01*
X52023809Y29823810D01*
X51947619Y29747620D01*
X51871428Y29709524D01*
X51719047Y29671429D01*
X51604761Y29671429D01*
X51452380Y29709524D01*
X51376190Y29747620D01*
X51300000Y29823810D01*
X51261904Y29938096D01*
X51261904Y30014286D01*
X51300000Y30128572D01*
X51338095Y30166667D01*
X51261904Y30890477D02*
X51261904Y30509524D01*
X51642857Y30471429D01*
X51604761Y30509524D01*
X51566666Y30585715D01*
X51566666Y30776191D01*
X51604761Y30852381D01*
X51642857Y30890477D01*
X51719047Y30928572D01*
X51909523Y30928572D01*
X51985714Y30890477D01*
X52023809Y30852381D01*
X52061904Y30776191D01*
X52061904Y30585715D01*
X52023809Y30509524D01*
X51985714Y30471429D01*
X44390476Y14100000D02*
X44314285Y14138096D01*
X44200000Y14138096D01*
X44085714Y14100000D01*
X44009523Y14023810D01*
X43971428Y13947620D01*
X43933333Y13795239D01*
X43933333Y13680953D01*
X43971428Y13528572D01*
X44009523Y13452381D01*
X44085714Y13376191D01*
X44200000Y13338096D01*
X44276190Y13338096D01*
X44390476Y13376191D01*
X44428571Y13414286D01*
X44428571Y13680953D01*
X44276190Y13680953D01*
X44771428Y13338096D02*
X44771428Y14138096D01*
X45228571Y13338096D01*
X45228571Y14138096D01*
X45609523Y13338096D02*
X45609523Y14138096D01*
X45800000Y14138096D01*
X45914285Y14100000D01*
X45990476Y14023810D01*
X46028571Y13947620D01*
X46066666Y13795239D01*
X46066666Y13680953D01*
X46028571Y13528572D01*
X45990476Y13452381D01*
X45914285Y13376191D01*
X45800000Y13338096D01*
X45609523Y13338096D01*
X110300000Y21473929D02*
X110261904Y21397739D01*
X110261904Y21283453D01*
X110300000Y21169167D01*
X110376190Y21092977D01*
X110452380Y21054881D01*
X110604761Y21016786D01*
X110719047Y21016786D01*
X110871428Y21054881D01*
X110947619Y21092977D01*
X111023809Y21169167D01*
X111061904Y21283453D01*
X111061904Y21359643D01*
X111023809Y21473929D01*
X110985714Y21512024D01*
X110719047Y21512024D01*
X110719047Y21359643D01*
X111061904Y21854881D02*
X110261904Y21854881D01*
X111061904Y22312024D01*
X110261904Y22312024D01*
X111061904Y22692977D02*
X110261904Y22692977D01*
X110261904Y22883453D01*
X110300000Y22997739D01*
X110376190Y23073929D01*
X110452380Y23112024D01*
X110604761Y23150120D01*
X110719047Y23150120D01*
X110871428Y23112024D01*
X110947619Y23073929D01*
X111023809Y22997739D01*
X111061904Y22883453D01*
X111061904Y22692977D01*
X120933333Y51938096D02*
X121200000Y51138096D01*
X121466666Y51938096D01*
X121733333Y51938096D02*
X121733333Y51290477D01*
X121771428Y51214286D01*
X121809523Y51176191D01*
X121885714Y51138096D01*
X122038095Y51138096D01*
X122114285Y51176191D01*
X122152380Y51214286D01*
X122190476Y51290477D01*
X122190476Y51938096D01*
X122533333Y51176191D02*
X122647619Y51138096D01*
X122838095Y51138096D01*
X122914285Y51176191D01*
X122952380Y51214286D01*
X122990476Y51290477D01*
X122990476Y51366667D01*
X122952380Y51442858D01*
X122914285Y51480953D01*
X122838095Y51519048D01*
X122685714Y51557143D01*
X122609523Y51595239D01*
X122571428Y51633334D01*
X122533333Y51709524D01*
X122533333Y51785715D01*
X122571428Y51861905D01*
X122609523Y51900000D01*
X122685714Y51938096D01*
X122876190Y51938096D01*
X122990476Y51900000D01*
X123600000Y51557143D02*
X123714285Y51519048D01*
X123752380Y51480953D01*
X123790476Y51404762D01*
X123790476Y51290477D01*
X123752380Y51214286D01*
X123714285Y51176191D01*
X123638095Y51138096D01*
X123333333Y51138096D01*
X123333333Y51938096D01*
X123600000Y51938096D01*
X123676190Y51900000D01*
X123714285Y51861905D01*
X123752380Y51785715D01*
X123752380Y51709524D01*
X123714285Y51633334D01*
X123676190Y51595239D01*
X123600000Y51557143D01*
X123333333Y51557143D01*
X107023809Y21107262D02*
X107061904Y21221548D01*
X107061904Y21412024D01*
X107023809Y21488215D01*
X106985714Y21526310D01*
X106909523Y21564405D01*
X106833333Y21564405D01*
X106757142Y21526310D01*
X106719047Y21488215D01*
X106680952Y21412024D01*
X106642857Y21259643D01*
X106604761Y21183453D01*
X106566666Y21145358D01*
X106490476Y21107262D01*
X106414285Y21107262D01*
X106338095Y21145358D01*
X106300000Y21183453D01*
X106261904Y21259643D01*
X106261904Y21450120D01*
X106300000Y21564405D01*
X107061904Y21907262D02*
X106261904Y21907262D01*
X106261904Y22097739D01*
X106300000Y22212024D01*
X106376190Y22288215D01*
X106452380Y22326310D01*
X106604761Y22364405D01*
X106719047Y22364405D01*
X106871428Y22326310D01*
X106947619Y22288215D01*
X107023809Y22212024D01*
X107061904Y22097739D01*
X107061904Y21907262D01*
X106833333Y22669167D02*
X106833333Y23050120D01*
X107061904Y22592977D02*
X106261904Y22859643D01*
X107061904Y23126310D01*
X105023809Y21145358D02*
X105061904Y21259643D01*
X105061904Y21450120D01*
X105023809Y21526310D01*
X104985714Y21564405D01*
X104909523Y21602500D01*
X104833333Y21602500D01*
X104757142Y21564405D01*
X104719047Y21526310D01*
X104680952Y21450120D01*
X104642857Y21297739D01*
X104604761Y21221548D01*
X104566666Y21183453D01*
X104490476Y21145358D01*
X104414285Y21145358D01*
X104338095Y21183453D01*
X104300000Y21221548D01*
X104261904Y21297739D01*
X104261904Y21488215D01*
X104300000Y21602500D01*
X104985714Y22402500D02*
X105023809Y22364405D01*
X105061904Y22250120D01*
X105061904Y22173929D01*
X105023809Y22059643D01*
X104947619Y21983453D01*
X104871428Y21945358D01*
X104719047Y21907262D01*
X104604761Y21907262D01*
X104452380Y21945358D01*
X104376190Y21983453D01*
X104300000Y22059643D01*
X104261904Y22173929D01*
X104261904Y22250120D01*
X104300000Y22364405D01*
X104338095Y22402500D01*
X105061904Y23126310D02*
X105061904Y22745358D01*
X104261904Y22745358D01*
X40009523Y14138096D02*
X40504761Y14138096D01*
X40238095Y13833334D01*
X40352380Y13833334D01*
X40428571Y13795239D01*
X40466666Y13757143D01*
X40504761Y13680953D01*
X40504761Y13490477D01*
X40466666Y13414286D01*
X40428571Y13376191D01*
X40352380Y13338096D01*
X40123809Y13338096D01*
X40047619Y13376191D01*
X40009523Y13414286D01*
X40733333Y14138096D02*
X41000000Y13338096D01*
X41266666Y14138096D01*
X41457142Y14138096D02*
X41952380Y14138096D01*
X41685714Y13833334D01*
X41800000Y13833334D01*
X41876190Y13795239D01*
X41914285Y13757143D01*
X41952380Y13680953D01*
X41952380Y13490477D01*
X41914285Y13414286D01*
X41876190Y13376191D01*
X41800000Y13338096D01*
X41571428Y13338096D01*
X41495238Y13376191D01*
X41457142Y13414286D01*
X108261904Y20407262D02*
X109061904Y20673929D01*
X108261904Y20940596D01*
X109061904Y21207262D02*
X108261904Y21207262D01*
X108261904Y21397739D01*
X108300000Y21512024D01*
X108376190Y21588215D01*
X108452380Y21626310D01*
X108604761Y21664405D01*
X108719047Y21664405D01*
X108871428Y21626310D01*
X108947619Y21588215D01*
X109023809Y21512024D01*
X109061904Y21397739D01*
X109061904Y21207262D01*
X109061904Y22007262D02*
X108261904Y22007262D01*
X108261904Y22197739D01*
X108300000Y22312024D01*
X108376190Y22388215D01*
X108452380Y22426310D01*
X108604761Y22464405D01*
X108719047Y22464405D01*
X108871428Y22426310D01*
X108947619Y22388215D01*
X109023809Y22312024D01*
X109061904Y22197739D01*
X109061904Y22007262D01*
X108833333Y22769167D02*
X108833333Y23150120D01*
X109061904Y22692977D02*
X108261904Y22959643D01*
X109061904Y23226310D01*
X6685714Y15614286D02*
X6647619Y15576191D01*
X6533333Y15538096D01*
X6457142Y15538096D01*
X6342857Y15576191D01*
X6266666Y15652381D01*
X6228571Y15728572D01*
X6190476Y15880953D01*
X6190476Y15995239D01*
X6228571Y16147620D01*
X6266666Y16223810D01*
X6342857Y16300000D01*
X6457142Y16338096D01*
X6533333Y16338096D01*
X6647619Y16300000D01*
X6685714Y16261905D01*
X6990476Y16261905D02*
X7028571Y16300000D01*
X7104761Y16338096D01*
X7295238Y16338096D01*
X7371428Y16300000D01*
X7409523Y16261905D01*
X7447619Y16185715D01*
X7447619Y16109524D01*
X7409523Y15995239D01*
X6952380Y15538096D01*
X7447619Y15538096D01*
X8133333Y16338096D02*
X7980952Y16338096D01*
X7904761Y16300000D01*
X7866666Y16261905D01*
X7790476Y16147620D01*
X7752380Y15995239D01*
X7752380Y15690477D01*
X7790476Y15614286D01*
X7828571Y15576191D01*
X7904761Y15538096D01*
X8057142Y15538096D01*
X8133333Y15576191D01*
X8171428Y15614286D01*
X8209523Y15690477D01*
X8209523Y15880953D01*
X8171428Y15957143D01*
X8133333Y15995239D01*
X8057142Y16033334D01*
X7904761Y16033334D01*
X7828571Y15995239D01*
X7790476Y15957143D01*
X7752380Y15880953D01*
X21285714Y3314286D02*
X21247619Y3276191D01*
X21133333Y3238096D01*
X21057142Y3238096D01*
X20942857Y3276191D01*
X20866666Y3352381D01*
X20828571Y3428572D01*
X20790476Y3580953D01*
X20790476Y3695239D01*
X20828571Y3847620D01*
X20866666Y3923810D01*
X20942857Y4000000D01*
X21057142Y4038096D01*
X21133333Y4038096D01*
X21247619Y4000000D01*
X21285714Y3961905D01*
X21590476Y3961905D02*
X21628571Y4000000D01*
X21704761Y4038096D01*
X21895238Y4038096D01*
X21971428Y4000000D01*
X22009523Y3961905D01*
X22047619Y3885715D01*
X22047619Y3809524D01*
X22009523Y3695239D01*
X21552380Y3238096D01*
X22047619Y3238096D01*
X22733333Y3771429D02*
X22733333Y3238096D01*
X22542857Y4076191D02*
X22352380Y3504762D01*
X22847619Y3504762D01*
X48366666Y20314286D02*
X48328571Y20276191D01*
X48214285Y20238096D01*
X48138095Y20238096D01*
X48023809Y20276191D01*
X47947619Y20352381D01*
X47909523Y20428572D01*
X47871428Y20580953D01*
X47871428Y20695239D01*
X47909523Y20847620D01*
X47947619Y20923810D01*
X48023809Y21000000D01*
X48138095Y21038096D01*
X48214285Y21038096D01*
X48328571Y21000000D01*
X48366666Y20961905D01*
X48633333Y21038096D02*
X49166666Y21038096D01*
X48823809Y20238096D01*
X21361904Y36990477D02*
X22009523Y36990477D01*
X22085714Y37028572D01*
X22123809Y37066667D01*
X22161904Y37142858D01*
X22161904Y37295239D01*
X22123809Y37371429D01*
X22085714Y37409524D01*
X22009523Y37447620D01*
X21361904Y37447620D01*
X21704761Y37942858D02*
X21666666Y37866667D01*
X21628571Y37828572D01*
X21552380Y37790477D01*
X21514285Y37790477D01*
X21438095Y37828572D01*
X21400000Y37866667D01*
X21361904Y37942858D01*
X21361904Y38095239D01*
X21400000Y38171429D01*
X21438095Y38209524D01*
X21514285Y38247620D01*
X21552380Y38247620D01*
X21628571Y38209524D01*
X21666666Y38171429D01*
X21704761Y38095239D01*
X21704761Y37942858D01*
X21742857Y37866667D01*
X21780952Y37828572D01*
X21857142Y37790477D01*
X22009523Y37790477D01*
X22085714Y37828572D01*
X22123809Y37866667D01*
X22161904Y37942858D01*
X22161904Y38095239D01*
X22123809Y38171429D01*
X22085714Y38209524D01*
X22009523Y38247620D01*
X21857142Y38247620D01*
X21780952Y38209524D01*
X21742857Y38171429D01*
X21704761Y38095239D01*
X43585714Y24166667D02*
X43623809Y24128572D01*
X43661904Y24014286D01*
X43661904Y23938096D01*
X43623809Y23823810D01*
X43547619Y23747620D01*
X43471428Y23709524D01*
X43319047Y23671429D01*
X43204761Y23671429D01*
X43052380Y23709524D01*
X42976190Y23747620D01*
X42900000Y23823810D01*
X42861904Y23938096D01*
X42861904Y24014286D01*
X42900000Y24128572D01*
X42938095Y24166667D01*
X42861904Y24852381D02*
X42861904Y24700000D01*
X42900000Y24623810D01*
X42938095Y24585715D01*
X43052380Y24509524D01*
X43204761Y24471429D01*
X43509523Y24471429D01*
X43585714Y24509524D01*
X43623809Y24547620D01*
X43661904Y24623810D01*
X43661904Y24776191D01*
X43623809Y24852381D01*
X43585714Y24890477D01*
X43509523Y24928572D01*
X43319047Y24928572D01*
X43242857Y24890477D01*
X43204761Y24852381D01*
X43166666Y24776191D01*
X43166666Y24623810D01*
X43204761Y24547620D01*
X43242857Y24509524D01*
X43319047Y24471429D01*
X115385714Y53264286D02*
X115347619Y53226191D01*
X115233333Y53188096D01*
X115157142Y53188096D01*
X115042857Y53226191D01*
X114966666Y53302381D01*
X114928571Y53378572D01*
X114890476Y53530953D01*
X114890476Y53645239D01*
X114928571Y53797620D01*
X114966666Y53873810D01*
X115042857Y53950000D01*
X115157142Y53988096D01*
X115233333Y53988096D01*
X115347619Y53950000D01*
X115385714Y53911905D01*
X116147619Y53188096D02*
X115690476Y53188096D01*
X115919047Y53188096D02*
X115919047Y53988096D01*
X115842857Y53873810D01*
X115766666Y53797620D01*
X115690476Y53759524D01*
X116871428Y53988096D02*
X116490476Y53988096D01*
X116452380Y53607143D01*
X116490476Y53645239D01*
X116566666Y53683334D01*
X116757142Y53683334D01*
X116833333Y53645239D01*
X116871428Y53607143D01*
X116909523Y53530953D01*
X116909523Y53340477D01*
X116871428Y53264286D01*
X116833333Y53226191D01*
X116757142Y53188096D01*
X116566666Y53188096D01*
X116490476Y53226191D01*
X116452380Y53264286D01*
X10585714Y10614286D02*
X10547619Y10576191D01*
X10433333Y10538096D01*
X10357142Y10538096D01*
X10242857Y10576191D01*
X10166666Y10652381D01*
X10128571Y10728572D01*
X10090476Y10880953D01*
X10090476Y10995239D01*
X10128571Y11147620D01*
X10166666Y11223810D01*
X10242857Y11300000D01*
X10357142Y11338096D01*
X10433333Y11338096D01*
X10547619Y11300000D01*
X10585714Y11261905D01*
X10890476Y11261905D02*
X10928571Y11300000D01*
X11004761Y11338096D01*
X11195238Y11338096D01*
X11271428Y11300000D01*
X11309523Y11261905D01*
X11347619Y11185715D01*
X11347619Y11109524D01*
X11309523Y10995239D01*
X10852380Y10538096D01*
X11347619Y10538096D01*
X11804761Y10995239D02*
X11728571Y11033334D01*
X11690476Y11071429D01*
X11652380Y11147620D01*
X11652380Y11185715D01*
X11690476Y11261905D01*
X11728571Y11300000D01*
X11804761Y11338096D01*
X11957142Y11338096D01*
X12033333Y11300000D01*
X12071428Y11261905D01*
X12109523Y11185715D01*
X12109523Y11147620D01*
X12071428Y11071429D01*
X12033333Y11033334D01*
X11957142Y10995239D01*
X11804761Y10995239D01*
X11728571Y10957143D01*
X11690476Y10919048D01*
X11652380Y10842858D01*
X11652380Y10690477D01*
X11690476Y10614286D01*
X11728571Y10576191D01*
X11804761Y10538096D01*
X11957142Y10538096D01*
X12033333Y10576191D01*
X12071428Y10614286D01*
X12109523Y10690477D01*
X12109523Y10842858D01*
X12071428Y10919048D01*
X12033333Y10957143D01*
X11957142Y10995239D01*
X6585714Y12914286D02*
X6547619Y12876191D01*
X6433333Y12838096D01*
X6357142Y12838096D01*
X6242857Y12876191D01*
X6166666Y12952381D01*
X6128571Y13028572D01*
X6090476Y13180953D01*
X6090476Y13295239D01*
X6128571Y13447620D01*
X6166666Y13523810D01*
X6242857Y13600000D01*
X6357142Y13638096D01*
X6433333Y13638096D01*
X6547619Y13600000D01*
X6585714Y13561905D01*
X6890476Y13561905D02*
X6928571Y13600000D01*
X7004761Y13638096D01*
X7195238Y13638096D01*
X7271428Y13600000D01*
X7309523Y13561905D01*
X7347619Y13485715D01*
X7347619Y13409524D01*
X7309523Y13295239D01*
X6852380Y12838096D01*
X7347619Y12838096D01*
X7614285Y13638096D02*
X8147619Y13638096D01*
X7804761Y12838096D01*
X124085714Y26385715D02*
X124123809Y26347620D01*
X124161904Y26233334D01*
X124161904Y26157143D01*
X124123809Y26042858D01*
X124047619Y25966667D01*
X123971428Y25928572D01*
X123819047Y25890477D01*
X123704761Y25890477D01*
X123552380Y25928572D01*
X123476190Y25966667D01*
X123400000Y26042858D01*
X123361904Y26157143D01*
X123361904Y26233334D01*
X123400000Y26347620D01*
X123438095Y26385715D01*
X124161904Y27147620D02*
X124161904Y26690477D01*
X124161904Y26919048D02*
X123361904Y26919048D01*
X123476190Y26842858D01*
X123552380Y26766667D01*
X123590476Y26690477D01*
X123704761Y27604762D02*
X123666666Y27528572D01*
X123628571Y27490477D01*
X123552380Y27452381D01*
X123514285Y27452381D01*
X123438095Y27490477D01*
X123400000Y27528572D01*
X123361904Y27604762D01*
X123361904Y27757143D01*
X123400000Y27833334D01*
X123438095Y27871429D01*
X123514285Y27909524D01*
X123552380Y27909524D01*
X123628571Y27871429D01*
X123666666Y27833334D01*
X123704761Y27757143D01*
X123704761Y27604762D01*
X123742857Y27528572D01*
X123780952Y27490477D01*
X123857142Y27452381D01*
X124009523Y27452381D01*
X124085714Y27490477D01*
X124123809Y27528572D01*
X124161904Y27604762D01*
X124161904Y27757143D01*
X124123809Y27833334D01*
X124085714Y27871429D01*
X124009523Y27909524D01*
X123857142Y27909524D01*
X123780952Y27871429D01*
X123742857Y27833334D01*
X123704761Y27757143D01*
X110685714Y50185715D02*
X110723809Y50147620D01*
X110761904Y50033334D01*
X110761904Y49957143D01*
X110723809Y49842858D01*
X110647619Y49766667D01*
X110571428Y49728572D01*
X110419047Y49690477D01*
X110304761Y49690477D01*
X110152380Y49728572D01*
X110076190Y49766667D01*
X110000000Y49842858D01*
X109961904Y49957143D01*
X109961904Y50033334D01*
X110000000Y50147620D01*
X110038095Y50185715D01*
X110761904Y50947620D02*
X110761904Y50490477D01*
X110761904Y50719048D02*
X109961904Y50719048D01*
X110076190Y50642858D01*
X110152380Y50566667D01*
X110190476Y50490477D01*
X110228571Y51633334D02*
X110761904Y51633334D01*
X109923809Y51442858D02*
X110495238Y51252381D01*
X110495238Y51747620D01*
X54885714Y31814286D02*
X54847619Y31776191D01*
X54733333Y31738096D01*
X54657142Y31738096D01*
X54542857Y31776191D01*
X54466666Y31852381D01*
X54428571Y31928572D01*
X54390476Y32080953D01*
X54390476Y32195239D01*
X54428571Y32347620D01*
X54466666Y32423810D01*
X54542857Y32500000D01*
X54657142Y32538096D01*
X54733333Y32538096D01*
X54847619Y32500000D01*
X54885714Y32461905D01*
X55647619Y31738096D02*
X55190476Y31738096D01*
X55419047Y31738096D02*
X55419047Y32538096D01*
X55342857Y32423810D01*
X55266666Y32347620D01*
X55190476Y32309524D01*
X56142857Y32538096D02*
X56219047Y32538096D01*
X56295238Y32500000D01*
X56333333Y32461905D01*
X56371428Y32385715D01*
X56409523Y32233334D01*
X56409523Y32042858D01*
X56371428Y31890477D01*
X56333333Y31814286D01*
X56295238Y31776191D01*
X56219047Y31738096D01*
X56142857Y31738096D01*
X56066666Y31776191D01*
X56028571Y31814286D01*
X55990476Y31890477D01*
X55952380Y32042858D01*
X55952380Y32233334D01*
X55990476Y32385715D01*
X56028571Y32461905D01*
X56066666Y32500000D01*
X56142857Y32538096D01*
X70766666Y31814286D02*
X70728571Y31776191D01*
X70614285Y31738096D01*
X70538095Y31738096D01*
X70423809Y31776191D01*
X70347619Y31852381D01*
X70309523Y31928572D01*
X70271428Y32080953D01*
X70271428Y32195239D01*
X70309523Y32347620D01*
X70347619Y32423810D01*
X70423809Y32500000D01*
X70538095Y32538096D01*
X70614285Y32538096D01*
X70728571Y32500000D01*
X70766666Y32461905D01*
X71223809Y32195239D02*
X71147619Y32233334D01*
X71109523Y32271429D01*
X71071428Y32347620D01*
X71071428Y32385715D01*
X71109523Y32461905D01*
X71147619Y32500000D01*
X71223809Y32538096D01*
X71376190Y32538096D01*
X71452380Y32500000D01*
X71490476Y32461905D01*
X71528571Y32385715D01*
X71528571Y32347620D01*
X71490476Y32271429D01*
X71452380Y32233334D01*
X71376190Y32195239D01*
X71223809Y32195239D01*
X71147619Y32157143D01*
X71109523Y32119048D01*
X71071428Y32042858D01*
X71071428Y31890477D01*
X71109523Y31814286D01*
X71147619Y31776191D01*
X71223809Y31738096D01*
X71376190Y31738096D01*
X71452380Y31776191D01*
X71490476Y31814286D01*
X71528571Y31890477D01*
X71528571Y32042858D01*
X71490476Y32119048D01*
X71452380Y32157143D01*
X71376190Y32195239D01*
X93309523Y55238096D02*
X93309523Y56038096D01*
X93500000Y56038096D01*
X93614285Y56000000D01*
X93690476Y55923810D01*
X93728571Y55847620D01*
X93766666Y55695239D01*
X93766666Y55580953D01*
X93728571Y55428572D01*
X93690476Y55352381D01*
X93614285Y55276191D01*
X93500000Y55238096D01*
X93309523Y55238096D01*
X94071428Y55961905D02*
X94109523Y56000000D01*
X94185714Y56038096D01*
X94376190Y56038096D01*
X94452380Y56000000D01*
X94490476Y55961905D01*
X94528571Y55885715D01*
X94528571Y55809524D01*
X94490476Y55695239D01*
X94033333Y55238096D01*
X94528571Y55238096D01*
X71061904Y35990477D02*
X71709523Y35990477D01*
X71785714Y36028572D01*
X71823809Y36066667D01*
X71861904Y36142858D01*
X71861904Y36295239D01*
X71823809Y36371429D01*
X71785714Y36409524D01*
X71709523Y36447620D01*
X71061904Y36447620D01*
X71061904Y36752381D02*
X71061904Y37247620D01*
X71366666Y36980953D01*
X71366666Y37095239D01*
X71404761Y37171429D01*
X71442857Y37209524D01*
X71519047Y37247620D01*
X71709523Y37247620D01*
X71785714Y37209524D01*
X71823809Y37171429D01*
X71861904Y37095239D01*
X71861904Y36866667D01*
X71823809Y36790477D01*
X71785714Y36752381D01*
X116861904Y26290477D02*
X117509523Y26290477D01*
X117585714Y26328572D01*
X117623809Y26366667D01*
X117661904Y26442858D01*
X117661904Y26595239D01*
X117623809Y26671429D01*
X117585714Y26709524D01*
X117509523Y26747620D01*
X116861904Y26747620D01*
X116861904Y27471429D02*
X116861904Y27319048D01*
X116900000Y27242858D01*
X116938095Y27204762D01*
X117052380Y27128572D01*
X117204761Y27090477D01*
X117509523Y27090477D01*
X117585714Y27128572D01*
X117623809Y27166667D01*
X117661904Y27242858D01*
X117661904Y27395239D01*
X117623809Y27471429D01*
X117585714Y27509524D01*
X117509523Y27547620D01*
X117319047Y27547620D01*
X117242857Y27509524D01*
X117204761Y27471429D01*
X117166666Y27395239D01*
X117166666Y27242858D01*
X117204761Y27166667D01*
X117242857Y27128572D01*
X117319047Y27090477D01*
X60161904Y35990477D02*
X60809523Y35990477D01*
X60885714Y36028572D01*
X60923809Y36066667D01*
X60961904Y36142858D01*
X60961904Y36295239D01*
X60923809Y36371429D01*
X60885714Y36409524D01*
X60809523Y36447620D01*
X60161904Y36447620D01*
X60428571Y37171429D02*
X60961904Y37171429D01*
X60123809Y36980953D02*
X60695238Y36790477D01*
X60695238Y37285715D01*
X92390476Y33138096D02*
X92390476Y32490477D01*
X92428571Y32414286D01*
X92466666Y32376191D01*
X92542857Y32338096D01*
X92695238Y32338096D01*
X92771428Y32376191D01*
X92809523Y32414286D01*
X92847619Y32490477D01*
X92847619Y33138096D01*
X93647619Y32338096D02*
X93190476Y32338096D01*
X93419047Y32338096D02*
X93419047Y33138096D01*
X93342857Y33023810D01*
X93266666Y32947620D01*
X93190476Y32909524D01*
X64766666Y33538096D02*
X64500000Y33919048D01*
X64309523Y33538096D02*
X64309523Y34338096D01*
X64614285Y34338096D01*
X64690476Y34300000D01*
X64728571Y34261905D01*
X64766666Y34185715D01*
X64766666Y34071429D01*
X64728571Y33995239D01*
X64690476Y33957143D01*
X64614285Y33919048D01*
X64309523Y33919048D01*
X65033333Y34338096D02*
X65566666Y34338096D01*
X65223809Y33538096D01*
X79866666Y33538096D02*
X79600000Y33919048D01*
X79409523Y33538096D02*
X79409523Y34338096D01*
X79714285Y34338096D01*
X79790476Y34300000D01*
X79828571Y34261905D01*
X79866666Y34185715D01*
X79866666Y34071429D01*
X79828571Y33995239D01*
X79790476Y33957143D01*
X79714285Y33919048D01*
X79409523Y33919048D01*
X80133333Y34338096D02*
X80628571Y34338096D01*
X80361904Y34033334D01*
X80476190Y34033334D01*
X80552380Y33995239D01*
X80590476Y33957143D01*
X80628571Y33880953D01*
X80628571Y33690477D01*
X80590476Y33614286D01*
X80552380Y33576191D01*
X80476190Y33538096D01*
X80247619Y33538096D01*
X80171428Y33576191D01*
X80133333Y33614286D01*
X22123809Y11161905D02*
X22047619Y11200000D01*
X21971428Y11276191D01*
X21857142Y11390477D01*
X21780952Y11428572D01*
X21704761Y11428572D01*
X21742857Y11238096D02*
X21666666Y11276191D01*
X21590476Y11352381D01*
X21552380Y11504762D01*
X21552380Y11771429D01*
X21590476Y11923810D01*
X21666666Y12000000D01*
X21742857Y12038096D01*
X21895238Y12038096D01*
X21971428Y12000000D01*
X22047619Y11923810D01*
X22085714Y11771429D01*
X22085714Y11504762D01*
X22047619Y11352381D01*
X21971428Y11276191D01*
X21895238Y11238096D01*
X21742857Y11238096D01*
X22542857Y11695239D02*
X22466666Y11733334D01*
X22428571Y11771429D01*
X22390476Y11847620D01*
X22390476Y11885715D01*
X22428571Y11961905D01*
X22466666Y12000000D01*
X22542857Y12038096D01*
X22695238Y12038096D01*
X22771428Y12000000D01*
X22809523Y11961905D01*
X22847619Y11885715D01*
X22847619Y11847620D01*
X22809523Y11771429D01*
X22771428Y11733334D01*
X22695238Y11695239D01*
X22542857Y11695239D01*
X22466666Y11657143D01*
X22428571Y11619048D01*
X22390476Y11542858D01*
X22390476Y11390477D01*
X22428571Y11314286D01*
X22466666Y11276191D01*
X22542857Y11238096D01*
X22695238Y11238096D01*
X22771428Y11276191D01*
X22809523Y11314286D01*
X22847619Y11390477D01*
X22847619Y11542858D01*
X22809523Y11619048D01*
X22771428Y11657143D01*
X22695238Y11695239D01*
X91623809Y40561905D02*
X91547619Y40600000D01*
X91471428Y40676191D01*
X91357142Y40790477D01*
X91280952Y40828572D01*
X91204761Y40828572D01*
X91242857Y40638096D02*
X91166666Y40676191D01*
X91090476Y40752381D01*
X91052380Y40904762D01*
X91052380Y41171429D01*
X91090476Y41323810D01*
X91166666Y41400000D01*
X91242857Y41438096D01*
X91395238Y41438096D01*
X91471428Y41400000D01*
X91547619Y41323810D01*
X91585714Y41171429D01*
X91585714Y40904762D01*
X91547619Y40752381D01*
X91471428Y40676191D01*
X91395238Y40638096D01*
X91242857Y40638096D01*
X92309523Y41438096D02*
X91928571Y41438096D01*
X91890476Y41057143D01*
X91928571Y41095239D01*
X92004761Y41133334D01*
X92195238Y41133334D01*
X92271428Y41095239D01*
X92309523Y41057143D01*
X92347619Y40980953D01*
X92347619Y40790477D01*
X92309523Y40714286D01*
X92271428Y40676191D01*
X92195238Y40638096D01*
X92004761Y40638096D01*
X91928571Y40676191D01*
X91890476Y40714286D01*
X55123809Y25561905D02*
X55047619Y25600000D01*
X54971428Y25676191D01*
X54857142Y25790477D01*
X54780952Y25828572D01*
X54704761Y25828572D01*
X54742857Y25638096D02*
X54666666Y25676191D01*
X54590476Y25752381D01*
X54552380Y25904762D01*
X54552380Y26171429D01*
X54590476Y26323810D01*
X54666666Y26400000D01*
X54742857Y26438096D01*
X54895238Y26438096D01*
X54971428Y26400000D01*
X55047619Y26323810D01*
X55085714Y26171429D01*
X55085714Y25904762D01*
X55047619Y25752381D01*
X54971428Y25676191D01*
X54895238Y25638096D01*
X54742857Y25638096D01*
X55352380Y26438096D02*
X55847619Y26438096D01*
X55580952Y26133334D01*
X55695238Y26133334D01*
X55771428Y26095239D01*
X55809523Y26057143D01*
X55847619Y25980953D01*
X55847619Y25790477D01*
X55809523Y25714286D01*
X55771428Y25676191D01*
X55695238Y25638096D01*
X55466666Y25638096D01*
X55390476Y25676191D01*
X55352380Y25714286D01*
X70223809Y25561905D02*
X70147619Y25600000D01*
X70071428Y25676191D01*
X69957142Y25790477D01*
X69880952Y25828572D01*
X69804761Y25828572D01*
X69842857Y25638096D02*
X69766666Y25676191D01*
X69690476Y25752381D01*
X69652380Y25904762D01*
X69652380Y26171429D01*
X69690476Y26323810D01*
X69766666Y26400000D01*
X69842857Y26438096D01*
X69995238Y26438096D01*
X70071428Y26400000D01*
X70147619Y26323810D01*
X70185714Y26171429D01*
X70185714Y25904762D01*
X70147619Y25752381D01*
X70071428Y25676191D01*
X69995238Y25638096D01*
X69842857Y25638096D01*
X70947619Y25638096D02*
X70490476Y25638096D01*
X70719047Y25638096D02*
X70719047Y26438096D01*
X70642857Y26323810D01*
X70566666Y26247620D01*
X70490476Y26209524D01*
X4690476Y7638096D02*
X4690476Y6990477D01*
X4728571Y6914286D01*
X4766666Y6876191D01*
X4842857Y6838096D01*
X4995238Y6838096D01*
X5071428Y6876191D01*
X5109523Y6914286D01*
X5147619Y6990477D01*
X5147619Y7638096D01*
X5566666Y6838096D02*
X5719047Y6838096D01*
X5795238Y6876191D01*
X5833333Y6914286D01*
X5909523Y7028572D01*
X5947619Y7180953D01*
X5947619Y7485715D01*
X5909523Y7561905D01*
X5871428Y7600000D01*
X5795238Y7638096D01*
X5642857Y7638096D01*
X5566666Y7600000D01*
X5528571Y7561905D01*
X5490476Y7485715D01*
X5490476Y7295239D01*
X5528571Y7219048D01*
X5566666Y7180953D01*
X5642857Y7142858D01*
X5795238Y7142858D01*
X5871428Y7180953D01*
X5909523Y7219048D01*
X5947619Y7295239D01*
X105585714Y38014286D02*
X105547619Y37976191D01*
X105433333Y37938096D01*
X105357142Y37938096D01*
X105242857Y37976191D01*
X105166666Y38052381D01*
X105128571Y38128572D01*
X105090476Y38280953D01*
X105090476Y38395239D01*
X105128571Y38547620D01*
X105166666Y38623810D01*
X105242857Y38700000D01*
X105357142Y38738096D01*
X105433333Y38738096D01*
X105547619Y38700000D01*
X105585714Y38661905D01*
X106347619Y37938096D02*
X105890476Y37938096D01*
X106119047Y37938096D02*
X106119047Y38738096D01*
X106042857Y38623810D01*
X105966666Y38547620D01*
X105890476Y38509524D01*
X106614285Y38738096D02*
X107109523Y38738096D01*
X106842857Y38433334D01*
X106957142Y38433334D01*
X107033333Y38395239D01*
X107071428Y38357143D01*
X107109523Y38280953D01*
X107109523Y38090477D01*
X107071428Y38014286D01*
X107033333Y37976191D01*
X106957142Y37938096D01*
X106728571Y37938096D01*
X106652380Y37976191D01*
X106614285Y38014286D01*
X102090476Y55338096D02*
X102090476Y54690477D01*
X102128571Y54614286D01*
X102166666Y54576191D01*
X102242857Y54538096D01*
X102395238Y54538096D01*
X102471428Y54576191D01*
X102509523Y54614286D01*
X102547619Y54690477D01*
X102547619Y55338096D01*
X103309523Y55338096D02*
X102928571Y55338096D01*
X102890476Y54957143D01*
X102928571Y54995239D01*
X103004761Y55033334D01*
X103195238Y55033334D01*
X103271428Y54995239D01*
X103309523Y54957143D01*
X103347619Y54880953D01*
X103347619Y54690477D01*
X103309523Y54614286D01*
X103271428Y54576191D01*
X103195238Y54538096D01*
X103004761Y54538096D01*
X102928571Y54576191D01*
X102890476Y54614286D01*
X49761904Y33385715D02*
X49380952Y33119048D01*
X49761904Y32928572D02*
X48961904Y32928572D01*
X48961904Y33233334D01*
X49000000Y33309524D01*
X49038095Y33347620D01*
X49114285Y33385715D01*
X49228571Y33385715D01*
X49304761Y33347620D01*
X49342857Y33309524D01*
X49380952Y33233334D01*
X49380952Y32928572D01*
X49038095Y33690477D02*
X49000000Y33728572D01*
X48961904Y33804762D01*
X48961904Y33995239D01*
X49000000Y34071429D01*
X49038095Y34109524D01*
X49114285Y34147620D01*
X49190476Y34147620D01*
X49304761Y34109524D01*
X49761904Y33652381D01*
X49761904Y34147620D01*
X49038095Y34452381D02*
X49000000Y34490477D01*
X48961904Y34566667D01*
X48961904Y34757143D01*
X49000000Y34833334D01*
X49038095Y34871429D01*
X49114285Y34909524D01*
X49190476Y34909524D01*
X49304761Y34871429D01*
X49761904Y34414286D01*
X49761904Y34909524D01*
X51761904Y33385715D02*
X51380952Y33119048D01*
X51761904Y32928572D02*
X50961904Y32928572D01*
X50961904Y33233334D01*
X51000000Y33309524D01*
X51038095Y33347620D01*
X51114285Y33385715D01*
X51228571Y33385715D01*
X51304761Y33347620D01*
X51342857Y33309524D01*
X51380952Y33233334D01*
X51380952Y32928572D01*
X51038095Y33690477D02*
X51000000Y33728572D01*
X50961904Y33804762D01*
X50961904Y33995239D01*
X51000000Y34071429D01*
X51038095Y34109524D01*
X51114285Y34147620D01*
X51190476Y34147620D01*
X51304761Y34109524D01*
X51761904Y33652381D01*
X51761904Y34147620D01*
X51761904Y34909524D02*
X51761904Y34452381D01*
X51761904Y34680953D02*
X50961904Y34680953D01*
X51076190Y34604762D01*
X51152380Y34528572D01*
X51190476Y34452381D01*
X7285714Y11638096D02*
X7019047Y12019048D01*
X6828571Y11638096D02*
X6828571Y12438096D01*
X7133333Y12438096D01*
X7209523Y12400000D01*
X7247619Y12361905D01*
X7285714Y12285715D01*
X7285714Y12171429D01*
X7247619Y12095239D01*
X7209523Y12057143D01*
X7133333Y12019048D01*
X6828571Y12019048D01*
X7590476Y12361905D02*
X7628571Y12400000D01*
X7704761Y12438096D01*
X7895238Y12438096D01*
X7971428Y12400000D01*
X8009523Y12361905D01*
X8047619Y12285715D01*
X8047619Y12209524D01*
X8009523Y12095239D01*
X7552380Y11638096D01*
X8047619Y11638096D01*
X8542857Y12438096D02*
X8619047Y12438096D01*
X8695238Y12400000D01*
X8733333Y12361905D01*
X8771428Y12285715D01*
X8809523Y12133334D01*
X8809523Y11942858D01*
X8771428Y11790477D01*
X8733333Y11714286D01*
X8695238Y11676191D01*
X8619047Y11638096D01*
X8542857Y11638096D01*
X8466666Y11676191D01*
X8428571Y11714286D01*
X8390476Y11790477D01*
X8352380Y11942858D01*
X8352380Y12133334D01*
X8390476Y12285715D01*
X8428571Y12361905D01*
X8466666Y12400000D01*
X8542857Y12438096D01*
X25185714Y11238096D02*
X24919047Y11619048D01*
X24728571Y11238096D02*
X24728571Y12038096D01*
X25033333Y12038096D01*
X25109523Y12000000D01*
X25147619Y11961905D01*
X25185714Y11885715D01*
X25185714Y11771429D01*
X25147619Y11695239D01*
X25109523Y11657143D01*
X25033333Y11619048D01*
X24728571Y11619048D01*
X25947619Y11238096D02*
X25490476Y11238096D01*
X25719047Y11238096D02*
X25719047Y12038096D01*
X25642857Y11923810D01*
X25566666Y11847620D01*
X25490476Y11809524D01*
X26328571Y11238096D02*
X26480952Y11238096D01*
X26557142Y11276191D01*
X26595238Y11314286D01*
X26671428Y11428572D01*
X26709523Y11580953D01*
X26709523Y11885715D01*
X26671428Y11961905D01*
X26633333Y12000000D01*
X26557142Y12038096D01*
X26404761Y12038096D01*
X26328571Y12000000D01*
X26290476Y11961905D01*
X26252380Y11885715D01*
X26252380Y11695239D01*
X26290476Y11619048D01*
X26328571Y11580953D01*
X26404761Y11542858D01*
X26557142Y11542858D01*
X26633333Y11580953D01*
X26671428Y11619048D01*
X26709523Y11695239D01*
X18185714Y11238096D02*
X17919047Y11619048D01*
X17728571Y11238096D02*
X17728571Y12038096D01*
X18033333Y12038096D01*
X18109523Y12000000D01*
X18147619Y11961905D01*
X18185714Y11885715D01*
X18185714Y11771429D01*
X18147619Y11695239D01*
X18109523Y11657143D01*
X18033333Y11619048D01*
X17728571Y11619048D01*
X18947619Y11238096D02*
X18490476Y11238096D01*
X18719047Y11238096D02*
X18719047Y12038096D01*
X18642857Y11923810D01*
X18566666Y11847620D01*
X18490476Y11809524D01*
X19404761Y11695239D02*
X19328571Y11733334D01*
X19290476Y11771429D01*
X19252380Y11847620D01*
X19252380Y11885715D01*
X19290476Y11961905D01*
X19328571Y12000000D01*
X19404761Y12038096D01*
X19557142Y12038096D01*
X19633333Y12000000D01*
X19671428Y11961905D01*
X19709523Y11885715D01*
X19709523Y11847620D01*
X19671428Y11771429D01*
X19633333Y11733334D01*
X19557142Y11695239D01*
X19404761Y11695239D01*
X19328571Y11657143D01*
X19290476Y11619048D01*
X19252380Y11542858D01*
X19252380Y11390477D01*
X19290476Y11314286D01*
X19328571Y11276191D01*
X19404761Y11238096D01*
X19557142Y11238096D01*
X19633333Y11276191D01*
X19671428Y11314286D01*
X19709523Y11390477D01*
X19709523Y11542858D01*
X19671428Y11619048D01*
X19633333Y11657143D01*
X19557142Y11695239D01*
X47761904Y33385715D02*
X47380952Y33119048D01*
X47761904Y32928572D02*
X46961904Y32928572D01*
X46961904Y33233334D01*
X47000000Y33309524D01*
X47038095Y33347620D01*
X47114285Y33385715D01*
X47228571Y33385715D01*
X47304761Y33347620D01*
X47342857Y33309524D01*
X47380952Y33233334D01*
X47380952Y32928572D01*
X47761904Y34147620D02*
X47761904Y33690477D01*
X47761904Y33919048D02*
X46961904Y33919048D01*
X47076190Y33842858D01*
X47152380Y33766667D01*
X47190476Y33690477D01*
X46961904Y34833334D02*
X46961904Y34680953D01*
X47000000Y34604762D01*
X47038095Y34566667D01*
X47152380Y34490477D01*
X47304761Y34452381D01*
X47609523Y34452381D01*
X47685714Y34490477D01*
X47723809Y34528572D01*
X47761904Y34604762D01*
X47761904Y34757143D01*
X47723809Y34833334D01*
X47685714Y34871429D01*
X47609523Y34909524D01*
X47419047Y34909524D01*
X47342857Y34871429D01*
X47304761Y34833334D01*
X47266666Y34757143D01*
X47266666Y34604762D01*
X47304761Y34528572D01*
X47342857Y34490477D01*
X47419047Y34452381D01*
X118185714Y33538096D02*
X117919047Y33919048D01*
X117728571Y33538096D02*
X117728571Y34338096D01*
X118033333Y34338096D01*
X118109523Y34300000D01*
X118147619Y34261905D01*
X118185714Y34185715D01*
X118185714Y34071429D01*
X118147619Y33995239D01*
X118109523Y33957143D01*
X118033333Y33919048D01*
X117728571Y33919048D01*
X118947619Y33538096D02*
X118490476Y33538096D01*
X118719047Y33538096D02*
X118719047Y34338096D01*
X118642857Y34223810D01*
X118566666Y34147620D01*
X118490476Y34109524D01*
X119671428Y34338096D02*
X119290476Y34338096D01*
X119252380Y33957143D01*
X119290476Y33995239D01*
X119366666Y34033334D01*
X119557142Y34033334D01*
X119633333Y33995239D01*
X119671428Y33957143D01*
X119709523Y33880953D01*
X119709523Y33690477D01*
X119671428Y33614286D01*
X119633333Y33576191D01*
X119557142Y33538096D01*
X119366666Y33538096D01*
X119290476Y33576191D01*
X119252380Y33614286D01*
X112285714Y27438096D02*
X112019047Y27819048D01*
X111828571Y27438096D02*
X111828571Y28238096D01*
X112133333Y28238096D01*
X112209523Y28200000D01*
X112247619Y28161905D01*
X112285714Y28085715D01*
X112285714Y27971429D01*
X112247619Y27895239D01*
X112209523Y27857143D01*
X112133333Y27819048D01*
X111828571Y27819048D01*
X113047619Y27438096D02*
X112590476Y27438096D01*
X112819047Y27438096D02*
X112819047Y28238096D01*
X112742857Y28123810D01*
X112666666Y28047620D01*
X112590476Y28009524D01*
X113733333Y27971429D02*
X113733333Y27438096D01*
X113542857Y28276191D02*
X113352380Y27704762D01*
X113847619Y27704762D01*
X116061904Y50185715D02*
X115680952Y49919048D01*
X116061904Y49728572D02*
X115261904Y49728572D01*
X115261904Y50033334D01*
X115300000Y50109524D01*
X115338095Y50147620D01*
X115414285Y50185715D01*
X115528571Y50185715D01*
X115604761Y50147620D01*
X115642857Y50109524D01*
X115680952Y50033334D01*
X115680952Y49728572D01*
X116061904Y50947620D02*
X116061904Y50490477D01*
X116061904Y50719048D02*
X115261904Y50719048D01*
X115376190Y50642858D01*
X115452380Y50566667D01*
X115490476Y50490477D01*
X115261904Y51214286D02*
X115261904Y51709524D01*
X115566666Y51442858D01*
X115566666Y51557143D01*
X115604761Y51633334D01*
X115642857Y51671429D01*
X115719047Y51709524D01*
X115909523Y51709524D01*
X115985714Y51671429D01*
X116023809Y51633334D01*
X116061904Y51557143D01*
X116061904Y51328572D01*
X116023809Y51252381D01*
X115985714Y51214286D01*
X94285714Y40638096D02*
X94019047Y41019048D01*
X93828571Y40638096D02*
X93828571Y41438096D01*
X94133333Y41438096D01*
X94209523Y41400000D01*
X94247619Y41361905D01*
X94285714Y41285715D01*
X94285714Y41171429D01*
X94247619Y41095239D01*
X94209523Y41057143D01*
X94133333Y41019048D01*
X93828571Y41019048D01*
X95047619Y40638096D02*
X94590476Y40638096D01*
X94819047Y40638096D02*
X94819047Y41438096D01*
X94742857Y41323810D01*
X94666666Y41247620D01*
X94590476Y41209524D01*
X95352380Y41361905D02*
X95390476Y41400000D01*
X95466666Y41438096D01*
X95657142Y41438096D01*
X95733333Y41400000D01*
X95771428Y41361905D01*
X95809523Y41285715D01*
X95809523Y41209524D01*
X95771428Y41095239D01*
X95314285Y40638096D01*
X95809523Y40638096D01*
X87085714Y48838096D02*
X86819047Y49219048D01*
X86628571Y48838096D02*
X86628571Y49638096D01*
X86933333Y49638096D01*
X87009523Y49600000D01*
X87047619Y49561905D01*
X87085714Y49485715D01*
X87085714Y49371429D01*
X87047619Y49295239D01*
X87009523Y49257143D01*
X86933333Y49219048D01*
X86628571Y49219048D01*
X87847619Y48838096D02*
X87390476Y48838096D01*
X87619047Y48838096D02*
X87619047Y49638096D01*
X87542857Y49523810D01*
X87466666Y49447620D01*
X87390476Y49409524D01*
X88609523Y48838096D02*
X88152380Y48838096D01*
X88380952Y48838096D02*
X88380952Y49638096D01*
X88304761Y49523810D01*
X88228571Y49447620D01*
X88152380Y49409524D01*
X54285714Y22538096D02*
X54019047Y22919048D01*
X53828571Y22538096D02*
X53828571Y23338096D01*
X54133333Y23338096D01*
X54209523Y23300000D01*
X54247619Y23261905D01*
X54285714Y23185715D01*
X54285714Y23071429D01*
X54247619Y22995239D01*
X54209523Y22957143D01*
X54133333Y22919048D01*
X53828571Y22919048D01*
X55047619Y22538096D02*
X54590476Y22538096D01*
X54819047Y22538096D02*
X54819047Y23338096D01*
X54742857Y23223810D01*
X54666666Y23147620D01*
X54590476Y23109524D01*
X55542857Y23338096D02*
X55619047Y23338096D01*
X55695238Y23300000D01*
X55733333Y23261905D01*
X55771428Y23185715D01*
X55809523Y23033334D01*
X55809523Y22842858D01*
X55771428Y22690477D01*
X55733333Y22614286D01*
X55695238Y22576191D01*
X55619047Y22538096D01*
X55542857Y22538096D01*
X55466666Y22576191D01*
X55428571Y22614286D01*
X55390476Y22690477D01*
X55352380Y22842858D01*
X55352380Y23033334D01*
X55390476Y23185715D01*
X55428571Y23261905D01*
X55466666Y23300000D01*
X55542857Y23338096D01*
X63466666Y29638096D02*
X63200000Y30019048D01*
X63009523Y29638096D02*
X63009523Y30438096D01*
X63314285Y30438096D01*
X63390476Y30400000D01*
X63428571Y30361905D01*
X63466666Y30285715D01*
X63466666Y30171429D01*
X63428571Y30095239D01*
X63390476Y30057143D01*
X63314285Y30019048D01*
X63009523Y30019048D01*
X63847619Y29638096D02*
X64000000Y29638096D01*
X64076190Y29676191D01*
X64114285Y29714286D01*
X64190476Y29828572D01*
X64228571Y29980953D01*
X64228571Y30285715D01*
X64190476Y30361905D01*
X64152380Y30400000D01*
X64076190Y30438096D01*
X63923809Y30438096D01*
X63847619Y30400000D01*
X63809523Y30361905D01*
X63771428Y30285715D01*
X63771428Y30095239D01*
X63809523Y30019048D01*
X63847619Y29980953D01*
X63923809Y29942858D01*
X64076190Y29942858D01*
X64152380Y29980953D01*
X64190476Y30019048D01*
X64228571Y30095239D01*
X55761904Y34066667D02*
X55380952Y33800000D01*
X55761904Y33609524D02*
X54961904Y33609524D01*
X54961904Y33914286D01*
X55000000Y33990477D01*
X55038095Y34028572D01*
X55114285Y34066667D01*
X55228571Y34066667D01*
X55304761Y34028572D01*
X55342857Y33990477D01*
X55380952Y33914286D01*
X55380952Y33609524D01*
X55304761Y34523810D02*
X55266666Y34447620D01*
X55228571Y34409524D01*
X55152380Y34371429D01*
X55114285Y34371429D01*
X55038095Y34409524D01*
X55000000Y34447620D01*
X54961904Y34523810D01*
X54961904Y34676191D01*
X55000000Y34752381D01*
X55038095Y34790477D01*
X55114285Y34828572D01*
X55152380Y34828572D01*
X55228571Y34790477D01*
X55266666Y34752381D01*
X55304761Y34676191D01*
X55304761Y34523810D01*
X55342857Y34447620D01*
X55380952Y34409524D01*
X55457142Y34371429D01*
X55609523Y34371429D01*
X55685714Y34409524D01*
X55723809Y34447620D01*
X55761904Y34523810D01*
X55761904Y34676191D01*
X55723809Y34752381D01*
X55685714Y34790477D01*
X55609523Y34828572D01*
X55457142Y34828572D01*
X55380952Y34790477D01*
X55342857Y34752381D01*
X55304761Y34676191D01*
X70166666Y22538096D02*
X69900000Y22919048D01*
X69709523Y22538096D02*
X69709523Y23338096D01*
X70014285Y23338096D01*
X70090476Y23300000D01*
X70128571Y23261905D01*
X70166666Y23185715D01*
X70166666Y23071429D01*
X70128571Y22995239D01*
X70090476Y22957143D01*
X70014285Y22919048D01*
X69709523Y22919048D01*
X70852380Y23338096D02*
X70700000Y23338096D01*
X70623809Y23300000D01*
X70585714Y23261905D01*
X70509523Y23147620D01*
X70471428Y22995239D01*
X70471428Y22690477D01*
X70509523Y22614286D01*
X70547619Y22576191D01*
X70623809Y22538096D01*
X70776190Y22538096D01*
X70852380Y22576191D01*
X70890476Y22614286D01*
X70928571Y22690477D01*
X70928571Y22880953D01*
X70890476Y22957143D01*
X70852380Y22995239D01*
X70776190Y23033334D01*
X70623809Y23033334D01*
X70547619Y22995239D01*
X70509523Y22957143D01*
X70471428Y22880953D01*
X78566666Y29638096D02*
X78300000Y30019048D01*
X78109523Y29638096D02*
X78109523Y30438096D01*
X78414285Y30438096D01*
X78490476Y30400000D01*
X78528571Y30361905D01*
X78566666Y30285715D01*
X78566666Y30171429D01*
X78528571Y30095239D01*
X78490476Y30057143D01*
X78414285Y30019048D01*
X78109523Y30019048D01*
X79290476Y30438096D02*
X78909523Y30438096D01*
X78871428Y30057143D01*
X78909523Y30095239D01*
X78985714Y30133334D01*
X79176190Y30133334D01*
X79252380Y30095239D01*
X79290476Y30057143D01*
X79328571Y29980953D01*
X79328571Y29790477D01*
X79290476Y29714286D01*
X79252380Y29676191D01*
X79176190Y29638096D01*
X78985714Y29638096D01*
X78909523Y29676191D01*
X78871428Y29714286D01*
X53661904Y34066667D02*
X53280952Y33800000D01*
X53661904Y33609524D02*
X52861904Y33609524D01*
X52861904Y33914286D01*
X52900000Y33990477D01*
X52938095Y34028572D01*
X53014285Y34066667D01*
X53128571Y34066667D01*
X53204761Y34028572D01*
X53242857Y33990477D01*
X53280952Y33914286D01*
X53280952Y33609524D01*
X53128571Y34752381D02*
X53661904Y34752381D01*
X52823809Y34561905D02*
X53395238Y34371429D01*
X53395238Y34866667D01*
X43661904Y27766667D02*
X43280952Y27500000D01*
X43661904Y27309524D02*
X42861904Y27309524D01*
X42861904Y27614286D01*
X42900000Y27690477D01*
X42938095Y27728572D01*
X43014285Y27766667D01*
X43128571Y27766667D01*
X43204761Y27728572D01*
X43242857Y27690477D01*
X43280952Y27614286D01*
X43280952Y27309524D01*
X42938095Y28071429D02*
X42900000Y28109524D01*
X42861904Y28185715D01*
X42861904Y28376191D01*
X42900000Y28452381D01*
X42938095Y28490477D01*
X43014285Y28528572D01*
X43090476Y28528572D01*
X43204761Y28490477D01*
X43661904Y28033334D01*
X43661904Y28528572D01*
X89766666Y55238096D02*
X89500000Y55619048D01*
X89309523Y55238096D02*
X89309523Y56038096D01*
X89614285Y56038096D01*
X89690476Y56000000D01*
X89728571Y55961905D01*
X89766666Y55885715D01*
X89766666Y55771429D01*
X89728571Y55695239D01*
X89690476Y55657143D01*
X89614285Y55619048D01*
X89309523Y55619048D01*
X90528571Y55238096D02*
X90071428Y55238096D01*
X90300000Y55238096D02*
X90300000Y56038096D01*
X90223809Y55923810D01*
X90147619Y55847620D01*
X90071428Y55809524D01*
X93823809Y48961905D02*
X93747619Y49000000D01*
X93671428Y49076191D01*
X93557142Y49190477D01*
X93480952Y49228572D01*
X93404761Y49228572D01*
X93442857Y49038096D02*
X93366666Y49076191D01*
X93290476Y49152381D01*
X93252380Y49304762D01*
X93252380Y49571429D01*
X93290476Y49723810D01*
X93366666Y49800000D01*
X93442857Y49838096D01*
X93595238Y49838096D01*
X93671428Y49800000D01*
X93747619Y49723810D01*
X93785714Y49571429D01*
X93785714Y49304762D01*
X93747619Y49152381D01*
X93671428Y49076191D01*
X93595238Y49038096D01*
X93442857Y49038096D01*
X94471428Y49838096D02*
X94319047Y49838096D01*
X94242857Y49800000D01*
X94204761Y49761905D01*
X94128571Y49647620D01*
X94090476Y49495239D01*
X94090476Y49190477D01*
X94128571Y49114286D01*
X94166666Y49076191D01*
X94242857Y49038096D01*
X94395238Y49038096D01*
X94471428Y49076191D01*
X94509523Y49114286D01*
X94547619Y49190477D01*
X94547619Y49380953D01*
X94509523Y49457143D01*
X94471428Y49495239D01*
X94395238Y49533334D01*
X94242857Y49533334D01*
X94166666Y49495239D01*
X94128571Y49457143D01*
X94090476Y49380953D01*
X65023809Y24161905D02*
X64947619Y24200000D01*
X64871428Y24276191D01*
X64757142Y24390477D01*
X64680952Y24428572D01*
X64604761Y24428572D01*
X64642857Y24238096D02*
X64566666Y24276191D01*
X64490476Y24352381D01*
X64452380Y24504762D01*
X64452380Y24771429D01*
X64490476Y24923810D01*
X64566666Y25000000D01*
X64642857Y25038096D01*
X64795238Y25038096D01*
X64871428Y25000000D01*
X64947619Y24923810D01*
X64985714Y24771429D01*
X64985714Y24504762D01*
X64947619Y24352381D01*
X64871428Y24276191D01*
X64795238Y24238096D01*
X64642857Y24238096D01*
X65671428Y24771429D02*
X65671428Y24238096D01*
X65480952Y25076191D02*
X65290476Y24504762D01*
X65785714Y24504762D01*
X80173809Y24161905D02*
X80097619Y24200000D01*
X80021428Y24276191D01*
X79907142Y24390477D01*
X79830952Y24428572D01*
X79754761Y24428572D01*
X79792857Y24238096D02*
X79716666Y24276191D01*
X79640476Y24352381D01*
X79602380Y24504762D01*
X79602380Y24771429D01*
X79640476Y24923810D01*
X79716666Y25000000D01*
X79792857Y25038096D01*
X79945238Y25038096D01*
X80021428Y25000000D01*
X80097619Y24923810D01*
X80135714Y24771429D01*
X80135714Y24504762D01*
X80097619Y24352381D01*
X80021428Y24276191D01*
X79945238Y24238096D01*
X79792857Y24238096D01*
X80440476Y24961905D02*
X80478571Y25000000D01*
X80554761Y25038096D01*
X80745238Y25038096D01*
X80821428Y25000000D01*
X80859523Y24961905D01*
X80897619Y24885715D01*
X80897619Y24809524D01*
X80859523Y24695239D01*
X80402380Y24238096D01*
X80897619Y24238096D01*
X93742857Y36823334D02*
X93742857Y36556667D01*
X94161904Y36556667D02*
X93361904Y36556667D01*
X93361904Y36937620D01*
X93742857Y37509048D02*
X93780952Y37623334D01*
X93819047Y37661429D01*
X93895238Y37699524D01*
X94009523Y37699524D01*
X94085714Y37661429D01*
X94123809Y37623334D01*
X94161904Y37547143D01*
X94161904Y37242381D01*
X93361904Y37242381D01*
X93361904Y37509048D01*
X93400000Y37585239D01*
X93438095Y37623334D01*
X93514285Y37661429D01*
X93590476Y37661429D01*
X93666666Y37623334D01*
X93704761Y37585239D01*
X93742857Y37509048D01*
X93742857Y37242381D01*
X94161904Y38461429D02*
X94161904Y38004286D01*
X94161904Y38232858D02*
X93361904Y38232858D01*
X93476190Y38156667D01*
X93552380Y38080477D01*
X93590476Y38004286D01*
X29909523Y3238096D02*
X29909523Y4038096D01*
X30100000Y4038096D01*
X30214285Y4000000D01*
X30290476Y3923810D01*
X30328571Y3847620D01*
X30366666Y3695239D01*
X30366666Y3580953D01*
X30328571Y3428572D01*
X30290476Y3352381D01*
X30214285Y3276191D01*
X30100000Y3238096D01*
X29909523Y3238096D01*
X30823809Y3695239D02*
X30747619Y3733334D01*
X30709523Y3771429D01*
X30671428Y3847620D01*
X30671428Y3885715D01*
X30709523Y3961905D01*
X30747619Y4000000D01*
X30823809Y4038096D01*
X30976190Y4038096D01*
X31052380Y4000000D01*
X31090476Y3961905D01*
X31128571Y3885715D01*
X31128571Y3847620D01*
X31090476Y3771429D01*
X31052380Y3733334D01*
X30976190Y3695239D01*
X30823809Y3695239D01*
X30747619Y3657143D01*
X30709523Y3619048D01*
X30671428Y3542858D01*
X30671428Y3390477D01*
X30709523Y3314286D01*
X30747619Y3276191D01*
X30823809Y3238096D01*
X30976190Y3238096D01*
X31052380Y3276191D01*
X31090476Y3314286D01*
X31128571Y3390477D01*
X31128571Y3542858D01*
X31090476Y3619048D01*
X31052380Y3657143D01*
X30976190Y3695239D01*
X89309523Y49938096D02*
X89309523Y50738096D01*
X89500000Y50738096D01*
X89614285Y50700000D01*
X89690476Y50623810D01*
X89728571Y50547620D01*
X89766666Y50395239D01*
X89766666Y50280953D01*
X89728571Y50128572D01*
X89690476Y50052381D01*
X89614285Y49976191D01*
X89500000Y49938096D01*
X89309523Y49938096D01*
X90033333Y50738096D02*
X90566666Y50738096D01*
X90223809Y49938096D01*
X64409523Y3838096D02*
X64409523Y4638096D01*
X64600000Y4638096D01*
X64714285Y4600000D01*
X64790476Y4523810D01*
X64828571Y4447620D01*
X64866666Y4295239D01*
X64866666Y4180953D01*
X64828571Y4028572D01*
X64790476Y3952381D01*
X64714285Y3876191D01*
X64600000Y3838096D01*
X64409523Y3838096D01*
X65552380Y4638096D02*
X65400000Y4638096D01*
X65323809Y4600000D01*
X65285714Y4561905D01*
X65209523Y4447620D01*
X65171428Y4295239D01*
X65171428Y3990477D01*
X65209523Y3914286D01*
X65247619Y3876191D01*
X65323809Y3838096D01*
X65476190Y3838096D01*
X65552380Y3876191D01*
X65590476Y3914286D01*
X65628571Y3990477D01*
X65628571Y4180953D01*
X65590476Y4257143D01*
X65552380Y4295239D01*
X65476190Y4333334D01*
X65323809Y4333334D01*
X65247619Y4295239D01*
X65209523Y4257143D01*
X65171428Y4180953D01*
X63809523Y27538096D02*
X63809523Y28338096D01*
X64000000Y28338096D01*
X64114285Y28300000D01*
X64190476Y28223810D01*
X64228571Y28147620D01*
X64266666Y27995239D01*
X64266666Y27880953D01*
X64228571Y27728572D01*
X64190476Y27652381D01*
X64114285Y27576191D01*
X64000000Y27538096D01*
X63809523Y27538096D01*
X64990476Y28338096D02*
X64609523Y28338096D01*
X64571428Y27957143D01*
X64609523Y27995239D01*
X64685714Y28033334D01*
X64876190Y28033334D01*
X64952380Y27995239D01*
X64990476Y27957143D01*
X65028571Y27880953D01*
X65028571Y27690477D01*
X64990476Y27614286D01*
X64952380Y27576191D01*
X64876190Y27538096D01*
X64685714Y27538096D01*
X64609523Y27576191D01*
X64571428Y27614286D01*
X79509523Y3838096D02*
X79509523Y4638096D01*
X79700000Y4638096D01*
X79814285Y4600000D01*
X79890476Y4523810D01*
X79928571Y4447620D01*
X79966666Y4295239D01*
X79966666Y4180953D01*
X79928571Y4028572D01*
X79890476Y3952381D01*
X79814285Y3876191D01*
X79700000Y3838096D01*
X79509523Y3838096D01*
X80652380Y4371429D02*
X80652380Y3838096D01*
X80461904Y4676191D02*
X80271428Y4104762D01*
X80766666Y4104762D01*
X78909523Y27538096D02*
X78909523Y28338096D01*
X79100000Y28338096D01*
X79214285Y28300000D01*
X79290476Y28223810D01*
X79328571Y28147620D01*
X79366666Y27995239D01*
X79366666Y27880953D01*
X79328571Y27728572D01*
X79290476Y27652381D01*
X79214285Y27576191D01*
X79100000Y27538096D01*
X78909523Y27538096D01*
X79633333Y28338096D02*
X80128571Y28338096D01*
X79861904Y28033334D01*
X79976190Y28033334D01*
X80052380Y27995239D01*
X80090476Y27957143D01*
X80128571Y27880953D01*
X80128571Y27690477D01*
X80090476Y27614286D01*
X80052380Y27576191D01*
X79976190Y27538096D01*
X79747619Y27538096D01*
X79671428Y27576191D01*
X79633333Y27614286D01*
X105585714Y35714286D02*
X105547619Y35676191D01*
X105433333Y35638096D01*
X105357142Y35638096D01*
X105242857Y35676191D01*
X105166666Y35752381D01*
X105128571Y35828572D01*
X105090476Y35980953D01*
X105090476Y36095239D01*
X105128571Y36247620D01*
X105166666Y36323810D01*
X105242857Y36400000D01*
X105357142Y36438096D01*
X105433333Y36438096D01*
X105547619Y36400000D01*
X105585714Y36361905D01*
X106347619Y35638096D02*
X105890476Y35638096D01*
X106119047Y35638096D02*
X106119047Y36438096D01*
X106042857Y36323810D01*
X105966666Y36247620D01*
X105890476Y36209524D01*
X106614285Y36438096D02*
X107147619Y36438096D01*
X106804761Y35638096D01*
X64435714Y8514286D02*
X64397619Y8476191D01*
X64283333Y8438096D01*
X64207142Y8438096D01*
X64092857Y8476191D01*
X64016666Y8552381D01*
X63978571Y8628572D01*
X63940476Y8780953D01*
X63940476Y8895239D01*
X63978571Y9047620D01*
X64016666Y9123810D01*
X64092857Y9200000D01*
X64207142Y9238096D01*
X64283333Y9238096D01*
X64397619Y9200000D01*
X64435714Y9161905D01*
X65197619Y8438096D02*
X64740476Y8438096D01*
X64969047Y8438096D02*
X64969047Y9238096D01*
X64892857Y9123810D01*
X64816666Y9047620D01*
X64740476Y9009524D01*
X65959523Y8438096D02*
X65502380Y8438096D01*
X65730952Y8438096D02*
X65730952Y9238096D01*
X65654761Y9123810D01*
X65578571Y9047620D01*
X65502380Y9009524D01*
X79916666Y8514286D02*
X79878571Y8476191D01*
X79764285Y8438096D01*
X79688095Y8438096D01*
X79573809Y8476191D01*
X79497619Y8552381D01*
X79459523Y8628572D01*
X79421428Y8780953D01*
X79421428Y8895239D01*
X79459523Y9047620D01*
X79497619Y9123810D01*
X79573809Y9200000D01*
X79688095Y9238096D01*
X79764285Y9238096D01*
X79878571Y9200000D01*
X79916666Y9161905D01*
X80297619Y8438096D02*
X80450000Y8438096D01*
X80526190Y8476191D01*
X80564285Y8514286D01*
X80640476Y8628572D01*
X80678571Y8780953D01*
X80678571Y9085715D01*
X80640476Y9161905D01*
X80602380Y9200000D01*
X80526190Y9238096D01*
X80373809Y9238096D01*
X80297619Y9200000D01*
X80259523Y9161905D01*
X80221428Y9085715D01*
X80221428Y8895239D01*
X80259523Y8819048D01*
X80297619Y8780953D01*
X80373809Y8742858D01*
X80526190Y8742858D01*
X80602380Y8780953D01*
X80640476Y8819048D01*
X80678571Y8895239D01*
X51061904Y25490477D02*
X51709523Y25490477D01*
X51785714Y25528572D01*
X51823809Y25566667D01*
X51861904Y25642858D01*
X51861904Y25795239D01*
X51823809Y25871429D01*
X51785714Y25909524D01*
X51709523Y25947620D01*
X51061904Y25947620D01*
X51138095Y26290477D02*
X51100000Y26328572D01*
X51061904Y26404762D01*
X51061904Y26595239D01*
X51100000Y26671429D01*
X51138095Y26709524D01*
X51214285Y26747620D01*
X51290476Y26747620D01*
X51404761Y26709524D01*
X51861904Y26252381D01*
X51861904Y26747620D01*
X58700000Y56590477D02*
X58661904Y56514286D01*
X58661904Y56400000D01*
X58700000Y56285715D01*
X58776190Y56209524D01*
X58852380Y56171429D01*
X59004761Y56133334D01*
X59119047Y56133334D01*
X59271428Y56171429D01*
X59347619Y56209524D01*
X59423809Y56285715D01*
X59461904Y56400000D01*
X59461904Y56476191D01*
X59423809Y56590477D01*
X59385714Y56628572D01*
X59119047Y56628572D01*
X59119047Y56476191D01*
X59461904Y56971429D02*
X58661904Y56971429D01*
X59461904Y57428572D01*
X58661904Y57428572D01*
X59461904Y57809524D02*
X58661904Y57809524D01*
X58661904Y58000000D01*
X58700000Y58114286D01*
X58776190Y58190477D01*
X58852380Y58228572D01*
X59004761Y58266667D01*
X59119047Y58266667D01*
X59271428Y58228572D01*
X59347619Y58190477D01*
X59423809Y58114286D01*
X59461904Y58000000D01*
X59461904Y57809524D01*
X59461904Y46104762D02*
X59461904Y45647620D01*
X59461904Y45876191D02*
X58661904Y45876191D01*
X58776190Y45800000D01*
X58852380Y45723810D01*
X58890476Y45647620D01*
X58738095Y46409524D02*
X58700000Y46447620D01*
X58661904Y46523810D01*
X58661904Y46714286D01*
X58700000Y46790477D01*
X58738095Y46828572D01*
X58814285Y46866667D01*
X58890476Y46866667D01*
X59004761Y46828572D01*
X59461904Y46371429D01*
X59461904Y46866667D01*
X58661904Y47095239D02*
X59461904Y47361905D01*
X58661904Y47628572D01*
X13438095Y4738096D02*
X13171428Y5119048D01*
X12980952Y4738096D02*
X12980952Y5538096D01*
X13285714Y5538096D01*
X13361904Y5500000D01*
X13400000Y5461905D01*
X13438095Y5385715D01*
X13438095Y5271429D01*
X13400000Y5195239D01*
X13361904Y5157143D01*
X13285714Y5119048D01*
X12980952Y5119048D01*
X13780952Y5157143D02*
X14047619Y5157143D01*
X14161904Y4738096D02*
X13780952Y4738096D01*
X13780952Y5538096D01*
X14161904Y5538096D01*
X14466666Y4776191D02*
X14580952Y4738096D01*
X14771428Y4738096D01*
X14847619Y4776191D01*
X14885714Y4814286D01*
X14923809Y4890477D01*
X14923809Y4966667D01*
X14885714Y5042858D01*
X14847619Y5080953D01*
X14771428Y5119048D01*
X14619047Y5157143D01*
X14542857Y5195239D01*
X14504761Y5233334D01*
X14466666Y5309524D01*
X14466666Y5385715D01*
X14504761Y5461905D01*
X14542857Y5500000D01*
X14619047Y5538096D01*
X14809523Y5538096D01*
X14923809Y5500000D01*
X15266666Y5157143D02*
X15533333Y5157143D01*
X15647619Y4738096D02*
X15266666Y4738096D01*
X15266666Y5538096D01*
X15647619Y5538096D01*
X15876190Y5538096D02*
X16333333Y5538096D01*
X16104761Y4738096D02*
X16104761Y5538096D01*
M02*
