G04 #@! TF.GenerationSoftware,KiCad,Pcbnew,(5.1.5)-3*
G04 #@! TF.CreationDate,2020-05-10T15:15:20+08:00*
G04 #@! TF.ProjectId,SmartAPS,536d6172-7441-4505-932e-6b696361645f,1.0*
G04 #@! TF.SameCoordinates,PX5f5e100PY7bfa480*
G04 #@! TF.FileFunction,Paste,Top*
G04 #@! TF.FilePolarity,Positive*
%FSLAX46Y46*%
G04 Gerber Fmt 4.6, Leading zero omitted, Abs format (unit mm)*
G04 Created by KiCad (PCBNEW (5.1.5)-3) date 2020-05-10 15:15:20*
%MOMM*%
%LPD*%
G04 APERTURE LIST*
%ADD10C,0.100000*%
%ADD11R,0.980000X0.930000*%
%ADD12R,1.000000X1.250000*%
%ADD13R,1.250000X1.000000*%
%ADD14R,1.450000X0.300000*%
%ADD15R,4.800000X3.800000*%
%ADD16R,1.160000X1.470000*%
%ADD17R,1.470000X1.160000*%
%ADD18R,2.720000X1.160000*%
%ADD19R,1.160000X2.720000*%
%ADD20R,1.450000X2.200000*%
%ADD21R,2.200000X1.450000*%
%ADD22R,1.130000X1.800000*%
%ADD23R,0.900000X2.000000*%
%ADD24R,2.000000X0.900000*%
%ADD25R,1.330000X1.330000*%
%ADD26R,0.930000X0.980000*%
%ADD27O,0.280000X1.350000*%
%ADD28O,0.700000X1.900000*%
%ADD29O,2.000000X3.500000*%
%ADD30O,0.700000X2.100000*%
%ADD31R,1.800000X1.130000*%
%ADD32R,1.250000X0.700000*%
%ADD33R,0.700000X1.250000*%
%ADD34R,3.510000X2.620000*%
%ADD35O,0.700000X1.800000*%
%ADD36R,0.700000X0.420000*%
%ADD37R,0.540000X0.420000*%
%ADD38R,1.710000X2.370000*%
%ADD39R,0.420000X0.700000*%
%ADD40R,0.420000X0.540000*%
%ADD41R,2.370000X1.710000*%
%ADD42R,2.000000X2.000000*%
%ADD43R,2.400300X2.895600*%
%ADD44R,0.700000X0.400000*%
%ADD45R,2.000000X1.050000*%
G04 APERTURE END LIST*
D10*
G36*
X48700000Y26300000D02*
G01*
X49350000Y26300000D01*
X49350000Y26950000D01*
X48700000Y26950000D01*
X48700000Y26300000D01*
G37*
X48700000Y26300000D02*
X49350000Y26300000D01*
X49350000Y26950000D01*
X48700000Y26950000D01*
X48700000Y26300000D01*
G36*
X48300000Y26950000D02*
G01*
X48300000Y26300000D01*
X47650000Y26300000D01*
X47650000Y26600000D01*
X48000000Y26950000D01*
X48300000Y26950000D01*
G37*
X48300000Y26950000D02*
X48300000Y26300000D01*
X47650000Y26300000D01*
X47650000Y26600000D01*
X48000000Y26950000D01*
X48300000Y26950000D01*
G36*
X48300000Y25900000D02*
G01*
X47650000Y25900000D01*
X47650000Y25250000D01*
X48300000Y25250000D01*
X48300000Y25900000D01*
G37*
X48300000Y25900000D02*
X47650000Y25900000D01*
X47650000Y25250000D01*
X48300000Y25250000D01*
X48300000Y25900000D01*
G36*
X48700000Y25900000D02*
G01*
X49350000Y25900000D01*
X49350000Y25250000D01*
X48700000Y25250000D01*
X48700000Y25900000D01*
G37*
X48700000Y25900000D02*
X49350000Y25900000D01*
X49350000Y25250000D01*
X48700000Y25250000D01*
X48700000Y25900000D01*
G36*
X129374053Y19598794D02*
G01*
X129398370Y19595187D01*
X129422216Y19589214D01*
X129445362Y19580932D01*
X129467585Y19570421D01*
X129488670Y19557783D01*
X129508416Y19543139D01*
X129526630Y19526630D01*
X129543139Y19508416D01*
X129557783Y19488670D01*
X129570421Y19467585D01*
X129580932Y19445362D01*
X129589214Y19422216D01*
X129595187Y19398370D01*
X129598794Y19374053D01*
X129600000Y19349500D01*
X129600000Y18350500D01*
X129598794Y18325947D01*
X129595187Y18301630D01*
X129589214Y18277784D01*
X129580932Y18254638D01*
X129570421Y18232415D01*
X129557783Y18211330D01*
X129543139Y18191584D01*
X129526630Y18173370D01*
X129508416Y18156861D01*
X129488670Y18142217D01*
X129467585Y18129579D01*
X129445362Y18119068D01*
X129422216Y18110786D01*
X129398370Y18104813D01*
X129374053Y18101206D01*
X129349500Y18100000D01*
X126450500Y18100000D01*
X126425947Y18101206D01*
X126401630Y18104813D01*
X126377784Y18110786D01*
X126354638Y18119068D01*
X126332415Y18129579D01*
X126311330Y18142217D01*
X126291584Y18156861D01*
X126273370Y18173370D01*
X126256861Y18191584D01*
X126242217Y18211330D01*
X126229579Y18232415D01*
X126219068Y18254638D01*
X126210786Y18277784D01*
X126204813Y18301630D01*
X126201206Y18325947D01*
X126200000Y18350500D01*
X126200000Y19349500D01*
X126201206Y19374053D01*
X126204813Y19398370D01*
X126210786Y19422216D01*
X126219068Y19445362D01*
X126229579Y19467585D01*
X126242217Y19488670D01*
X126256861Y19508416D01*
X126273370Y19526630D01*
X126291584Y19543139D01*
X126311330Y19557783D01*
X126332415Y19570421D01*
X126354638Y19580932D01*
X126377784Y19589214D01*
X126401630Y19595187D01*
X126425947Y19598794D01*
X126450500Y19600000D01*
X129349500Y19600000D01*
X129374053Y19598794D01*
G37*
G36*
X129374053Y8898794D02*
G01*
X129398370Y8895187D01*
X129422216Y8889214D01*
X129445362Y8880932D01*
X129467585Y8870421D01*
X129488670Y8857783D01*
X129508416Y8843139D01*
X129526630Y8826630D01*
X129543139Y8808416D01*
X129557783Y8788670D01*
X129570421Y8767585D01*
X129580932Y8745362D01*
X129589214Y8722216D01*
X129595187Y8698370D01*
X129598794Y8674053D01*
X129600000Y8649500D01*
X129600000Y7650500D01*
X129598794Y7625947D01*
X129595187Y7601630D01*
X129589214Y7577784D01*
X129580932Y7554638D01*
X129570421Y7532415D01*
X129557783Y7511330D01*
X129543139Y7491584D01*
X129526630Y7473370D01*
X129508416Y7456861D01*
X129488670Y7442217D01*
X129467585Y7429579D01*
X129445362Y7419068D01*
X129422216Y7410786D01*
X129398370Y7404813D01*
X129374053Y7401206D01*
X129349500Y7400000D01*
X126450500Y7400000D01*
X126425947Y7401206D01*
X126401630Y7404813D01*
X126377784Y7410786D01*
X126354638Y7419068D01*
X126332415Y7429579D01*
X126311330Y7442217D01*
X126291584Y7456861D01*
X126273370Y7473370D01*
X126256861Y7491584D01*
X126242217Y7511330D01*
X126229579Y7532415D01*
X126219068Y7554638D01*
X126210786Y7577784D01*
X126204813Y7601630D01*
X126201206Y7625947D01*
X126200000Y7650500D01*
X126200000Y8649500D01*
X126201206Y8674053D01*
X126204813Y8698370D01*
X126210786Y8722216D01*
X126219068Y8745362D01*
X126229579Y8767585D01*
X126242217Y8788670D01*
X126256861Y8808416D01*
X126273370Y8826630D01*
X126291584Y8843139D01*
X126311330Y8857783D01*
X126332415Y8870421D01*
X126354638Y8880932D01*
X126377784Y8889214D01*
X126401630Y8895187D01*
X126425947Y8898794D01*
X126450500Y8900000D01*
X129349500Y8900000D01*
X129374053Y8898794D01*
G37*
G36*
X123674504Y16998796D02*
G01*
X123698773Y16995196D01*
X123722571Y16989235D01*
X123745671Y16980970D01*
X123767849Y16970480D01*
X123788893Y16957867D01*
X123808598Y16943253D01*
X123826777Y16926777D01*
X123843253Y16908598D01*
X123857867Y16888893D01*
X123870480Y16867849D01*
X123880970Y16845671D01*
X123889235Y16822571D01*
X123895196Y16798773D01*
X123898796Y16774504D01*
X123900000Y16750000D01*
X123900000Y16250000D01*
X123898796Y16225496D01*
X123895196Y16201227D01*
X123889235Y16177429D01*
X123880970Y16154329D01*
X123870480Y16132151D01*
X123857867Y16111107D01*
X123843253Y16091402D01*
X123826777Y16073223D01*
X123808598Y16056747D01*
X123788893Y16042133D01*
X123767849Y16029520D01*
X123745671Y16019030D01*
X123722571Y16010765D01*
X123698773Y16004804D01*
X123674504Y16001204D01*
X123650000Y16000000D01*
X120650000Y16000000D01*
X120625496Y16001204D01*
X120601227Y16004804D01*
X120577429Y16010765D01*
X120554329Y16019030D01*
X120532151Y16029520D01*
X120511107Y16042133D01*
X120491402Y16056747D01*
X120473223Y16073223D01*
X120456747Y16091402D01*
X120442133Y16111107D01*
X120429520Y16132151D01*
X120419030Y16154329D01*
X120410765Y16177429D01*
X120404804Y16201227D01*
X120401204Y16225496D01*
X120400000Y16250000D01*
X120400000Y16750000D01*
X120401204Y16774504D01*
X120404804Y16798773D01*
X120410765Y16822571D01*
X120419030Y16845671D01*
X120429520Y16867849D01*
X120442133Y16888893D01*
X120456747Y16908598D01*
X120473223Y16926777D01*
X120491402Y16943253D01*
X120511107Y16957867D01*
X120532151Y16970480D01*
X120554329Y16980970D01*
X120577429Y16989235D01*
X120601227Y16995196D01*
X120625496Y16998796D01*
X120650000Y17000000D01*
X123650000Y17000000D01*
X123674504Y16998796D01*
G37*
G36*
X123674504Y14998796D02*
G01*
X123698773Y14995196D01*
X123722571Y14989235D01*
X123745671Y14980970D01*
X123767849Y14970480D01*
X123788893Y14957867D01*
X123808598Y14943253D01*
X123826777Y14926777D01*
X123843253Y14908598D01*
X123857867Y14888893D01*
X123870480Y14867849D01*
X123880970Y14845671D01*
X123889235Y14822571D01*
X123895196Y14798773D01*
X123898796Y14774504D01*
X123900000Y14750000D01*
X123900000Y14250000D01*
X123898796Y14225496D01*
X123895196Y14201227D01*
X123889235Y14177429D01*
X123880970Y14154329D01*
X123870480Y14132151D01*
X123857867Y14111107D01*
X123843253Y14091402D01*
X123826777Y14073223D01*
X123808598Y14056747D01*
X123788893Y14042133D01*
X123767849Y14029520D01*
X123745671Y14019030D01*
X123722571Y14010765D01*
X123698773Y14004804D01*
X123674504Y14001204D01*
X123650000Y14000000D01*
X120650000Y14000000D01*
X120625496Y14001204D01*
X120601227Y14004804D01*
X120577429Y14010765D01*
X120554329Y14019030D01*
X120532151Y14029520D01*
X120511107Y14042133D01*
X120491402Y14056747D01*
X120473223Y14073223D01*
X120456747Y14091402D01*
X120442133Y14111107D01*
X120429520Y14132151D01*
X120419030Y14154329D01*
X120410765Y14177429D01*
X120404804Y14201227D01*
X120401204Y14225496D01*
X120400000Y14250000D01*
X120400000Y14750000D01*
X120401204Y14774504D01*
X120404804Y14798773D01*
X120410765Y14822571D01*
X120419030Y14845671D01*
X120429520Y14867849D01*
X120442133Y14888893D01*
X120456747Y14908598D01*
X120473223Y14926777D01*
X120491402Y14943253D01*
X120511107Y14957867D01*
X120532151Y14970480D01*
X120554329Y14980970D01*
X120577429Y14989235D01*
X120601227Y14995196D01*
X120625496Y14998796D01*
X120650000Y15000000D01*
X123650000Y15000000D01*
X123674504Y14998796D01*
G37*
G36*
X123674504Y12998796D02*
G01*
X123698773Y12995196D01*
X123722571Y12989235D01*
X123745671Y12980970D01*
X123767849Y12970480D01*
X123788893Y12957867D01*
X123808598Y12943253D01*
X123826777Y12926777D01*
X123843253Y12908598D01*
X123857867Y12888893D01*
X123870480Y12867849D01*
X123880970Y12845671D01*
X123889235Y12822571D01*
X123895196Y12798773D01*
X123898796Y12774504D01*
X123900000Y12750000D01*
X123900000Y12250000D01*
X123898796Y12225496D01*
X123895196Y12201227D01*
X123889235Y12177429D01*
X123880970Y12154329D01*
X123870480Y12132151D01*
X123857867Y12111107D01*
X123843253Y12091402D01*
X123826777Y12073223D01*
X123808598Y12056747D01*
X123788893Y12042133D01*
X123767849Y12029520D01*
X123745671Y12019030D01*
X123722571Y12010765D01*
X123698773Y12004804D01*
X123674504Y12001204D01*
X123650000Y12000000D01*
X120650000Y12000000D01*
X120625496Y12001204D01*
X120601227Y12004804D01*
X120577429Y12010765D01*
X120554329Y12019030D01*
X120532151Y12029520D01*
X120511107Y12042133D01*
X120491402Y12056747D01*
X120473223Y12073223D01*
X120456747Y12091402D01*
X120442133Y12111107D01*
X120429520Y12132151D01*
X120419030Y12154329D01*
X120410765Y12177429D01*
X120404804Y12201227D01*
X120401204Y12225496D01*
X120400000Y12250000D01*
X120400000Y12750000D01*
X120401204Y12774504D01*
X120404804Y12798773D01*
X120410765Y12822571D01*
X120419030Y12845671D01*
X120429520Y12867849D01*
X120442133Y12888893D01*
X120456747Y12908598D01*
X120473223Y12926777D01*
X120491402Y12943253D01*
X120511107Y12957867D01*
X120532151Y12970480D01*
X120554329Y12980970D01*
X120577429Y12989235D01*
X120601227Y12995196D01*
X120625496Y12998796D01*
X120650000Y13000000D01*
X123650000Y13000000D01*
X123674504Y12998796D01*
G37*
G36*
X123674504Y10998796D02*
G01*
X123698773Y10995196D01*
X123722571Y10989235D01*
X123745671Y10980970D01*
X123767849Y10970480D01*
X123788893Y10957867D01*
X123808598Y10943253D01*
X123826777Y10926777D01*
X123843253Y10908598D01*
X123857867Y10888893D01*
X123870480Y10867849D01*
X123880970Y10845671D01*
X123889235Y10822571D01*
X123895196Y10798773D01*
X123898796Y10774504D01*
X123900000Y10750000D01*
X123900000Y10250000D01*
X123898796Y10225496D01*
X123895196Y10201227D01*
X123889235Y10177429D01*
X123880970Y10154329D01*
X123870480Y10132151D01*
X123857867Y10111107D01*
X123843253Y10091402D01*
X123826777Y10073223D01*
X123808598Y10056747D01*
X123788893Y10042133D01*
X123767849Y10029520D01*
X123745671Y10019030D01*
X123722571Y10010765D01*
X123698773Y10004804D01*
X123674504Y10001204D01*
X123650000Y10000000D01*
X120650000Y10000000D01*
X120625496Y10001204D01*
X120601227Y10004804D01*
X120577429Y10010765D01*
X120554329Y10019030D01*
X120532151Y10029520D01*
X120511107Y10042133D01*
X120491402Y10056747D01*
X120473223Y10073223D01*
X120456747Y10091402D01*
X120442133Y10111107D01*
X120429520Y10132151D01*
X120419030Y10154329D01*
X120410765Y10177429D01*
X120404804Y10201227D01*
X120401204Y10225496D01*
X120400000Y10250000D01*
X120400000Y10750000D01*
X120401204Y10774504D01*
X120404804Y10798773D01*
X120410765Y10822571D01*
X120419030Y10845671D01*
X120429520Y10867849D01*
X120442133Y10888893D01*
X120456747Y10908598D01*
X120473223Y10926777D01*
X120491402Y10943253D01*
X120511107Y10957867D01*
X120532151Y10970480D01*
X120554329Y10980970D01*
X120577429Y10989235D01*
X120601227Y10995196D01*
X120625496Y10998796D01*
X120650000Y11000000D01*
X123650000Y11000000D01*
X123674504Y10998796D01*
G37*
D11*
X42800000Y6570000D03*
X42800000Y5030000D03*
X40300000Y6570000D03*
X40300000Y5030000D03*
D12*
X89900000Y48640000D03*
X89900000Y45360000D03*
D13*
X62840000Y27900000D03*
X59560000Y27900000D03*
X77940000Y27900000D03*
X74660000Y27900000D03*
D14*
X122205000Y40600000D03*
X122205000Y41400000D03*
X122205000Y42750000D03*
X122205000Y43750000D03*
X122205000Y44250000D03*
X122205000Y45250000D03*
X122205000Y46600000D03*
X122205000Y47400000D03*
X122205000Y47100000D03*
X122205000Y46300000D03*
X122200000Y45750000D03*
X122205000Y44750000D03*
X122205000Y43250000D03*
X122205000Y42250000D03*
X122205000Y41700000D03*
X122205000Y40900000D03*
D15*
X113000000Y36450000D03*
X113000000Y46350000D03*
D16*
X91310000Y28300000D03*
X93090000Y28300000D03*
X86510000Y28300000D03*
X88290000Y28300000D03*
D17*
X87600000Y36610000D03*
X87600000Y38390000D03*
D18*
X124800000Y34975000D03*
X124800000Y32025000D03*
X109300000Y29425000D03*
X109300000Y32375000D03*
D19*
X99925000Y47000000D03*
X102875000Y47000000D03*
X47025000Y30300000D03*
X49975000Y30300000D03*
D20*
X45000000Y15600000D03*
D21*
X119300000Y51500000D03*
D20*
X41000000Y15600000D03*
D22*
X2010000Y15900000D03*
X4990000Y15900000D03*
X20310000Y5800000D03*
X23290000Y5800000D03*
X49990000Y22400000D03*
X47010000Y22400000D03*
D23*
X2870000Y20600000D03*
X4140000Y20600000D03*
X5410000Y20600000D03*
X6680000Y20600000D03*
X7950000Y20600000D03*
X9220000Y20600000D03*
X10490000Y20600000D03*
X11760000Y20600000D03*
X13030000Y20600000D03*
X14300000Y20600000D03*
X15570000Y20600000D03*
X16840000Y20600000D03*
X18110000Y20600000D03*
X19380000Y20600000D03*
X2870000Y38600000D03*
X19380000Y38600000D03*
X18110000Y38600000D03*
X16840000Y38600000D03*
X15570000Y38600000D03*
X14300000Y38600000D03*
X13030000Y38600000D03*
X11760000Y38600000D03*
X10490000Y38600000D03*
X9220000Y38600000D03*
X7950000Y38600000D03*
X6680000Y38600000D03*
X5410000Y38600000D03*
X4140000Y38600000D03*
D24*
X20870000Y23885000D03*
X20870000Y25170000D03*
X20870000Y26425000D03*
X20870000Y27695000D03*
X20870000Y28965000D03*
X20870000Y30235000D03*
X20870000Y31505000D03*
X20870000Y32775000D03*
X20870000Y34045000D03*
X20870000Y35315000D03*
D25*
X8740000Y26270000D03*
X8740000Y28100000D03*
X8740000Y29930000D03*
X10570000Y26270000D03*
X10570000Y28100000D03*
X10570000Y29930000D03*
X12400000Y26270000D03*
X12400000Y28100000D03*
X12400000Y29930000D03*
D11*
X44800000Y25070000D03*
X44800000Y23530000D03*
D26*
X112230000Y53500000D03*
X113770000Y53500000D03*
D11*
X11100000Y7930000D03*
X11100000Y9470000D03*
D26*
X3430000Y13200000D03*
X4970000Y13200000D03*
D11*
X122200000Y27670000D03*
X122200000Y26130000D03*
X111900000Y51470000D03*
X111900000Y49930000D03*
D26*
X59070000Y32100000D03*
X57530000Y32100000D03*
X74170000Y32100000D03*
X72630000Y32100000D03*
X94670000Y54100000D03*
X93130000Y54100000D03*
D27*
X74600000Y34400000D03*
X74100000Y34400000D03*
X73600000Y34400000D03*
X73100000Y34400000D03*
X72600000Y34400000D03*
X72600000Y38800000D03*
X73100000Y38800000D03*
X73600000Y38800000D03*
X74100000Y38800000D03*
X74600000Y38800000D03*
X118350000Y29100000D03*
X118850000Y29100000D03*
X119350000Y29100000D03*
X119850000Y29100000D03*
X120350000Y29100000D03*
X120350000Y24700000D03*
X119850000Y24700000D03*
X119350000Y24700000D03*
X118850000Y24700000D03*
X118350000Y24700000D03*
X59500000Y34400000D03*
X59000000Y34400000D03*
X58500000Y34400000D03*
X58000000Y34400000D03*
X57500000Y34400000D03*
X57500000Y38800000D03*
X58000000Y38800000D03*
X58500000Y38800000D03*
X59000000Y38800000D03*
X59500000Y38800000D03*
D28*
X91300000Y30900000D03*
D29*
X89800000Y33400000D03*
D30*
X89800000Y31000000D03*
D28*
X88300000Y30900000D03*
D31*
X62800000Y35390000D03*
X62800000Y32410000D03*
X77900000Y35390000D03*
X77900000Y32410000D03*
D32*
X23450000Y9400000D03*
X20950000Y8450000D03*
X20950000Y10350000D03*
X90450000Y43300000D03*
X92950000Y44250000D03*
X92950000Y42350000D03*
D33*
X57700000Y27250000D03*
X58650000Y24750000D03*
X56750000Y24750000D03*
X72800000Y27250000D03*
X73750000Y24750000D03*
X71850000Y24750000D03*
X7800000Y5950000D03*
X6850000Y8450000D03*
X8750000Y8450000D03*
D10*
G36*
X100224504Y42198796D02*
G01*
X100248773Y42195196D01*
X100272571Y42189235D01*
X100295671Y42180970D01*
X100317849Y42170480D01*
X100338893Y42157867D01*
X100358598Y42143253D01*
X100376777Y42126777D01*
X100393253Y42108598D01*
X100407867Y42088893D01*
X100420480Y42067849D01*
X100430970Y42045671D01*
X100439235Y42022571D01*
X100445196Y41998773D01*
X100448796Y41974504D01*
X100450000Y41950000D01*
X100450000Y40850000D01*
X100448796Y40825496D01*
X100445196Y40801227D01*
X100439235Y40777429D01*
X100430970Y40754329D01*
X100420480Y40732151D01*
X100407867Y40711107D01*
X100393253Y40691402D01*
X100376777Y40673223D01*
X100358598Y40656747D01*
X100338893Y40642133D01*
X100317849Y40629520D01*
X100295671Y40619030D01*
X100272571Y40610765D01*
X100248773Y40604804D01*
X100224504Y40601204D01*
X100200000Y40600000D01*
X97200000Y40600000D01*
X97175496Y40601204D01*
X97151227Y40604804D01*
X97127429Y40610765D01*
X97104329Y40619030D01*
X97082151Y40629520D01*
X97061107Y40642133D01*
X97041402Y40656747D01*
X97023223Y40673223D01*
X97006747Y40691402D01*
X96992133Y40711107D01*
X96979520Y40732151D01*
X96969030Y40754329D01*
X96960765Y40777429D01*
X96954804Y40801227D01*
X96951204Y40825496D01*
X96950000Y40850000D01*
X96950000Y41950000D01*
X96951204Y41974504D01*
X96954804Y41998773D01*
X96960765Y42022571D01*
X96969030Y42045671D01*
X96979520Y42067849D01*
X96992133Y42088893D01*
X97006747Y42108598D01*
X97023223Y42126777D01*
X97041402Y42143253D01*
X97061107Y42157867D01*
X97082151Y42170480D01*
X97104329Y42180970D01*
X97127429Y42189235D01*
X97151227Y42195196D01*
X97175496Y42198796D01*
X97200000Y42200000D01*
X100200000Y42200000D01*
X100224504Y42198796D01*
G37*
G36*
X105624504Y42198796D02*
G01*
X105648773Y42195196D01*
X105672571Y42189235D01*
X105695671Y42180970D01*
X105717849Y42170480D01*
X105738893Y42157867D01*
X105758598Y42143253D01*
X105776777Y42126777D01*
X105793253Y42108598D01*
X105807867Y42088893D01*
X105820480Y42067849D01*
X105830970Y42045671D01*
X105839235Y42022571D01*
X105845196Y41998773D01*
X105848796Y41974504D01*
X105850000Y41950000D01*
X105850000Y40850000D01*
X105848796Y40825496D01*
X105845196Y40801227D01*
X105839235Y40777429D01*
X105830970Y40754329D01*
X105820480Y40732151D01*
X105807867Y40711107D01*
X105793253Y40691402D01*
X105776777Y40673223D01*
X105758598Y40656747D01*
X105738893Y40642133D01*
X105717849Y40629520D01*
X105695671Y40619030D01*
X105672571Y40610765D01*
X105648773Y40604804D01*
X105624504Y40601204D01*
X105600000Y40600000D01*
X102600000Y40600000D01*
X102575496Y40601204D01*
X102551227Y40604804D01*
X102527429Y40610765D01*
X102504329Y40619030D01*
X102482151Y40629520D01*
X102461107Y40642133D01*
X102441402Y40656747D01*
X102423223Y40673223D01*
X102406747Y40691402D01*
X102392133Y40711107D01*
X102379520Y40732151D01*
X102369030Y40754329D01*
X102360765Y40777429D01*
X102354804Y40801227D01*
X102351204Y40825496D01*
X102350000Y40850000D01*
X102350000Y41950000D01*
X102351204Y41974504D01*
X102354804Y41998773D01*
X102360765Y42022571D01*
X102369030Y42045671D01*
X102379520Y42067849D01*
X102392133Y42088893D01*
X102406747Y42108598D01*
X102423223Y42126777D01*
X102441402Y42143253D01*
X102461107Y42157867D01*
X102482151Y42170480D01*
X102504329Y42180970D01*
X102527429Y42189235D01*
X102551227Y42195196D01*
X102575496Y42198796D01*
X102600000Y42200000D01*
X105600000Y42200000D01*
X105624504Y42198796D01*
G37*
D34*
X106400000Y53200000D03*
D35*
X107035000Y50600000D03*
X105765000Y50600000D03*
X108305000Y50600000D03*
X104495000Y55800000D03*
X104495000Y50600000D03*
X107035000Y55800000D03*
X108305000Y55800000D03*
X105765000Y55800000D03*
D11*
X49400000Y37570000D03*
X49400000Y36030000D03*
X51400000Y37570000D03*
X51400000Y36030000D03*
D26*
X8570000Y10600000D03*
X7030000Y10600000D03*
D11*
X25700000Y8630000D03*
X25700000Y10170000D03*
X18700000Y8630000D03*
X18700000Y10170000D03*
X47400000Y36030000D03*
X47400000Y37570000D03*
D22*
X117110000Y32000000D03*
X120090000Y32000000D03*
D11*
X112800000Y30130000D03*
X112800000Y31670000D03*
X114100000Y51470000D03*
X114100000Y49930000D03*
X94800000Y42530000D03*
X94800000Y44070000D03*
X87600000Y46230000D03*
X87600000Y47770000D03*
D26*
X56930000Y22900000D03*
X58470000Y22900000D03*
X60430000Y30000000D03*
X61970000Y30000000D03*
D11*
X55400000Y36030000D03*
X55400000Y37570000D03*
D26*
X72030000Y22900000D03*
X73570000Y22900000D03*
X75530000Y30000000D03*
X77070000Y30000000D03*
D11*
X53400000Y36030000D03*
X53400000Y37570000D03*
X44800000Y28670000D03*
X44800000Y27130000D03*
D26*
X89130000Y54100000D03*
X90670000Y54100000D03*
D36*
X92400000Y47975000D03*
X92400000Y47325000D03*
X92400000Y46675000D03*
X92400000Y46025000D03*
D37*
X95480000Y46025000D03*
X95480000Y46675000D03*
X95480000Y47325000D03*
X95480000Y47975000D03*
D38*
X94355000Y47000000D03*
D39*
X63475000Y26100000D03*
X62825000Y26100000D03*
X62175000Y26100000D03*
X61525000Y26100000D03*
D40*
X61525000Y23020000D03*
X62175000Y23020000D03*
X62825000Y23020000D03*
X63475000Y23020000D03*
D41*
X62500000Y24145000D03*
D39*
X78625000Y26100000D03*
X77975000Y26100000D03*
X77325000Y26100000D03*
X76675000Y26100000D03*
D40*
X76675000Y23020000D03*
X77325000Y23020000D03*
X77975000Y23020000D03*
X78625000Y23020000D03*
D41*
X77650000Y24145000D03*
D17*
X92000000Y38390000D03*
X92000000Y36610000D03*
D42*
X28400000Y5800000D03*
X32600000Y5800000D03*
X62850000Y6500000D03*
X67050000Y6500000D03*
X78000000Y6500000D03*
X82200000Y6500000D03*
D10*
G36*
X100224504Y33798796D02*
G01*
X100248773Y33795196D01*
X100272571Y33789235D01*
X100295671Y33780970D01*
X100317849Y33770480D01*
X100338893Y33757867D01*
X100358598Y33743253D01*
X100376777Y33726777D01*
X100393253Y33708598D01*
X100407867Y33688893D01*
X100420480Y33667849D01*
X100430970Y33645671D01*
X100439235Y33622571D01*
X100445196Y33598773D01*
X100448796Y33574504D01*
X100450000Y33550000D01*
X100450000Y32450000D01*
X100448796Y32425496D01*
X100445196Y32401227D01*
X100439235Y32377429D01*
X100430970Y32354329D01*
X100420480Y32332151D01*
X100407867Y32311107D01*
X100393253Y32291402D01*
X100376777Y32273223D01*
X100358598Y32256747D01*
X100338893Y32242133D01*
X100317849Y32229520D01*
X100295671Y32219030D01*
X100272571Y32210765D01*
X100248773Y32204804D01*
X100224504Y32201204D01*
X100200000Y32200000D01*
X97200000Y32200000D01*
X97175496Y32201204D01*
X97151227Y32204804D01*
X97127429Y32210765D01*
X97104329Y32219030D01*
X97082151Y32229520D01*
X97061107Y32242133D01*
X97041402Y32256747D01*
X97023223Y32273223D01*
X97006747Y32291402D01*
X96992133Y32311107D01*
X96979520Y32332151D01*
X96969030Y32354329D01*
X96960765Y32377429D01*
X96954804Y32401227D01*
X96951204Y32425496D01*
X96950000Y32450000D01*
X96950000Y33550000D01*
X96951204Y33574504D01*
X96954804Y33598773D01*
X96960765Y33622571D01*
X96969030Y33645671D01*
X96979520Y33667849D01*
X96992133Y33688893D01*
X97006747Y33708598D01*
X97023223Y33726777D01*
X97041402Y33743253D01*
X97061107Y33757867D01*
X97082151Y33770480D01*
X97104329Y33780970D01*
X97127429Y33789235D01*
X97151227Y33795196D01*
X97175496Y33798796D01*
X97200000Y33800000D01*
X100200000Y33800000D01*
X100224504Y33798796D01*
G37*
G36*
X105624504Y33798796D02*
G01*
X105648773Y33795196D01*
X105672571Y33789235D01*
X105695671Y33780970D01*
X105717849Y33770480D01*
X105738893Y33757867D01*
X105758598Y33743253D01*
X105776777Y33726777D01*
X105793253Y33708598D01*
X105807867Y33688893D01*
X105820480Y33667849D01*
X105830970Y33645671D01*
X105839235Y33622571D01*
X105845196Y33598773D01*
X105848796Y33574504D01*
X105850000Y33550000D01*
X105850000Y32450000D01*
X105848796Y32425496D01*
X105845196Y32401227D01*
X105839235Y32377429D01*
X105830970Y32354329D01*
X105820480Y32332151D01*
X105807867Y32311107D01*
X105793253Y32291402D01*
X105776777Y32273223D01*
X105758598Y32256747D01*
X105738893Y32242133D01*
X105717849Y32229520D01*
X105695671Y32219030D01*
X105672571Y32210765D01*
X105648773Y32204804D01*
X105624504Y32201204D01*
X105600000Y32200000D01*
X102600000Y32200000D01*
X102575496Y32201204D01*
X102551227Y32204804D01*
X102527429Y32210765D01*
X102504329Y32219030D01*
X102482151Y32229520D01*
X102461107Y32242133D01*
X102441402Y32256747D01*
X102423223Y32273223D01*
X102406747Y32291402D01*
X102392133Y32311107D01*
X102379520Y32332151D01*
X102369030Y32354329D01*
X102360765Y32377429D01*
X102354804Y32401227D01*
X102351204Y32425496D01*
X102350000Y32450000D01*
X102350000Y33550000D01*
X102351204Y33574504D01*
X102354804Y33598773D01*
X102360765Y33622571D01*
X102369030Y33645671D01*
X102379520Y33667849D01*
X102392133Y33688893D01*
X102406747Y33708598D01*
X102423223Y33726777D01*
X102441402Y33743253D01*
X102461107Y33757867D01*
X102482151Y33770480D01*
X102504329Y33780970D01*
X102527429Y33789235D01*
X102551227Y33795196D01*
X102575496Y33798796D01*
X102600000Y33800000D01*
X105600000Y33800000D01*
X105624504Y33798796D01*
G37*
D43*
X68004350Y11600000D03*
X61895650Y11600000D03*
X83104350Y11600000D03*
X76995650Y11600000D03*
D44*
X46900000Y27300000D03*
X46900000Y26500000D03*
X46900000Y25700000D03*
X46900000Y24900000D03*
X50100000Y24900000D03*
X50100000Y25700000D03*
X50100000Y26500000D03*
X50100000Y27300000D03*
D45*
X14600000Y6475000D03*
X14600000Y10925000D03*
M02*
